<?xml version="1.0" encoding="utf-8" standalone="no"?>
<!DOCTYPE svg PUBLIC "-//W3C//DTD SVG 1.1//EN"
  "http://www.w3.org/Graphics/SVG/1.1/DTD/svg11.dtd">
<svg height="345.6pt" version="1.1" viewBox="0 0 460.8 345.6" width="460.8pt" xmlns="http://www.w3.org/2000/svg" xmlns:xlink="http://www.w3.org/1999/xlink">
 <metadata>
  <rdf:RDF xmlns:cc="http://creativecommons.org/ns#" xmlns:dc="http://purl.org/dc/elements/1.1/" xmlns:rdf="http://www.w3.org/1999/02/22-rdf-syntax-ns#">
   <cc:Work>
    <dc:type rdf:resource="http://purl.org/dc/dcmitype/StillImage"/>
    <dc:date>2021-11-23T18:47:18.723641</dc:date>
    <dc:format>image/svg+xml</dc:format>
    <dc:creator>
     <cc:Agent>
      <dc:title>Matplotlib v3.4.3, https://matplotlib.org/</dc:title>
     </cc:Agent>
    </dc:creator>
   </cc:Work>
  </rdf:RDF>
 </metadata>
 <defs>
  <style type="text/css">*{stroke-linecap:butt;stroke-linejoin:round;}</style>
 </defs>
 <g id="figure_1">
  <g id="patch_1">
   <path d="M 0 345.6 
L 460.8 345.6 
L 460.8 0 
L 0 0 
z
" style="fill:#ffffff;"/>
  </g>
  <g id="axes_1">
   <g id="patch_2">
    <path d="M 57.6 307.584 
L 414.72 307.584 
L 414.72 41.472 
L 57.6 41.472 
z
" style="fill:#ffffff;"/>
   </g>
   <g id="matplotlib.axis_1">
    <g id="xtick_1">
     <g id="line2d_1">
      <defs>
       <path d="M 0 0 
L 0 3.5 
" id="m50bf892090" style="stroke:#000000;stroke-width:0.8;"/>
      </defs>
      <g>
       <use style="stroke:#000000;stroke-width:0.8;" x="125.093971" xlink:href="#m50bf892090" y="307.584"/>
      </g>
     </g>
     <g id="text_1">
      <!-- 1000 -->
      <g transform="translate(112.368971 322.182437)scale(0.1 -0.1)">
       <defs>
        <path d="M 794 531 
L 1825 531 
L 1825 4091 
L 703 3866 
L 703 4441 
L 1819 4666 
L 2450 4666 
L 2450 531 
L 3481 531 
L 3481 0 
L 794 0 
L 794 531 
z
" id="DejaVuSans-31" transform="scale(0.015625)"/>
        <path d="M 2034 4250 
Q 1547 4250 1301 3770 
Q 1056 3291 1056 2328 
Q 1056 1369 1301 889 
Q 1547 409 2034 409 
Q 2525 409 2770 889 
Q 3016 1369 3016 2328 
Q 3016 3291 2770 3770 
Q 2525 4250 2034 4250 
z
M 2034 4750 
Q 2819 4750 3233 4129 
Q 3647 3509 3647 2328 
Q 3647 1150 3233 529 
Q 2819 -91 2034 -91 
Q 1250 -91 836 529 
Q 422 1150 422 2328 
Q 422 3509 836 4129 
Q 1250 4750 2034 4750 
z
" id="DejaVuSans-30" transform="scale(0.015625)"/>
       </defs>
       <use xlink:href="#DejaVuSans-31"/>
       <use x="63.623047" xlink:href="#DejaVuSans-30"/>
       <use x="127.246094" xlink:href="#DejaVuSans-30"/>
       <use x="190.869141" xlink:href="#DejaVuSans-30"/>
      </g>
     </g>
    </g>
    <g id="xtick_2">
     <g id="line2d_2">
      <g>
       <use style="stroke:#000000;stroke-width:0.8;" x="193.442297" xlink:href="#m50bf892090" y="307.584"/>
      </g>
     </g>
     <g id="text_2">
      <!-- 2000 -->
      <g transform="translate(180.717297 322.182437)scale(0.1 -0.1)">
       <defs>
        <path d="M 1228 531 
L 3431 531 
L 3431 0 
L 469 0 
L 469 531 
Q 828 903 1448 1529 
Q 2069 2156 2228 2338 
Q 2531 2678 2651 2914 
Q 2772 3150 2772 3378 
Q 2772 3750 2511 3984 
Q 2250 4219 1831 4219 
Q 1534 4219 1204 4116 
Q 875 4013 500 3803 
L 500 4441 
Q 881 4594 1212 4672 
Q 1544 4750 1819 4750 
Q 2544 4750 2975 4387 
Q 3406 4025 3406 3419 
Q 3406 3131 3298 2873 
Q 3191 2616 2906 2266 
Q 2828 2175 2409 1742 
Q 1991 1309 1228 531 
z
" id="DejaVuSans-32" transform="scale(0.015625)"/>
       </defs>
       <use xlink:href="#DejaVuSans-32"/>
       <use x="63.623047" xlink:href="#DejaVuSans-30"/>
       <use x="127.246094" xlink:href="#DejaVuSans-30"/>
       <use x="190.869141" xlink:href="#DejaVuSans-30"/>
      </g>
     </g>
    </g>
    <g id="xtick_3">
     <g id="line2d_3">
      <g>
       <use style="stroke:#000000;stroke-width:0.8;" x="261.790622" xlink:href="#m50bf892090" y="307.584"/>
      </g>
     </g>
     <g id="text_3">
      <!-- 3000 -->
      <g transform="translate(249.065622 322.182437)scale(0.1 -0.1)">
       <defs>
        <path d="M 2597 2516 
Q 3050 2419 3304 2112 
Q 3559 1806 3559 1356 
Q 3559 666 3084 287 
Q 2609 -91 1734 -91 
Q 1441 -91 1130 -33 
Q 819 25 488 141 
L 488 750 
Q 750 597 1062 519 
Q 1375 441 1716 441 
Q 2309 441 2620 675 
Q 2931 909 2931 1356 
Q 2931 1769 2642 2001 
Q 2353 2234 1838 2234 
L 1294 2234 
L 1294 2753 
L 1863 2753 
Q 2328 2753 2575 2939 
Q 2822 3125 2822 3475 
Q 2822 3834 2567 4026 
Q 2313 4219 1838 4219 
Q 1578 4219 1281 4162 
Q 984 4106 628 3988 
L 628 4550 
Q 988 4650 1302 4700 
Q 1616 4750 1894 4750 
Q 2613 4750 3031 4423 
Q 3450 4097 3450 3541 
Q 3450 3153 3228 2886 
Q 3006 2619 2597 2516 
z
" id="DejaVuSans-33" transform="scale(0.015625)"/>
       </defs>
       <use xlink:href="#DejaVuSans-33"/>
       <use x="63.623047" xlink:href="#DejaVuSans-30"/>
       <use x="127.246094" xlink:href="#DejaVuSans-30"/>
       <use x="190.869141" xlink:href="#DejaVuSans-30"/>
      </g>
     </g>
    </g>
    <g id="xtick_4">
     <g id="line2d_4">
      <g>
       <use style="stroke:#000000;stroke-width:0.8;" x="330.138947" xlink:href="#m50bf892090" y="307.584"/>
      </g>
     </g>
     <g id="text_4">
      <!-- 4000 -->
      <g transform="translate(317.413947 322.182437)scale(0.1 -0.1)">
       <defs>
        <path d="M 2419 4116 
L 825 1625 
L 2419 1625 
L 2419 4116 
z
M 2253 4666 
L 3047 4666 
L 3047 1625 
L 3713 1625 
L 3713 1100 
L 3047 1100 
L 3047 0 
L 2419 0 
L 2419 1100 
L 313 1100 
L 313 1709 
L 2253 4666 
z
" id="DejaVuSans-34" transform="scale(0.015625)"/>
       </defs>
       <use xlink:href="#DejaVuSans-34"/>
       <use x="63.623047" xlink:href="#DejaVuSans-30"/>
       <use x="127.246094" xlink:href="#DejaVuSans-30"/>
       <use x="190.869141" xlink:href="#DejaVuSans-30"/>
      </g>
     </g>
    </g>
    <g id="xtick_5">
     <g id="line2d_5">
      <g>
       <use style="stroke:#000000;stroke-width:0.8;" x="398.487273" xlink:href="#m50bf892090" y="307.584"/>
      </g>
     </g>
     <g id="text_5">
      <!-- 5000 -->
      <g transform="translate(385.762273 322.182437)scale(0.1 -0.1)">
       <defs>
        <path d="M 691 4666 
L 3169 4666 
L 3169 4134 
L 1269 4134 
L 1269 2991 
Q 1406 3038 1543 3061 
Q 1681 3084 1819 3084 
Q 2600 3084 3056 2656 
Q 3513 2228 3513 1497 
Q 3513 744 3044 326 
Q 2575 -91 1722 -91 
Q 1428 -91 1123 -41 
Q 819 9 494 109 
L 494 744 
Q 775 591 1075 516 
Q 1375 441 1709 441 
Q 2250 441 2565 725 
Q 2881 1009 2881 1497 
Q 2881 1984 2565 2268 
Q 2250 2553 1709 2553 
Q 1456 2553 1204 2497 
Q 953 2441 691 2322 
L 691 4666 
z
" id="DejaVuSans-35" transform="scale(0.015625)"/>
       </defs>
       <use xlink:href="#DejaVuSans-35"/>
       <use x="63.623047" xlink:href="#DejaVuSans-30"/>
       <use x="127.246094" xlink:href="#DejaVuSans-30"/>
       <use x="190.869141" xlink:href="#DejaVuSans-30"/>
      </g>
     </g>
    </g>
    <g id="text_6">
     <!-- Batch -->
     <g transform="translate(221.787344 335.860562)scale(0.1 -0.1)">
      <defs>
       <path d="M 1259 2228 
L 1259 519 
L 2272 519 
Q 2781 519 3026 730 
Q 3272 941 3272 1375 
Q 3272 1813 3026 2020 
Q 2781 2228 2272 2228 
L 1259 2228 
z
M 1259 4147 
L 1259 2741 
L 2194 2741 
Q 2656 2741 2882 2914 
Q 3109 3088 3109 3444 
Q 3109 3797 2882 3972 
Q 2656 4147 2194 4147 
L 1259 4147 
z
M 628 4666 
L 2241 4666 
Q 2963 4666 3353 4366 
Q 3744 4066 3744 3513 
Q 3744 3084 3544 2831 
Q 3344 2578 2956 2516 
Q 3422 2416 3680 2098 
Q 3938 1781 3938 1306 
Q 3938 681 3513 340 
Q 3088 0 2303 0 
L 628 0 
L 628 4666 
z
" id="DejaVuSans-42" transform="scale(0.015625)"/>
       <path d="M 2194 1759 
Q 1497 1759 1228 1600 
Q 959 1441 959 1056 
Q 959 750 1161 570 
Q 1363 391 1709 391 
Q 2188 391 2477 730 
Q 2766 1069 2766 1631 
L 2766 1759 
L 2194 1759 
z
M 3341 1997 
L 3341 0 
L 2766 0 
L 2766 531 
Q 2569 213 2275 61 
Q 1981 -91 1556 -91 
Q 1019 -91 701 211 
Q 384 513 384 1019 
Q 384 1609 779 1909 
Q 1175 2209 1959 2209 
L 2766 2209 
L 2766 2266 
Q 2766 2663 2505 2880 
Q 2244 3097 1772 3097 
Q 1472 3097 1187 3025 
Q 903 2953 641 2809 
L 641 3341 
Q 956 3463 1253 3523 
Q 1550 3584 1831 3584 
Q 2591 3584 2966 3190 
Q 3341 2797 3341 1997 
z
" id="DejaVuSans-61" transform="scale(0.015625)"/>
       <path d="M 1172 4494 
L 1172 3500 
L 2356 3500 
L 2356 3053 
L 1172 3053 
L 1172 1153 
Q 1172 725 1289 603 
Q 1406 481 1766 481 
L 2356 481 
L 2356 0 
L 1766 0 
Q 1100 0 847 248 
Q 594 497 594 1153 
L 594 3053 
L 172 3053 
L 172 3500 
L 594 3500 
L 594 4494 
L 1172 4494 
z
" id="DejaVuSans-74" transform="scale(0.015625)"/>
       <path d="M 3122 3366 
L 3122 2828 
Q 2878 2963 2633 3030 
Q 2388 3097 2138 3097 
Q 1578 3097 1268 2742 
Q 959 2388 959 1747 
Q 959 1106 1268 751 
Q 1578 397 2138 397 
Q 2388 397 2633 464 
Q 2878 531 3122 666 
L 3122 134 
Q 2881 22 2623 -34 
Q 2366 -91 2075 -91 
Q 1284 -91 818 406 
Q 353 903 353 1747 
Q 353 2603 823 3093 
Q 1294 3584 2113 3584 
Q 2378 3584 2631 3529 
Q 2884 3475 3122 3366 
z
" id="DejaVuSans-63" transform="scale(0.015625)"/>
       <path d="M 3513 2113 
L 3513 0 
L 2938 0 
L 2938 2094 
Q 2938 2591 2744 2837 
Q 2550 3084 2163 3084 
Q 1697 3084 1428 2787 
Q 1159 2491 1159 1978 
L 1159 0 
L 581 0 
L 581 4863 
L 1159 4863 
L 1159 2956 
Q 1366 3272 1645 3428 
Q 1925 3584 2291 3584 
Q 2894 3584 3203 3211 
Q 3513 2838 3513 2113 
z
" id="DejaVuSans-68" transform="scale(0.015625)"/>
      </defs>
      <use xlink:href="#DejaVuSans-42"/>
      <use x="68.603516" xlink:href="#DejaVuSans-61"/>
      <use x="129.882812" xlink:href="#DejaVuSans-74"/>
      <use x="169.091797" xlink:href="#DejaVuSans-63"/>
      <use x="224.072266" xlink:href="#DejaVuSans-68"/>
     </g>
    </g>
   </g>
   <g id="matplotlib.axis_2">
    <g id="ytick_1">
     <g id="line2d_6">
      <defs>
       <path d="M 0 0 
L -3.5 0 
" id="m6aaf5cf693" style="stroke:#000000;stroke-width:0.8;"/>
      </defs>
      <g>
       <use style="stroke:#000000;stroke-width:0.8;" x="57.6" xlink:href="#m6aaf5cf693" y="307.584"/>
      </g>
     </g>
     <g id="text_7">
      <!-- 0.4 -->
      <g transform="translate(34.696875 311.383219)scale(0.1 -0.1)">
       <defs>
        <path d="M 684 794 
L 1344 794 
L 1344 0 
L 684 0 
L 684 794 
z
" id="DejaVuSans-2e" transform="scale(0.015625)"/>
       </defs>
       <use xlink:href="#DejaVuSans-30"/>
       <use x="63.623047" xlink:href="#DejaVuSans-2e"/>
       <use x="95.410156" xlink:href="#DejaVuSans-34"/>
      </g>
     </g>
    </g>
    <g id="ytick_2">
     <g id="line2d_7">
      <g>
       <use style="stroke:#000000;stroke-width:0.8;" x="57.6" xlink:href="#m6aaf5cf693" y="263.232"/>
      </g>
     </g>
     <g id="text_8">
      <!-- 0.5 -->
      <g transform="translate(34.696875 267.031219)scale(0.1 -0.1)">
       <use xlink:href="#DejaVuSans-30"/>
       <use x="63.623047" xlink:href="#DejaVuSans-2e"/>
       <use x="95.410156" xlink:href="#DejaVuSans-35"/>
      </g>
     </g>
    </g>
    <g id="ytick_3">
     <g id="line2d_8">
      <g>
       <use style="stroke:#000000;stroke-width:0.8;" x="57.6" xlink:href="#m6aaf5cf693" y="218.88"/>
      </g>
     </g>
     <g id="text_9">
      <!-- 0.6 -->
      <g transform="translate(34.696875 222.679219)scale(0.1 -0.1)">
       <defs>
        <path d="M 2113 2584 
Q 1688 2584 1439 2293 
Q 1191 2003 1191 1497 
Q 1191 994 1439 701 
Q 1688 409 2113 409 
Q 2538 409 2786 701 
Q 3034 994 3034 1497 
Q 3034 2003 2786 2293 
Q 2538 2584 2113 2584 
z
M 3366 4563 
L 3366 3988 
Q 3128 4100 2886 4159 
Q 2644 4219 2406 4219 
Q 1781 4219 1451 3797 
Q 1122 3375 1075 2522 
Q 1259 2794 1537 2939 
Q 1816 3084 2150 3084 
Q 2853 3084 3261 2657 
Q 3669 2231 3669 1497 
Q 3669 778 3244 343 
Q 2819 -91 2113 -91 
Q 1303 -91 875 529 
Q 447 1150 447 2328 
Q 447 3434 972 4092 
Q 1497 4750 2381 4750 
Q 2619 4750 2861 4703 
Q 3103 4656 3366 4563 
z
" id="DejaVuSans-36" transform="scale(0.015625)"/>
       </defs>
       <use xlink:href="#DejaVuSans-30"/>
       <use x="63.623047" xlink:href="#DejaVuSans-2e"/>
       <use x="95.410156" xlink:href="#DejaVuSans-36"/>
      </g>
     </g>
    </g>
    <g id="ytick_4">
     <g id="line2d_9">
      <g>
       <use style="stroke:#000000;stroke-width:0.8;" x="57.6" xlink:href="#m6aaf5cf693" y="174.528"/>
      </g>
     </g>
     <g id="text_10">
      <!-- 0.7 -->
      <g transform="translate(34.696875 178.327219)scale(0.1 -0.1)">
       <defs>
        <path d="M 525 4666 
L 3525 4666 
L 3525 4397 
L 1831 0 
L 1172 0 
L 2766 4134 
L 525 4134 
L 525 4666 
z
" id="DejaVuSans-37" transform="scale(0.015625)"/>
       </defs>
       <use xlink:href="#DejaVuSans-30"/>
       <use x="63.623047" xlink:href="#DejaVuSans-2e"/>
       <use x="95.410156" xlink:href="#DejaVuSans-37"/>
      </g>
     </g>
    </g>
    <g id="ytick_5">
     <g id="line2d_10">
      <g>
       <use style="stroke:#000000;stroke-width:0.8;" x="57.6" xlink:href="#m6aaf5cf693" y="130.176"/>
      </g>
     </g>
     <g id="text_11">
      <!-- 0.8 -->
      <g transform="translate(34.696875 133.975219)scale(0.1 -0.1)">
       <defs>
        <path d="M 2034 2216 
Q 1584 2216 1326 1975 
Q 1069 1734 1069 1313 
Q 1069 891 1326 650 
Q 1584 409 2034 409 
Q 2484 409 2743 651 
Q 3003 894 3003 1313 
Q 3003 1734 2745 1975 
Q 2488 2216 2034 2216 
z
M 1403 2484 
Q 997 2584 770 2862 
Q 544 3141 544 3541 
Q 544 4100 942 4425 
Q 1341 4750 2034 4750 
Q 2731 4750 3128 4425 
Q 3525 4100 3525 3541 
Q 3525 3141 3298 2862 
Q 3072 2584 2669 2484 
Q 3125 2378 3379 2068 
Q 3634 1759 3634 1313 
Q 3634 634 3220 271 
Q 2806 -91 2034 -91 
Q 1263 -91 848 271 
Q 434 634 434 1313 
Q 434 1759 690 2068 
Q 947 2378 1403 2484 
z
M 1172 3481 
Q 1172 3119 1398 2916 
Q 1625 2713 2034 2713 
Q 2441 2713 2670 2916 
Q 2900 3119 2900 3481 
Q 2900 3844 2670 4047 
Q 2441 4250 2034 4250 
Q 1625 4250 1398 4047 
Q 1172 3844 1172 3481 
z
" id="DejaVuSans-38" transform="scale(0.015625)"/>
       </defs>
       <use xlink:href="#DejaVuSans-30"/>
       <use x="63.623047" xlink:href="#DejaVuSans-2e"/>
       <use x="95.410156" xlink:href="#DejaVuSans-38"/>
      </g>
     </g>
    </g>
    <g id="ytick_6">
     <g id="line2d_11">
      <g>
       <use style="stroke:#000000;stroke-width:0.8;" x="57.6" xlink:href="#m6aaf5cf693" y="85.824"/>
      </g>
     </g>
     <g id="text_12">
      <!-- 0.9 -->
      <g transform="translate(34.696875 89.623219)scale(0.1 -0.1)">
       <defs>
        <path d="M 703 97 
L 703 672 
Q 941 559 1184 500 
Q 1428 441 1663 441 
Q 2288 441 2617 861 
Q 2947 1281 2994 2138 
Q 2813 1869 2534 1725 
Q 2256 1581 1919 1581 
Q 1219 1581 811 2004 
Q 403 2428 403 3163 
Q 403 3881 828 4315 
Q 1253 4750 1959 4750 
Q 2769 4750 3195 4129 
Q 3622 3509 3622 2328 
Q 3622 1225 3098 567 
Q 2575 -91 1691 -91 
Q 1453 -91 1209 -44 
Q 966 3 703 97 
z
M 1959 2075 
Q 2384 2075 2632 2365 
Q 2881 2656 2881 3163 
Q 2881 3666 2632 3958 
Q 2384 4250 1959 4250 
Q 1534 4250 1286 3958 
Q 1038 3666 1038 3163 
Q 1038 2656 1286 2365 
Q 1534 2075 1959 2075 
z
" id="DejaVuSans-39" transform="scale(0.015625)"/>
       </defs>
       <use xlink:href="#DejaVuSans-30"/>
       <use x="63.623047" xlink:href="#DejaVuSans-2e"/>
       <use x="95.410156" xlink:href="#DejaVuSans-39"/>
      </g>
     </g>
    </g>
    <g id="ytick_7">
     <g id="line2d_12">
      <g>
       <use style="stroke:#000000;stroke-width:0.8;" x="57.6" xlink:href="#m6aaf5cf693" y="41.472"/>
      </g>
     </g>
     <g id="text_13">
      <!-- 1.0 -->
      <g transform="translate(34.696875 45.271219)scale(0.1 -0.1)">
       <use xlink:href="#DejaVuSans-31"/>
       <use x="63.623047" xlink:href="#DejaVuSans-2e"/>
       <use x="95.410156" xlink:href="#DejaVuSans-30"/>
      </g>
     </g>
    </g>
    <g id="text_14">
     <!-- Mean Squared Error -->
     <g transform="translate(28.617187 224.289719)rotate(-90)scale(0.1 -0.1)">
      <defs>
       <path d="M 628 4666 
L 1569 4666 
L 2759 1491 
L 3956 4666 
L 4897 4666 
L 4897 0 
L 4281 0 
L 4281 4097 
L 3078 897 
L 2444 897 
L 1241 4097 
L 1241 0 
L 628 0 
L 628 4666 
z
" id="DejaVuSans-4d" transform="scale(0.015625)"/>
       <path d="M 3597 1894 
L 3597 1613 
L 953 1613 
Q 991 1019 1311 708 
Q 1631 397 2203 397 
Q 2534 397 2845 478 
Q 3156 559 3463 722 
L 3463 178 
Q 3153 47 2828 -22 
Q 2503 -91 2169 -91 
Q 1331 -91 842 396 
Q 353 884 353 1716 
Q 353 2575 817 3079 
Q 1281 3584 2069 3584 
Q 2775 3584 3186 3129 
Q 3597 2675 3597 1894 
z
M 3022 2063 
Q 3016 2534 2758 2815 
Q 2500 3097 2075 3097 
Q 1594 3097 1305 2825 
Q 1016 2553 972 2059 
L 3022 2063 
z
" id="DejaVuSans-65" transform="scale(0.015625)"/>
       <path d="M 3513 2113 
L 3513 0 
L 2938 0 
L 2938 2094 
Q 2938 2591 2744 2837 
Q 2550 3084 2163 3084 
Q 1697 3084 1428 2787 
Q 1159 2491 1159 1978 
L 1159 0 
L 581 0 
L 581 3500 
L 1159 3500 
L 1159 2956 
Q 1366 3272 1645 3428 
Q 1925 3584 2291 3584 
Q 2894 3584 3203 3211 
Q 3513 2838 3513 2113 
z
" id="DejaVuSans-6e" transform="scale(0.015625)"/>
       <path id="DejaVuSans-20" transform="scale(0.015625)"/>
       <path d="M 3425 4513 
L 3425 3897 
Q 3066 4069 2747 4153 
Q 2428 4238 2131 4238 
Q 1616 4238 1336 4038 
Q 1056 3838 1056 3469 
Q 1056 3159 1242 3001 
Q 1428 2844 1947 2747 
L 2328 2669 
Q 3034 2534 3370 2195 
Q 3706 1856 3706 1288 
Q 3706 609 3251 259 
Q 2797 -91 1919 -91 
Q 1588 -91 1214 -16 
Q 841 59 441 206 
L 441 856 
Q 825 641 1194 531 
Q 1563 422 1919 422 
Q 2459 422 2753 634 
Q 3047 847 3047 1241 
Q 3047 1584 2836 1778 
Q 2625 1972 2144 2069 
L 1759 2144 
Q 1053 2284 737 2584 
Q 422 2884 422 3419 
Q 422 4038 858 4394 
Q 1294 4750 2059 4750 
Q 2388 4750 2728 4690 
Q 3069 4631 3425 4513 
z
" id="DejaVuSans-53" transform="scale(0.015625)"/>
       <path d="M 947 1747 
Q 947 1113 1208 752 
Q 1469 391 1925 391 
Q 2381 391 2643 752 
Q 2906 1113 2906 1747 
Q 2906 2381 2643 2742 
Q 2381 3103 1925 3103 
Q 1469 3103 1208 2742 
Q 947 2381 947 1747 
z
M 2906 525 
Q 2725 213 2448 61 
Q 2172 -91 1784 -91 
Q 1150 -91 751 415 
Q 353 922 353 1747 
Q 353 2572 751 3078 
Q 1150 3584 1784 3584 
Q 2172 3584 2448 3432 
Q 2725 3281 2906 2969 
L 2906 3500 
L 3481 3500 
L 3481 -1331 
L 2906 -1331 
L 2906 525 
z
" id="DejaVuSans-71" transform="scale(0.015625)"/>
       <path d="M 544 1381 
L 544 3500 
L 1119 3500 
L 1119 1403 
Q 1119 906 1312 657 
Q 1506 409 1894 409 
Q 2359 409 2629 706 
Q 2900 1003 2900 1516 
L 2900 3500 
L 3475 3500 
L 3475 0 
L 2900 0 
L 2900 538 
Q 2691 219 2414 64 
Q 2138 -91 1772 -91 
Q 1169 -91 856 284 
Q 544 659 544 1381 
z
M 1991 3584 
L 1991 3584 
z
" id="DejaVuSans-75" transform="scale(0.015625)"/>
       <path d="M 2631 2963 
Q 2534 3019 2420 3045 
Q 2306 3072 2169 3072 
Q 1681 3072 1420 2755 
Q 1159 2438 1159 1844 
L 1159 0 
L 581 0 
L 581 3500 
L 1159 3500 
L 1159 2956 
Q 1341 3275 1631 3429 
Q 1922 3584 2338 3584 
Q 2397 3584 2469 3576 
Q 2541 3569 2628 3553 
L 2631 2963 
z
" id="DejaVuSans-72" transform="scale(0.015625)"/>
       <path d="M 2906 2969 
L 2906 4863 
L 3481 4863 
L 3481 0 
L 2906 0 
L 2906 525 
Q 2725 213 2448 61 
Q 2172 -91 1784 -91 
Q 1150 -91 751 415 
Q 353 922 353 1747 
Q 353 2572 751 3078 
Q 1150 3584 1784 3584 
Q 2172 3584 2448 3432 
Q 2725 3281 2906 2969 
z
M 947 1747 
Q 947 1113 1208 752 
Q 1469 391 1925 391 
Q 2381 391 2643 752 
Q 2906 1113 2906 1747 
Q 2906 2381 2643 2742 
Q 2381 3103 1925 3103 
Q 1469 3103 1208 2742 
Q 947 2381 947 1747 
z
" id="DejaVuSans-64" transform="scale(0.015625)"/>
       <path d="M 628 4666 
L 3578 4666 
L 3578 4134 
L 1259 4134 
L 1259 2753 
L 3481 2753 
L 3481 2222 
L 1259 2222 
L 1259 531 
L 3634 531 
L 3634 0 
L 628 0 
L 628 4666 
z
" id="DejaVuSans-45" transform="scale(0.015625)"/>
       <path d="M 1959 3097 
Q 1497 3097 1228 2736 
Q 959 2375 959 1747 
Q 959 1119 1226 758 
Q 1494 397 1959 397 
Q 2419 397 2687 759 
Q 2956 1122 2956 1747 
Q 2956 2369 2687 2733 
Q 2419 3097 1959 3097 
z
M 1959 3584 
Q 2709 3584 3137 3096 
Q 3566 2609 3566 1747 
Q 3566 888 3137 398 
Q 2709 -91 1959 -91 
Q 1206 -91 779 398 
Q 353 888 353 1747 
Q 353 2609 779 3096 
Q 1206 3584 1959 3584 
z
" id="DejaVuSans-6f" transform="scale(0.015625)"/>
      </defs>
      <use xlink:href="#DejaVuSans-4d"/>
      <use x="86.279297" xlink:href="#DejaVuSans-65"/>
      <use x="147.802734" xlink:href="#DejaVuSans-61"/>
      <use x="209.082031" xlink:href="#DejaVuSans-6e"/>
      <use x="272.460938" xlink:href="#DejaVuSans-20"/>
      <use x="304.248047" xlink:href="#DejaVuSans-53"/>
      <use x="367.724609" xlink:href="#DejaVuSans-71"/>
      <use x="431.201172" xlink:href="#DejaVuSans-75"/>
      <use x="494.580078" xlink:href="#DejaVuSans-61"/>
      <use x="555.859375" xlink:href="#DejaVuSans-72"/>
      <use x="594.722656" xlink:href="#DejaVuSans-65"/>
      <use x="656.246094" xlink:href="#DejaVuSans-64"/>
      <use x="719.722656" xlink:href="#DejaVuSans-20"/>
      <use x="751.509766" xlink:href="#DejaVuSans-45"/>
      <use x="814.693359" xlink:href="#DejaVuSans-72"/>
      <use x="854.056641" xlink:href="#DejaVuSans-72"/>
      <use x="892.919922" xlink:href="#DejaVuSans-6f"/>
      <use x="954.101562" xlink:href="#DejaVuSans-72"/>
     </g>
    </g>
   </g>
   <g id="line2d_13">
    <path clip-path="url(#pb29c81556e)" d="M 73.832727 197.500549 
L 90.919809 213.623115 
L 108.00689 219.749491 
L 125.093971 224.678218 
L 142.181053 226.622046 
L 159.268134 229.238323 
L 176.355215 231.35031 
L 193.442297 231.941442 
L 210.529378 230.693696 
L 227.616459 232.652592 
L 244.703541 232.908915 
L 261.790622 232.287566 
L 278.877703 234.100748 
L 295.964785 232.284976 
L 313.051866 232.831035 
L 330.138947 234.587565 
L 347.226029 233.906577 
L 364.31311 234.973581 
L 381.400191 235.198682 
L 398.487273 236.785944 
" style="fill:none;stroke:#1f77b4;stroke-linecap:square;stroke-width:1.5;"/>
   </g>
   <g id="line2d_14">
    <path clip-path="url(#pb29c81556e)" d="M 73.832727 201.511291 
L 90.919809 213.35873 
L 108.00689 217.845237 
L 125.093971 219.916116 
L 142.181053 222.235545 
L 159.268134 223.272227 
L 176.355215 224.641128 
L 193.442297 224.916616 
L 210.529378 225.656424 
L 227.616459 226.017405 
L 244.703541 225.828019 
L 261.790622 224.269969 
L 278.877703 225.47087 
L 295.964785 222.982913 
L 313.051866 224.917224 
L 330.138947 224.485262 
L 347.226029 221.465231 
L 364.31311 225.086493 
L 381.400191 226.718695 
L 398.487273 227.96052 
" style="fill:none;stroke:#ff7f0e;stroke-linecap:square;stroke-width:1.5;"/>
   </g>
   <g id="line2d_15">
    <path clip-path="url(#pb29c81556e)" d="M 73.832727 216.184986 
L 90.919809 218.683835 
L 108.00689 222.408065 
L 125.093971 224.958755 
L 142.181053 222.422817 
L 159.268134 221.827349 
L 176.355215 222.170143 
L 193.442297 225.000814 
L 210.529378 221.654326 
L 227.616459 219.978928 
L 244.703541 223.213381 
L 261.790622 223.129077 
L 278.877703 225.813109 
L 295.964785 219.416346 
L 313.051866 215.278422 
L 330.138947 213.899634 
L 347.226029 205.951272 
L 364.31311 210.830907 
L 381.400191 207.574671 
L 398.487273 201.278735 
" style="fill:none;stroke:#2ca02c;stroke-linecap:square;stroke-width:1.5;"/>
   </g>
   <g id="line2d_16">
    <path clip-path="url(#pb29c81556e)" d="M 73.832727 49.985772 
L 90.919809 92.912679 
L 108.00689 144.166614 
L 125.093971 167.010363 
L 142.181053 177.861989 
L 159.268134 186.783428 
L 176.355215 193.872387 
L 193.442297 199.29898 
L 210.529378 204.167988 
L 227.616459 208.624862 
L 244.703541 212.607872 
L 261.790622 215.860592 
L 278.877703 217.92584 
L 295.964785 219.303016 
L 313.051866 220.333591 
L 330.138947 220.902517 
L 347.226029 221.080193 
L 364.31311 221.374133 
L 381.400191 221.222047 
L 398.487273 220.8755 
" style="fill:none;stroke:#d62728;stroke-linecap:square;stroke-width:1.5;"/>
   </g>
   <g id="line2d_17">
    <path clip-path="url(#pb29c81556e)" d="M 73.832727 55.152765 
L 90.919809 104.934779 
L 108.00689 152.350123 
L 125.093971 170.887947 
L 142.181053 180.620015 
L 159.268134 189.269271 
L 176.355215 196.004677 
L 193.442297 201.378451 
L 210.529378 205.804949 
L 227.616459 209.870096 
L 244.703541 213.165008 
L 261.790622 215.552271 
L 278.877703 217.326513 
L 295.964785 218.5161 
L 313.051866 219.275866 
L 330.138947 220.080124 
L 347.226029 220.666736 
L 364.31311 220.837749 
L 381.400191 221.184588 
L 398.487273 221.275712 
" style="fill:none;stroke:#9467bd;stroke-linecap:square;stroke-width:1.5;"/>
   </g>
   <g id="line2d_18">
    <path clip-path="url(#pb29c81556e)" d="M 73.832727 213.426115 
L 90.919809 222.747766 
L 108.00689 226.452407 
L 125.093971 230.316773 
L 142.181053 229.944292 
L 159.268134 232.266418 
L 176.355215 233.423911 
L 193.442297 233.086696 
L 210.529378 233.279149 
L 227.616459 234.58508 
L 244.703541 235.04205 
L 261.790622 232.314531 
L 278.877703 234.095488 
L 295.964785 234.741712 
L 313.051866 234.352999 
L 330.138947 232.717704 
L 347.226029 232.622694 
L 364.31311 233.173062 
L 381.400191 232.645349 
L 398.487273 235.621312 
" style="fill:none;stroke:#8c564b;stroke-linecap:square;stroke-width:1.5;"/>
   </g>
   <g id="line2d_19">
    <path clip-path="url(#pb29c81556e)" d="M 73.832727 200.126105 
L 90.919809 209.154345 
L 108.00689 216.25023 
L 125.093971 217.673351 
L 142.181053 219.581703 
L 159.268134 220.1768 
L 176.355215 221.822776 
L 193.442297 216.847046 
L 210.529378 220.517902 
L 227.616459 220.653359 
L 244.703541 217.731405 
L 261.790622 213.161439 
L 278.877703 215.927686 
L 295.964785 215.500853 
L 313.051866 212.474292 
L 330.138947 214.412198 
L 347.226029 210.894591 
L 364.31311 213.065662 
L 381.400191 214.681024 
L 398.487273 212.421341 
" style="fill:none;stroke:#e377c2;stroke-linecap:square;stroke-width:1.5;"/>
   </g>
   <g id="line2d_20">
    <path clip-path="url(#pb29c81556e)" d="M 73.832727 51.387004 
L 90.919809 96.451752 
L 108.00689 149.582104 
L 125.093971 170.726556 
L 142.181053 180.859339 
L 159.268134 188.785733 
L 176.355215 194.502221 
L 193.442297 197.993234 
L 210.529378 200.352264 
L 227.616459 202.497031 
L 244.703541 204.915885 
L 261.790622 208.442613 
L 278.877703 212.135754 
L 295.964785 215.135906 
L 313.051866 217.323076 
L 330.138947 218.714184 
L 347.226029 219.7248 
L 364.31311 220.392834 
L 381.400191 220.980212 
L 398.487273 221.252263 
" style="fill:none;stroke:#7f7f7f;stroke-linecap:square;stroke-width:1.5;"/>
   </g>
   <g id="line2d_21">
    <path clip-path="url(#pb29c81556e)" d="M 73.832727 220.206303 
L 90.919809 225.829658 
L 108.00689 229.552777 
L 125.093971 234.340601 
L 142.181053 236.301242 
L 159.268134 240.735037 
L 176.355215 239.728466 
L 193.442297 245.665905 
L 210.529378 248.216859 
L 227.616459 249.226021 
L 244.703541 246.143601 
L 261.790622 247.48337 
L 278.877703 249.092203 
L 295.964785 252.358009 
L 313.051866 248.33434 
L 330.138947 251.226264 
L 347.226029 251.915023 
L 364.31311 251.515868 
L 381.400191 249.922579 
L 398.487273 248.573029 
" style="fill:none;stroke:#bcbd22;stroke-linecap:square;stroke-width:1.5;"/>
   </g>
   <g id="line2d_22">
    <path clip-path="url(#pb29c81556e)" d="M 73.832727 211.350609 
L 90.919809 218.962654 
L 108.00689 222.7889 
L 125.093971 224.70698 
L 142.181053 227.14886 
L 159.268134 225.288331 
L 176.355215 226.095761 
L 193.442297 225.770389 
L 210.529378 226.267832 
L 227.616459 229.985982 
L 244.703541 226.068664 
L 261.790622 227.452978 
L 278.877703 227.660948 
L 295.964785 231.2811 
L 313.051866 229.943208 
L 330.138947 231.507339 
L 347.226029 232.06072 
L 364.31311 228.438453 
L 381.400191 231.308514 
L 398.487273 231.177102 
" style="fill:none;stroke:#17becf;stroke-linecap:square;stroke-width:1.5;"/>
   </g>
   <g id="line2d_23">
    <path clip-path="url(#pb29c81556e)" d="M 73.832727 55.30107 
L 90.919809 107.325135 
L 108.00689 159.527933 
L 125.093971 177.532731 
L 142.181053 186.722388 
L 159.268134 193.83165 
L 176.355215 199.360417 
L 193.442297 204.251341 
L 210.529378 209.022245 
L 227.616459 212.86155 
L 244.703541 215.445311 
L 261.790622 216.978406 
L 278.877703 218.011228 
L 295.964785 218.849165 
L 313.051866 219.147097 
L 330.138947 219.340105 
L 347.226029 219.366488 
L 364.31311 219.275602 
L 381.400191 218.914673 
L 398.487273 218.545787 
" style="fill:none;stroke:#1f77b4;stroke-linecap:square;stroke-width:1.5;"/>
   </g>
   <g id="line2d_24">
    <path clip-path="url(#pb29c81556e)" d="M 73.832727 222.802779 
L 90.919809 225.872431 
L 108.00689 231.93938 
L 125.093971 230.224803 
L 142.181053 235.195695 
L 159.268134 236.173187 
L 176.355215 237.085621 
L 193.442297 234.769734 
L 210.529378 232.991606 
L 227.616459 233.093701 
L 244.703541 232.969347 
L 261.790622 227.457763 
L 278.877703 230.7108 
L 295.964785 235.219937 
L 313.051866 232.88922 
L 330.138947 230.598633 
L 347.226029 228.482945 
L 364.31311 226.379471 
L 381.400191 226.109693 
L 398.487273 223.422647 
" style="fill:none;stroke:#ff7f0e;stroke-linecap:square;stroke-width:1.5;"/>
   </g>
   <g id="patch_3">
    <path d="M 57.6 307.584 
L 57.6 41.472 
" style="fill:none;stroke:#000000;stroke-linecap:square;stroke-linejoin:miter;stroke-width:0.8;"/>
   </g>
   <g id="patch_4">
    <path d="M 414.72 307.584 
L 414.72 41.472 
" style="fill:none;stroke:#000000;stroke-linecap:square;stroke-linejoin:miter;stroke-width:0.8;"/>
   </g>
   <g id="patch_5">
    <path d="M 57.6 307.584 
L 414.72 307.584 
" style="fill:none;stroke:#000000;stroke-linecap:square;stroke-linejoin:miter;stroke-width:0.8;"/>
   </g>
   <g id="patch_6">
    <path d="M 57.6 41.472 
L 414.72 41.472 
" style="fill:none;stroke:#000000;stroke-linecap:square;stroke-linejoin:miter;stroke-width:0.8;"/>
   </g>
   <g id="text_15">
    <!-- batch_mean_squared_error -->
    <g transform="translate(154.435313 35.472)scale(0.12 -0.12)">
     <defs>
      <path d="M 3116 1747 
Q 3116 2381 2855 2742 
Q 2594 3103 2138 3103 
Q 1681 3103 1420 2742 
Q 1159 2381 1159 1747 
Q 1159 1113 1420 752 
Q 1681 391 2138 391 
Q 2594 391 2855 752 
Q 3116 1113 3116 1747 
z
M 1159 2969 
Q 1341 3281 1617 3432 
Q 1894 3584 2278 3584 
Q 2916 3584 3314 3078 
Q 3713 2572 3713 1747 
Q 3713 922 3314 415 
Q 2916 -91 2278 -91 
Q 1894 -91 1617 61 
Q 1341 213 1159 525 
L 1159 0 
L 581 0 
L 581 4863 
L 1159 4863 
L 1159 2969 
z
" id="DejaVuSans-62" transform="scale(0.015625)"/>
      <path d="M 3263 -1063 
L 3263 -1509 
L -63 -1509 
L -63 -1063 
L 3263 -1063 
z
" id="DejaVuSans-5f" transform="scale(0.015625)"/>
      <path d="M 3328 2828 
Q 3544 3216 3844 3400 
Q 4144 3584 4550 3584 
Q 5097 3584 5394 3201 
Q 5691 2819 5691 2113 
L 5691 0 
L 5113 0 
L 5113 2094 
Q 5113 2597 4934 2840 
Q 4756 3084 4391 3084 
Q 3944 3084 3684 2787 
Q 3425 2491 3425 1978 
L 3425 0 
L 2847 0 
L 2847 2094 
Q 2847 2600 2669 2842 
Q 2491 3084 2119 3084 
Q 1678 3084 1418 2786 
Q 1159 2488 1159 1978 
L 1159 0 
L 581 0 
L 581 3500 
L 1159 3500 
L 1159 2956 
Q 1356 3278 1631 3431 
Q 1906 3584 2284 3584 
Q 2666 3584 2933 3390 
Q 3200 3197 3328 2828 
z
" id="DejaVuSans-6d" transform="scale(0.015625)"/>
      <path d="M 2834 3397 
L 2834 2853 
Q 2591 2978 2328 3040 
Q 2066 3103 1784 3103 
Q 1356 3103 1142 2972 
Q 928 2841 928 2578 
Q 928 2378 1081 2264 
Q 1234 2150 1697 2047 
L 1894 2003 
Q 2506 1872 2764 1633 
Q 3022 1394 3022 966 
Q 3022 478 2636 193 
Q 2250 -91 1575 -91 
Q 1294 -91 989 -36 
Q 684 19 347 128 
L 347 722 
Q 666 556 975 473 
Q 1284 391 1588 391 
Q 1994 391 2212 530 
Q 2431 669 2431 922 
Q 2431 1156 2273 1281 
Q 2116 1406 1581 1522 
L 1381 1569 
Q 847 1681 609 1914 
Q 372 2147 372 2553 
Q 372 3047 722 3315 
Q 1072 3584 1716 3584 
Q 2034 3584 2315 3537 
Q 2597 3491 2834 3397 
z
" id="DejaVuSans-73" transform="scale(0.015625)"/>
     </defs>
     <use xlink:href="#DejaVuSans-62"/>
     <use x="63.476562" xlink:href="#DejaVuSans-61"/>
     <use x="124.755859" xlink:href="#DejaVuSans-74"/>
     <use x="163.964844" xlink:href="#DejaVuSans-63"/>
     <use x="218.945312" xlink:href="#DejaVuSans-68"/>
     <use x="282.324219" xlink:href="#DejaVuSans-5f"/>
     <use x="332.324219" xlink:href="#DejaVuSans-6d"/>
     <use x="429.736328" xlink:href="#DejaVuSans-65"/>
     <use x="491.259766" xlink:href="#DejaVuSans-61"/>
     <use x="552.539062" xlink:href="#DejaVuSans-6e"/>
     <use x="615.917969" xlink:href="#DejaVuSans-5f"/>
     <use x="665.917969" xlink:href="#DejaVuSans-73"/>
     <use x="718.017578" xlink:href="#DejaVuSans-71"/>
     <use x="781.494141" xlink:href="#DejaVuSans-75"/>
     <use x="844.873047" xlink:href="#DejaVuSans-61"/>
     <use x="906.152344" xlink:href="#DejaVuSans-72"/>
     <use x="945.015625" xlink:href="#DejaVuSans-65"/>
     <use x="1006.539062" xlink:href="#DejaVuSans-64"/>
     <use x="1070.015625" xlink:href="#DejaVuSans-5f"/>
     <use x="1120.015625" xlink:href="#DejaVuSans-65"/>
     <use x="1181.539062" xlink:href="#DejaVuSans-72"/>
     <use x="1220.902344" xlink:href="#DejaVuSans-72"/>
     <use x="1259.765625" xlink:href="#DejaVuSans-6f"/>
     <use x="1320.947266" xlink:href="#DejaVuSans-72"/>
    </g>
   </g>
   <g id="legend_1">
    <g id="patch_7">
     <path d="M 175.218437 225.6095 
L 407.72 225.6095 
Q 409.72 225.6095 409.72 223.6095 
L 409.72 48.472 
Q 409.72 46.472 407.72 46.472 
L 175.218437 46.472 
Q 173.218437 46.472 173.218437 48.472 
L 173.218437 223.6095 
Q 173.218437 225.6095 175.218437 225.6095 
z
" style="fill:#ffffff;opacity:0.8;stroke:#cccccc;stroke-linejoin:miter;"/>
    </g>
    <g id="line2d_25">
     <path d="M 177.218437 54.570437 
L 197.218437 54.570437 
" style="fill:none;stroke:#1f77b4;stroke-linecap:square;stroke-width:1.5;"/>
    </g>
    <g id="line2d_26"/>
    <g id="text_16">
     <!-- run-0-adam-63-14-gelu validation -->
     <g transform="translate(205.218437 58.070437)scale(0.1 -0.1)">
      <defs>
       <path d="M 313 2009 
L 1997 2009 
L 1997 1497 
L 313 1497 
L 313 2009 
z
" id="DejaVuSans-2d" transform="scale(0.015625)"/>
       <path d="M 2906 1791 
Q 2906 2416 2648 2759 
Q 2391 3103 1925 3103 
Q 1463 3103 1205 2759 
Q 947 2416 947 1791 
Q 947 1169 1205 825 
Q 1463 481 1925 481 
Q 2391 481 2648 825 
Q 2906 1169 2906 1791 
z
M 3481 434 
Q 3481 -459 3084 -895 
Q 2688 -1331 1869 -1331 
Q 1566 -1331 1297 -1286 
Q 1028 -1241 775 -1147 
L 775 -588 
Q 1028 -725 1275 -790 
Q 1522 -856 1778 -856 
Q 2344 -856 2625 -561 
Q 2906 -266 2906 331 
L 2906 616 
Q 2728 306 2450 153 
Q 2172 0 1784 0 
Q 1141 0 747 490 
Q 353 981 353 1791 
Q 353 2603 747 3093 
Q 1141 3584 1784 3584 
Q 2172 3584 2450 3431 
Q 2728 3278 2906 2969 
L 2906 3500 
L 3481 3500 
L 3481 434 
z
" id="DejaVuSans-67" transform="scale(0.015625)"/>
       <path d="M 603 4863 
L 1178 4863 
L 1178 0 
L 603 0 
L 603 4863 
z
" id="DejaVuSans-6c" transform="scale(0.015625)"/>
       <path d="M 191 3500 
L 800 3500 
L 1894 563 
L 2988 3500 
L 3597 3500 
L 2284 0 
L 1503 0 
L 191 3500 
z
" id="DejaVuSans-76" transform="scale(0.015625)"/>
       <path d="M 603 3500 
L 1178 3500 
L 1178 0 
L 603 0 
L 603 3500 
z
M 603 4863 
L 1178 4863 
L 1178 4134 
L 603 4134 
L 603 4863 
z
" id="DejaVuSans-69" transform="scale(0.015625)"/>
      </defs>
      <use xlink:href="#DejaVuSans-72"/>
      <use x="41.113281" xlink:href="#DejaVuSans-75"/>
      <use x="104.492188" xlink:href="#DejaVuSans-6e"/>
      <use x="167.871094" xlink:href="#DejaVuSans-2d"/>
      <use x="203.955078" xlink:href="#DejaVuSans-30"/>
      <use x="267.578125" xlink:href="#DejaVuSans-2d"/>
      <use x="303.662109" xlink:href="#DejaVuSans-61"/>
      <use x="364.941406" xlink:href="#DejaVuSans-64"/>
      <use x="428.417969" xlink:href="#DejaVuSans-61"/>
      <use x="489.697266" xlink:href="#DejaVuSans-6d"/>
      <use x="587.109375" xlink:href="#DejaVuSans-2d"/>
      <use x="623.193359" xlink:href="#DejaVuSans-36"/>
      <use x="686.816406" xlink:href="#DejaVuSans-33"/>
      <use x="750.439453" xlink:href="#DejaVuSans-2d"/>
      <use x="786.523438" xlink:href="#DejaVuSans-31"/>
      <use x="850.146484" xlink:href="#DejaVuSans-34"/>
      <use x="913.769531" xlink:href="#DejaVuSans-2d"/>
      <use x="949.853516" xlink:href="#DejaVuSans-67"/>
      <use x="1013.330078" xlink:href="#DejaVuSans-65"/>
      <use x="1074.853516" xlink:href="#DejaVuSans-6c"/>
      <use x="1102.636719" xlink:href="#DejaVuSans-75"/>
      <use x="1166.015625" xlink:href="#DejaVuSans-20"/>
      <use x="1197.802734" xlink:href="#DejaVuSans-76"/>
      <use x="1256.982422" xlink:href="#DejaVuSans-61"/>
      <use x="1318.261719" xlink:href="#DejaVuSans-6c"/>
      <use x="1346.044922" xlink:href="#DejaVuSans-69"/>
      <use x="1373.828125" xlink:href="#DejaVuSans-64"/>
      <use x="1437.304688" xlink:href="#DejaVuSans-61"/>
      <use x="1498.583984" xlink:href="#DejaVuSans-74"/>
      <use x="1537.792969" xlink:href="#DejaVuSans-69"/>
      <use x="1565.576172" xlink:href="#DejaVuSans-6f"/>
      <use x="1626.757812" xlink:href="#DejaVuSans-6e"/>
     </g>
    </g>
    <g id="line2d_27">
     <path d="M 177.218437 69.248562 
L 197.218437 69.248562 
" style="fill:none;stroke:#ff7f0e;stroke-linecap:square;stroke-width:1.5;"/>
    </g>
    <g id="line2d_28"/>
    <g id="text_17">
     <!-- run-1-adam-63-14-relu validation -->
     <g transform="translate(205.218437 72.748562)scale(0.1 -0.1)">
      <use xlink:href="#DejaVuSans-72"/>
      <use x="41.113281" xlink:href="#DejaVuSans-75"/>
      <use x="104.492188" xlink:href="#DejaVuSans-6e"/>
      <use x="167.871094" xlink:href="#DejaVuSans-2d"/>
      <use x="203.955078" xlink:href="#DejaVuSans-31"/>
      <use x="267.578125" xlink:href="#DejaVuSans-2d"/>
      <use x="303.662109" xlink:href="#DejaVuSans-61"/>
      <use x="364.941406" xlink:href="#DejaVuSans-64"/>
      <use x="428.417969" xlink:href="#DejaVuSans-61"/>
      <use x="489.697266" xlink:href="#DejaVuSans-6d"/>
      <use x="587.109375" xlink:href="#DejaVuSans-2d"/>
      <use x="623.193359" xlink:href="#DejaVuSans-36"/>
      <use x="686.816406" xlink:href="#DejaVuSans-33"/>
      <use x="750.439453" xlink:href="#DejaVuSans-2d"/>
      <use x="786.523438" xlink:href="#DejaVuSans-31"/>
      <use x="850.146484" xlink:href="#DejaVuSans-34"/>
      <use x="913.769531" xlink:href="#DejaVuSans-2d"/>
      <use x="949.853516" xlink:href="#DejaVuSans-72"/>
      <use x="988.716797" xlink:href="#DejaVuSans-65"/>
      <use x="1050.240234" xlink:href="#DejaVuSans-6c"/>
      <use x="1078.023438" xlink:href="#DejaVuSans-75"/>
      <use x="1141.402344" xlink:href="#DejaVuSans-20"/>
      <use x="1173.189453" xlink:href="#DejaVuSans-76"/>
      <use x="1232.369141" xlink:href="#DejaVuSans-61"/>
      <use x="1293.648438" xlink:href="#DejaVuSans-6c"/>
      <use x="1321.431641" xlink:href="#DejaVuSans-69"/>
      <use x="1349.214844" xlink:href="#DejaVuSans-64"/>
      <use x="1412.691406" xlink:href="#DejaVuSans-61"/>
      <use x="1473.970703" xlink:href="#DejaVuSans-74"/>
      <use x="1513.179688" xlink:href="#DejaVuSans-69"/>
      <use x="1540.962891" xlink:href="#DejaVuSans-6f"/>
      <use x="1602.144531" xlink:href="#DejaVuSans-6e"/>
     </g>
    </g>
    <g id="line2d_29">
     <path d="M 177.218437 83.926688 
L 197.218437 83.926688 
" style="fill:none;stroke:#2ca02c;stroke-linecap:square;stroke-width:1.5;"/>
    </g>
    <g id="line2d_30"/>
    <g id="text_18">
     <!-- run-10-adam-120-50-relu validation -->
     <g transform="translate(205.218437 87.426688)scale(0.1 -0.1)">
      <use xlink:href="#DejaVuSans-72"/>
      <use x="41.113281" xlink:href="#DejaVuSans-75"/>
      <use x="104.492188" xlink:href="#DejaVuSans-6e"/>
      <use x="167.871094" xlink:href="#DejaVuSans-2d"/>
      <use x="203.955078" xlink:href="#DejaVuSans-31"/>
      <use x="267.578125" xlink:href="#DejaVuSans-30"/>
      <use x="331.201172" xlink:href="#DejaVuSans-2d"/>
      <use x="367.285156" xlink:href="#DejaVuSans-61"/>
      <use x="428.564453" xlink:href="#DejaVuSans-64"/>
      <use x="492.041016" xlink:href="#DejaVuSans-61"/>
      <use x="553.320312" xlink:href="#DejaVuSans-6d"/>
      <use x="650.732422" xlink:href="#DejaVuSans-2d"/>
      <use x="686.816406" xlink:href="#DejaVuSans-31"/>
      <use x="750.439453" xlink:href="#DejaVuSans-32"/>
      <use x="814.0625" xlink:href="#DejaVuSans-30"/>
      <use x="877.685547" xlink:href="#DejaVuSans-2d"/>
      <use x="913.769531" xlink:href="#DejaVuSans-35"/>
      <use x="977.392578" xlink:href="#DejaVuSans-30"/>
      <use x="1041.015625" xlink:href="#DejaVuSans-2d"/>
      <use x="1077.099609" xlink:href="#DejaVuSans-72"/>
      <use x="1115.962891" xlink:href="#DejaVuSans-65"/>
      <use x="1177.486328" xlink:href="#DejaVuSans-6c"/>
      <use x="1205.269531" xlink:href="#DejaVuSans-75"/>
      <use x="1268.648438" xlink:href="#DejaVuSans-20"/>
      <use x="1300.435547" xlink:href="#DejaVuSans-76"/>
      <use x="1359.615234" xlink:href="#DejaVuSans-61"/>
      <use x="1420.894531" xlink:href="#DejaVuSans-6c"/>
      <use x="1448.677734" xlink:href="#DejaVuSans-69"/>
      <use x="1476.460938" xlink:href="#DejaVuSans-64"/>
      <use x="1539.9375" xlink:href="#DejaVuSans-61"/>
      <use x="1601.216797" xlink:href="#DejaVuSans-74"/>
      <use x="1640.425781" xlink:href="#DejaVuSans-69"/>
      <use x="1668.208984" xlink:href="#DejaVuSans-6f"/>
      <use x="1729.390625" xlink:href="#DejaVuSans-6e"/>
     </g>
    </g>
    <g id="line2d_31">
     <path d="M 177.218437 98.604812 
L 197.218437 98.604812 
" style="fill:none;stroke:#d62728;stroke-linecap:square;stroke-width:1.5;"/>
    </g>
    <g id="line2d_32"/>
    <g id="text_19">
     <!-- run-11-adam-120-50-softmax validation -->
     <g transform="translate(205.218437 102.104812)scale(0.1 -0.1)">
      <defs>
       <path d="M 2375 4863 
L 2375 4384 
L 1825 4384 
Q 1516 4384 1395 4259 
Q 1275 4134 1275 3809 
L 1275 3500 
L 2222 3500 
L 2222 3053 
L 1275 3053 
L 1275 0 
L 697 0 
L 697 3053 
L 147 3053 
L 147 3500 
L 697 3500 
L 697 3744 
Q 697 4328 969 4595 
Q 1241 4863 1831 4863 
L 2375 4863 
z
" id="DejaVuSans-66" transform="scale(0.015625)"/>
       <path d="M 3513 3500 
L 2247 1797 
L 3578 0 
L 2900 0 
L 1881 1375 
L 863 0 
L 184 0 
L 1544 1831 
L 300 3500 
L 978 3500 
L 1906 2253 
L 2834 3500 
L 3513 3500 
z
" id="DejaVuSans-78" transform="scale(0.015625)"/>
      </defs>
      <use xlink:href="#DejaVuSans-72"/>
      <use x="41.113281" xlink:href="#DejaVuSans-75"/>
      <use x="104.492188" xlink:href="#DejaVuSans-6e"/>
      <use x="167.871094" xlink:href="#DejaVuSans-2d"/>
      <use x="203.955078" xlink:href="#DejaVuSans-31"/>
      <use x="267.578125" xlink:href="#DejaVuSans-31"/>
      <use x="331.201172" xlink:href="#DejaVuSans-2d"/>
      <use x="367.285156" xlink:href="#DejaVuSans-61"/>
      <use x="428.564453" xlink:href="#DejaVuSans-64"/>
      <use x="492.041016" xlink:href="#DejaVuSans-61"/>
      <use x="553.320312" xlink:href="#DejaVuSans-6d"/>
      <use x="650.732422" xlink:href="#DejaVuSans-2d"/>
      <use x="686.816406" xlink:href="#DejaVuSans-31"/>
      <use x="750.439453" xlink:href="#DejaVuSans-32"/>
      <use x="814.0625" xlink:href="#DejaVuSans-30"/>
      <use x="877.685547" xlink:href="#DejaVuSans-2d"/>
      <use x="913.769531" xlink:href="#DejaVuSans-35"/>
      <use x="977.392578" xlink:href="#DejaVuSans-30"/>
      <use x="1041.015625" xlink:href="#DejaVuSans-2d"/>
      <use x="1077.099609" xlink:href="#DejaVuSans-73"/>
      <use x="1129.199219" xlink:href="#DejaVuSans-6f"/>
      <use x="1190.380859" xlink:href="#DejaVuSans-66"/>
      <use x="1223.835938" xlink:href="#DejaVuSans-74"/>
      <use x="1263.044922" xlink:href="#DejaVuSans-6d"/>
      <use x="1360.457031" xlink:href="#DejaVuSans-61"/>
      <use x="1421.736328" xlink:href="#DejaVuSans-78"/>
      <use x="1480.916016" xlink:href="#DejaVuSans-20"/>
      <use x="1512.703125" xlink:href="#DejaVuSans-76"/>
      <use x="1571.882812" xlink:href="#DejaVuSans-61"/>
      <use x="1633.162109" xlink:href="#DejaVuSans-6c"/>
      <use x="1660.945312" xlink:href="#DejaVuSans-69"/>
      <use x="1688.728516" xlink:href="#DejaVuSans-64"/>
      <use x="1752.205078" xlink:href="#DejaVuSans-61"/>
      <use x="1813.484375" xlink:href="#DejaVuSans-74"/>
      <use x="1852.693359" xlink:href="#DejaVuSans-69"/>
      <use x="1880.476562" xlink:href="#DejaVuSans-6f"/>
      <use x="1941.658203" xlink:href="#DejaVuSans-6e"/>
     </g>
    </g>
    <g id="line2d_33">
     <path d="M 177.218437 113.282938 
L 197.218437 113.282938 
" style="fill:none;stroke:#9467bd;stroke-linecap:square;stroke-width:1.5;"/>
    </g>
    <g id="line2d_34"/>
    <g id="text_20">
     <!-- run-2-adam-63-14-softmax validation -->
     <g transform="translate(205.218437 116.782938)scale(0.1 -0.1)">
      <use xlink:href="#DejaVuSans-72"/>
      <use x="41.113281" xlink:href="#DejaVuSans-75"/>
      <use x="104.492188" xlink:href="#DejaVuSans-6e"/>
      <use x="167.871094" xlink:href="#DejaVuSans-2d"/>
      <use x="203.955078" xlink:href="#DejaVuSans-32"/>
      <use x="267.578125" xlink:href="#DejaVuSans-2d"/>
      <use x="303.662109" xlink:href="#DejaVuSans-61"/>
      <use x="364.941406" xlink:href="#DejaVuSans-64"/>
      <use x="428.417969" xlink:href="#DejaVuSans-61"/>
      <use x="489.697266" xlink:href="#DejaVuSans-6d"/>
      <use x="587.109375" xlink:href="#DejaVuSans-2d"/>
      <use x="623.193359" xlink:href="#DejaVuSans-36"/>
      <use x="686.816406" xlink:href="#DejaVuSans-33"/>
      <use x="750.439453" xlink:href="#DejaVuSans-2d"/>
      <use x="786.523438" xlink:href="#DejaVuSans-31"/>
      <use x="850.146484" xlink:href="#DejaVuSans-34"/>
      <use x="913.769531" xlink:href="#DejaVuSans-2d"/>
      <use x="949.853516" xlink:href="#DejaVuSans-73"/>
      <use x="1001.953125" xlink:href="#DejaVuSans-6f"/>
      <use x="1063.134766" xlink:href="#DejaVuSans-66"/>
      <use x="1096.589844" xlink:href="#DejaVuSans-74"/>
      <use x="1135.798828" xlink:href="#DejaVuSans-6d"/>
      <use x="1233.210938" xlink:href="#DejaVuSans-61"/>
      <use x="1294.490234" xlink:href="#DejaVuSans-78"/>
      <use x="1353.669922" xlink:href="#DejaVuSans-20"/>
      <use x="1385.457031" xlink:href="#DejaVuSans-76"/>
      <use x="1444.636719" xlink:href="#DejaVuSans-61"/>
      <use x="1505.916016" xlink:href="#DejaVuSans-6c"/>
      <use x="1533.699219" xlink:href="#DejaVuSans-69"/>
      <use x="1561.482422" xlink:href="#DejaVuSans-64"/>
      <use x="1624.958984" xlink:href="#DejaVuSans-61"/>
      <use x="1686.238281" xlink:href="#DejaVuSans-74"/>
      <use x="1725.447266" xlink:href="#DejaVuSans-69"/>
      <use x="1753.230469" xlink:href="#DejaVuSans-6f"/>
      <use x="1814.412109" xlink:href="#DejaVuSans-6e"/>
     </g>
    </g>
    <g id="line2d_35">
     <path d="M 177.218437 127.961062 
L 197.218437 127.961062 
" style="fill:none;stroke:#8c564b;stroke-linecap:square;stroke-width:1.5;"/>
    </g>
    <g id="line2d_36"/>
    <g id="text_21">
     <!-- run-3-adam-63-50-gelu validation -->
     <g transform="translate(205.218437 131.461062)scale(0.1 -0.1)">
      <use xlink:href="#DejaVuSans-72"/>
      <use x="41.113281" xlink:href="#DejaVuSans-75"/>
      <use x="104.492188" xlink:href="#DejaVuSans-6e"/>
      <use x="167.871094" xlink:href="#DejaVuSans-2d"/>
      <use x="203.955078" xlink:href="#DejaVuSans-33"/>
      <use x="267.578125" xlink:href="#DejaVuSans-2d"/>
      <use x="303.662109" xlink:href="#DejaVuSans-61"/>
      <use x="364.941406" xlink:href="#DejaVuSans-64"/>
      <use x="428.417969" xlink:href="#DejaVuSans-61"/>
      <use x="489.697266" xlink:href="#DejaVuSans-6d"/>
      <use x="587.109375" xlink:href="#DejaVuSans-2d"/>
      <use x="623.193359" xlink:href="#DejaVuSans-36"/>
      <use x="686.816406" xlink:href="#DejaVuSans-33"/>
      <use x="750.439453" xlink:href="#DejaVuSans-2d"/>
      <use x="786.523438" xlink:href="#DejaVuSans-35"/>
      <use x="850.146484" xlink:href="#DejaVuSans-30"/>
      <use x="913.769531" xlink:href="#DejaVuSans-2d"/>
      <use x="949.853516" xlink:href="#DejaVuSans-67"/>
      <use x="1013.330078" xlink:href="#DejaVuSans-65"/>
      <use x="1074.853516" xlink:href="#DejaVuSans-6c"/>
      <use x="1102.636719" xlink:href="#DejaVuSans-75"/>
      <use x="1166.015625" xlink:href="#DejaVuSans-20"/>
      <use x="1197.802734" xlink:href="#DejaVuSans-76"/>
      <use x="1256.982422" xlink:href="#DejaVuSans-61"/>
      <use x="1318.261719" xlink:href="#DejaVuSans-6c"/>
      <use x="1346.044922" xlink:href="#DejaVuSans-69"/>
      <use x="1373.828125" xlink:href="#DejaVuSans-64"/>
      <use x="1437.304688" xlink:href="#DejaVuSans-61"/>
      <use x="1498.583984" xlink:href="#DejaVuSans-74"/>
      <use x="1537.792969" xlink:href="#DejaVuSans-69"/>
      <use x="1565.576172" xlink:href="#DejaVuSans-6f"/>
      <use x="1626.757812" xlink:href="#DejaVuSans-6e"/>
     </g>
    </g>
    <g id="line2d_37">
     <path d="M 177.218437 142.639187 
L 197.218437 142.639187 
" style="fill:none;stroke:#e377c2;stroke-linecap:square;stroke-width:1.5;"/>
    </g>
    <g id="line2d_38"/>
    <g id="text_22">
     <!-- run-4-adam-63-50-relu validation -->
     <g transform="translate(205.218437 146.139187)scale(0.1 -0.1)">
      <use xlink:href="#DejaVuSans-72"/>
      <use x="41.113281" xlink:href="#DejaVuSans-75"/>
      <use x="104.492188" xlink:href="#DejaVuSans-6e"/>
      <use x="167.871094" xlink:href="#DejaVuSans-2d"/>
      <use x="203.955078" xlink:href="#DejaVuSans-34"/>
      <use x="267.578125" xlink:href="#DejaVuSans-2d"/>
      <use x="303.662109" xlink:href="#DejaVuSans-61"/>
      <use x="364.941406" xlink:href="#DejaVuSans-64"/>
      <use x="428.417969" xlink:href="#DejaVuSans-61"/>
      <use x="489.697266" xlink:href="#DejaVuSans-6d"/>
      <use x="587.109375" xlink:href="#DejaVuSans-2d"/>
      <use x="623.193359" xlink:href="#DejaVuSans-36"/>
      <use x="686.816406" xlink:href="#DejaVuSans-33"/>
      <use x="750.439453" xlink:href="#DejaVuSans-2d"/>
      <use x="786.523438" xlink:href="#DejaVuSans-35"/>
      <use x="850.146484" xlink:href="#DejaVuSans-30"/>
      <use x="913.769531" xlink:href="#DejaVuSans-2d"/>
      <use x="949.853516" xlink:href="#DejaVuSans-72"/>
      <use x="988.716797" xlink:href="#DejaVuSans-65"/>
      <use x="1050.240234" xlink:href="#DejaVuSans-6c"/>
      <use x="1078.023438" xlink:href="#DejaVuSans-75"/>
      <use x="1141.402344" xlink:href="#DejaVuSans-20"/>
      <use x="1173.189453" xlink:href="#DejaVuSans-76"/>
      <use x="1232.369141" xlink:href="#DejaVuSans-61"/>
      <use x="1293.648438" xlink:href="#DejaVuSans-6c"/>
      <use x="1321.431641" xlink:href="#DejaVuSans-69"/>
      <use x="1349.214844" xlink:href="#DejaVuSans-64"/>
      <use x="1412.691406" xlink:href="#DejaVuSans-61"/>
      <use x="1473.970703" xlink:href="#DejaVuSans-74"/>
      <use x="1513.179688" xlink:href="#DejaVuSans-69"/>
      <use x="1540.962891" xlink:href="#DejaVuSans-6f"/>
      <use x="1602.144531" xlink:href="#DejaVuSans-6e"/>
     </g>
    </g>
    <g id="line2d_39">
     <path d="M 177.218437 157.317312 
L 197.218437 157.317312 
" style="fill:none;stroke:#7f7f7f;stroke-linecap:square;stroke-width:1.5;"/>
    </g>
    <g id="line2d_40"/>
    <g id="text_23">
     <!-- run-5-adam-63-50-softmax validation -->
     <g transform="translate(205.218437 160.817312)scale(0.1 -0.1)">
      <use xlink:href="#DejaVuSans-72"/>
      <use x="41.113281" xlink:href="#DejaVuSans-75"/>
      <use x="104.492188" xlink:href="#DejaVuSans-6e"/>
      <use x="167.871094" xlink:href="#DejaVuSans-2d"/>
      <use x="203.955078" xlink:href="#DejaVuSans-35"/>
      <use x="267.578125" xlink:href="#DejaVuSans-2d"/>
      <use x="303.662109" xlink:href="#DejaVuSans-61"/>
      <use x="364.941406" xlink:href="#DejaVuSans-64"/>
      <use x="428.417969" xlink:href="#DejaVuSans-61"/>
      <use x="489.697266" xlink:href="#DejaVuSans-6d"/>
      <use x="587.109375" xlink:href="#DejaVuSans-2d"/>
      <use x="623.193359" xlink:href="#DejaVuSans-36"/>
      <use x="686.816406" xlink:href="#DejaVuSans-33"/>
      <use x="750.439453" xlink:href="#DejaVuSans-2d"/>
      <use x="786.523438" xlink:href="#DejaVuSans-35"/>
      <use x="850.146484" xlink:href="#DejaVuSans-30"/>
      <use x="913.769531" xlink:href="#DejaVuSans-2d"/>
      <use x="949.853516" xlink:href="#DejaVuSans-73"/>
      <use x="1001.953125" xlink:href="#DejaVuSans-6f"/>
      <use x="1063.134766" xlink:href="#DejaVuSans-66"/>
      <use x="1096.589844" xlink:href="#DejaVuSans-74"/>
      <use x="1135.798828" xlink:href="#DejaVuSans-6d"/>
      <use x="1233.210938" xlink:href="#DejaVuSans-61"/>
      <use x="1294.490234" xlink:href="#DejaVuSans-78"/>
      <use x="1353.669922" xlink:href="#DejaVuSans-20"/>
      <use x="1385.457031" xlink:href="#DejaVuSans-76"/>
      <use x="1444.636719" xlink:href="#DejaVuSans-61"/>
      <use x="1505.916016" xlink:href="#DejaVuSans-6c"/>
      <use x="1533.699219" xlink:href="#DejaVuSans-69"/>
      <use x="1561.482422" xlink:href="#DejaVuSans-64"/>
      <use x="1624.958984" xlink:href="#DejaVuSans-61"/>
      <use x="1686.238281" xlink:href="#DejaVuSans-74"/>
      <use x="1725.447266" xlink:href="#DejaVuSans-69"/>
      <use x="1753.230469" xlink:href="#DejaVuSans-6f"/>
      <use x="1814.412109" xlink:href="#DejaVuSans-6e"/>
     </g>
    </g>
    <g id="line2d_41">
     <path d="M 177.218437 171.995437 
L 197.218437 171.995437 
" style="fill:none;stroke:#bcbd22;stroke-linecap:square;stroke-width:1.5;"/>
    </g>
    <g id="line2d_42"/>
    <g id="text_24">
     <!-- run-6-adam-120-14-gelu validation -->
     <g transform="translate(205.218437 175.495437)scale(0.1 -0.1)">
      <use xlink:href="#DejaVuSans-72"/>
      <use x="41.113281" xlink:href="#DejaVuSans-75"/>
      <use x="104.492188" xlink:href="#DejaVuSans-6e"/>
      <use x="167.871094" xlink:href="#DejaVuSans-2d"/>
      <use x="203.955078" xlink:href="#DejaVuSans-36"/>
      <use x="267.578125" xlink:href="#DejaVuSans-2d"/>
      <use x="303.662109" xlink:href="#DejaVuSans-61"/>
      <use x="364.941406" xlink:href="#DejaVuSans-64"/>
      <use x="428.417969" xlink:href="#DejaVuSans-61"/>
      <use x="489.697266" xlink:href="#DejaVuSans-6d"/>
      <use x="587.109375" xlink:href="#DejaVuSans-2d"/>
      <use x="623.193359" xlink:href="#DejaVuSans-31"/>
      <use x="686.816406" xlink:href="#DejaVuSans-32"/>
      <use x="750.439453" xlink:href="#DejaVuSans-30"/>
      <use x="814.0625" xlink:href="#DejaVuSans-2d"/>
      <use x="850.146484" xlink:href="#DejaVuSans-31"/>
      <use x="913.769531" xlink:href="#DejaVuSans-34"/>
      <use x="977.392578" xlink:href="#DejaVuSans-2d"/>
      <use x="1013.476562" xlink:href="#DejaVuSans-67"/>
      <use x="1076.953125" xlink:href="#DejaVuSans-65"/>
      <use x="1138.476562" xlink:href="#DejaVuSans-6c"/>
      <use x="1166.259766" xlink:href="#DejaVuSans-75"/>
      <use x="1229.638672" xlink:href="#DejaVuSans-20"/>
      <use x="1261.425781" xlink:href="#DejaVuSans-76"/>
      <use x="1320.605469" xlink:href="#DejaVuSans-61"/>
      <use x="1381.884766" xlink:href="#DejaVuSans-6c"/>
      <use x="1409.667969" xlink:href="#DejaVuSans-69"/>
      <use x="1437.451172" xlink:href="#DejaVuSans-64"/>
      <use x="1500.927734" xlink:href="#DejaVuSans-61"/>
      <use x="1562.207031" xlink:href="#DejaVuSans-74"/>
      <use x="1601.416016" xlink:href="#DejaVuSans-69"/>
      <use x="1629.199219" xlink:href="#DejaVuSans-6f"/>
      <use x="1690.380859" xlink:href="#DejaVuSans-6e"/>
     </g>
    </g>
    <g id="line2d_43">
     <path d="M 177.218437 186.673562 
L 197.218437 186.673562 
" style="fill:none;stroke:#17becf;stroke-linecap:square;stroke-width:1.5;"/>
    </g>
    <g id="line2d_44"/>
    <g id="text_25">
     <!-- run-7-adam-120-14-relu validation -->
     <g transform="translate(205.218437 190.173562)scale(0.1 -0.1)">
      <use xlink:href="#DejaVuSans-72"/>
      <use x="41.113281" xlink:href="#DejaVuSans-75"/>
      <use x="104.492188" xlink:href="#DejaVuSans-6e"/>
      <use x="167.871094" xlink:href="#DejaVuSans-2d"/>
      <use x="203.955078" xlink:href="#DejaVuSans-37"/>
      <use x="267.578125" xlink:href="#DejaVuSans-2d"/>
      <use x="303.662109" xlink:href="#DejaVuSans-61"/>
      <use x="364.941406" xlink:href="#DejaVuSans-64"/>
      <use x="428.417969" xlink:href="#DejaVuSans-61"/>
      <use x="489.697266" xlink:href="#DejaVuSans-6d"/>
      <use x="587.109375" xlink:href="#DejaVuSans-2d"/>
      <use x="623.193359" xlink:href="#DejaVuSans-31"/>
      <use x="686.816406" xlink:href="#DejaVuSans-32"/>
      <use x="750.439453" xlink:href="#DejaVuSans-30"/>
      <use x="814.0625" xlink:href="#DejaVuSans-2d"/>
      <use x="850.146484" xlink:href="#DejaVuSans-31"/>
      <use x="913.769531" xlink:href="#DejaVuSans-34"/>
      <use x="977.392578" xlink:href="#DejaVuSans-2d"/>
      <use x="1013.476562" xlink:href="#DejaVuSans-72"/>
      <use x="1052.339844" xlink:href="#DejaVuSans-65"/>
      <use x="1113.863281" xlink:href="#DejaVuSans-6c"/>
      <use x="1141.646484" xlink:href="#DejaVuSans-75"/>
      <use x="1205.025391" xlink:href="#DejaVuSans-20"/>
      <use x="1236.8125" xlink:href="#DejaVuSans-76"/>
      <use x="1295.992188" xlink:href="#DejaVuSans-61"/>
      <use x="1357.271484" xlink:href="#DejaVuSans-6c"/>
      <use x="1385.054688" xlink:href="#DejaVuSans-69"/>
      <use x="1412.837891" xlink:href="#DejaVuSans-64"/>
      <use x="1476.314453" xlink:href="#DejaVuSans-61"/>
      <use x="1537.59375" xlink:href="#DejaVuSans-74"/>
      <use x="1576.802734" xlink:href="#DejaVuSans-69"/>
      <use x="1604.585938" xlink:href="#DejaVuSans-6f"/>
      <use x="1665.767578" xlink:href="#DejaVuSans-6e"/>
     </g>
    </g>
    <g id="line2d_45">
     <path d="M 177.218437 201.351687 
L 197.218437 201.351687 
" style="fill:none;stroke:#1f77b4;stroke-linecap:square;stroke-width:1.5;"/>
    </g>
    <g id="line2d_46"/>
    <g id="text_26">
     <!-- run-8-adam-120-14-softmax validation -->
     <g transform="translate(205.218437 204.851687)scale(0.1 -0.1)">
      <use xlink:href="#DejaVuSans-72"/>
      <use x="41.113281" xlink:href="#DejaVuSans-75"/>
      <use x="104.492188" xlink:href="#DejaVuSans-6e"/>
      <use x="167.871094" xlink:href="#DejaVuSans-2d"/>
      <use x="203.955078" xlink:href="#DejaVuSans-38"/>
      <use x="267.578125" xlink:href="#DejaVuSans-2d"/>
      <use x="303.662109" xlink:href="#DejaVuSans-61"/>
      <use x="364.941406" xlink:href="#DejaVuSans-64"/>
      <use x="428.417969" xlink:href="#DejaVuSans-61"/>
      <use x="489.697266" xlink:href="#DejaVuSans-6d"/>
      <use x="587.109375" xlink:href="#DejaVuSans-2d"/>
      <use x="623.193359" xlink:href="#DejaVuSans-31"/>
      <use x="686.816406" xlink:href="#DejaVuSans-32"/>
      <use x="750.439453" xlink:href="#DejaVuSans-30"/>
      <use x="814.0625" xlink:href="#DejaVuSans-2d"/>
      <use x="850.146484" xlink:href="#DejaVuSans-31"/>
      <use x="913.769531" xlink:href="#DejaVuSans-34"/>
      <use x="977.392578" xlink:href="#DejaVuSans-2d"/>
      <use x="1013.476562" xlink:href="#DejaVuSans-73"/>
      <use x="1065.576172" xlink:href="#DejaVuSans-6f"/>
      <use x="1126.757812" xlink:href="#DejaVuSans-66"/>
      <use x="1160.212891" xlink:href="#DejaVuSans-74"/>
      <use x="1199.421875" xlink:href="#DejaVuSans-6d"/>
      <use x="1296.833984" xlink:href="#DejaVuSans-61"/>
      <use x="1358.113281" xlink:href="#DejaVuSans-78"/>
      <use x="1417.292969" xlink:href="#DejaVuSans-20"/>
      <use x="1449.080078" xlink:href="#DejaVuSans-76"/>
      <use x="1508.259766" xlink:href="#DejaVuSans-61"/>
      <use x="1569.539062" xlink:href="#DejaVuSans-6c"/>
      <use x="1597.322266" xlink:href="#DejaVuSans-69"/>
      <use x="1625.105469" xlink:href="#DejaVuSans-64"/>
      <use x="1688.582031" xlink:href="#DejaVuSans-61"/>
      <use x="1749.861328" xlink:href="#DejaVuSans-74"/>
      <use x="1789.070312" xlink:href="#DejaVuSans-69"/>
      <use x="1816.853516" xlink:href="#DejaVuSans-6f"/>
      <use x="1878.035156" xlink:href="#DejaVuSans-6e"/>
     </g>
    </g>
    <g id="line2d_47">
     <path d="M 177.218437 216.029812 
L 197.218437 216.029812 
" style="fill:none;stroke:#ff7f0e;stroke-linecap:square;stroke-width:1.5;"/>
    </g>
    <g id="line2d_48"/>
    <g id="text_27">
     <!-- run-9-adam-120-50-gelu validation -->
     <g transform="translate(205.218437 219.529812)scale(0.1 -0.1)">
      <use xlink:href="#DejaVuSans-72"/>
      <use x="41.113281" xlink:href="#DejaVuSans-75"/>
      <use x="104.492188" xlink:href="#DejaVuSans-6e"/>
      <use x="167.871094" xlink:href="#DejaVuSans-2d"/>
      <use x="203.955078" xlink:href="#DejaVuSans-39"/>
      <use x="267.578125" xlink:href="#DejaVuSans-2d"/>
      <use x="303.662109" xlink:href="#DejaVuSans-61"/>
      <use x="364.941406" xlink:href="#DejaVuSans-64"/>
      <use x="428.417969" xlink:href="#DejaVuSans-61"/>
      <use x="489.697266" xlink:href="#DejaVuSans-6d"/>
      <use x="587.109375" xlink:href="#DejaVuSans-2d"/>
      <use x="623.193359" xlink:href="#DejaVuSans-31"/>
      <use x="686.816406" xlink:href="#DejaVuSans-32"/>
      <use x="750.439453" xlink:href="#DejaVuSans-30"/>
      <use x="814.0625" xlink:href="#DejaVuSans-2d"/>
      <use x="850.146484" xlink:href="#DejaVuSans-35"/>
      <use x="913.769531" xlink:href="#DejaVuSans-30"/>
      <use x="977.392578" xlink:href="#DejaVuSans-2d"/>
      <use x="1013.476562" xlink:href="#DejaVuSans-67"/>
      <use x="1076.953125" xlink:href="#DejaVuSans-65"/>
      <use x="1138.476562" xlink:href="#DejaVuSans-6c"/>
      <use x="1166.259766" xlink:href="#DejaVuSans-75"/>
      <use x="1229.638672" xlink:href="#DejaVuSans-20"/>
      <use x="1261.425781" xlink:href="#DejaVuSans-76"/>
      <use x="1320.605469" xlink:href="#DejaVuSans-61"/>
      <use x="1381.884766" xlink:href="#DejaVuSans-6c"/>
      <use x="1409.667969" xlink:href="#DejaVuSans-69"/>
      <use x="1437.451172" xlink:href="#DejaVuSans-64"/>
      <use x="1500.927734" xlink:href="#DejaVuSans-61"/>
      <use x="1562.207031" xlink:href="#DejaVuSans-74"/>
      <use x="1601.416016" xlink:href="#DejaVuSans-69"/>
      <use x="1629.199219" xlink:href="#DejaVuSans-6f"/>
      <use x="1690.380859" xlink:href="#DejaVuSans-6e"/>
     </g>
    </g>
   </g>
  </g>
 </g>
 <defs>
  <clipPath id="pb29c81556e">
   <rect height="266.112" width="357.12" x="57.6" y="41.472"/>
  </clipPath>
 </defs>
</svg>
