<?xml version="1.0" encoding="utf-8" standalone="no"?>
<!DOCTYPE svg PUBLIC "-//W3C//DTD SVG 1.1//EN"
  "http://www.w3.org/Graphics/SVG/1.1/DTD/svg11.dtd">
<svg height="504pt" version="1.1" viewBox="0 0 720 504" width="720pt" xmlns="http://www.w3.org/2000/svg" xmlns:xlink="http://www.w3.org/1999/xlink">
 <metadata>
  <rdf:RDF xmlns:cc="http://creativecommons.org/ns#" xmlns:dc="http://purl.org/dc/elements/1.1/" xmlns:rdf="http://www.w3.org/1999/02/22-rdf-syntax-ns#">
   <cc:Work>
    <dc:type rdf:resource="http://purl.org/dc/dcmitype/StillImage"/>
    <dc:date>2022-01-27T17:57:38.970553</dc:date>
    <dc:format>image/svg+xml</dc:format>
    <dc:creator>
     <cc:Agent>
      <dc:title>Matplotlib v3.4.3, https://matplotlib.org/</dc:title>
     </cc:Agent>
    </dc:creator>
   </cc:Work>
  </rdf:RDF>
 </metadata>
 <defs>
  <style type="text/css">*{stroke-linecap:butt;stroke-linejoin:round;}</style>
 </defs>
 <g id="figure_1">
  <g id="patch_1">
   <path d="M 0 504 
L 720 504 
L 720 0 
L 0 0 
z
" style="fill:#ffffff;"/>
  </g>
  <g id="axes_1">
   <g id="patch_2">
    <path d="M 95.15 446.92 
L 703.8 446.92 
L 703.8 16.2 
L 95.15 16.2 
z
" style="fill:#ffffff;"/>
   </g>
   <g id="patch_3">
    <path clip-path="url(#p723a381e7f)" d="M 145.271571 446.92 
L 162.966989 446.92 
L 162.966989 440.089634 
L 145.271571 440.089634 
z
" style="fill:#ffa500;opacity:0.3;"/>
   </g>
   <g id="patch_4">
    <path clip-path="url(#p723a381e7f)" d="M 162.966989 446.92 
L 180.662406 446.92 
L 180.662406 444.643211 
L 162.966989 444.643211 
z
" style="fill:#ffa500;opacity:0.3;"/>
   </g>
   <g id="patch_5">
    <path clip-path="url(#p723a381e7f)" d="M 180.662406 446.92 
L 198.357823 446.92 
L 198.357823 435.536056 
L 180.662406 435.536056 
z
" style="fill:#ffa500;opacity:0.3;"/>
   </g>
   <g id="patch_6">
    <path clip-path="url(#p723a381e7f)" d="M 198.357823 446.92 
L 216.053241 446.92 
L 216.053241 428.70569 
L 198.357823 428.70569 
z
" style="fill:#ffa500;opacity:0.3;"/>
   </g>
   <g id="patch_7">
    <path clip-path="url(#p723a381e7f)" d="M 216.053241 446.92 
L 233.748658 446.92 
L 233.748658 417.321746 
L 216.053241 417.321746 
z
" style="fill:#ffa500;opacity:0.3;"/>
   </g>
   <g id="patch_8">
    <path clip-path="url(#p723a381e7f)" d="M 233.748658 446.92 
L 251.444075 446.92 
L 251.444075 408.214592 
L 233.748658 408.214592 
z
" style="fill:#ffa500;opacity:0.3;"/>
   </g>
   <g id="patch_9">
    <path clip-path="url(#p723a381e7f)" d="M 251.444075 446.92 
L 269.139493 446.92 
L 269.139493 392.27707 
L 251.444075 392.27707 
z
" style="fill:#ffa500;opacity:0.3;"/>
   </g>
   <g id="patch_10">
    <path clip-path="url(#p723a381e7f)" d="M 269.139493 446.92 
L 286.83491 446.92 
L 286.83491 358.125239 
L 269.139493 358.125239 
z
" style="fill:#ffa500;opacity:0.3;"/>
   </g>
   <g id="patch_11">
    <path clip-path="url(#p723a381e7f)" d="M 286.83491 446.92 
L 304.530327 446.92 
L 304.530327 310.312676 
L 286.83491 310.312676 
z
" style="fill:#ffa500;opacity:0.3;"/>
   </g>
   <g id="patch_12">
    <path clip-path="url(#p723a381e7f)" d="M 304.530327 446.92 
L 322.225744 446.92 
L 322.225744 310.312676 
L 304.530327 310.312676 
z
" style="fill:#ffa500;opacity:0.3;"/>
   </g>
   <g id="patch_13">
    <path clip-path="url(#p723a381e7f)" d="M 322.225744 446.92 
L 339.921162 446.92 
L 339.921162 232.901859 
L 322.225744 232.901859 
z
" style="fill:#ffa500;opacity:0.3;"/>
   </g>
   <g id="patch_14">
    <path clip-path="url(#p723a381e7f)" d="M 339.921162 446.92 
L 357.616579 446.92 
L 357.616579 205.580394 
L 339.921162 205.580394 
z
" style="fill:#ffa500;opacity:0.3;"/>
   </g>
   <g id="patch_15">
    <path clip-path="url(#p723a381e7f)" d="M 357.616579 446.92 
L 375.311996 446.92 
L 375.311996 148.660676 
L 357.616579 148.660676 
z
" style="fill:#ffa500;opacity:0.3;"/>
   </g>
   <g id="patch_16">
    <path clip-path="url(#p723a381e7f)" d="M 375.311996 446.92 
L 393.007414 446.92 
L 393.007414 123.616 
L 375.311996 123.616 
z
" style="fill:#ffa500;opacity:0.3;"/>
   </g>
   <g id="patch_17">
    <path clip-path="url(#p723a381e7f)" d="M 393.007414 446.92 
L 410.702831 446.92 
L 410.702831 48.481971 
L 393.007414 48.481971 
z
" style="fill:#ffa500;opacity:0.3;"/>
   </g>
   <g id="patch_18">
    <path clip-path="url(#p723a381e7f)" d="M 410.702831 446.92 
L 428.398248 446.92 
L 428.398248 75.803436 
L 410.702831 75.803436 
z
" style="fill:#ffa500;opacity:0.3;"/>
   </g>
   <g id="patch_19">
    <path clip-path="url(#p723a381e7f)" d="M 428.398248 446.92 
L 446.093666 446.92 
L 446.093666 73.526648 
L 428.398248 73.526648 
z
" style="fill:#ffa500;opacity:0.3;"/>
   </g>
   <g id="patch_20">
    <path clip-path="url(#p723a381e7f)" d="M 446.093666 446.92 
L 463.789083 446.92 
L 463.789083 94.017746 
L 446.093666 94.017746 
z
" style="fill:#ffa500;opacity:0.3;"/>
   </g>
   <g id="patch_21">
    <path clip-path="url(#p723a381e7f)" d="M 463.789083 446.92 
L 481.4845 446.92 
L 481.4845 130.446366 
L 463.789083 130.446366 
z
" style="fill:#ffa500;opacity:0.3;"/>
   </g>
   <g id="patch_22">
    <path clip-path="url(#p723a381e7f)" d="M 481.4845 446.92 
L 499.179918 446.92 
L 499.179918 123.616 
L 481.4845 123.616 
z
" style="fill:#ffa500;opacity:0.3;"/>
   </g>
   <g id="patch_23">
    <path clip-path="url(#p723a381e7f)" d="M 499.179918 446.92 
L 516.875335 446.92 
L 516.875335 194.19645 
L 499.179918 194.19645 
z
" style="fill:#ffa500;opacity:0.3;"/>
   </g>
   <g id="patch_24">
    <path clip-path="url(#p723a381e7f)" d="M 516.875335 446.92 
L 534.570752 446.92 
L 534.570752 239.732225 
L 516.875335 239.732225 
z
" style="fill:#ffa500;opacity:0.3;"/>
   </g>
   <g id="patch_25">
    <path clip-path="url(#p723a381e7f)" d="M 534.570752 446.92 
L 552.26617 446.92 
L 552.26617 317.143042 
L 534.570752 317.143042 
z
" style="fill:#ffa500;opacity:0.3;"/>
   </g>
   <g id="patch_26">
    <path clip-path="url(#p723a381e7f)" d="M 552.26617 446.92 
L 569.961587 446.92 
L 569.961587 349.018084 
L 552.26617 349.018084 
z
" style="fill:#ffa500;opacity:0.3;"/>
   </g>
   <g id="patch_27">
    <path clip-path="url(#p723a381e7f)" d="M 569.961587 446.92 
L 587.657004 446.92 
L 587.657004 387.723493 
L 569.961587 387.723493 
z
" style="fill:#ffa500;opacity:0.3;"/>
   </g>
   <g id="patch_28">
    <path clip-path="url(#p723a381e7f)" d="M 587.657004 446.92 
L 605.352422 446.92 
L 605.352422 412.768169 
L 587.657004 412.768169 
z
" style="fill:#ffa500;opacity:0.3;"/>
   </g>
   <g id="patch_29">
    <path clip-path="url(#p723a381e7f)" d="M 605.352422 446.92 
L 623.047839 446.92 
L 623.047839 428.70569 
L 605.352422 428.70569 
z
" style="fill:#ffa500;opacity:0.3;"/>
   </g>
   <g id="patch_30">
    <path clip-path="url(#p723a381e7f)" d="M 623.047839 446.92 
L 640.743256 446.92 
L 640.743256 437.812845 
L 623.047839 437.812845 
z
" style="fill:#ffa500;opacity:0.3;"/>
   </g>
   <g id="patch_31">
    <path clip-path="url(#p723a381e7f)" d="M 640.743256 446.92 
L 658.438674 446.92 
L 658.438674 444.643211 
L 640.743256 444.643211 
z
" style="fill:#ffa500;opacity:0.3;"/>
   </g>
   <g id="patch_32">
    <path clip-path="url(#p723a381e7f)" d="M 658.438674 446.92 
L 676.134091 446.92 
L 676.134091 440.089634 
L 658.438674 440.089634 
z
" style="fill:#ffa500;opacity:0.3;"/>
   </g>
   <g id="patch_33">
    <path clip-path="url(#p723a381e7f)" d="M 122.815909 446.92 
L 141.021931 446.92 
L 141.021931 440.281198 
L 122.815909 440.281198 
z
" style="fill:#1e90ff;opacity:0.3;"/>
   </g>
   <g id="patch_34">
    <path clip-path="url(#p723a381e7f)" d="M 141.021931 446.92 
L 159.227952 446.92 
L 159.227952 444.707066 
L 141.021931 444.707066 
z
" style="fill:#1e90ff;opacity:0.3;"/>
   </g>
   <g id="patch_35">
    <path clip-path="url(#p723a381e7f)" d="M 159.227952 446.92 
L 177.433974 446.92 
L 177.433974 444.707066 
L 159.227952 444.707066 
z
" style="fill:#1e90ff;opacity:0.3;"/>
   </g>
   <g id="patch_36">
    <path clip-path="url(#p723a381e7f)" d="M 177.433974 446.92 
L 195.639995 446.92 
L 195.639995 444.707066 
L 177.433974 444.707066 
z
" style="fill:#1e90ff;opacity:0.3;"/>
   </g>
   <g id="patch_37">
    <path clip-path="url(#p723a381e7f)" d="M 195.639995 446.92 
L 213.846017 446.92 
L 213.846017 440.281198 
L 195.639995 440.281198 
z
" style="fill:#1e90ff;opacity:0.3;"/>
   </g>
   <g id="patch_38">
    <path clip-path="url(#p723a381e7f)" d="M 213.846017 446.92 
L 232.052038 446.92 
L 232.052038 429.216527 
L 213.846017 429.216527 
z
" style="fill:#1e90ff;opacity:0.3;"/>
   </g>
   <g id="patch_39">
    <path clip-path="url(#p723a381e7f)" d="M 232.052038 446.92 
L 250.25806 446.92 
L 250.25806 429.216527 
L 232.052038 429.216527 
z
" style="fill:#1e90ff;opacity:0.3;"/>
   </g>
   <g id="patch_40">
    <path clip-path="url(#p723a381e7f)" d="M 250.25806 446.92 
L 268.464081 446.92 
L 268.464081 404.874251 
L 250.25806 404.874251 
z
" style="fill:#1e90ff;opacity:0.3;"/>
   </g>
   <g id="patch_41">
    <path clip-path="url(#p723a381e7f)" d="M 268.464081 446.92 
L 286.670103 446.92 
L 286.670103 367.25437 
L 268.464081 367.25437 
z
" style="fill:#1e90ff;opacity:0.3;"/>
   </g>
   <g id="patch_42">
    <path clip-path="url(#p723a381e7f)" d="M 286.670103 446.92 
L 304.876124 446.92 
L 304.876124 340.699161 
L 286.670103 340.699161 
z
" style="fill:#1e90ff;opacity:0.3;"/>
   </g>
   <g id="patch_43">
    <path clip-path="url(#p723a381e7f)" d="M 304.876124 446.92 
L 323.082146 446.92 
L 323.082146 285.375807 
L 304.876124 285.375807 
z
" style="fill:#1e90ff;opacity:0.3;"/>
   </g>
   <g id="patch_44">
    <path clip-path="url(#p723a381e7f)" d="M 323.082146 446.92 
L 341.288167 446.92 
L 341.288167 188.006704 
L 323.082146 188.006704 
z
" style="fill:#1e90ff;opacity:0.3;"/>
   </g>
   <g id="patch_45">
    <path clip-path="url(#p723a381e7f)" d="M 341.288167 446.92 
L 359.494189 446.92 
L 359.494189 185.79377 
L 341.288167 185.79377 
z
" style="fill:#1e90ff;opacity:0.3;"/>
   </g>
   <g id="patch_46">
    <path clip-path="url(#p723a381e7f)" d="M 359.494189 446.92 
L 377.70021 446.92 
L 377.70021 110.554008 
L 359.494189 110.554008 
z
" style="fill:#1e90ff;opacity:0.3;"/>
   </g>
   <g id="patch_47">
    <path clip-path="url(#p723a381e7f)" d="M 377.70021 446.92 
L 395.906232 446.92 
L 395.906232 77.359996 
L 377.70021 77.359996 
z
" style="fill:#1e90ff;opacity:0.3;"/>
   </g>
   <g id="patch_48">
    <path clip-path="url(#p723a381e7f)" d="M 395.906232 446.92 
L 414.112253 446.92 
L 414.112253 83.998799 
L 395.906232 83.998799 
z
" style="fill:#1e90ff;opacity:0.3;"/>
   </g>
   <g id="patch_49">
    <path clip-path="url(#p723a381e7f)" d="M 414.112253 446.92 
L 432.318275 446.92 
L 432.318275 66.295325 
L 414.112253 66.295325 
z
" style="fill:#1e90ff;opacity:0.3;"/>
   </g>
   <g id="patch_50">
    <path clip-path="url(#p723a381e7f)" d="M 432.318275 446.92 
L 450.524296 446.92 
L 450.524296 55.230654 
L 432.318275 55.230654 
z
" style="fill:#1e90ff;opacity:0.3;"/>
   </g>
   <g id="patch_51">
    <path clip-path="url(#p723a381e7f)" d="M 450.524296 446.92 
L 468.730318 446.92 
L 468.730318 88.424667 
L 450.524296 88.424667 
z
" style="fill:#1e90ff;opacity:0.3;"/>
   </g>
   <g id="patch_52">
    <path clip-path="url(#p723a381e7f)" d="M 468.730318 446.92 
L 486.936339 446.92 
L 486.936339 143.748021 
L 468.730318 143.748021 
z
" style="fill:#1e90ff;opacity:0.3;"/>
   </g>
   <g id="patch_53">
    <path clip-path="url(#p723a381e7f)" d="M 486.936339 446.92 
L 505.142361 446.92 
L 505.142361 163.664428 
L 486.936339 163.664428 
z
" style="fill:#1e90ff;opacity:0.3;"/>
   </g>
   <g id="patch_54">
    <path clip-path="url(#p723a381e7f)" d="M 505.142361 446.92 
L 523.348382 446.92 
L 523.348382 190.219638 
L 505.142361 190.219638 
z
" style="fill:#1e90ff;opacity:0.3;"/>
   </g>
   <g id="patch_55">
    <path clip-path="url(#p723a381e7f)" d="M 523.348382 446.92 
L 541.554404 446.92 
L 541.554404 289.801675 
L 523.348382 289.801675 
z
" style="fill:#1e90ff;opacity:0.3;"/>
   </g>
   <g id="patch_56">
    <path clip-path="url(#p723a381e7f)" d="M 541.554404 446.92 
L 559.760425 446.92 
L 559.760425 325.208621 
L 541.554404 325.208621 
z
" style="fill:#1e90ff;opacity:0.3;"/>
   </g>
   <g id="patch_57">
    <path clip-path="url(#p723a381e7f)" d="M 559.760425 446.92 
L 577.966447 446.92 
L 577.966447 384.957844 
L 559.760425 384.957844 
z
" style="fill:#1e90ff;opacity:0.3;"/>
   </g>
   <g id="patch_58">
    <path clip-path="url(#p723a381e7f)" d="M 577.966447 446.92 
L 596.172468 446.92 
L 596.172468 404.874251 
L 577.966447 404.874251 
z
" style="fill:#1e90ff;opacity:0.3;"/>
   </g>
   <g id="patch_59">
    <path clip-path="url(#p723a381e7f)" d="M 596.172468 446.92 
L 614.37849 446.92 
L 614.37849 427.003593 
L 596.172468 427.003593 
z
" style="fill:#1e90ff;opacity:0.3;"/>
   </g>
   <g id="patch_60">
    <path clip-path="url(#p723a381e7f)" d="M 614.37849 446.92 
L 632.584511 446.92 
L 632.584511 440.281198 
L 614.37849 440.281198 
z
" style="fill:#1e90ff;opacity:0.3;"/>
   </g>
   <g id="patch_61">
    <path clip-path="url(#p723a381e7f)" d="M 632.584511 446.92 
L 650.790533 446.92 
L 650.790533 442.494132 
L 632.584511 442.494132 
z
" style="fill:#1e90ff;opacity:0.3;"/>
   </g>
   <g id="patch_62">
    <path clip-path="url(#p723a381e7f)" d="M 650.790533 446.92 
L 668.996554 446.92 
L 668.996554 442.494132 
L 650.790533 442.494132 
z
" style="fill:#1e90ff;opacity:0.3;"/>
   </g>
   <g id="matplotlib.axis_1">
    <g id="xtick_1">
     <g id="line2d_1">
      <path clip-path="url(#p723a381e7f)" d="M 121.109416 446.92 
L 121.109416 16.2 
" style="fill:none;stroke:#b0b0b0;stroke-dasharray:0.8,1.32;stroke-dashoffset:0;stroke-width:0.8;"/>
     </g>
     <g id="line2d_2">
      <defs>
       <path d="M 0 0 
L 0 -3.5 
" id="mfb5f91f730" style="stroke:#000000;stroke-width:0.8;"/>
      </defs>
      <g>
       <use style="stroke:#000000;stroke-width:0.8;" x="121.109416" xlink:href="#mfb5f91f730" y="446.92"/>
      </g>
     </g>
     <g id="text_1">
      <!-- 340 -->
      <g transform="translate(106.793791 461.817656)scale(0.15 -0.15)">
       <defs>
        <path d="M 2597 2516 
Q 3050 2419 3304 2112 
Q 3559 1806 3559 1356 
Q 3559 666 3084 287 
Q 2609 -91 1734 -91 
Q 1441 -91 1130 -33 
Q 819 25 488 141 
L 488 750 
Q 750 597 1062 519 
Q 1375 441 1716 441 
Q 2309 441 2620 675 
Q 2931 909 2931 1356 
Q 2931 1769 2642 2001 
Q 2353 2234 1838 2234 
L 1294 2234 
L 1294 2753 
L 1863 2753 
Q 2328 2753 2575 2939 
Q 2822 3125 2822 3475 
Q 2822 3834 2567 4026 
Q 2313 4219 1838 4219 
Q 1578 4219 1281 4162 
Q 984 4106 628 3988 
L 628 4550 
Q 988 4650 1302 4700 
Q 1616 4750 1894 4750 
Q 2613 4750 3031 4423 
Q 3450 4097 3450 3541 
Q 3450 3153 3228 2886 
Q 3006 2619 2597 2516 
z
" id="DejaVuSans-33" transform="scale(0.015625)"/>
        <path d="M 2419 4116 
L 825 1625 
L 2419 1625 
L 2419 4116 
z
M 2253 4666 
L 3047 4666 
L 3047 1625 
L 3713 1625 
L 3713 1100 
L 3047 1100 
L 3047 0 
L 2419 0 
L 2419 1100 
L 313 1100 
L 313 1709 
L 2253 4666 
z
" id="DejaVuSans-34" transform="scale(0.015625)"/>
        <path d="M 2034 4250 
Q 1547 4250 1301 3770 
Q 1056 3291 1056 2328 
Q 1056 1369 1301 889 
Q 1547 409 2034 409 
Q 2525 409 2770 889 
Q 3016 1369 3016 2328 
Q 3016 3291 2770 3770 
Q 2525 4250 2034 4250 
z
M 2034 4750 
Q 2819 4750 3233 4129 
Q 3647 3509 3647 2328 
Q 3647 1150 3233 529 
Q 2819 -91 2034 -91 
Q 1250 -91 836 529 
Q 422 1150 422 2328 
Q 422 3509 836 4129 
Q 1250 4750 2034 4750 
z
" id="DejaVuSans-30" transform="scale(0.015625)"/>
       </defs>
       <use xlink:href="#DejaVuSans-33"/>
       <use x="63.623047" xlink:href="#DejaVuSans-34"/>
       <use x="127.246094" xlink:href="#DejaVuSans-30"/>
      </g>
     </g>
    </g>
    <g id="xtick_2">
     <g id="line2d_3">
      <path clip-path="url(#p723a381e7f)" d="M 189.666246 446.92 
L 189.666246 16.2 
" style="fill:none;stroke:#b0b0b0;stroke-dasharray:0.8,1.32;stroke-dashoffset:0;stroke-width:0.8;"/>
     </g>
     <g id="line2d_4">
      <g>
       <use style="stroke:#000000;stroke-width:0.8;" x="189.666246" xlink:href="#mfb5f91f730" y="446.92"/>
      </g>
     </g>
     <g id="text_2">
      <!-- 360 -->
      <g transform="translate(175.350621 461.817656)scale(0.15 -0.15)">
       <defs>
        <path d="M 2113 2584 
Q 1688 2584 1439 2293 
Q 1191 2003 1191 1497 
Q 1191 994 1439 701 
Q 1688 409 2113 409 
Q 2538 409 2786 701 
Q 3034 994 3034 1497 
Q 3034 2003 2786 2293 
Q 2538 2584 2113 2584 
z
M 3366 4563 
L 3366 3988 
Q 3128 4100 2886 4159 
Q 2644 4219 2406 4219 
Q 1781 4219 1451 3797 
Q 1122 3375 1075 2522 
Q 1259 2794 1537 2939 
Q 1816 3084 2150 3084 
Q 2853 3084 3261 2657 
Q 3669 2231 3669 1497 
Q 3669 778 3244 343 
Q 2819 -91 2113 -91 
Q 1303 -91 875 529 
Q 447 1150 447 2328 
Q 447 3434 972 4092 
Q 1497 4750 2381 4750 
Q 2619 4750 2861 4703 
Q 3103 4656 3366 4563 
z
" id="DejaVuSans-36" transform="scale(0.015625)"/>
       </defs>
       <use xlink:href="#DejaVuSans-33"/>
       <use x="63.623047" xlink:href="#DejaVuSans-36"/>
       <use x="127.246094" xlink:href="#DejaVuSans-30"/>
      </g>
     </g>
    </g>
    <g id="xtick_3">
     <g id="line2d_5">
      <path clip-path="url(#p723a381e7f)" d="M 258.223077 446.92 
L 258.223077 16.2 
" style="fill:none;stroke:#b0b0b0;stroke-dasharray:0.8,1.32;stroke-dashoffset:0;stroke-width:0.8;"/>
     </g>
     <g id="line2d_6">
      <g>
       <use style="stroke:#000000;stroke-width:0.8;" x="258.223077" xlink:href="#mfb5f91f730" y="446.92"/>
      </g>
     </g>
     <g id="text_3">
      <!-- 380 -->
      <g transform="translate(243.907452 461.817656)scale(0.15 -0.15)">
       <defs>
        <path d="M 2034 2216 
Q 1584 2216 1326 1975 
Q 1069 1734 1069 1313 
Q 1069 891 1326 650 
Q 1584 409 2034 409 
Q 2484 409 2743 651 
Q 3003 894 3003 1313 
Q 3003 1734 2745 1975 
Q 2488 2216 2034 2216 
z
M 1403 2484 
Q 997 2584 770 2862 
Q 544 3141 544 3541 
Q 544 4100 942 4425 
Q 1341 4750 2034 4750 
Q 2731 4750 3128 4425 
Q 3525 4100 3525 3541 
Q 3525 3141 3298 2862 
Q 3072 2584 2669 2484 
Q 3125 2378 3379 2068 
Q 3634 1759 3634 1313 
Q 3634 634 3220 271 
Q 2806 -91 2034 -91 
Q 1263 -91 848 271 
Q 434 634 434 1313 
Q 434 1759 690 2068 
Q 947 2378 1403 2484 
z
M 1172 3481 
Q 1172 3119 1398 2916 
Q 1625 2713 2034 2713 
Q 2441 2713 2670 2916 
Q 2900 3119 2900 3481 
Q 2900 3844 2670 4047 
Q 2441 4250 2034 4250 
Q 1625 4250 1398 4047 
Q 1172 3844 1172 3481 
z
" id="DejaVuSans-38" transform="scale(0.015625)"/>
       </defs>
       <use xlink:href="#DejaVuSans-33"/>
       <use x="63.623047" xlink:href="#DejaVuSans-38"/>
       <use x="127.246094" xlink:href="#DejaVuSans-30"/>
      </g>
     </g>
    </g>
    <g id="xtick_4">
     <g id="line2d_7">
      <path clip-path="url(#p723a381e7f)" d="M 326.779907 446.92 
L 326.779907 16.2 
" style="fill:none;stroke:#b0b0b0;stroke-dasharray:0.8,1.32;stroke-dashoffset:0;stroke-width:0.8;"/>
     </g>
     <g id="line2d_8">
      <g>
       <use style="stroke:#000000;stroke-width:0.8;" x="326.779907" xlink:href="#mfb5f91f730" y="446.92"/>
      </g>
     </g>
     <g id="text_4">
      <!-- 400 -->
      <g transform="translate(312.464282 461.817656)scale(0.15 -0.15)">
       <use xlink:href="#DejaVuSans-34"/>
       <use x="63.623047" xlink:href="#DejaVuSans-30"/>
       <use x="127.246094" xlink:href="#DejaVuSans-30"/>
      </g>
     </g>
    </g>
    <g id="xtick_5">
     <g id="line2d_9">
      <path clip-path="url(#p723a381e7f)" d="M 395.336738 446.92 
L 395.336738 16.2 
" style="fill:none;stroke:#b0b0b0;stroke-dasharray:0.8,1.32;stroke-dashoffset:0;stroke-width:0.8;"/>
     </g>
     <g id="line2d_10">
      <g>
       <use style="stroke:#000000;stroke-width:0.8;" x="395.336738" xlink:href="#mfb5f91f730" y="446.92"/>
      </g>
     </g>
     <g id="text_5">
      <!-- 420 -->
      <g transform="translate(381.021113 461.817656)scale(0.15 -0.15)">
       <defs>
        <path d="M 1228 531 
L 3431 531 
L 3431 0 
L 469 0 
L 469 531 
Q 828 903 1448 1529 
Q 2069 2156 2228 2338 
Q 2531 2678 2651 2914 
Q 2772 3150 2772 3378 
Q 2772 3750 2511 3984 
Q 2250 4219 1831 4219 
Q 1534 4219 1204 4116 
Q 875 4013 500 3803 
L 500 4441 
Q 881 4594 1212 4672 
Q 1544 4750 1819 4750 
Q 2544 4750 2975 4387 
Q 3406 4025 3406 3419 
Q 3406 3131 3298 2873 
Q 3191 2616 2906 2266 
Q 2828 2175 2409 1742 
Q 1991 1309 1228 531 
z
" id="DejaVuSans-32" transform="scale(0.015625)"/>
       </defs>
       <use xlink:href="#DejaVuSans-34"/>
       <use x="63.623047" xlink:href="#DejaVuSans-32"/>
       <use x="127.246094" xlink:href="#DejaVuSans-30"/>
      </g>
     </g>
    </g>
    <g id="xtick_6">
     <g id="line2d_11">
      <path clip-path="url(#p723a381e7f)" d="M 463.893568 446.92 
L 463.893568 16.2 
" style="fill:none;stroke:#b0b0b0;stroke-dasharray:0.8,1.32;stroke-dashoffset:0;stroke-width:0.8;"/>
     </g>
     <g id="line2d_12">
      <g>
       <use style="stroke:#000000;stroke-width:0.8;" x="463.893568" xlink:href="#mfb5f91f730" y="446.92"/>
      </g>
     </g>
     <g id="text_6">
      <!-- 440 -->
      <g transform="translate(449.577943 461.817656)scale(0.15 -0.15)">
       <use xlink:href="#DejaVuSans-34"/>
       <use x="63.623047" xlink:href="#DejaVuSans-34"/>
       <use x="127.246094" xlink:href="#DejaVuSans-30"/>
      </g>
     </g>
    </g>
    <g id="xtick_7">
     <g id="line2d_13">
      <path clip-path="url(#p723a381e7f)" d="M 532.450399 446.92 
L 532.450399 16.2 
" style="fill:none;stroke:#b0b0b0;stroke-dasharray:0.8,1.32;stroke-dashoffset:0;stroke-width:0.8;"/>
     </g>
     <g id="line2d_14">
      <g>
       <use style="stroke:#000000;stroke-width:0.8;" x="532.450399" xlink:href="#mfb5f91f730" y="446.92"/>
      </g>
     </g>
     <g id="text_7">
      <!-- 460 -->
      <g transform="translate(518.134774 461.817656)scale(0.15 -0.15)">
       <use xlink:href="#DejaVuSans-34"/>
       <use x="63.623047" xlink:href="#DejaVuSans-36"/>
       <use x="127.246094" xlink:href="#DejaVuSans-30"/>
      </g>
     </g>
    </g>
    <g id="xtick_8">
     <g id="line2d_15">
      <path clip-path="url(#p723a381e7f)" d="M 601.00723 446.92 
L 601.00723 16.2 
" style="fill:none;stroke:#b0b0b0;stroke-dasharray:0.8,1.32;stroke-dashoffset:0;stroke-width:0.8;"/>
     </g>
     <g id="line2d_16">
      <g>
       <use style="stroke:#000000;stroke-width:0.8;" x="601.00723" xlink:href="#mfb5f91f730" y="446.92"/>
      </g>
     </g>
     <g id="text_8">
      <!-- 480 -->
      <g transform="translate(586.691605 461.817656)scale(0.15 -0.15)">
       <use xlink:href="#DejaVuSans-34"/>
       <use x="63.623047" xlink:href="#DejaVuSans-38"/>
       <use x="127.246094" xlink:href="#DejaVuSans-30"/>
      </g>
     </g>
    </g>
    <g id="xtick_9">
     <g id="line2d_17">
      <path clip-path="url(#p723a381e7f)" d="M 669.56406 446.92 
L 669.56406 16.2 
" style="fill:none;stroke:#b0b0b0;stroke-dasharray:0.8,1.32;stroke-dashoffset:0;stroke-width:0.8;"/>
     </g>
     <g id="line2d_18">
      <g>
       <use style="stroke:#000000;stroke-width:0.8;" x="669.56406" xlink:href="#mfb5f91f730" y="446.92"/>
      </g>
     </g>
     <g id="text_9">
      <!-- 500 -->
      <g transform="translate(655.248435 461.817656)scale(0.15 -0.15)">
       <defs>
        <path d="M 691 4666 
L 3169 4666 
L 3169 4134 
L 1269 4134 
L 1269 2991 
Q 1406 3038 1543 3061 
Q 1681 3084 1819 3084 
Q 2600 3084 3056 2656 
Q 3513 2228 3513 1497 
Q 3513 744 3044 326 
Q 2575 -91 1722 -91 
Q 1428 -91 1123 -41 
Q 819 9 494 109 
L 494 744 
Q 775 591 1075 516 
Q 1375 441 1709 441 
Q 2250 441 2565 725 
Q 2881 1009 2881 1497 
Q 2881 1984 2565 2268 
Q 2250 2553 1709 2553 
Q 1456 2553 1204 2497 
Q 953 2441 691 2322 
L 691 4666 
z
" id="DejaVuSans-35" transform="scale(0.015625)"/>
       </defs>
       <use xlink:href="#DejaVuSans-35"/>
       <use x="63.623047" xlink:href="#DejaVuSans-30"/>
       <use x="127.246094" xlink:href="#DejaVuSans-30"/>
      </g>
     </g>
    </g>
    <g id="text_10">
     <!-- Długość cyklu pracy [dni] -->
     <g transform="translate(304.086719 480.934844)scale(0.15 -0.15)">
      <defs>
       <path d="M 1259 4147 
L 1259 519 
L 2022 519 
Q 2988 519 3436 956 
Q 3884 1394 3884 2338 
Q 3884 3275 3436 3711 
Q 2988 4147 2022 4147 
L 1259 4147 
z
M 628 4666 
L 1925 4666 
Q 3281 4666 3915 4102 
Q 4550 3538 4550 2338 
Q 4550 1131 3912 565 
Q 3275 0 1925 0 
L 628 0 
L 628 4666 
z
" id="DejaVuSans-44" transform="scale(0.015625)"/>
       <path d="M 622 4863 
L 1197 4863 
L 1197 2981 
L 1588 3263 
L 1825 2931 
L 1197 2491 
L 1197 0 
L 622 0 
L 622 2081 
L 238 1806 
L 6 2138 
L 622 2578 
L 622 4863 
z
" id="DejaVuSans-142" transform="scale(0.015625)"/>
       <path d="M 544 1381 
L 544 3500 
L 1119 3500 
L 1119 1403 
Q 1119 906 1312 657 
Q 1506 409 1894 409 
Q 2359 409 2629 706 
Q 2900 1003 2900 1516 
L 2900 3500 
L 3475 3500 
L 3475 0 
L 2900 0 
L 2900 538 
Q 2691 219 2414 64 
Q 2138 -91 1772 -91 
Q 1169 -91 856 284 
Q 544 659 544 1381 
z
M 1991 3584 
L 1991 3584 
z
" id="DejaVuSans-75" transform="scale(0.015625)"/>
       <path d="M 2906 1791 
Q 2906 2416 2648 2759 
Q 2391 3103 1925 3103 
Q 1463 3103 1205 2759 
Q 947 2416 947 1791 
Q 947 1169 1205 825 
Q 1463 481 1925 481 
Q 2391 481 2648 825 
Q 2906 1169 2906 1791 
z
M 3481 434 
Q 3481 -459 3084 -895 
Q 2688 -1331 1869 -1331 
Q 1566 -1331 1297 -1286 
Q 1028 -1241 775 -1147 
L 775 -588 
Q 1028 -725 1275 -790 
Q 1522 -856 1778 -856 
Q 2344 -856 2625 -561 
Q 2906 -266 2906 331 
L 2906 616 
Q 2728 306 2450 153 
Q 2172 0 1784 0 
Q 1141 0 747 490 
Q 353 981 353 1791 
Q 353 2603 747 3093 
Q 1141 3584 1784 3584 
Q 2172 3584 2450 3431 
Q 2728 3278 2906 2969 
L 2906 3500 
L 3481 3500 
L 3481 434 
z
" id="DejaVuSans-67" transform="scale(0.015625)"/>
       <path d="M 1959 3097 
Q 1497 3097 1228 2736 
Q 959 2375 959 1747 
Q 959 1119 1226 758 
Q 1494 397 1959 397 
Q 2419 397 2687 759 
Q 2956 1122 2956 1747 
Q 2956 2369 2687 2733 
Q 2419 3097 1959 3097 
z
M 1959 3584 
Q 2709 3584 3137 3096 
Q 3566 2609 3566 1747 
Q 3566 888 3137 398 
Q 2709 -91 1959 -91 
Q 1206 -91 779 398 
Q 353 888 353 1747 
Q 353 2609 779 3096 
Q 1206 3584 1959 3584 
z
" id="DejaVuSans-6f" transform="scale(0.015625)"/>
       <path d="M 2242 5119 
L 2864 5119 
L 1846 3944 
L 1367 3944 
L 2242 5119 
z
M 2834 3397 
L 2834 2853 
Q 2591 2978 2328 3040 
Q 2066 3103 1784 3103 
Q 1356 3103 1142 2972 
Q 928 2841 928 2578 
Q 928 2378 1081 2264 
Q 1234 2150 1697 2047 
L 1894 2003 
Q 2506 1872 2764 1633 
Q 3022 1394 3022 966 
Q 3022 478 2636 193 
Q 2250 -91 1575 -91 
Q 1294 -91 989 -36 
Q 684 19 347 128 
L 347 722 
Q 666 556 975 473 
Q 1284 391 1588 391 
Q 1994 391 2212 530 
Q 2431 669 2431 922 
Q 2431 1156 2273 1281 
Q 2116 1406 1581 1522 
L 1381 1569 
Q 847 1681 609 1914 
Q 372 2147 372 2553 
Q 372 3047 722 3315 
Q 1072 3584 1716 3584 
Q 2034 3584 2315 3537 
Q 2597 3491 2834 3397 
z
" id="DejaVuSans-15b" transform="scale(0.015625)"/>
       <path d="M 3122 3366 
L 3122 2828 
Q 2878 2963 2633 3030 
Q 2388 3097 2138 3097 
Q 1578 3097 1268 2742 
Q 959 2388 959 1747 
Q 959 1106 1268 751 
Q 1578 397 2138 397 
Q 2388 397 2633 464 
Q 2878 531 3122 666 
L 3122 134 
Q 2881 22 2623 -34 
Q 2366 -91 2075 -91 
Q 1284 -91 818 406 
Q 353 903 353 1747 
Q 353 2603 823 3093 
Q 1294 3584 2113 3584 
Q 2378 3584 2631 3529 
Q 2884 3475 3122 3366 
z
M 2466 5119 
L 3088 5119 
L 2070 3944 
L 1591 3944 
L 2466 5119 
z
" id="DejaVuSans-107" transform="scale(0.015625)"/>
       <path id="DejaVuSans-20" transform="scale(0.015625)"/>
       <path d="M 3122 3366 
L 3122 2828 
Q 2878 2963 2633 3030 
Q 2388 3097 2138 3097 
Q 1578 3097 1268 2742 
Q 959 2388 959 1747 
Q 959 1106 1268 751 
Q 1578 397 2138 397 
Q 2388 397 2633 464 
Q 2878 531 3122 666 
L 3122 134 
Q 2881 22 2623 -34 
Q 2366 -91 2075 -91 
Q 1284 -91 818 406 
Q 353 903 353 1747 
Q 353 2603 823 3093 
Q 1294 3584 2113 3584 
Q 2378 3584 2631 3529 
Q 2884 3475 3122 3366 
z
" id="DejaVuSans-63" transform="scale(0.015625)"/>
       <path d="M 2059 -325 
Q 1816 -950 1584 -1140 
Q 1353 -1331 966 -1331 
L 506 -1331 
L 506 -850 
L 844 -850 
Q 1081 -850 1212 -737 
Q 1344 -625 1503 -206 
L 1606 56 
L 191 3500 
L 800 3500 
L 1894 763 
L 2988 3500 
L 3597 3500 
L 2059 -325 
z
" id="DejaVuSans-79" transform="scale(0.015625)"/>
       <path d="M 581 4863 
L 1159 4863 
L 1159 1991 
L 2875 3500 
L 3609 3500 
L 1753 1863 
L 3688 0 
L 2938 0 
L 1159 1709 
L 1159 0 
L 581 0 
L 581 4863 
z
" id="DejaVuSans-6b" transform="scale(0.015625)"/>
       <path d="M 603 4863 
L 1178 4863 
L 1178 0 
L 603 0 
L 603 4863 
z
" id="DejaVuSans-6c" transform="scale(0.015625)"/>
       <path d="M 1159 525 
L 1159 -1331 
L 581 -1331 
L 581 3500 
L 1159 3500 
L 1159 2969 
Q 1341 3281 1617 3432 
Q 1894 3584 2278 3584 
Q 2916 3584 3314 3078 
Q 3713 2572 3713 1747 
Q 3713 922 3314 415 
Q 2916 -91 2278 -91 
Q 1894 -91 1617 61 
Q 1341 213 1159 525 
z
M 3116 1747 
Q 3116 2381 2855 2742 
Q 2594 3103 2138 3103 
Q 1681 3103 1420 2742 
Q 1159 2381 1159 1747 
Q 1159 1113 1420 752 
Q 1681 391 2138 391 
Q 2594 391 2855 752 
Q 3116 1113 3116 1747 
z
" id="DejaVuSans-70" transform="scale(0.015625)"/>
       <path d="M 2631 2963 
Q 2534 3019 2420 3045 
Q 2306 3072 2169 3072 
Q 1681 3072 1420 2755 
Q 1159 2438 1159 1844 
L 1159 0 
L 581 0 
L 581 3500 
L 1159 3500 
L 1159 2956 
Q 1341 3275 1631 3429 
Q 1922 3584 2338 3584 
Q 2397 3584 2469 3576 
Q 2541 3569 2628 3553 
L 2631 2963 
z
" id="DejaVuSans-72" transform="scale(0.015625)"/>
       <path d="M 2194 1759 
Q 1497 1759 1228 1600 
Q 959 1441 959 1056 
Q 959 750 1161 570 
Q 1363 391 1709 391 
Q 2188 391 2477 730 
Q 2766 1069 2766 1631 
L 2766 1759 
L 2194 1759 
z
M 3341 1997 
L 3341 0 
L 2766 0 
L 2766 531 
Q 2569 213 2275 61 
Q 1981 -91 1556 -91 
Q 1019 -91 701 211 
Q 384 513 384 1019 
Q 384 1609 779 1909 
Q 1175 2209 1959 2209 
L 2766 2209 
L 2766 2266 
Q 2766 2663 2505 2880 
Q 2244 3097 1772 3097 
Q 1472 3097 1187 3025 
Q 903 2953 641 2809 
L 641 3341 
Q 956 3463 1253 3523 
Q 1550 3584 1831 3584 
Q 2591 3584 2966 3190 
Q 3341 2797 3341 1997 
z
" id="DejaVuSans-61" transform="scale(0.015625)"/>
       <path d="M 550 4863 
L 1875 4863 
L 1875 4416 
L 1125 4416 
L 1125 -397 
L 1875 -397 
L 1875 -844 
L 550 -844 
L 550 4863 
z
" id="DejaVuSans-5b" transform="scale(0.015625)"/>
       <path d="M 2906 2969 
L 2906 4863 
L 3481 4863 
L 3481 0 
L 2906 0 
L 2906 525 
Q 2725 213 2448 61 
Q 2172 -91 1784 -91 
Q 1150 -91 751 415 
Q 353 922 353 1747 
Q 353 2572 751 3078 
Q 1150 3584 1784 3584 
Q 2172 3584 2448 3432 
Q 2725 3281 2906 2969 
z
M 947 1747 
Q 947 1113 1208 752 
Q 1469 391 1925 391 
Q 2381 391 2643 752 
Q 2906 1113 2906 1747 
Q 2906 2381 2643 2742 
Q 2381 3103 1925 3103 
Q 1469 3103 1208 2742 
Q 947 2381 947 1747 
z
" id="DejaVuSans-64" transform="scale(0.015625)"/>
       <path d="M 3513 2113 
L 3513 0 
L 2938 0 
L 2938 2094 
Q 2938 2591 2744 2837 
Q 2550 3084 2163 3084 
Q 1697 3084 1428 2787 
Q 1159 2491 1159 1978 
L 1159 0 
L 581 0 
L 581 3500 
L 1159 3500 
L 1159 2956 
Q 1366 3272 1645 3428 
Q 1925 3584 2291 3584 
Q 2894 3584 3203 3211 
Q 3513 2838 3513 2113 
z
" id="DejaVuSans-6e" transform="scale(0.015625)"/>
       <path d="M 603 3500 
L 1178 3500 
L 1178 0 
L 603 0 
L 603 3500 
z
M 603 4863 
L 1178 4863 
L 1178 4134 
L 603 4134 
L 603 4863 
z
" id="DejaVuSans-69" transform="scale(0.015625)"/>
       <path d="M 1947 4863 
L 1947 -844 
L 622 -844 
L 622 -397 
L 1369 -397 
L 1369 4416 
L 622 4416 
L 622 4863 
L 1947 4863 
z
" id="DejaVuSans-5d" transform="scale(0.015625)"/>
      </defs>
      <use xlink:href="#DejaVuSans-44"/>
      <use x="77.001953" xlink:href="#DejaVuSans-142"/>
      <use x="105.419922" xlink:href="#DejaVuSans-75"/>
      <use x="168.798828" xlink:href="#DejaVuSans-67"/>
      <use x="232.275391" xlink:href="#DejaVuSans-6f"/>
      <use x="293.457031" xlink:href="#DejaVuSans-15b"/>
      <use x="345.556641" xlink:href="#DejaVuSans-107"/>
      <use x="400.537109" xlink:href="#DejaVuSans-20"/>
      <use x="432.324219" xlink:href="#DejaVuSans-63"/>
      <use x="487.304688" xlink:href="#DejaVuSans-79"/>
      <use x="546.484375" xlink:href="#DejaVuSans-6b"/>
      <use x="604.394531" xlink:href="#DejaVuSans-6c"/>
      <use x="632.177734" xlink:href="#DejaVuSans-75"/>
      <use x="695.556641" xlink:href="#DejaVuSans-20"/>
      <use x="727.34375" xlink:href="#DejaVuSans-70"/>
      <use x="790.820312" xlink:href="#DejaVuSans-72"/>
      <use x="831.933594" xlink:href="#DejaVuSans-61"/>
      <use x="893.212891" xlink:href="#DejaVuSans-63"/>
      <use x="948.193359" xlink:href="#DejaVuSans-79"/>
      <use x="1007.373047" xlink:href="#DejaVuSans-20"/>
      <use x="1039.160156" xlink:href="#DejaVuSans-5b"/>
      <use x="1078.173828" xlink:href="#DejaVuSans-64"/>
      <use x="1141.650391" xlink:href="#DejaVuSans-6e"/>
      <use x="1205.029297" xlink:href="#DejaVuSans-69"/>
      <use x="1232.8125" xlink:href="#DejaVuSans-5d"/>
     </g>
    </g>
   </g>
   <g id="matplotlib.axis_2">
    <g id="ytick_1">
     <g id="line2d_19">
      <path clip-path="url(#p723a381e7f)" d="M 95.15 446.92 
L 703.8 446.92 
" style="fill:none;stroke:#b0b0b0;stroke-dasharray:0.8,1.32;stroke-dashoffset:0;stroke-width:0.8;"/>
     </g>
     <g id="line2d_20">
      <defs>
       <path d="M 0 0 
L 3.5 0 
" id="m3962316439" style="stroke:#000000;stroke-width:0.8;"/>
      </defs>
      <g>
       <use style="stroke:#000000;stroke-width:0.8;" x="95.15" xlink:href="#m3962316439" y="446.92"/>
      </g>
     </g>
     <g id="text_11">
      <!-- 0.0000 -->
      <g transform="translate(39.164063 452.618828)scale(0.15 -0.15)">
       <defs>
        <path d="M 684 794 
L 1344 794 
L 1344 0 
L 684 0 
L 684 794 
z
" id="DejaVuSans-2e" transform="scale(0.015625)"/>
       </defs>
       <use xlink:href="#DejaVuSans-30"/>
       <use x="63.623047" xlink:href="#DejaVuSans-2e"/>
       <use x="95.410156" xlink:href="#DejaVuSans-30"/>
       <use x="159.033203" xlink:href="#DejaVuSans-30"/>
       <use x="222.65625" xlink:href="#DejaVuSans-30"/>
       <use x="286.279297" xlink:href="#DejaVuSans-30"/>
      </g>
     </g>
    </g>
    <g id="ytick_2">
     <g id="line2d_21">
      <path clip-path="url(#p723a381e7f)" d="M 95.15 388.153096 
L 703.8 388.153096 
" style="fill:none;stroke:#b0b0b0;stroke-dasharray:0.8,1.32;stroke-dashoffset:0;stroke-width:0.8;"/>
     </g>
     <g id="line2d_22">
      <g>
       <use style="stroke:#000000;stroke-width:0.8;" x="95.15" xlink:href="#m3962316439" y="388.153096"/>
      </g>
     </g>
     <g id="text_12">
      <!-- 0.0025 -->
      <g transform="translate(39.164063 393.851924)scale(0.15 -0.15)">
       <use xlink:href="#DejaVuSans-30"/>
       <use x="63.623047" xlink:href="#DejaVuSans-2e"/>
       <use x="95.410156" xlink:href="#DejaVuSans-30"/>
       <use x="159.033203" xlink:href="#DejaVuSans-30"/>
       <use x="222.65625" xlink:href="#DejaVuSans-32"/>
       <use x="286.279297" xlink:href="#DejaVuSans-35"/>
      </g>
     </g>
    </g>
    <g id="ytick_3">
     <g id="line2d_23">
      <path clip-path="url(#p723a381e7f)" d="M 95.15 329.386192 
L 703.8 329.386192 
" style="fill:none;stroke:#b0b0b0;stroke-dasharray:0.8,1.32;stroke-dashoffset:0;stroke-width:0.8;"/>
     </g>
     <g id="line2d_24">
      <g>
       <use style="stroke:#000000;stroke-width:0.8;" x="95.15" xlink:href="#m3962316439" y="329.386192"/>
      </g>
     </g>
     <g id="text_13">
      <!-- 0.0050 -->
      <g transform="translate(39.164063 335.08502)scale(0.15 -0.15)">
       <use xlink:href="#DejaVuSans-30"/>
       <use x="63.623047" xlink:href="#DejaVuSans-2e"/>
       <use x="95.410156" xlink:href="#DejaVuSans-30"/>
       <use x="159.033203" xlink:href="#DejaVuSans-30"/>
       <use x="222.65625" xlink:href="#DejaVuSans-35"/>
       <use x="286.279297" xlink:href="#DejaVuSans-30"/>
      </g>
     </g>
    </g>
    <g id="ytick_4">
     <g id="line2d_25">
      <path clip-path="url(#p723a381e7f)" d="M 95.15 270.619288 
L 703.8 270.619288 
" style="fill:none;stroke:#b0b0b0;stroke-dasharray:0.8,1.32;stroke-dashoffset:0;stroke-width:0.8;"/>
     </g>
     <g id="line2d_26">
      <g>
       <use style="stroke:#000000;stroke-width:0.8;" x="95.15" xlink:href="#m3962316439" y="270.619288"/>
      </g>
     </g>
     <g id="text_14">
      <!-- 0.0075 -->
      <g transform="translate(39.164063 276.318116)scale(0.15 -0.15)">
       <defs>
        <path d="M 525 4666 
L 3525 4666 
L 3525 4397 
L 1831 0 
L 1172 0 
L 2766 4134 
L 525 4134 
L 525 4666 
z
" id="DejaVuSans-37" transform="scale(0.015625)"/>
       </defs>
       <use xlink:href="#DejaVuSans-30"/>
       <use x="63.623047" xlink:href="#DejaVuSans-2e"/>
       <use x="95.410156" xlink:href="#DejaVuSans-30"/>
       <use x="159.033203" xlink:href="#DejaVuSans-30"/>
       <use x="222.65625" xlink:href="#DejaVuSans-37"/>
       <use x="286.279297" xlink:href="#DejaVuSans-35"/>
      </g>
     </g>
    </g>
    <g id="ytick_5">
     <g id="line2d_27">
      <path clip-path="url(#p723a381e7f)" d="M 95.15 211.852384 
L 703.8 211.852384 
" style="fill:none;stroke:#b0b0b0;stroke-dasharray:0.8,1.32;stroke-dashoffset:0;stroke-width:0.8;"/>
     </g>
     <g id="line2d_28">
      <g>
       <use style="stroke:#000000;stroke-width:0.8;" x="95.15" xlink:href="#m3962316439" y="211.852384"/>
      </g>
     </g>
     <g id="text_15">
      <!-- 0.0100 -->
      <g transform="translate(39.164063 217.551212)scale(0.15 -0.15)">
       <defs>
        <path d="M 794 531 
L 1825 531 
L 1825 4091 
L 703 3866 
L 703 4441 
L 1819 4666 
L 2450 4666 
L 2450 531 
L 3481 531 
L 3481 0 
L 794 0 
L 794 531 
z
" id="DejaVuSans-31" transform="scale(0.015625)"/>
       </defs>
       <use xlink:href="#DejaVuSans-30"/>
       <use x="63.623047" xlink:href="#DejaVuSans-2e"/>
       <use x="95.410156" xlink:href="#DejaVuSans-30"/>
       <use x="159.033203" xlink:href="#DejaVuSans-31"/>
       <use x="222.65625" xlink:href="#DejaVuSans-30"/>
       <use x="286.279297" xlink:href="#DejaVuSans-30"/>
      </g>
     </g>
    </g>
    <g id="ytick_6">
     <g id="line2d_29">
      <path clip-path="url(#p723a381e7f)" d="M 95.15 153.08548 
L 703.8 153.08548 
" style="fill:none;stroke:#b0b0b0;stroke-dasharray:0.8,1.32;stroke-dashoffset:0;stroke-width:0.8;"/>
     </g>
     <g id="line2d_30">
      <g>
       <use style="stroke:#000000;stroke-width:0.8;" x="95.15" xlink:href="#m3962316439" y="153.08548"/>
      </g>
     </g>
     <g id="text_16">
      <!-- 0.0125 -->
      <g transform="translate(39.164063 158.784308)scale(0.15 -0.15)">
       <use xlink:href="#DejaVuSans-30"/>
       <use x="63.623047" xlink:href="#DejaVuSans-2e"/>
       <use x="95.410156" xlink:href="#DejaVuSans-30"/>
       <use x="159.033203" xlink:href="#DejaVuSans-31"/>
       <use x="222.65625" xlink:href="#DejaVuSans-32"/>
       <use x="286.279297" xlink:href="#DejaVuSans-35"/>
      </g>
     </g>
    </g>
    <g id="ytick_7">
     <g id="line2d_31">
      <path clip-path="url(#p723a381e7f)" d="M 95.15 94.318576 
L 703.8 94.318576 
" style="fill:none;stroke:#b0b0b0;stroke-dasharray:0.8,1.32;stroke-dashoffset:0;stroke-width:0.8;"/>
     </g>
     <g id="line2d_32">
      <g>
       <use style="stroke:#000000;stroke-width:0.8;" x="95.15" xlink:href="#m3962316439" y="94.318576"/>
      </g>
     </g>
     <g id="text_17">
      <!-- 0.0150 -->
      <g transform="translate(39.164063 100.017404)scale(0.15 -0.15)">
       <use xlink:href="#DejaVuSans-30"/>
       <use x="63.623047" xlink:href="#DejaVuSans-2e"/>
       <use x="95.410156" xlink:href="#DejaVuSans-30"/>
       <use x="159.033203" xlink:href="#DejaVuSans-31"/>
       <use x="222.65625" xlink:href="#DejaVuSans-35"/>
       <use x="286.279297" xlink:href="#DejaVuSans-30"/>
      </g>
     </g>
    </g>
    <g id="ytick_8">
     <g id="line2d_33">
      <path clip-path="url(#p723a381e7f)" d="M 95.15 35.551672 
L 703.8 35.551672 
" style="fill:none;stroke:#b0b0b0;stroke-dasharray:0.8,1.32;stroke-dashoffset:0;stroke-width:0.8;"/>
     </g>
     <g id="line2d_34">
      <g>
       <use style="stroke:#000000;stroke-width:0.8;" x="95.15" xlink:href="#m3962316439" y="35.551672"/>
      </g>
     </g>
     <g id="text_18">
      <!-- 0.0175 -->
      <g transform="translate(39.164063 41.2505)scale(0.15 -0.15)">
       <use xlink:href="#DejaVuSans-30"/>
       <use x="63.623047" xlink:href="#DejaVuSans-2e"/>
       <use x="95.410156" xlink:href="#DejaVuSans-30"/>
       <use x="159.033203" xlink:href="#DejaVuSans-31"/>
       <use x="222.65625" xlink:href="#DejaVuSans-37"/>
       <use x="286.279297" xlink:href="#DejaVuSans-35"/>
      </g>
     </g>
    </g>
    <g id="text_19">
     <!-- Gęstość prawdopodobieństwa -->
     <g transform="translate(32.044531 344.252187)rotate(-90)scale(0.15 -0.15)">
      <defs>
       <path d="M 3809 666 
L 3809 1919 
L 2778 1919 
L 2778 2438 
L 4434 2438 
L 4434 434 
Q 4069 175 3628 42 
Q 3188 -91 2688 -91 
Q 1594 -91 976 548 
Q 359 1188 359 2328 
Q 359 3472 976 4111 
Q 1594 4750 2688 4750 
Q 3144 4750 3555 4637 
Q 3966 4525 4313 4306 
L 4313 3634 
Q 3963 3931 3569 4081 
Q 3175 4231 2741 4231 
Q 1884 4231 1454 3753 
Q 1025 3275 1025 2328 
Q 1025 1384 1454 906 
Q 1884 428 2741 428 
Q 3075 428 3337 486 
Q 3600 544 3809 666 
z
" id="DejaVuSans-47" transform="scale(0.015625)"/>
       <path d="M 3597 1894 
L 3597 1613 
L 953 1613 
Q 991 1019 1311 708 
Q 1631 397 2203 397 
Q 2534 397 2845 478 
Q 3156 559 3463 722 
L 3463 178 
Q 3153 47 2828 -22 
Q 2503 -91 2169 -91 
Q 1331 -91 842 396 
Q 353 884 353 1716 
Q 353 2575 817 3079 
Q 1281 3584 2069 3584 
Q 2775 3584 3186 3129 
Q 3597 2675 3597 1894 
z
M 3022 2063 
Q 3016 2534 2758 2815 
Q 2500 3097 2075 3097 
Q 1594 3097 1305 2825 
Q 1016 2553 972 2059 
L 3022 2063 
z
M 2551 0 
L 2923 0 
Q 2782 -191 2715 -328 
Q 2648 -466 2648 -563 
Q 2648 -706 2734 -778 
Q 2820 -850 2989 -850 
Q 3089 -850 3185 -826 
Q 3282 -803 3379 -756 
L 3379 -1172 
Q 3260 -1203 3154 -1218 
Q 3048 -1234 2954 -1234 
Q 2573 -1234 2393 -1098 
Q 2214 -963 2214 -672 
Q 2214 -522 2296 -358 
Q 2379 -194 2551 0 
z
" id="DejaVuSans-119" transform="scale(0.015625)"/>
       <path d="M 2834 3397 
L 2834 2853 
Q 2591 2978 2328 3040 
Q 2066 3103 1784 3103 
Q 1356 3103 1142 2972 
Q 928 2841 928 2578 
Q 928 2378 1081 2264 
Q 1234 2150 1697 2047 
L 1894 2003 
Q 2506 1872 2764 1633 
Q 3022 1394 3022 966 
Q 3022 478 2636 193 
Q 2250 -91 1575 -91 
Q 1294 -91 989 -36 
Q 684 19 347 128 
L 347 722 
Q 666 556 975 473 
Q 1284 391 1588 391 
Q 1994 391 2212 530 
Q 2431 669 2431 922 
Q 2431 1156 2273 1281 
Q 2116 1406 1581 1522 
L 1381 1569 
Q 847 1681 609 1914 
Q 372 2147 372 2553 
Q 372 3047 722 3315 
Q 1072 3584 1716 3584 
Q 2034 3584 2315 3537 
Q 2597 3491 2834 3397 
z
" id="DejaVuSans-73" transform="scale(0.015625)"/>
       <path d="M 1172 4494 
L 1172 3500 
L 2356 3500 
L 2356 3053 
L 1172 3053 
L 1172 1153 
Q 1172 725 1289 603 
Q 1406 481 1766 481 
L 2356 481 
L 2356 0 
L 1766 0 
Q 1100 0 847 248 
Q 594 497 594 1153 
L 594 3053 
L 172 3053 
L 172 3500 
L 594 3500 
L 594 4494 
L 1172 4494 
z
" id="DejaVuSans-74" transform="scale(0.015625)"/>
       <path d="M 269 3500 
L 844 3500 
L 1563 769 
L 2278 3500 
L 2956 3500 
L 3675 769 
L 4391 3500 
L 4966 3500 
L 4050 0 
L 3372 0 
L 2619 2869 
L 1863 0 
L 1184 0 
L 269 3500 
z
" id="DejaVuSans-77" transform="scale(0.015625)"/>
       <path d="M 3116 1747 
Q 3116 2381 2855 2742 
Q 2594 3103 2138 3103 
Q 1681 3103 1420 2742 
Q 1159 2381 1159 1747 
Q 1159 1113 1420 752 
Q 1681 391 2138 391 
Q 2594 391 2855 752 
Q 3116 1113 3116 1747 
z
M 1159 2969 
Q 1341 3281 1617 3432 
Q 1894 3584 2278 3584 
Q 2916 3584 3314 3078 
Q 3713 2572 3713 1747 
Q 3713 922 3314 415 
Q 2916 -91 2278 -91 
Q 1894 -91 1617 61 
Q 1341 213 1159 525 
L 1159 0 
L 581 0 
L 581 4863 
L 1159 4863 
L 1159 2969 
z
" id="DejaVuSans-62" transform="scale(0.015625)"/>
       <path d="M 3597 1894 
L 3597 1613 
L 953 1613 
Q 991 1019 1311 708 
Q 1631 397 2203 397 
Q 2534 397 2845 478 
Q 3156 559 3463 722 
L 3463 178 
Q 3153 47 2828 -22 
Q 2503 -91 2169 -91 
Q 1331 -91 842 396 
Q 353 884 353 1716 
Q 353 2575 817 3079 
Q 1281 3584 2069 3584 
Q 2775 3584 3186 3129 
Q 3597 2675 3597 1894 
z
M 3022 2063 
Q 3016 2534 2758 2815 
Q 2500 3097 2075 3097 
Q 1594 3097 1305 2825 
Q 1016 2553 972 2059 
L 3022 2063 
z
" id="DejaVuSans-65" transform="scale(0.015625)"/>
       <path d="M 2242 5119 
L 2864 5119 
L 1846 3944 
L 1367 3944 
L 2242 5119 
z
M 3513 2113 
L 3513 0 
L 2938 0 
L 2938 2094 
Q 2938 2591 2744 2837 
Q 2550 3084 2163 3084 
Q 1697 3084 1428 2787 
Q 1159 2491 1159 1978 
L 1159 0 
L 581 0 
L 581 3500 
L 1159 3500 
L 1159 2956 
Q 1366 3272 1645 3428 
Q 1925 3584 2291 3584 
Q 2894 3584 3203 3211 
Q 3513 2838 3513 2113 
z
" id="DejaVuSans-144" transform="scale(0.015625)"/>
      </defs>
      <use xlink:href="#DejaVuSans-47"/>
      <use x="77.490234" xlink:href="#DejaVuSans-119"/>
      <use x="139.013672" xlink:href="#DejaVuSans-73"/>
      <use x="191.113281" xlink:href="#DejaVuSans-74"/>
      <use x="230.322266" xlink:href="#DejaVuSans-6f"/>
      <use x="291.503906" xlink:href="#DejaVuSans-15b"/>
      <use x="343.603516" xlink:href="#DejaVuSans-107"/>
      <use x="398.583984" xlink:href="#DejaVuSans-20"/>
      <use x="430.371094" xlink:href="#DejaVuSans-70"/>
      <use x="493.847656" xlink:href="#DejaVuSans-72"/>
      <use x="534.960938" xlink:href="#DejaVuSans-61"/>
      <use x="596.240234" xlink:href="#DejaVuSans-77"/>
      <use x="678.027344" xlink:href="#DejaVuSans-64"/>
      <use x="741.503906" xlink:href="#DejaVuSans-6f"/>
      <use x="802.685547" xlink:href="#DejaVuSans-70"/>
      <use x="866.162109" xlink:href="#DejaVuSans-6f"/>
      <use x="927.34375" xlink:href="#DejaVuSans-64"/>
      <use x="990.820312" xlink:href="#DejaVuSans-6f"/>
      <use x="1052.001953" xlink:href="#DejaVuSans-62"/>
      <use x="1115.478516" xlink:href="#DejaVuSans-69"/>
      <use x="1143.261719" xlink:href="#DejaVuSans-65"/>
      <use x="1204.785156" xlink:href="#DejaVuSans-144"/>
      <use x="1268.164062" xlink:href="#DejaVuSans-73"/>
      <use x="1320.263672" xlink:href="#DejaVuSans-74"/>
      <use x="1359.472656" xlink:href="#DejaVuSans-77"/>
      <use x="1441.259766" xlink:href="#DejaVuSans-61"/>
     </g>
    </g>
   </g>
   <g id="line2d_35">
    <path clip-path="url(#p723a381e7f)" d="M 145.271571 445.546858 
L 162.966989 444.158017 
L 180.662406 441.614883 
L 198.357823 437.189451 
L 216.053241 429.87692 
L 233.748658 418.414596 
L 251.444075 401.392403 
L 269.139493 377.483052 
L 286.83491 345.791187 
L 304.530327 306.273937 
L 322.225744 260.132147 
L 339.921162 210.034725 
L 357.616579 160.042898 
L 375.311996 115.161478 
L 393.007414 80.552725 
L 410.702831 60.571132 
L 428.398248 57.865004 
L 446.093666 72.800165 
L 463.789083 103.378779 
L 481.4845 145.678113 
L 499.179918 194.676347 
L 516.875335 245.22575 
L 534.570752 292.914875 
L 552.26617 334.628932 
L 569.961587 368.734965 
L 587.657004 394.935911 
L 605.352422 413.914552 
L 623.047839 426.908981 
L 640.743256 435.33433 
L 658.438674 440.51467 
L 676.134091 443.538338 
" style="fill:none;stroke:#ffa500;stroke-linecap:square;stroke-width:3;"/>
   </g>
   <g id="line2d_36">
    <path clip-path="url(#p723a381e7f)" d="M 122.815909 446.653272 
L 141.021931 446.285058 
L 159.227952 445.488683 
L 177.433974 443.864563 
L 195.639995 440.743442 
L 213.846017 435.096248 
L 232.052038 425.48617 
L 250.25806 410.125755 
L 268.464081 387.106987 
L 286.670103 354.843856 
L 304.876124 312.694748 
L 323.082146 261.627862 
L 341.288167 204.696977 
L 359.494189 147.066233 
L 377.70021 95.408727 
L 395.906232 56.704364 
L 414.112253 36.710476 
L 432.318275 38.560681 
L 450.524296 61.960657 
L 468.730318 103.264801 
L 486.936339 156.406289 
L 505.142361 214.354114 
L 523.348382 270.616454 
L 541.554404 320.355548 
L 559.760425 360.880455 
L 577.966447 391.531434 
L 596.172468 413.154141 
L 614.37849 427.427338 
L 632.584511 436.263854 
L 650.790533 441.403485 
L 668.996554 444.215636 
" style="fill:none;stroke:#1e90ff;stroke-linecap:square;stroke-width:3;"/>
   </g>
   <g id="patch_63">
    <path d="M 95.15 446.92 
L 95.15 16.2 
" style="fill:none;stroke:#000000;stroke-linecap:square;stroke-linejoin:miter;stroke-width:0.8;"/>
   </g>
   <g id="patch_64">
    <path d="M 703.8 446.92 
L 703.8 16.2 
" style="fill:none;stroke:#000000;stroke-linecap:square;stroke-linejoin:miter;stroke-width:0.8;"/>
   </g>
   <g id="patch_65">
    <path d="M 95.15 446.92 
L 703.8 446.92 
" style="fill:none;stroke:#000000;stroke-linecap:square;stroke-linejoin:miter;stroke-width:0.8;"/>
   </g>
   <g id="patch_66">
    <path d="M 95.15 16.2 
L 703.8 16.2 
" style="fill:none;stroke:#000000;stroke-linecap:square;stroke-linejoin:miter;stroke-width:0.8;"/>
   </g>
   <g id="legend_1">
    <g id="patch_67">
     <path d="M 513.428906 72.234375 
L 693.3 72.234375 
Q 696.3 72.234375 696.3 69.234375 
L 696.3 26.7 
Q 696.3 23.7 693.3 23.7 
L 513.428906 23.7 
Q 510.428906 23.7 510.428906 26.7 
L 510.428906 69.234375 
Q 510.428906 72.234375 513.428906 72.234375 
z
" style="fill:#ffffff;opacity:0.8;stroke:#cccccc;stroke-linejoin:miter;"/>
    </g>
    <g id="patch_68">
     <path d="M 516.428906 41.097656 
L 546.428906 41.097656 
L 546.428906 30.597656 
L 516.428906 30.597656 
z
" style="fill:#ffa500;opacity:0.3;"/>
    </g>
    <g id="text_20">
     <!-- Dane rzeczywiste -->
     <g transform="translate(558.428906 41.097656)scale(0.15 -0.15)">
      <defs>
       <path d="M 353 3500 
L 3084 3500 
L 3084 2975 
L 922 459 
L 3084 459 
L 3084 0 
L 275 0 
L 275 525 
L 2438 3041 
L 353 3041 
L 353 3500 
z
" id="DejaVuSans-7a" transform="scale(0.015625)"/>
      </defs>
      <use xlink:href="#DejaVuSans-44"/>
      <use x="77.001953" xlink:href="#DejaVuSans-61"/>
      <use x="138.28125" xlink:href="#DejaVuSans-6e"/>
      <use x="201.660156" xlink:href="#DejaVuSans-65"/>
      <use x="263.183594" xlink:href="#DejaVuSans-20"/>
      <use x="294.970703" xlink:href="#DejaVuSans-72"/>
      <use x="336.083984" xlink:href="#DejaVuSans-7a"/>
      <use x="388.574219" xlink:href="#DejaVuSans-65"/>
      <use x="450.097656" xlink:href="#DejaVuSans-63"/>
      <use x="505.078125" xlink:href="#DejaVuSans-7a"/>
      <use x="557.568359" xlink:href="#DejaVuSans-79"/>
      <use x="616.748047" xlink:href="#DejaVuSans-77"/>
      <use x="698.535156" xlink:href="#DejaVuSans-69"/>
      <use x="726.318359" xlink:href="#DejaVuSans-73"/>
      <use x="778.417969" xlink:href="#DejaVuSans-74"/>
      <use x="817.626953" xlink:href="#DejaVuSans-65"/>
     </g>
    </g>
    <g id="patch_69">
     <path d="M 516.428906 63.114844 
L 546.428906 63.114844 
L 546.428906 52.614844 
L 516.428906 52.614844 
z
" style="fill:#1e90ff;opacity:0.3;"/>
    </g>
    <g id="text_21">
     <!-- Przewidywanie -->
     <g transform="translate(558.428906 63.114844)scale(0.15 -0.15)">
      <defs>
       <path d="M 1259 4147 
L 1259 2394 
L 2053 2394 
Q 2494 2394 2734 2622 
Q 2975 2850 2975 3272 
Q 2975 3691 2734 3919 
Q 2494 4147 2053 4147 
L 1259 4147 
z
M 628 4666 
L 2053 4666 
Q 2838 4666 3239 4311 
Q 3641 3956 3641 3272 
Q 3641 2581 3239 2228 
Q 2838 1875 2053 1875 
L 1259 1875 
L 1259 0 
L 628 0 
L 628 4666 
z
" id="DejaVuSans-50" transform="scale(0.015625)"/>
      </defs>
      <use xlink:href="#DejaVuSans-50"/>
      <use x="58.552734" xlink:href="#DejaVuSans-72"/>
      <use x="99.666016" xlink:href="#DejaVuSans-7a"/>
      <use x="152.15625" xlink:href="#DejaVuSans-65"/>
      <use x="213.679688" xlink:href="#DejaVuSans-77"/>
      <use x="295.466797" xlink:href="#DejaVuSans-69"/>
      <use x="323.25" xlink:href="#DejaVuSans-64"/>
      <use x="386.726562" xlink:href="#DejaVuSans-79"/>
      <use x="445.90625" xlink:href="#DejaVuSans-77"/>
      <use x="527.693359" xlink:href="#DejaVuSans-61"/>
      <use x="588.972656" xlink:href="#DejaVuSans-6e"/>
      <use x="652.351562" xlink:href="#DejaVuSans-69"/>
      <use x="680.134766" xlink:href="#DejaVuSans-65"/>
     </g>
    </g>
   </g>
  </g>
  <g id="text_22">
   <g id="patch_70">
    <path d="M 112.35 98.88 
L 363.6 98.88 
L 363.6 47.4 
L 112.35 47.4 
z
" style="fill:#808080;opacity:0.1;stroke:#000000;stroke-linejoin:miter;"/>
   </g>
   <!-- Real: $\mu=$427.85 $\sigma$=24.04 -->
   <g transform="translate(122.4 68.85)scale(0.15 -0.15)">
    <defs>
     <path d="M 1613 4147 
L 1294 2491 
L 2106 2491 
Q 2584 2491 2879 2755 
Q 3175 3019 3175 3444 
Q 3175 3784 2976 3965 
Q 2778 4147 2406 4147 
L 1613 4147 
z
M 2772 2241 
Q 2972 2194 3105 2009 
Q 3238 1825 3413 1275 
L 3809 0 
L 3144 0 
L 2778 1197 
Q 2638 1659 2453 1815 
Q 2269 1972 1888 1972 
L 1191 1972 
L 806 0 
L 172 0 
L 1081 4666 
L 2503 4666 
Q 3150 4666 3495 4373 
Q 3841 4081 3841 3531 
Q 3841 3044 3547 2687 
Q 3253 2331 2772 2241 
z
" id="DejaVuSans-Oblique-52" transform="scale(0.015625)"/>
     <path d="M 3078 2063 
Q 3088 2113 3092 2166 
Q 3097 2219 3097 2272 
Q 3097 2653 2873 2875 
Q 2650 3097 2266 3097 
Q 1838 3097 1509 2826 
Q 1181 2556 1013 2059 
L 3078 2063 
z
M 3578 1613 
L 903 1613 
Q 884 1494 878 1425 
Q 872 1356 872 1306 
Q 872 872 1139 634 
Q 1406 397 1894 397 
Q 2269 397 2603 481 
Q 2938 566 3225 728 
L 3116 159 
Q 2806 34 2476 -28 
Q 2147 -91 1806 -91 
Q 1078 -91 686 257 
Q 294 606 294 1247 
Q 294 1794 489 2264 
Q 684 2734 1063 3103 
Q 1306 3334 1642 3459 
Q 1978 3584 2356 3584 
Q 2950 3584 3301 3228 
Q 3653 2872 3653 2272 
Q 3653 2128 3634 1964 
Q 3616 1800 3578 1613 
z
" id="DejaVuSans-Oblique-65" transform="scale(0.015625)"/>
     <path d="M 3438 1997 
L 3047 0 
L 2472 0 
L 2578 531 
Q 2325 219 2001 64 
Q 1678 -91 1281 -91 
Q 834 -91 548 182 
Q 263 456 263 884 
Q 263 1497 752 1853 
Q 1241 2209 2100 2209 
L 2900 2209 
L 2931 2363 
Q 2938 2388 2941 2417 
Q 2944 2447 2944 2509 
Q 2944 2788 2717 2942 
Q 2491 3097 2081 3097 
Q 1800 3097 1504 3025 
Q 1209 2953 897 2809 
L 997 3341 
Q 1322 3463 1633 3523 
Q 1944 3584 2234 3584 
Q 2853 3584 3176 3315 
Q 3500 3047 3500 2534 
Q 3500 2431 3484 2292 
Q 3469 2153 3438 1997 
z
M 2816 1759 
L 2241 1759 
Q 1534 1759 1195 1570 
Q 856 1381 856 984 
Q 856 709 1029 553 
Q 1203 397 1509 397 
Q 1978 397 2328 733 
Q 2678 1069 2791 1631 
L 2816 1759 
z
" id="DejaVuSans-Oblique-61" transform="scale(0.015625)"/>
     <path d="M 1172 4863 
L 1747 4863 
L 800 0 
L 225 0 
L 1172 4863 
z
" id="DejaVuSans-Oblique-6c" transform="scale(0.015625)"/>
     <path d="M 978 3309 
L 1638 3309 
L 1484 2516 
L 825 2516 
L 978 3309 
z
M 488 794 
L 1147 794 
L 991 0 
L 331 0 
L 488 794 
z
" id="DejaVuSans-Oblique-3a" transform="scale(0.015625)"/>
     <path id="DejaVuSans-Oblique-20" transform="scale(0.015625)"/>
     <path d="M -84 -1331 
L 856 3500 
L 1434 3500 
L 1009 1322 
Q 997 1256 987 1175 
Q 978 1094 978 1013 
Q 978 722 1161 565 
Q 1344 409 1684 409 
Q 2147 409 2431 671 
Q 2716 934 2816 1459 
L 3213 3500 
L 3788 3500 
L 3266 809 
Q 3253 750 3248 706 
Q 3244 663 3244 628 
Q 3244 531 3283 486 
Q 3322 441 3406 441 
Q 3438 441 3492 456 
Q 3547 472 3647 513 
L 3559 50 
Q 3422 -19 3297 -55 
Q 3172 -91 3053 -91 
Q 2847 -91 2730 40 
Q 2613 172 2613 403 
Q 2438 153 2195 31 
Q 1953 -91 1625 -91 
Q 1334 -91 1117 43 
Q 900 178 831 397 
L 494 -1331 
L -84 -1331 
z
" id="DejaVuSans-Oblique-3bc" transform="scale(0.015625)"/>
     <path d="M 678 2906 
L 4684 2906 
L 4684 2381 
L 678 2381 
L 678 2906 
z
M 678 1631 
L 4684 1631 
L 4684 1100 
L 678 1100 
L 678 1631 
z
" id="DejaVuSans-3d" transform="scale(0.015625)"/>
     <path d="M 2753 4666 
L 3547 4666 
L 2950 1625 
L 3616 1625 
L 3513 1100 
L 2847 1100 
L 2638 0 
L 2009 0 
L 2222 1100 
L 116 1100 
L 238 1709 
L 2753 4666 
z
M 2809 4116 
L 728 1625 
L 2322 1625 
L 2809 4116 
z
" id="DejaVuSans-Oblique-34" transform="scale(0.015625)"/>
     <path d="M 2950 2253 
L 934 525 
L 3163 525 
L 3053 0 
L 25 0 
L 128 531 
L 2234 2338 
Q 2656 2703 2832 2979 
Q 3009 3256 3009 3547 
Q 3009 3850 2796 4040 
Q 2584 4231 2241 4231 
Q 1944 4231 1581 4125 
Q 1219 4019 806 3816 
L 922 4441 
Q 1309 4594 1662 4672 
Q 2016 4750 2316 4750 
Q 2928 4750 3301 4425 
Q 3675 4100 3675 3572 
Q 3675 3216 3497 2892 
Q 3319 2569 2950 2253 
z
" id="DejaVuSans-Oblique-32" transform="scale(0.015625)"/>
     <path d="M 819 4666 
L 4013 4666 
L 3956 4397 
L 1288 0 
L 594 0 
L 3116 4134 
L 716 4134 
L 819 4666 
z
" id="DejaVuSans-Oblique-37" transform="scale(0.015625)"/>
     <path d="M 525 794 
L 1184 794 
L 1031 0 
L 372 0 
L 525 794 
z
" id="DejaVuSans-Oblique-2e" transform="scale(0.015625)"/>
     <path d="M 2847 1416 
Q 2847 1769 2600 1992 
Q 2353 2216 1953 2216 
Q 1466 2216 1148 1923 
Q 831 1631 831 1184 
Q 831 828 1073 618 
Q 1316 409 1728 409 
Q 2219 409 2533 693 
Q 2847 978 2847 1416 
z
M 3169 3591 
Q 3169 3888 2950 4069 
Q 2731 4250 2369 4250 
Q 1941 4250 1664 4009 
Q 1388 3769 1388 3406 
Q 1388 3094 1605 2903 
Q 1822 2713 2181 2713 
Q 2613 2713 2891 2961 
Q 3169 3209 3169 3591 
z
M 2741 2456 
Q 3094 2322 3281 2050 
Q 3469 1778 3469 1394 
Q 3469 747 2969 328 
Q 2469 -91 1678 -91 
Q 1006 -91 609 239 
Q 213 569 213 1119 
Q 213 1619 553 2008 
Q 894 2397 1441 2503 
Q 1113 2616 941 2852 
Q 769 3088 769 3425 
Q 769 3991 1239 4370 
Q 1709 4750 2431 4750 
Q 3034 4750 3414 4442 
Q 3794 4134 3794 3659 
Q 3794 3247 3511 2923 
Q 3228 2600 2741 2456 
z
" id="DejaVuSans-Oblique-38" transform="scale(0.015625)"/>
     <path d="M 3719 4666 
L 3622 4141 
L 1691 4141 
L 1466 2988 
Q 1609 3034 1757 3056 
Q 1906 3078 2059 3078 
Q 2706 3078 3081 2731 
Q 3456 2384 3456 1791 
Q 3456 1375 3264 994 
Q 3072 613 2719 325 
Q 2469 125 2108 17 
Q 1747 -91 1319 -91 
Q 1038 -91 744 -41 
Q 450 9 128 109 
L 244 697 
Q 531 556 820 486 
Q 1109 416 1403 416 
Q 2013 416 2411 781 
Q 2809 1147 2809 1697 
Q 2809 2103 2548 2328 
Q 2288 2553 1819 2553 
Q 1572 2553 1305 2495 
Q 1038 2438 756 2322 
L 1209 4666 
L 3719 4666 
z
" id="DejaVuSans-Oblique-35" transform="scale(0.015625)"/>
     <path d="M 2219 3044 
Q 1744 3044 1422 2700 
Q 1081 2341 969 1747 
Q 844 1119 1044 756 
Q 1241 397 1706 397 
Q 2166 397 2503 759 
Q 2844 1122 2966 1747 
Q 3075 2319 2881 2700 
Q 2700 3044 2219 3044 
z
M 2309 3503 
L 4219 3500 
L 4106 2925 
L 3463 2925 
Q 3706 2438 3575 1747 
Q 3406 888 2884 400 
Q 2359 -91 1609 -91 
Q 856 -91 525 400 
Q 194 888 363 1747 
Q 528 2609 1050 3097 
Q 1484 3503 2309 3503 
z
" id="DejaVuSans-Oblique-3c3" transform="scale(0.015625)"/>
     <path d="M 678 2906 
L 4684 2906 
L 4684 2381 
L 678 2381 
L 678 2906 
z
M 678 1631 
L 4684 1631 
L 4684 1100 
L 678 1100 
L 678 1631 
z
" id="DejaVuSans-Oblique-3d" transform="scale(0.015625)"/>
     <path d="M 2444 4750 
Q 3078 4750 3414 4328 
Q 3750 3906 3750 3116 
Q 3750 2516 3592 1923 
Q 3434 1331 3150 863 
Q 2859 394 2467 151 
Q 2075 -91 1600 -91 
Q 988 -91 653 334 
Q 319 759 319 1544 
Q 319 2138 480 2733 
Q 641 3328 928 3794 
Q 1216 4263 1602 4506 
Q 1988 4750 2444 4750 
z
M 2406 4250 
Q 2169 4250 1955 4123 
Q 1741 3997 1569 3750 
Q 1281 3338 1111 2720 
Q 941 2103 941 1453 
Q 941 938 1123 673 
Q 1306 409 1663 409 
Q 1913 409 2125 536 
Q 2338 663 2509 909 
Q 2794 1319 2961 1936 
Q 3128 2553 3128 3206 
Q 3128 3722 2945 3986 
Q 2763 4250 2406 4250 
z
" id="DejaVuSans-Oblique-30" transform="scale(0.015625)"/>
    </defs>
    <use transform="translate(0 0.015625)" xlink:href="#DejaVuSans-Oblique-52"/>
    <use transform="translate(69.482422 0.015625)" xlink:href="#DejaVuSans-Oblique-65"/>
    <use transform="translate(131.005859 0.015625)" xlink:href="#DejaVuSans-Oblique-61"/>
    <use transform="translate(192.285156 0.015625)" xlink:href="#DejaVuSans-Oblique-6c"/>
    <use transform="translate(220.068359 0.015625)" xlink:href="#DejaVuSans-Oblique-3a"/>
    <use transform="translate(253.759766 0.015625)" xlink:href="#DejaVuSans-Oblique-20"/>
    <use transform="translate(285.546875 0.015625)" xlink:href="#DejaVuSans-Oblique-3bc"/>
    <use transform="translate(368.652344 0.015625)" xlink:href="#DejaVuSans-3d"/>
    <use transform="translate(471.923828 0.015625)" xlink:href="#DejaVuSans-Oblique-34"/>
    <use transform="translate(535.546875 0.015625)" xlink:href="#DejaVuSans-Oblique-32"/>
    <use transform="translate(599.169922 0.015625)" xlink:href="#DejaVuSans-Oblique-37"/>
    <use transform="translate(662.792969 0.015625)" xlink:href="#DejaVuSans-Oblique-2e"/>
    <use transform="translate(692.830078 0.015625)" xlink:href="#DejaVuSans-Oblique-38"/>
    <use transform="translate(756.453125 0.015625)" xlink:href="#DejaVuSans-Oblique-35"/>
    <use transform="translate(820.076172 0.015625)" xlink:href="#DejaVuSans-Oblique-20"/>
    <use transform="translate(851.863281 0.015625)" xlink:href="#DejaVuSans-Oblique-3c3"/>
    <use transform="translate(915.242188 0.015625)" xlink:href="#DejaVuSans-Oblique-3d"/>
    <use transform="translate(999.03125 0.015625)" xlink:href="#DejaVuSans-Oblique-32"/>
    <use transform="translate(1062.654297 0.015625)" xlink:href="#DejaVuSans-Oblique-34"/>
    <use transform="translate(1126.277344 0.015625)" xlink:href="#DejaVuSans-Oblique-2e"/>
    <use transform="translate(1158.064453 0.015625)" xlink:href="#DejaVuSans-Oblique-30"/>
    <use transform="translate(1221.6875 0.015625)" xlink:href="#DejaVuSans-Oblique-34"/>
   </g>
   <!-- Predicted: $\mu=$427.69 $\sigma$=22.75 -->
   <g transform="translate(122.4 85.68)scale(0.15 -0.15)">
    <defs>
     <path d="M 1081 4666 
L 2541 4666 
Q 3178 4666 3512 4369 
Q 3847 4072 3847 3500 
Q 3847 2731 3353 2303 
Q 2859 1875 1966 1875 
L 1172 1875 
L 806 0 
L 172 0 
L 1081 4666 
z
M 1613 4147 
L 1275 2394 
L 2069 2394 
Q 2606 2394 2893 2669 
Q 3181 2944 3181 3456 
Q 3181 3784 2986 3965 
Q 2791 4147 2438 4147 
L 1613 4147 
z
" id="DejaVuSans-Oblique-50" transform="scale(0.015625)"/>
     <path d="M 2853 2969 
Q 2766 3016 2653 3041 
Q 2541 3066 2413 3066 
Q 1953 3066 1609 2717 
Q 1266 2369 1153 1784 
L 800 0 
L 225 0 
L 909 3500 
L 1484 3500 
L 1375 2956 
Q 1603 3259 1920 3421 
Q 2238 3584 2597 3584 
Q 2691 3584 2781 3573 
Q 2872 3563 2963 3538 
L 2853 2969 
z
" id="DejaVuSans-Oblique-72" transform="scale(0.015625)"/>
     <path d="M 2675 525 
Q 2444 222 2128 65 
Q 1813 -91 1428 -91 
Q 903 -91 598 267 
Q 294 625 294 1247 
Q 294 1766 478 2236 
Q 663 2706 1013 3078 
Q 1244 3325 1534 3454 
Q 1825 3584 2144 3584 
Q 2481 3584 2739 3421 
Q 2997 3259 3138 2956 
L 3513 4863 
L 4091 4863 
L 3144 0 
L 2566 0 
L 2675 525 
z
M 891 1350 
Q 891 897 1095 644 
Q 1300 391 1663 391 
Q 1931 391 2161 520 
Q 2391 650 2566 903 
Q 2750 1166 2856 1509 
Q 2963 1853 2963 2188 
Q 2963 2622 2758 2865 
Q 2553 3109 2194 3109 
Q 1922 3109 1687 2981 
Q 1453 2853 1288 2613 
Q 1106 2353 998 2009 
Q 891 1666 891 1350 
z
" id="DejaVuSans-Oblique-64" transform="scale(0.015625)"/>
     <path d="M 1172 4863 
L 1747 4863 
L 1606 4134 
L 1031 4134 
L 1172 4863 
z
M 909 3500 
L 1484 3500 
L 800 0 
L 225 0 
L 909 3500 
z
" id="DejaVuSans-Oblique-69" transform="scale(0.015625)"/>
     <path d="M 3431 3366 
L 3316 2797 
Q 3109 2947 2876 3022 
Q 2644 3097 2394 3097 
Q 2119 3097 1870 3000 
Q 1622 2903 1453 2725 
Q 1184 2453 1037 2087 
Q 891 1722 891 1331 
Q 891 859 1127 628 
Q 1363 397 1844 397 
Q 2081 397 2348 469 
Q 2616 541 2906 684 
L 2797 116 
Q 2547 13 2283 -39 
Q 2019 -91 1741 -91 
Q 1044 -91 669 257 
Q 294 606 294 1253 
Q 294 1797 489 2255 
Q 684 2713 1069 3078 
Q 1331 3328 1684 3456 
Q 2038 3584 2456 3584 
Q 2700 3584 2940 3529 
Q 3181 3475 3431 3366 
z
" id="DejaVuSans-Oblique-63" transform="scale(0.015625)"/>
     <path d="M 2706 3500 
L 2619 3053 
L 1472 3053 
L 1100 1153 
Q 1081 1047 1072 975 
Q 1063 903 1063 863 
Q 1063 663 1183 572 
Q 1303 481 1569 481 
L 2150 481 
L 2053 0 
L 1503 0 
Q 991 0 739 200 
Q 488 400 488 806 
Q 488 878 497 964 
Q 506 1050 525 1153 
L 897 3053 
L 409 3053 
L 500 3500 
L 978 3500 
L 1172 4494 
L 1747 4494 
L 1556 3500 
L 2706 3500 
z
" id="DejaVuSans-Oblique-74" transform="scale(0.015625)"/>
     <path d="M 2938 1728 
Q 2938 2125 2734 2354 
Q 2531 2584 2181 2584 
Q 1697 2584 1367 2211 
Q 1038 1838 1038 1288 
Q 1038 875 1239 642 
Q 1441 409 1797 409 
Q 2284 409 2611 792 
Q 2938 1175 2938 1728 
z
M 3788 4556 
L 3681 3981 
Q 3500 4100 3265 4162 
Q 3031 4225 2766 4225 
Q 2119 4225 1726 3819 
Q 1334 3413 1141 2547 
Q 1369 2813 1670 2948 
Q 1972 3084 2322 3084 
Q 2894 3084 3233 2754 
Q 3572 2425 3572 1869 
Q 3572 1413 3405 1020 
Q 3238 628 2919 331 
Q 2700 128 2409 18 
Q 2119 -91 1791 -91 
Q 1147 -91 775 318 
Q 403 728 403 1441 
Q 403 2103 573 2717 
Q 744 3331 1050 3781 
Q 1372 4256 1830 4503 
Q 2288 4750 2841 4750 
Q 3084 4750 3321 4701 
Q 3559 4653 3788 4556 
z
" id="DejaVuSans-Oblique-36" transform="scale(0.015625)"/>
     <path d="M 281 103 
L 397 678 
Q 578 559 809 496 
Q 1041 434 1306 434 
Q 1953 434 2348 843 
Q 2744 1253 2938 2119 
Q 2706 1853 2401 1714 
Q 2097 1575 1747 1575 
Q 1178 1575 842 1904 
Q 506 2234 506 2791 
Q 506 3247 672 3639 
Q 838 4031 1159 4325 
Q 1378 4531 1665 4640 
Q 1953 4750 2278 4750 
Q 2925 4750 3300 4339 
Q 3675 3928 3675 3219 
Q 3675 2559 3501 1943 
Q 3328 1328 3022 878 
Q 2697 403 2240 156 
Q 1784 -91 1228 -91 
Q 988 -91 748 -42 
Q 509 6 281 103 
z
M 1131 2938 
Q 1131 2541 1337 2308 
Q 1544 2075 1894 2075 
Q 2378 2075 2706 2447 
Q 3034 2819 3034 3372 
Q 3034 3784 2831 4017 
Q 2628 4250 2272 4250 
Q 1788 4250 1459 3870 
Q 1131 3491 1131 2938 
z
" id="DejaVuSans-Oblique-39" transform="scale(0.015625)"/>
    </defs>
    <use transform="translate(0 0.015625)" xlink:href="#DejaVuSans-Oblique-50"/>
    <use transform="translate(60.302734 0.015625)" xlink:href="#DejaVuSans-Oblique-72"/>
    <use transform="translate(101.416016 0.015625)" xlink:href="#DejaVuSans-Oblique-65"/>
    <use transform="translate(162.939453 0.015625)" xlink:href="#DejaVuSans-Oblique-64"/>
    <use transform="translate(226.416016 0.015625)" xlink:href="#DejaVuSans-Oblique-69"/>
    <use transform="translate(254.199219 0.015625)" xlink:href="#DejaVuSans-Oblique-63"/>
    <use transform="translate(309.179688 0.015625)" xlink:href="#DejaVuSans-Oblique-74"/>
    <use transform="translate(348.388672 0.015625)" xlink:href="#DejaVuSans-Oblique-65"/>
    <use transform="translate(409.912109 0.015625)" xlink:href="#DejaVuSans-Oblique-64"/>
    <use transform="translate(473.388672 0.015625)" xlink:href="#DejaVuSans-Oblique-3a"/>
    <use transform="translate(507.080078 0.015625)" xlink:href="#DejaVuSans-Oblique-20"/>
    <use transform="translate(538.867188 0.015625)" xlink:href="#DejaVuSans-Oblique-3bc"/>
    <use transform="translate(621.972656 0.015625)" xlink:href="#DejaVuSans-3d"/>
    <use transform="translate(725.244141 0.015625)" xlink:href="#DejaVuSans-Oblique-34"/>
    <use transform="translate(788.867188 0.015625)" xlink:href="#DejaVuSans-Oblique-32"/>
    <use transform="translate(852.490234 0.015625)" xlink:href="#DejaVuSans-Oblique-37"/>
    <use transform="translate(916.113281 0.015625)" xlink:href="#DejaVuSans-Oblique-2e"/>
    <use transform="translate(947.900391 0.015625)" xlink:href="#DejaVuSans-Oblique-36"/>
    <use transform="translate(1011.523438 0.015625)" xlink:href="#DejaVuSans-Oblique-39"/>
    <use transform="translate(1075.146484 0.015625)" xlink:href="#DejaVuSans-Oblique-20"/>
    <use transform="translate(1106.933594 0.015625)" xlink:href="#DejaVuSans-Oblique-3c3"/>
    <use transform="translate(1170.3125 0.015625)" xlink:href="#DejaVuSans-Oblique-3d"/>
    <use transform="translate(1254.101562 0.015625)" xlink:href="#DejaVuSans-Oblique-32"/>
    <use transform="translate(1317.724609 0.015625)" xlink:href="#DejaVuSans-Oblique-32"/>
    <use transform="translate(1381.347656 0.015625)" xlink:href="#DejaVuSans-Oblique-2e"/>
    <use transform="translate(1413.134766 0.015625)" xlink:href="#DejaVuSans-Oblique-37"/>
    <use transform="translate(1476.757812 0.015625)" xlink:href="#DejaVuSans-Oblique-35"/>
   </g>
  </g>
 </g>
 <defs>
  <clipPath id="p723a381e7f">
   <rect height="430.72" width="608.65" x="95.15" y="16.2"/>
  </clipPath>
 </defs>
</svg>
