<?xml version="1.0" encoding="utf-8" standalone="no"?>
<!DOCTYPE svg PUBLIC "-//W3C//DTD SVG 1.1//EN"
  "http://www.w3.org/Graphics/SVG/1.1/DTD/svg11.dtd">
<svg height="345.6pt" version="1.1" viewBox="0 0 460.8 345.6" width="460.8pt" xmlns="http://www.w3.org/2000/svg" xmlns:xlink="http://www.w3.org/1999/xlink">
 <metadata>
  <rdf:RDF xmlns:cc="http://creativecommons.org/ns#" xmlns:dc="http://purl.org/dc/elements/1.1/" xmlns:rdf="http://www.w3.org/1999/02/22-rdf-syntax-ns#">
   <cc:Work>
    <dc:type rdf:resource="http://purl.org/dc/dcmitype/StillImage"/>
    <dc:date>2021-11-07T13:04:11.705357</dc:date>
    <dc:format>image/svg+xml</dc:format>
    <dc:creator>
     <cc:Agent>
      <dc:title>Matplotlib v3.4.3, https://matplotlib.org/</dc:title>
     </cc:Agent>
    </dc:creator>
   </cc:Work>
  </rdf:RDF>
 </metadata>
 <defs>
  <style type="text/css">*{stroke-linecap:butt;stroke-linejoin:round;}</style>
 </defs>
 <g id="figure_1">
  <g id="patch_1">
   <path d="M 0 345.6 
L 460.8 345.6 
L 460.8 0 
L 0 0 
z
" style="fill:#ffffff;"/>
  </g>
  <g id="axes_1">
   <g id="patch_2">
    <path d="M 70.31 289.6 
L 444.6 289.6 
L 444.6 16.2 
L 70.31 16.2 
z
" style="fill:#ffffff;"/>
   </g>
   <g id="PathCollection_1">
    <defs>
     <path d="M -3 0 
L 3 0 
M 0 3 
L 0 -3 
" id="mf2afeba73f" style="stroke:#1f77b4;stroke-width:1.5;"/>
    </defs>
    <g clip-path="url(#p28114063a8)">
     <use style="fill:#1f77b4;stroke:#1f77b4;stroke-width:1.5;" x="87.323182" xlink:href="#mf2afeba73f" y="277.172727"/>
     <use style="fill:#1f77b4;stroke:#1f77b4;stroke-width:1.5;" x="92.327059" xlink:href="#mf2afeba73f" y="276.759174"/>
     <use style="fill:#1f77b4;stroke:#1f77b4;stroke-width:1.5;" x="97.330936" xlink:href="#mf2afeba73f" y="268.488111"/>
     <use style="fill:#1f77b4;stroke:#1f77b4;stroke-width:1.5;" x="102.334813" xlink:href="#mf2afeba73f" y="260.217047"/>
     <use style="fill:#1f77b4;stroke:#1f77b4;stroke-width:1.5;" x="107.33869" xlink:href="#mf2afeba73f" y="251.945984"/>
     <use style="fill:#1f77b4;stroke:#1f77b4;stroke-width:1.5;" x="112.342567" xlink:href="#mf2afeba73f" y="243.674921"/>
     <use style="fill:#1f77b4;stroke:#1f77b4;stroke-width:1.5;" x="117.346444" xlink:href="#mf2afeba73f" y="235.403857"/>
     <use style="fill:#1f77b4;stroke:#1f77b4;stroke-width:1.5;" x="122.350321" xlink:href="#mf2afeba73f" y="227.132794"/>
     <use style="fill:#1f77b4;stroke:#1f77b4;stroke-width:1.5;" x="127.354198" xlink:href="#mf2afeba73f" y="218.86173"/>
     <use style="fill:#1f77b4;stroke:#1f77b4;stroke-width:1.5;" x="132.358075" xlink:href="#mf2afeba73f" y="214.726199"/>
     <use style="fill:#1f77b4;stroke:#1f77b4;stroke-width:1.5;" x="137.361952" xlink:href="#mf2afeba73f" y="210.590667"/>
     <use style="fill:#1f77b4;stroke:#1f77b4;stroke-width:1.5;" x="142.365829" xlink:href="#mf2afeba73f" y="206.455135"/>
     <use style="fill:#1f77b4;stroke:#1f77b4;stroke-width:1.5;" x="147.369706" xlink:href="#mf2afeba73f" y="202.319604"/>
     <use style="fill:#1f77b4;stroke:#1f77b4;stroke-width:1.5;" x="152.373583" xlink:href="#mf2afeba73f" y="198.184072"/>
     <use style="fill:#1f77b4;stroke:#1f77b4;stroke-width:1.5;" x="157.37746" xlink:href="#mf2afeba73f" y="194.04854"/>
     <use style="fill:#1f77b4;stroke:#1f77b4;stroke-width:1.5;" x="162.381337" xlink:href="#mf2afeba73f" y="189.913009"/>
     <use style="fill:#1f77b4;stroke:#1f77b4;stroke-width:1.5;" x="167.385214" xlink:href="#mf2afeba73f" y="185.777477"/>
     <use style="fill:#1f77b4;stroke:#1f77b4;stroke-width:1.5;" x="172.389091" xlink:href="#mf2afeba73f" y="181.641945"/>
     <use style="fill:#1f77b4;stroke:#1f77b4;stroke-width:1.5;" x="177.392968" xlink:href="#mf2afeba73f" y="177.506414"/>
     <use style="fill:#1f77b4;stroke:#1f77b4;stroke-width:1.5;" x="182.396845" xlink:href="#mf2afeba73f" y="173.370882"/>
     <use style="fill:#1f77b4;stroke:#1f77b4;stroke-width:1.5;" x="187.400722" xlink:href="#mf2afeba73f" y="169.23535"/>
     <use style="fill:#1f77b4;stroke:#1f77b4;stroke-width:1.5;" x="192.404599" xlink:href="#mf2afeba73f" y="165.099818"/>
     <use style="fill:#1f77b4;stroke:#1f77b4;stroke-width:1.5;" x="197.408476" xlink:href="#mf2afeba73f" y="160.964287"/>
     <use style="fill:#1f77b4;stroke:#1f77b4;stroke-width:1.5;" x="202.412353" xlink:href="#mf2afeba73f" y="156.828755"/>
     <use style="fill:#1f77b4;stroke:#1f77b4;stroke-width:1.5;" x="207.41623" xlink:href="#mf2afeba73f" y="152.693223"/>
     <use style="fill:#1f77b4;stroke:#1f77b4;stroke-width:1.5;" x="212.420107" xlink:href="#mf2afeba73f" y="148.557692"/>
     <use style="fill:#1f77b4;stroke:#1f77b4;stroke-width:1.5;" x="217.423984" xlink:href="#mf2afeba73f" y="144.42216"/>
     <use style="fill:#1f77b4;stroke:#1f77b4;stroke-width:1.5;" x="222.427861" xlink:href="#mf2afeba73f" y="140.286628"/>
     <use style="fill:#1f77b4;stroke:#1f77b4;stroke-width:1.5;" x="227.431738" xlink:href="#mf2afeba73f" y="136.151097"/>
     <use style="fill:#1f77b4;stroke:#1f77b4;stroke-width:1.5;" x="232.435615" xlink:href="#mf2afeba73f" y="132.015565"/>
     <use style="fill:#1f77b4;stroke:#1f77b4;stroke-width:1.5;" x="237.439492" xlink:href="#mf2afeba73f" y="127.880033"/>
     <use style="fill:#1f77b4;stroke:#1f77b4;stroke-width:1.5;" x="242.443369" xlink:href="#mf2afeba73f" y="123.744502"/>
     <use style="fill:#1f77b4;stroke:#1f77b4;stroke-width:1.5;" x="247.447246" xlink:href="#mf2afeba73f" y="119.60897"/>
     <use style="fill:#1f77b4;stroke:#1f77b4;stroke-width:1.5;" x="252.451123" xlink:href="#mf2afeba73f" y="115.473438"/>
     <use style="fill:#1f77b4;stroke:#1f77b4;stroke-width:1.5;" x="257.455" xlink:href="#mf2afeba73f" y="111.337907"/>
     <use style="fill:#1f77b4;stroke:#1f77b4;stroke-width:1.5;" x="262.458877" xlink:href="#mf2afeba73f" y="107.202375"/>
     <use style="fill:#1f77b4;stroke:#1f77b4;stroke-width:1.5;" x="267.462754" xlink:href="#mf2afeba73f" y="103.066843"/>
     <use style="fill:#1f77b4;stroke:#1f77b4;stroke-width:1.5;" x="272.466631" xlink:href="#mf2afeba73f" y="98.931311"/>
     <use style="fill:#1f77b4;stroke:#1f77b4;stroke-width:1.5;" x="277.470508" xlink:href="#mf2afeba73f" y="94.79578"/>
     <use style="fill:#1f77b4;stroke:#1f77b4;stroke-width:1.5;" x="282.474385" xlink:href="#mf2afeba73f" y="90.660248"/>
     <use style="fill:#1f77b4;stroke:#1f77b4;stroke-width:1.5;" x="287.478262" xlink:href="#mf2afeba73f" y="86.524716"/>
     <use style="fill:#1f77b4;stroke:#1f77b4;stroke-width:1.5;" x="292.482139" xlink:href="#mf2afeba73f" y="84.456951"/>
     <use style="fill:#1f77b4;stroke:#1f77b4;stroke-width:1.5;" x="297.486016" xlink:href="#mf2afeba73f" y="82.389185"/>
     <use style="fill:#1f77b4;stroke:#1f77b4;stroke-width:1.5;" x="302.489893" xlink:href="#mf2afeba73f" y="80.321419"/>
     <use style="fill:#1f77b4;stroke:#1f77b4;stroke-width:1.5;" x="307.49377" xlink:href="#mf2afeba73f" y="78.253653"/>
     <use style="fill:#1f77b4;stroke:#1f77b4;stroke-width:1.5;" x="312.497647" xlink:href="#mf2afeba73f" y="76.185887"/>
     <use style="fill:#1f77b4;stroke:#1f77b4;stroke-width:1.5;" x="317.501524" xlink:href="#mf2afeba73f" y="74.118121"/>
     <use style="fill:#1f77b4;stroke:#1f77b4;stroke-width:1.5;" x="322.505401" xlink:href="#mf2afeba73f" y="72.050355"/>
     <use style="fill:#1f77b4;stroke:#1f77b4;stroke-width:1.5;" x="327.509278" xlink:href="#mf2afeba73f" y="69.98259"/>
     <use style="fill:#1f77b4;stroke:#1f77b4;stroke-width:1.5;" x="332.513155" xlink:href="#mf2afeba73f" y="67.914824"/>
     <use style="fill:#1f77b4;stroke:#1f77b4;stroke-width:1.5;" x="337.517032" xlink:href="#mf2afeba73f" y="65.847058"/>
     <use style="fill:#1f77b4;stroke:#1f77b4;stroke-width:1.5;" x="342.520909" xlink:href="#mf2afeba73f" y="63.779292"/>
     <use style="fill:#1f77b4;stroke:#1f77b4;stroke-width:1.5;" x="347.524786" xlink:href="#mf2afeba73f" y="61.711526"/>
     <use style="fill:#1f77b4;stroke:#1f77b4;stroke-width:1.5;" x="352.528663" xlink:href="#mf2afeba73f" y="59.64376"/>
     <use style="fill:#1f77b4;stroke:#1f77b4;stroke-width:1.5;" x="357.53254" xlink:href="#mf2afeba73f" y="57.575995"/>
     <use style="fill:#1f77b4;stroke:#1f77b4;stroke-width:1.5;" x="362.536417" xlink:href="#mf2afeba73f" y="55.508229"/>
     <use style="fill:#1f77b4;stroke:#1f77b4;stroke-width:1.5;" x="367.540294" xlink:href="#mf2afeba73f" y="53.440463"/>
     <use style="fill:#1f77b4;stroke:#1f77b4;stroke-width:1.5;" x="372.544171" xlink:href="#mf2afeba73f" y="51.372697"/>
     <use style="fill:#1f77b4;stroke:#1f77b4;stroke-width:1.5;" x="377.548048" xlink:href="#mf2afeba73f" y="49.304931"/>
     <use style="fill:#1f77b4;stroke:#1f77b4;stroke-width:1.5;" x="382.551925" xlink:href="#mf2afeba73f" y="47.237165"/>
     <use style="fill:#1f77b4;stroke:#1f77b4;stroke-width:1.5;" x="387.555802" xlink:href="#mf2afeba73f" y="45.169399"/>
     <use style="fill:#1f77b4;stroke:#1f77b4;stroke-width:1.5;" x="392.559679" xlink:href="#mf2afeba73f" y="43.101634"/>
     <use style="fill:#1f77b4;stroke:#1f77b4;stroke-width:1.5;" x="397.563556" xlink:href="#mf2afeba73f" y="41.033868"/>
     <use style="fill:#1f77b4;stroke:#1f77b4;stroke-width:1.5;" x="402.567433" xlink:href="#mf2afeba73f" y="38.966102"/>
     <use style="fill:#1f77b4;stroke:#1f77b4;stroke-width:1.5;" x="407.57131" xlink:href="#mf2afeba73f" y="36.898336"/>
     <use style="fill:#1f77b4;stroke:#1f77b4;stroke-width:1.5;" x="412.575187" xlink:href="#mf2afeba73f" y="34.83057"/>
     <use style="fill:#1f77b4;stroke:#1f77b4;stroke-width:1.5;" x="417.579064" xlink:href="#mf2afeba73f" y="32.762804"/>
     <use style="fill:#1f77b4;stroke:#1f77b4;stroke-width:1.5;" x="422.582941" xlink:href="#mf2afeba73f" y="30.695039"/>
     <use style="fill:#1f77b4;stroke:#1f77b4;stroke-width:1.5;" x="427.586818" xlink:href="#mf2afeba73f" y="28.627273"/>
    </g>
   </g>
   <g id="matplotlib.axis_1">
    <g id="xtick_1">
     <g id="line2d_1">
      <defs>
       <path d="M 0 0 
L 0 3.5 
" id="m49345effab" style="stroke:#000000;stroke-width:0.8;"/>
      </defs>
      <g>
       <use style="stroke:#000000;stroke-width:0.8;" x="87.323182" xlink:href="#m49345effab" y="289.6"/>
      </g>
     </g>
     <g id="text_1">
      <!-- 0 -->
      <g transform="translate(82.551307 307.997656)scale(0.15 -0.15)">
       <defs>
        <path d="M 2034 4250 
Q 1547 4250 1301 3770 
Q 1056 3291 1056 2328 
Q 1056 1369 1301 889 
Q 1547 409 2034 409 
Q 2525 409 2770 889 
Q 3016 1369 3016 2328 
Q 3016 3291 2770 3770 
Q 2525 4250 2034 4250 
z
M 2034 4750 
Q 2819 4750 3233 4129 
Q 3647 3509 3647 2328 
Q 3647 1150 3233 529 
Q 2819 -91 2034 -91 
Q 1250 -91 836 529 
Q 422 1150 422 2328 
Q 422 3509 836 4129 
Q 1250 4750 2034 4750 
z
" id="DejaVuSans-30" transform="scale(0.015625)"/>
       </defs>
       <use xlink:href="#DejaVuSans-30"/>
      </g>
     </g>
    </g>
    <g id="xtick_2">
     <g id="line2d_2">
      <g>
       <use style="stroke:#000000;stroke-width:0.8;" x="137.361952" xlink:href="#m49345effab" y="289.6"/>
      </g>
     </g>
     <g id="text_2">
      <!-- 10 -->
      <g transform="translate(127.818202 307.997656)scale(0.15 -0.15)">
       <defs>
        <path d="M 794 531 
L 1825 531 
L 1825 4091 
L 703 3866 
L 703 4441 
L 1819 4666 
L 2450 4666 
L 2450 531 
L 3481 531 
L 3481 0 
L 794 0 
L 794 531 
z
" id="DejaVuSans-31" transform="scale(0.015625)"/>
       </defs>
       <use xlink:href="#DejaVuSans-31"/>
       <use x="63.623047" xlink:href="#DejaVuSans-30"/>
      </g>
     </g>
    </g>
    <g id="xtick_3">
     <g id="line2d_3">
      <g>
       <use style="stroke:#000000;stroke-width:0.8;" x="187.400722" xlink:href="#m49345effab" y="289.6"/>
      </g>
     </g>
     <g id="text_3">
      <!-- 20 -->
      <g transform="translate(177.856972 307.997656)scale(0.15 -0.15)">
       <defs>
        <path d="M 1228 531 
L 3431 531 
L 3431 0 
L 469 0 
L 469 531 
Q 828 903 1448 1529 
Q 2069 2156 2228 2338 
Q 2531 2678 2651 2914 
Q 2772 3150 2772 3378 
Q 2772 3750 2511 3984 
Q 2250 4219 1831 4219 
Q 1534 4219 1204 4116 
Q 875 4013 500 3803 
L 500 4441 
Q 881 4594 1212 4672 
Q 1544 4750 1819 4750 
Q 2544 4750 2975 4387 
Q 3406 4025 3406 3419 
Q 3406 3131 3298 2873 
Q 3191 2616 2906 2266 
Q 2828 2175 2409 1742 
Q 1991 1309 1228 531 
z
" id="DejaVuSans-32" transform="scale(0.015625)"/>
       </defs>
       <use xlink:href="#DejaVuSans-32"/>
       <use x="63.623047" xlink:href="#DejaVuSans-30"/>
      </g>
     </g>
    </g>
    <g id="xtick_4">
     <g id="line2d_4">
      <g>
       <use style="stroke:#000000;stroke-width:0.8;" x="237.439492" xlink:href="#m49345effab" y="289.6"/>
      </g>
     </g>
     <g id="text_4">
      <!-- 30 -->
      <g transform="translate(227.895742 307.997656)scale(0.15 -0.15)">
       <defs>
        <path d="M 2597 2516 
Q 3050 2419 3304 2112 
Q 3559 1806 3559 1356 
Q 3559 666 3084 287 
Q 2609 -91 1734 -91 
Q 1441 -91 1130 -33 
Q 819 25 488 141 
L 488 750 
Q 750 597 1062 519 
Q 1375 441 1716 441 
Q 2309 441 2620 675 
Q 2931 909 2931 1356 
Q 2931 1769 2642 2001 
Q 2353 2234 1838 2234 
L 1294 2234 
L 1294 2753 
L 1863 2753 
Q 2328 2753 2575 2939 
Q 2822 3125 2822 3475 
Q 2822 3834 2567 4026 
Q 2313 4219 1838 4219 
Q 1578 4219 1281 4162 
Q 984 4106 628 3988 
L 628 4550 
Q 988 4650 1302 4700 
Q 1616 4750 1894 4750 
Q 2613 4750 3031 4423 
Q 3450 4097 3450 3541 
Q 3450 3153 3228 2886 
Q 3006 2619 2597 2516 
z
" id="DejaVuSans-33" transform="scale(0.015625)"/>
       </defs>
       <use xlink:href="#DejaVuSans-33"/>
       <use x="63.623047" xlink:href="#DejaVuSans-30"/>
      </g>
     </g>
    </g>
    <g id="xtick_5">
     <g id="line2d_5">
      <g>
       <use style="stroke:#000000;stroke-width:0.8;" x="287.478262" xlink:href="#m49345effab" y="289.6"/>
      </g>
     </g>
     <g id="text_5">
      <!-- 40 -->
      <g transform="translate(277.934512 307.997656)scale(0.15 -0.15)">
       <defs>
        <path d="M 2419 4116 
L 825 1625 
L 2419 1625 
L 2419 4116 
z
M 2253 4666 
L 3047 4666 
L 3047 1625 
L 3713 1625 
L 3713 1100 
L 3047 1100 
L 3047 0 
L 2419 0 
L 2419 1100 
L 313 1100 
L 313 1709 
L 2253 4666 
z
" id="DejaVuSans-34" transform="scale(0.015625)"/>
       </defs>
       <use xlink:href="#DejaVuSans-34"/>
       <use x="63.623047" xlink:href="#DejaVuSans-30"/>
      </g>
     </g>
    </g>
    <g id="xtick_6">
     <g id="line2d_6">
      <g>
       <use style="stroke:#000000;stroke-width:0.8;" x="337.517032" xlink:href="#m49345effab" y="289.6"/>
      </g>
     </g>
     <g id="text_6">
      <!-- 50 -->
      <g transform="translate(327.973282 307.997656)scale(0.15 -0.15)">
       <defs>
        <path d="M 691 4666 
L 3169 4666 
L 3169 4134 
L 1269 4134 
L 1269 2991 
Q 1406 3038 1543 3061 
Q 1681 3084 1819 3084 
Q 2600 3084 3056 2656 
Q 3513 2228 3513 1497 
Q 3513 744 3044 326 
Q 2575 -91 1722 -91 
Q 1428 -91 1123 -41 
Q 819 9 494 109 
L 494 744 
Q 775 591 1075 516 
Q 1375 441 1709 441 
Q 2250 441 2565 725 
Q 2881 1009 2881 1497 
Q 2881 1984 2565 2268 
Q 2250 2553 1709 2553 
Q 1456 2553 1204 2497 
Q 953 2441 691 2322 
L 691 4666 
z
" id="DejaVuSans-35" transform="scale(0.015625)"/>
       </defs>
       <use xlink:href="#DejaVuSans-35"/>
       <use x="63.623047" xlink:href="#DejaVuSans-30"/>
      </g>
     </g>
    </g>
    <g id="xtick_7">
     <g id="line2d_7">
      <g>
       <use style="stroke:#000000;stroke-width:0.8;" x="387.555802" xlink:href="#m49345effab" y="289.6"/>
      </g>
     </g>
     <g id="text_7">
      <!-- 60 -->
      <g transform="translate(378.012052 307.997656)scale(0.15 -0.15)">
       <defs>
        <path d="M 2113 2584 
Q 1688 2584 1439 2293 
Q 1191 2003 1191 1497 
Q 1191 994 1439 701 
Q 1688 409 2113 409 
Q 2538 409 2786 701 
Q 3034 994 3034 1497 
Q 3034 2003 2786 2293 
Q 2538 2584 2113 2584 
z
M 3366 4563 
L 3366 3988 
Q 3128 4100 2886 4159 
Q 2644 4219 2406 4219 
Q 1781 4219 1451 3797 
Q 1122 3375 1075 2522 
Q 1259 2794 1537 2939 
Q 1816 3084 2150 3084 
Q 2853 3084 3261 2657 
Q 3669 2231 3669 1497 
Q 3669 778 3244 343 
Q 2819 -91 2113 -91 
Q 1303 -91 875 529 
Q 447 1150 447 2328 
Q 447 3434 972 4092 
Q 1497 4750 2381 4750 
Q 2619 4750 2861 4703 
Q 3103 4656 3366 4563 
z
" id="DejaVuSans-36" transform="scale(0.015625)"/>
       </defs>
       <use xlink:href="#DejaVuSans-36"/>
       <use x="63.623047" xlink:href="#DejaVuSans-30"/>
      </g>
     </g>
    </g>
    <g id="xtick_8">
     <g id="line2d_8">
      <g>
       <use style="stroke:#000000;stroke-width:0.8;" x="437.594572" xlink:href="#m49345effab" y="289.6"/>
      </g>
     </g>
     <g id="text_8">
      <!-- 70 -->
      <g transform="translate(428.050822 307.997656)scale(0.15 -0.15)">
       <defs>
        <path d="M 525 4666 
L 3525 4666 
L 3525 4397 
L 1831 0 
L 1172 0 
L 2766 4134 
L 525 4134 
L 525 4666 
z
" id="DejaVuSans-37" transform="scale(0.015625)"/>
       </defs>
       <use xlink:href="#DejaVuSans-37"/>
       <use x="63.623047" xlink:href="#DejaVuSans-30"/>
      </g>
     </g>
    </g>
    <g id="text_9">
     <!-- Index -->
     <g transform="translate(236.805391 326.514844)scale(0.15 -0.15)">
      <defs>
       <path d="M 628 4666 
L 1259 4666 
L 1259 0 
L 628 0 
L 628 4666 
z
" id="DejaVuSans-49" transform="scale(0.015625)"/>
       <path d="M 3513 2113 
L 3513 0 
L 2938 0 
L 2938 2094 
Q 2938 2591 2744 2837 
Q 2550 3084 2163 3084 
Q 1697 3084 1428 2787 
Q 1159 2491 1159 1978 
L 1159 0 
L 581 0 
L 581 3500 
L 1159 3500 
L 1159 2956 
Q 1366 3272 1645 3428 
Q 1925 3584 2291 3584 
Q 2894 3584 3203 3211 
Q 3513 2838 3513 2113 
z
" id="DejaVuSans-6e" transform="scale(0.015625)"/>
       <path d="M 2906 2969 
L 2906 4863 
L 3481 4863 
L 3481 0 
L 2906 0 
L 2906 525 
Q 2725 213 2448 61 
Q 2172 -91 1784 -91 
Q 1150 -91 751 415 
Q 353 922 353 1747 
Q 353 2572 751 3078 
Q 1150 3584 1784 3584 
Q 2172 3584 2448 3432 
Q 2725 3281 2906 2969 
z
M 947 1747 
Q 947 1113 1208 752 
Q 1469 391 1925 391 
Q 2381 391 2643 752 
Q 2906 1113 2906 1747 
Q 2906 2381 2643 2742 
Q 2381 3103 1925 3103 
Q 1469 3103 1208 2742 
Q 947 2381 947 1747 
z
" id="DejaVuSans-64" transform="scale(0.015625)"/>
       <path d="M 3597 1894 
L 3597 1613 
L 953 1613 
Q 991 1019 1311 708 
Q 1631 397 2203 397 
Q 2534 397 2845 478 
Q 3156 559 3463 722 
L 3463 178 
Q 3153 47 2828 -22 
Q 2503 -91 2169 -91 
Q 1331 -91 842 396 
Q 353 884 353 1716 
Q 353 2575 817 3079 
Q 1281 3584 2069 3584 
Q 2775 3584 3186 3129 
Q 3597 2675 3597 1894 
z
M 3022 2063 
Q 3016 2534 2758 2815 
Q 2500 3097 2075 3097 
Q 1594 3097 1305 2825 
Q 1016 2553 972 2059 
L 3022 2063 
z
" id="DejaVuSans-65" transform="scale(0.015625)"/>
       <path d="M 3513 3500 
L 2247 1797 
L 3578 0 
L 2900 0 
L 1881 1375 
L 863 0 
L 184 0 
L 1544 1831 
L 300 3500 
L 978 3500 
L 1906 2253 
L 2834 3500 
L 3513 3500 
z
" id="DejaVuSans-78" transform="scale(0.015625)"/>
      </defs>
      <use xlink:href="#DejaVuSans-49"/>
      <use x="29.492188" xlink:href="#DejaVuSans-6e"/>
      <use x="92.871094" xlink:href="#DejaVuSans-64"/>
      <use x="156.347656" xlink:href="#DejaVuSans-65"/>
      <use x="216.121094" xlink:href="#DejaVuSans-78"/>
     </g>
    </g>
   </g>
   <g id="matplotlib.axis_2">
    <g id="ytick_1">
     <g id="line2d_9">
      <defs>
       <path d="M 0 0 
L -3.5 0 
" id="m1dc646e41e" style="stroke:#000000;stroke-width:0.8;"/>
      </defs>
      <g>
       <use style="stroke:#000000;stroke-width:0.8;" x="70.31" xlink:href="#m1dc646e41e" y="277.172727"/>
      </g>
     </g>
     <g id="text_10">
      <!-- 0 -->
      <g transform="translate(53.76625 282.871555)scale(0.15 -0.15)">
       <use xlink:href="#DejaVuSans-30"/>
      </g>
     </g>
    </g>
    <g id="ytick_2">
     <g id="line2d_10">
      <g>
       <use style="stroke:#000000;stroke-width:0.8;" x="70.31" xlink:href="#m1dc646e41e" y="235.81741"/>
      </g>
     </g>
     <g id="text_11">
      <!-- 100 -->
      <g transform="translate(34.67875 241.516239)scale(0.15 -0.15)">
       <use xlink:href="#DejaVuSans-31"/>
       <use x="63.623047" xlink:href="#DejaVuSans-30"/>
       <use x="127.246094" xlink:href="#DejaVuSans-30"/>
      </g>
     </g>
    </g>
    <g id="ytick_3">
     <g id="line2d_11">
      <g>
       <use style="stroke:#000000;stroke-width:0.8;" x="70.31" xlink:href="#m1dc646e41e" y="194.462093"/>
      </g>
     </g>
     <g id="text_12">
      <!-- 200 -->
      <g transform="translate(34.67875 200.160922)scale(0.15 -0.15)">
       <use xlink:href="#DejaVuSans-32"/>
       <use x="63.623047" xlink:href="#DejaVuSans-30"/>
       <use x="127.246094" xlink:href="#DejaVuSans-30"/>
      </g>
     </g>
    </g>
    <g id="ytick_4">
     <g id="line2d_12">
      <g>
       <use style="stroke:#000000;stroke-width:0.8;" x="70.31" xlink:href="#m1dc646e41e" y="153.106777"/>
      </g>
     </g>
     <g id="text_13">
      <!-- 300 -->
      <g transform="translate(34.67875 158.805605)scale(0.15 -0.15)">
       <use xlink:href="#DejaVuSans-33"/>
       <use x="63.623047" xlink:href="#DejaVuSans-30"/>
       <use x="127.246094" xlink:href="#DejaVuSans-30"/>
      </g>
     </g>
    </g>
    <g id="ytick_5">
     <g id="line2d_13">
      <g>
       <use style="stroke:#000000;stroke-width:0.8;" x="70.31" xlink:href="#m1dc646e41e" y="111.75146"/>
      </g>
     </g>
     <g id="text_14">
      <!-- 400 -->
      <g transform="translate(34.67875 117.450288)scale(0.15 -0.15)">
       <use xlink:href="#DejaVuSans-34"/>
       <use x="63.623047" xlink:href="#DejaVuSans-30"/>
       <use x="127.246094" xlink:href="#DejaVuSans-30"/>
      </g>
     </g>
    </g>
    <g id="ytick_6">
     <g id="line2d_14">
      <g>
       <use style="stroke:#000000;stroke-width:0.8;" x="70.31" xlink:href="#m1dc646e41e" y="70.396143"/>
      </g>
     </g>
     <g id="text_15">
      <!-- 500 -->
      <g transform="translate(34.67875 76.094971)scale(0.15 -0.15)">
       <use xlink:href="#DejaVuSans-35"/>
       <use x="63.623047" xlink:href="#DejaVuSans-30"/>
       <use x="127.246094" xlink:href="#DejaVuSans-30"/>
      </g>
     </g>
    </g>
    <g id="ytick_7">
     <g id="line2d_15">
      <g>
       <use style="stroke:#000000;stroke-width:0.8;" x="70.31" xlink:href="#m1dc646e41e" y="29.040826"/>
      </g>
     </g>
     <g id="text_16">
      <!-- 600 -->
      <g transform="translate(34.67875 34.739654)scale(0.15 -0.15)">
       <use xlink:href="#DejaVuSans-36"/>
       <use x="63.623047" xlink:href="#DejaVuSans-30"/>
       <use x="127.246094" xlink:href="#DejaVuSans-30"/>
      </g>
     </g>
    </g>
    <g id="text_17">
     <!-- Days -->
     <g transform="translate(27.559219 171.617188)rotate(-90)scale(0.15 -0.15)">
      <defs>
       <path d="M 1259 4147 
L 1259 519 
L 2022 519 
Q 2988 519 3436 956 
Q 3884 1394 3884 2338 
Q 3884 3275 3436 3711 
Q 2988 4147 2022 4147 
L 1259 4147 
z
M 628 4666 
L 1925 4666 
Q 3281 4666 3915 4102 
Q 4550 3538 4550 2338 
Q 4550 1131 3912 565 
Q 3275 0 1925 0 
L 628 0 
L 628 4666 
z
" id="DejaVuSans-44" transform="scale(0.015625)"/>
       <path d="M 2194 1759 
Q 1497 1759 1228 1600 
Q 959 1441 959 1056 
Q 959 750 1161 570 
Q 1363 391 1709 391 
Q 2188 391 2477 730 
Q 2766 1069 2766 1631 
L 2766 1759 
L 2194 1759 
z
M 3341 1997 
L 3341 0 
L 2766 0 
L 2766 531 
Q 2569 213 2275 61 
Q 1981 -91 1556 -91 
Q 1019 -91 701 211 
Q 384 513 384 1019 
Q 384 1609 779 1909 
Q 1175 2209 1959 2209 
L 2766 2209 
L 2766 2266 
Q 2766 2663 2505 2880 
Q 2244 3097 1772 3097 
Q 1472 3097 1187 3025 
Q 903 2953 641 2809 
L 641 3341 
Q 956 3463 1253 3523 
Q 1550 3584 1831 3584 
Q 2591 3584 2966 3190 
Q 3341 2797 3341 1997 
z
" id="DejaVuSans-61" transform="scale(0.015625)"/>
       <path d="M 2059 -325 
Q 1816 -950 1584 -1140 
Q 1353 -1331 966 -1331 
L 506 -1331 
L 506 -850 
L 844 -850 
Q 1081 -850 1212 -737 
Q 1344 -625 1503 -206 
L 1606 56 
L 191 3500 
L 800 3500 
L 1894 763 
L 2988 3500 
L 3597 3500 
L 2059 -325 
z
" id="DejaVuSans-79" transform="scale(0.015625)"/>
       <path d="M 2834 3397 
L 2834 2853 
Q 2591 2978 2328 3040 
Q 2066 3103 1784 3103 
Q 1356 3103 1142 2972 
Q 928 2841 928 2578 
Q 928 2378 1081 2264 
Q 1234 2150 1697 2047 
L 1894 2003 
Q 2506 1872 2764 1633 
Q 3022 1394 3022 966 
Q 3022 478 2636 193 
Q 2250 -91 1575 -91 
Q 1294 -91 989 -36 
Q 684 19 347 128 
L 347 722 
Q 666 556 975 473 
Q 1284 391 1588 391 
Q 1994 391 2212 530 
Q 2431 669 2431 922 
Q 2431 1156 2273 1281 
Q 2116 1406 1581 1522 
L 1381 1569 
Q 847 1681 609 1914 
Q 372 2147 372 2553 
Q 372 3047 722 3315 
Q 1072 3584 1716 3584 
Q 2034 3584 2315 3537 
Q 2597 3491 2834 3397 
z
" id="DejaVuSans-73" transform="scale(0.015625)"/>
      </defs>
      <use xlink:href="#DejaVuSans-44"/>
      <use x="77.001953" xlink:href="#DejaVuSans-61"/>
      <use x="138.28125" xlink:href="#DejaVuSans-79"/>
      <use x="197.460938" xlink:href="#DejaVuSans-73"/>
     </g>
    </g>
   </g>
   <g id="patch_3">
    <path d="M 70.31 289.6 
L 70.31 16.2 
" style="fill:none;stroke:#000000;stroke-linecap:square;stroke-linejoin:miter;stroke-width:0.8;"/>
   </g>
   <g id="patch_4">
    <path d="M 444.6 289.6 
L 444.6 16.2 
" style="fill:none;stroke:#000000;stroke-linecap:square;stroke-linejoin:miter;stroke-width:0.8;"/>
   </g>
   <g id="patch_5">
    <path d="M 70.31 289.6 
L 444.6 289.6 
" style="fill:none;stroke:#000000;stroke-linecap:square;stroke-linejoin:miter;stroke-width:0.8;"/>
   </g>
   <g id="patch_6">
    <path d="M 70.31 16.2 
L 444.6 16.2 
" style="fill:none;stroke:#000000;stroke-linecap:square;stroke-linejoin:miter;stroke-width:0.8;"/>
   </g>
  </g>
 </g>
 <defs>
  <clipPath id="p28114063a8">
   <rect height="273.4" width="374.29" x="70.31" y="16.2"/>
  </clipPath>
 </defs>
</svg>
