<?xml version="1.0" encoding="utf-8" standalone="no"?>
<!DOCTYPE svg PUBLIC "-//W3C//DTD SVG 1.1//EN"
  "http://www.w3.org/Graphics/SVG/1.1/DTD/svg11.dtd">
<svg height="410.4pt" version="1.1" viewBox="0 0 504 410.4" width="504pt" xmlns="http://www.w3.org/2000/svg" xmlns:xlink="http://www.w3.org/1999/xlink">
 <metadata>
  <rdf:RDF xmlns:cc="http://creativecommons.org/ns#" xmlns:dc="http://purl.org/dc/elements/1.1/" xmlns:rdf="http://www.w3.org/1999/02/22-rdf-syntax-ns#">
   <cc:Work>
    <dc:type rdf:resource="http://purl.org/dc/dcmitype/StillImage"/>
    <dc:date>2022-01-27T13:08:27.935035</dc:date>
    <dc:format>image/svg+xml</dc:format>
    <dc:creator>
     <cc:Agent>
      <dc:title>Matplotlib v3.4.3, https://matplotlib.org/</dc:title>
     </cc:Agent>
    </dc:creator>
   </cc:Work>
  </rdf:RDF>
 </metadata>
 <defs>
  <style type="text/css">*{stroke-linecap:butt;stroke-linejoin:round;}</style>
 </defs>
 <g id="figure_1">
  <g id="patch_1">
   <path d="M 0 410.4 
L 504 410.4 
L 504 0 
L 0 0 
z
" style="fill:#ffffff;"/>
  </g>
  <g id="axes_1">
   <g id="patch_2">
    <path d="M 75.18 324.1344 
L 450.225 324.1344 
L 450.225 16.2 
L 75.18 16.2 
z
" style="fill:#ffffff;"/>
   </g>
   <g id="matplotlib.axis_1">
    <g id="xtick_1">
     <g id="line2d_1">
      <defs>
       <path d="M 0 0 
L 0 -3.5 
" id="m84fed06094" style="stroke:#000000;stroke-width:0.8;"/>
      </defs>
      <g>
       <use style="stroke:#000000;stroke-width:0.8;" x="75.18" xlink:href="#m84fed06094" y="324.1344"/>
      </g>
     </g>
     <g id="text_1">
      <!-- 0 -->
      <g transform="translate(71.009297 338.371119)scale(0.15 -0.15)">
       <defs>
        <path d="M 266 2259 
Q 266 3072 433 3567 
Q 600 4063 929 4331 
Q 1259 4600 1759 4600 
Q 2128 4600 2406 4451 
Q 2684 4303 2865 4023 
Q 3047 3744 3150 3342 
Q 3253 2941 3253 2259 
Q 3253 1453 3087 958 
Q 2922 463 2592 192 
Q 2263 -78 1759 -78 
Q 1097 -78 719 397 
Q 266 969 266 2259 
z
M 844 2259 
Q 844 1131 1108 757 
Q 1372 384 1759 384 
Q 2147 384 2411 759 
Q 2675 1134 2675 2259 
Q 2675 3391 2411 3762 
Q 2147 4134 1753 4134 
Q 1366 4134 1134 3806 
Q 844 3388 844 2259 
z
" id="ArialMT-30" transform="scale(0.015625)"/>
       </defs>
       <use xlink:href="#ArialMT-30"/>
      </g>
     </g>
    </g>
    <g id="xtick_2">
     <g id="line2d_2">
      <g>
       <use style="stroke:#000000;stroke-width:0.8;" x="130.991098" xlink:href="#m84fed06094" y="324.1344"/>
      </g>
     </g>
     <g id="text_2">
      <!-- 500 -->
      <g transform="translate(118.478989 338.371119)scale(0.15 -0.15)">
       <defs>
        <path d="M 266 1200 
L 856 1250 
Q 922 819 1161 601 
Q 1400 384 1738 384 
Q 2144 384 2425 690 
Q 2706 997 2706 1503 
Q 2706 1984 2436 2262 
Q 2166 2541 1728 2541 
Q 1456 2541 1237 2417 
Q 1019 2294 894 2097 
L 366 2166 
L 809 4519 
L 3088 4519 
L 3088 3981 
L 1259 3981 
L 1013 2750 
Q 1425 3038 1878 3038 
Q 2478 3038 2890 2622 
Q 3303 2206 3303 1553 
Q 3303 931 2941 478 
Q 2500 -78 1738 -78 
Q 1113 -78 717 272 
Q 322 622 266 1200 
z
" id="ArialMT-35" transform="scale(0.015625)"/>
       </defs>
       <use xlink:href="#ArialMT-35"/>
       <use x="55.615234" xlink:href="#ArialMT-30"/>
       <use x="111.230469" xlink:href="#ArialMT-30"/>
      </g>
     </g>
    </g>
    <g id="xtick_3">
     <g id="line2d_3">
      <g>
       <use style="stroke:#000000;stroke-width:0.8;" x="186.802197" xlink:href="#m84fed06094" y="324.1344"/>
      </g>
     </g>
     <g id="text_3">
      <!-- 1000 -->
      <g transform="translate(170.119384 338.371119)scale(0.15 -0.15)">
       <defs>
        <path d="M 2384 0 
L 1822 0 
L 1822 3584 
Q 1619 3391 1289 3197 
Q 959 3003 697 2906 
L 697 3450 
Q 1169 3672 1522 3987 
Q 1875 4303 2022 4600 
L 2384 4600 
L 2384 0 
z
" id="ArialMT-31" transform="scale(0.015625)"/>
       </defs>
       <use xlink:href="#ArialMT-31"/>
       <use x="55.615234" xlink:href="#ArialMT-30"/>
       <use x="111.230469" xlink:href="#ArialMT-30"/>
       <use x="166.845703" xlink:href="#ArialMT-30"/>
      </g>
     </g>
    </g>
    <g id="xtick_4">
     <g id="line2d_4">
      <g>
       <use style="stroke:#000000;stroke-width:0.8;" x="242.613295" xlink:href="#m84fed06094" y="324.1344"/>
      </g>
     </g>
     <g id="text_4">
      <!-- 1500 -->
      <g transform="translate(225.930483 338.371119)scale(0.15 -0.15)">
       <use xlink:href="#ArialMT-31"/>
       <use x="55.615234" xlink:href="#ArialMT-35"/>
       <use x="111.230469" xlink:href="#ArialMT-30"/>
       <use x="166.845703" xlink:href="#ArialMT-30"/>
      </g>
     </g>
    </g>
    <g id="xtick_5">
     <g id="line2d_5">
      <g>
       <use style="stroke:#000000;stroke-width:0.8;" x="298.424394" xlink:href="#m84fed06094" y="324.1344"/>
      </g>
     </g>
     <g id="text_5">
      <!-- 2000 -->
      <g transform="translate(281.741581 338.371119)scale(0.15 -0.15)">
       <defs>
        <path d="M 3222 541 
L 3222 0 
L 194 0 
Q 188 203 259 391 
Q 375 700 629 1000 
Q 884 1300 1366 1694 
Q 2113 2306 2375 2664 
Q 2638 3022 2638 3341 
Q 2638 3675 2398 3904 
Q 2159 4134 1775 4134 
Q 1369 4134 1125 3890 
Q 881 3647 878 3216 
L 300 3275 
Q 359 3922 746 4261 
Q 1134 4600 1788 4600 
Q 2447 4600 2831 4234 
Q 3216 3869 3216 3328 
Q 3216 3053 3103 2787 
Q 2991 2522 2730 2228 
Q 2469 1934 1863 1422 
Q 1356 997 1212 845 
Q 1069 694 975 541 
L 3222 541 
z
" id="ArialMT-32" transform="scale(0.015625)"/>
       </defs>
       <use xlink:href="#ArialMT-32"/>
       <use x="55.615234" xlink:href="#ArialMT-30"/>
       <use x="111.230469" xlink:href="#ArialMT-30"/>
       <use x="166.845703" xlink:href="#ArialMT-30"/>
      </g>
     </g>
    </g>
    <g id="xtick_6">
     <g id="line2d_6">
      <g>
       <use style="stroke:#000000;stroke-width:0.8;" x="354.235492" xlink:href="#m84fed06094" y="324.1344"/>
      </g>
     </g>
     <g id="text_6">
      <!-- 2500 -->
      <g transform="translate(337.552679 338.371119)scale(0.15 -0.15)">
       <use xlink:href="#ArialMT-32"/>
       <use x="55.615234" xlink:href="#ArialMT-35"/>
       <use x="111.230469" xlink:href="#ArialMT-30"/>
       <use x="166.845703" xlink:href="#ArialMT-30"/>
      </g>
     </g>
    </g>
    <g id="xtick_7">
     <g id="line2d_7">
      <g>
       <use style="stroke:#000000;stroke-width:0.8;" x="410.04659" xlink:href="#m84fed06094" y="324.1344"/>
      </g>
     </g>
     <g id="text_7">
      <!-- 3000 -->
      <g transform="translate(393.363778 338.371119)scale(0.15 -0.15)">
       <defs>
        <path d="M 269 1209 
L 831 1284 
Q 928 806 1161 595 
Q 1394 384 1728 384 
Q 2125 384 2398 659 
Q 2672 934 2672 1341 
Q 2672 1728 2419 1979 
Q 2166 2231 1775 2231 
Q 1616 2231 1378 2169 
L 1441 2663 
Q 1497 2656 1531 2656 
Q 1891 2656 2178 2843 
Q 2466 3031 2466 3422 
Q 2466 3731 2256 3934 
Q 2047 4138 1716 4138 
Q 1388 4138 1169 3931 
Q 950 3725 888 3313 
L 325 3413 
Q 428 3978 793 4289 
Q 1159 4600 1703 4600 
Q 2078 4600 2393 4439 
Q 2709 4278 2876 4000 
Q 3044 3722 3044 3409 
Q 3044 3113 2884 2869 
Q 2725 2625 2413 2481 
Q 2819 2388 3044 2092 
Q 3269 1797 3269 1353 
Q 3269 753 2831 336 
Q 2394 -81 1725 -81 
Q 1122 -81 723 278 
Q 325 638 269 1209 
z
" id="ArialMT-33" transform="scale(0.015625)"/>
       </defs>
       <use xlink:href="#ArialMT-33"/>
       <use x="55.615234" xlink:href="#ArialMT-30"/>
       <use x="111.230469" xlink:href="#ArialMT-30"/>
       <use x="166.845703" xlink:href="#ArialMT-30"/>
      </g>
     </g>
    </g>
    <g id="text_8">
     <!-- Batch -->
     <g transform="translate(243.524766 356.089088)scale(0.15 -0.15)">
      <defs>
       <path d="M 469 0 
L 469 4581 
L 2188 4581 
Q 2713 4581 3030 4442 
Q 3347 4303 3526 4014 
Q 3706 3725 3706 3409 
Q 3706 3116 3547 2856 
Q 3388 2597 3066 2438 
Q 3481 2316 3704 2022 
Q 3928 1728 3928 1328 
Q 3928 1006 3792 729 
Q 3656 453 3456 303 
Q 3256 153 2954 76 
Q 2653 0 2216 0 
L 469 0 
z
M 1075 2656 
L 2066 2656 
Q 2469 2656 2644 2709 
Q 2875 2778 2992 2937 
Q 3109 3097 3109 3338 
Q 3109 3566 3000 3739 
Q 2891 3913 2687 3977 
Q 2484 4041 1991 4041 
L 1075 4041 
L 1075 2656 
z
M 1075 541 
L 2216 541 
Q 2509 541 2628 563 
Q 2838 600 2978 687 
Q 3119 775 3209 942 
Q 3300 1109 3300 1328 
Q 3300 1584 3169 1773 
Q 3038 1963 2805 2039 
Q 2572 2116 2134 2116 
L 1075 2116 
L 1075 541 
z
" id="ArialMT-42" transform="scale(0.015625)"/>
       <path d="M 2588 409 
Q 2275 144 1986 34 
Q 1697 -75 1366 -75 
Q 819 -75 525 192 
Q 231 459 231 875 
Q 231 1119 342 1320 
Q 453 1522 633 1644 
Q 813 1766 1038 1828 
Q 1203 1872 1538 1913 
Q 2219 1994 2541 2106 
Q 2544 2222 2544 2253 
Q 2544 2597 2384 2738 
Q 2169 2928 1744 2928 
Q 1347 2928 1158 2789 
Q 969 2650 878 2297 
L 328 2372 
Q 403 2725 575 2942 
Q 747 3159 1072 3276 
Q 1397 3394 1825 3394 
Q 2250 3394 2515 3294 
Q 2781 3194 2906 3042 
Q 3031 2891 3081 2659 
Q 3109 2516 3109 2141 
L 3109 1391 
Q 3109 606 3145 398 
Q 3181 191 3288 0 
L 2700 0 
Q 2613 175 2588 409 
z
M 2541 1666 
Q 2234 1541 1622 1453 
Q 1275 1403 1131 1340 
Q 988 1278 909 1158 
Q 831 1038 831 891 
Q 831 666 1001 516 
Q 1172 366 1500 366 
Q 1825 366 2078 508 
Q 2331 650 2450 897 
Q 2541 1088 2541 1459 
L 2541 1666 
z
" id="ArialMT-61" transform="scale(0.015625)"/>
       <path d="M 1650 503 
L 1731 6 
Q 1494 -44 1306 -44 
Q 1000 -44 831 53 
Q 663 150 594 308 
Q 525 466 525 972 
L 525 2881 
L 113 2881 
L 113 3319 
L 525 3319 
L 525 4141 
L 1084 4478 
L 1084 3319 
L 1650 3319 
L 1650 2881 
L 1084 2881 
L 1084 941 
Q 1084 700 1114 631 
Q 1144 563 1211 522 
Q 1278 481 1403 481 
Q 1497 481 1650 503 
z
" id="ArialMT-74" transform="scale(0.015625)"/>
       <path d="M 2588 1216 
L 3141 1144 
Q 3050 572 2676 248 
Q 2303 -75 1759 -75 
Q 1078 -75 664 370 
Q 250 816 250 1647 
Q 250 2184 428 2587 
Q 606 2991 970 3192 
Q 1334 3394 1763 3394 
Q 2303 3394 2647 3120 
Q 2991 2847 3088 2344 
L 2541 2259 
Q 2463 2594 2264 2762 
Q 2066 2931 1784 2931 
Q 1359 2931 1093 2626 
Q 828 2322 828 1663 
Q 828 994 1084 691 
Q 1341 388 1753 388 
Q 2084 388 2306 591 
Q 2528 794 2588 1216 
z
" id="ArialMT-63" transform="scale(0.015625)"/>
       <path d="M 422 0 
L 422 4581 
L 984 4581 
L 984 2938 
Q 1378 3394 1978 3394 
Q 2347 3394 2619 3248 
Q 2891 3103 3008 2847 
Q 3125 2591 3125 2103 
L 3125 0 
L 2563 0 
L 2563 2103 
Q 2563 2525 2380 2717 
Q 2197 2909 1863 2909 
Q 1613 2909 1392 2779 
Q 1172 2650 1078 2428 
Q 984 2206 984 1816 
L 984 0 
L 422 0 
z
" id="ArialMT-68" transform="scale(0.015625)"/>
      </defs>
      <use xlink:href="#ArialMT-42"/>
      <use x="66.699219" xlink:href="#ArialMT-61"/>
      <use x="122.314453" xlink:href="#ArialMT-74"/>
      <use x="150.097656" xlink:href="#ArialMT-63"/>
      <use x="200.097656" xlink:href="#ArialMT-68"/>
     </g>
    </g>
   </g>
   <g id="matplotlib.axis_2">
    <g id="ytick_1">
     <g id="line2d_8">
      <defs>
       <path d="M 0 0 
L 3.5 0 
" id="m3010451f9e" style="stroke:#000000;stroke-width:0.8;"/>
      </defs>
      <g>
       <use style="stroke:#000000;stroke-width:0.8;" x="75.18" xlink:href="#m3010451f9e" y="293.34096"/>
      </g>
     </g>
     <g id="text_9">
      <!-- 0.100 -->
      <g transform="translate(34.147188 298.709319)scale(0.15 -0.15)">
       <defs>
        <path d="M 581 0 
L 581 641 
L 1222 641 
L 1222 0 
L 581 0 
z
" id="ArialMT-2e" transform="scale(0.015625)"/>
       </defs>
       <use xlink:href="#ArialMT-30"/>
       <use x="55.615234" xlink:href="#ArialMT-2e"/>
       <use x="83.398438" xlink:href="#ArialMT-31"/>
       <use x="139.013672" xlink:href="#ArialMT-30"/>
       <use x="194.628906" xlink:href="#ArialMT-30"/>
      </g>
     </g>
    </g>
    <g id="ytick_2">
     <g id="line2d_9">
      <g>
       <use style="stroke:#000000;stroke-width:0.8;" x="75.18" xlink:href="#m3010451f9e" y="254.84916"/>
      </g>
     </g>
     <g id="text_10">
      <!-- 0.125 -->
      <g transform="translate(34.147188 260.217519)scale(0.15 -0.15)">
       <use xlink:href="#ArialMT-30"/>
       <use x="55.615234" xlink:href="#ArialMT-2e"/>
       <use x="83.398438" xlink:href="#ArialMT-31"/>
       <use x="139.013672" xlink:href="#ArialMT-32"/>
       <use x="194.628906" xlink:href="#ArialMT-35"/>
      </g>
     </g>
    </g>
    <g id="ytick_3">
     <g id="line2d_10">
      <g>
       <use style="stroke:#000000;stroke-width:0.8;" x="75.18" xlink:href="#m3010451f9e" y="216.35736"/>
      </g>
     </g>
     <g id="text_11">
      <!-- 0.150 -->
      <g transform="translate(34.147188 221.725719)scale(0.15 -0.15)">
       <use xlink:href="#ArialMT-30"/>
       <use x="55.615234" xlink:href="#ArialMT-2e"/>
       <use x="83.398438" xlink:href="#ArialMT-31"/>
       <use x="139.013672" xlink:href="#ArialMT-35"/>
       <use x="194.628906" xlink:href="#ArialMT-30"/>
      </g>
     </g>
    </g>
    <g id="ytick_4">
     <g id="line2d_11">
      <g>
       <use style="stroke:#000000;stroke-width:0.8;" x="75.18" xlink:href="#m3010451f9e" y="177.86556"/>
      </g>
     </g>
     <g id="text_12">
      <!-- 0.175 -->
      <g transform="translate(34.147188 183.233919)scale(0.15 -0.15)">
       <defs>
        <path d="M 303 3981 
L 303 4522 
L 3269 4522 
L 3269 4084 
Q 2831 3619 2401 2847 
Q 1972 2075 1738 1259 
Q 1569 684 1522 0 
L 944 0 
Q 953 541 1156 1306 
Q 1359 2072 1739 2783 
Q 2119 3494 2547 3981 
L 303 3981 
z
" id="ArialMT-37" transform="scale(0.015625)"/>
       </defs>
       <use xlink:href="#ArialMT-30"/>
       <use x="55.615234" xlink:href="#ArialMT-2e"/>
       <use x="83.398438" xlink:href="#ArialMT-31"/>
       <use x="139.013672" xlink:href="#ArialMT-37"/>
       <use x="194.628906" xlink:href="#ArialMT-35"/>
      </g>
     </g>
    </g>
    <g id="ytick_5">
     <g id="line2d_12">
      <g>
       <use style="stroke:#000000;stroke-width:0.8;" x="75.18" xlink:href="#m3010451f9e" y="139.37376"/>
      </g>
     </g>
     <g id="text_13">
      <!-- 0.200 -->
      <g transform="translate(34.147188 144.742119)scale(0.15 -0.15)">
       <use xlink:href="#ArialMT-30"/>
       <use x="55.615234" xlink:href="#ArialMT-2e"/>
       <use x="83.398438" xlink:href="#ArialMT-32"/>
       <use x="139.013672" xlink:href="#ArialMT-30"/>
       <use x="194.628906" xlink:href="#ArialMT-30"/>
      </g>
     </g>
    </g>
    <g id="ytick_6">
     <g id="line2d_13">
      <g>
       <use style="stroke:#000000;stroke-width:0.8;" x="75.18" xlink:href="#m3010451f9e" y="100.88196"/>
      </g>
     </g>
     <g id="text_14">
      <!-- 0.225 -->
      <g transform="translate(34.147188 106.250319)scale(0.15 -0.15)">
       <use xlink:href="#ArialMT-30"/>
       <use x="55.615234" xlink:href="#ArialMT-2e"/>
       <use x="83.398438" xlink:href="#ArialMT-32"/>
       <use x="139.013672" xlink:href="#ArialMT-32"/>
       <use x="194.628906" xlink:href="#ArialMT-35"/>
      </g>
     </g>
    </g>
    <g id="ytick_7">
     <g id="line2d_14">
      <g>
       <use style="stroke:#000000;stroke-width:0.8;" x="75.18" xlink:href="#m3010451f9e" y="62.39016"/>
      </g>
     </g>
     <g id="text_15">
      <!-- 0.250 -->
      <g transform="translate(34.147188 67.758519)scale(0.15 -0.15)">
       <use xlink:href="#ArialMT-30"/>
       <use x="55.615234" xlink:href="#ArialMT-2e"/>
       <use x="83.398438" xlink:href="#ArialMT-32"/>
       <use x="139.013672" xlink:href="#ArialMT-35"/>
       <use x="194.628906" xlink:href="#ArialMT-30"/>
      </g>
     </g>
    </g>
    <g id="ytick_8">
     <g id="line2d_15">
      <g>
       <use style="stroke:#000000;stroke-width:0.8;" x="75.18" xlink:href="#m3010451f9e" y="23.89836"/>
      </g>
     </g>
     <g id="text_16">
      <!-- 0.275 -->
      <g transform="translate(34.147188 29.266719)scale(0.15 -0.15)">
       <use xlink:href="#ArialMT-30"/>
       <use x="55.615234" xlink:href="#ArialMT-2e"/>
       <use x="83.398438" xlink:href="#ArialMT-32"/>
       <use x="139.013672" xlink:href="#ArialMT-37"/>
       <use x="194.628906" xlink:href="#ArialMT-35"/>
      </g>
     </g>
    </g>
    <g id="text_17">
     <!-- Mean Squared Error -->
     <g transform="translate(27.165938 238.112513)rotate(-90)scale(0.15 -0.15)">
      <defs>
       <path d="M 475 0 
L 475 4581 
L 1388 4581 
L 2472 1338 
Q 2622 884 2691 659 
Q 2769 909 2934 1394 
L 4031 4581 
L 4847 4581 
L 4847 0 
L 4263 0 
L 4263 3834 
L 2931 0 
L 2384 0 
L 1059 3900 
L 1059 0 
L 475 0 
z
" id="ArialMT-4d" transform="scale(0.015625)"/>
       <path d="M 2694 1069 
L 3275 997 
Q 3138 488 2766 206 
Q 2394 -75 1816 -75 
Q 1088 -75 661 373 
Q 234 822 234 1631 
Q 234 2469 665 2931 
Q 1097 3394 1784 3394 
Q 2450 3394 2872 2941 
Q 3294 2488 3294 1666 
Q 3294 1616 3291 1516 
L 816 1516 
Q 847 969 1125 678 
Q 1403 388 1819 388 
Q 2128 388 2347 550 
Q 2566 713 2694 1069 
z
M 847 1978 
L 2700 1978 
Q 2663 2397 2488 2606 
Q 2219 2931 1791 2931 
Q 1403 2931 1139 2672 
Q 875 2413 847 1978 
z
" id="ArialMT-65" transform="scale(0.015625)"/>
       <path d="M 422 0 
L 422 3319 
L 928 3319 
L 928 2847 
Q 1294 3394 1984 3394 
Q 2284 3394 2536 3286 
Q 2788 3178 2913 3003 
Q 3038 2828 3088 2588 
Q 3119 2431 3119 2041 
L 3119 0 
L 2556 0 
L 2556 2019 
Q 2556 2363 2490 2533 
Q 2425 2703 2258 2804 
Q 2091 2906 1866 2906 
Q 1506 2906 1245 2678 
Q 984 2450 984 1813 
L 984 0 
L 422 0 
z
" id="ArialMT-6e" transform="scale(0.015625)"/>
       <path id="ArialMT-20" transform="scale(0.015625)"/>
       <path d="M 288 1472 
L 859 1522 
Q 900 1178 1048 958 
Q 1197 738 1509 602 
Q 1822 466 2213 466 
Q 2559 466 2825 569 
Q 3091 672 3220 851 
Q 3350 1031 3350 1244 
Q 3350 1459 3225 1620 
Q 3100 1781 2813 1891 
Q 2628 1963 1997 2114 
Q 1366 2266 1113 2400 
Q 784 2572 623 2826 
Q 463 3081 463 3397 
Q 463 3744 659 4045 
Q 856 4347 1234 4503 
Q 1613 4659 2075 4659 
Q 2584 4659 2973 4495 
Q 3363 4331 3572 4012 
Q 3781 3694 3797 3291 
L 3216 3247 
Q 3169 3681 2898 3903 
Q 2628 4125 2100 4125 
Q 1550 4125 1298 3923 
Q 1047 3722 1047 3438 
Q 1047 3191 1225 3031 
Q 1400 2872 2139 2705 
Q 2878 2538 3153 2413 
Q 3553 2228 3743 1945 
Q 3934 1663 3934 1294 
Q 3934 928 3725 604 
Q 3516 281 3123 101 
Q 2731 -78 2241 -78 
Q 1619 -78 1198 103 
Q 778 284 539 648 
Q 300 1013 288 1472 
z
" id="ArialMT-53" transform="scale(0.015625)"/>
       <path d="M 2538 -1272 
L 2538 353 
Q 2406 169 2170 47 
Q 1934 -75 1669 -75 
Q 1078 -75 651 397 
Q 225 869 225 1691 
Q 225 2191 398 2587 
Q 572 2984 901 3189 
Q 1231 3394 1625 3394 
Q 2241 3394 2594 2875 
L 2594 3319 
L 3100 3319 
L 3100 -1272 
L 2538 -1272 
z
M 803 1669 
Q 803 1028 1072 708 
Q 1341 388 1716 388 
Q 2075 388 2334 692 
Q 2594 997 2594 1619 
Q 2594 2281 2320 2615 
Q 2047 2950 1678 2950 
Q 1313 2950 1058 2639 
Q 803 2328 803 1669 
z
" id="ArialMT-71" transform="scale(0.015625)"/>
       <path d="M 2597 0 
L 2597 488 
Q 2209 -75 1544 -75 
Q 1250 -75 995 37 
Q 741 150 617 320 
Q 494 491 444 738 
Q 409 903 409 1263 
L 409 3319 
L 972 3319 
L 972 1478 
Q 972 1038 1006 884 
Q 1059 663 1231 536 
Q 1403 409 1656 409 
Q 1909 409 2131 539 
Q 2353 669 2445 892 
Q 2538 1116 2538 1541 
L 2538 3319 
L 3100 3319 
L 3100 0 
L 2597 0 
z
" id="ArialMT-75" transform="scale(0.015625)"/>
       <path d="M 416 0 
L 416 3319 
L 922 3319 
L 922 2816 
Q 1116 3169 1280 3281 
Q 1444 3394 1641 3394 
Q 1925 3394 2219 3213 
L 2025 2691 
Q 1819 2813 1613 2813 
Q 1428 2813 1281 2702 
Q 1134 2591 1072 2394 
Q 978 2094 978 1738 
L 978 0 
L 416 0 
z
" id="ArialMT-72" transform="scale(0.015625)"/>
       <path d="M 2575 0 
L 2575 419 
Q 2259 -75 1647 -75 
Q 1250 -75 917 144 
Q 584 363 401 755 
Q 219 1147 219 1656 
Q 219 2153 384 2558 
Q 550 2963 881 3178 
Q 1213 3394 1622 3394 
Q 1922 3394 2156 3267 
Q 2391 3141 2538 2938 
L 2538 4581 
L 3097 4581 
L 3097 0 
L 2575 0 
z
M 797 1656 
Q 797 1019 1065 703 
Q 1334 388 1700 388 
Q 2069 388 2326 689 
Q 2584 991 2584 1609 
Q 2584 2291 2321 2609 
Q 2059 2928 1675 2928 
Q 1300 2928 1048 2622 
Q 797 2316 797 1656 
z
" id="ArialMT-64" transform="scale(0.015625)"/>
       <path d="M 506 0 
L 506 4581 
L 3819 4581 
L 3819 4041 
L 1113 4041 
L 1113 2638 
L 3647 2638 
L 3647 2100 
L 1113 2100 
L 1113 541 
L 3925 541 
L 3925 0 
L 506 0 
z
" id="ArialMT-45" transform="scale(0.015625)"/>
       <path d="M 213 1659 
Q 213 2581 725 3025 
Q 1153 3394 1769 3394 
Q 2453 3394 2887 2945 
Q 3322 2497 3322 1706 
Q 3322 1066 3130 698 
Q 2938 331 2570 128 
Q 2203 -75 1769 -75 
Q 1072 -75 642 372 
Q 213 819 213 1659 
z
M 791 1659 
Q 791 1022 1069 705 
Q 1347 388 1769 388 
Q 2188 388 2466 706 
Q 2744 1025 2744 1678 
Q 2744 2294 2464 2611 
Q 2184 2928 1769 2928 
Q 1347 2928 1069 2612 
Q 791 2297 791 1659 
z
" id="ArialMT-6f" transform="scale(0.015625)"/>
      </defs>
      <use xlink:href="#ArialMT-4d"/>
      <use x="83.300781" xlink:href="#ArialMT-65"/>
      <use x="138.916016" xlink:href="#ArialMT-61"/>
      <use x="194.53125" xlink:href="#ArialMT-6e"/>
      <use x="250.146484" xlink:href="#ArialMT-20"/>
      <use x="277.929688" xlink:href="#ArialMT-53"/>
      <use x="344.628906" xlink:href="#ArialMT-71"/>
      <use x="400.244141" xlink:href="#ArialMT-75"/>
      <use x="455.859375" xlink:href="#ArialMT-61"/>
      <use x="511.474609" xlink:href="#ArialMT-72"/>
      <use x="544.775391" xlink:href="#ArialMT-65"/>
      <use x="600.390625" xlink:href="#ArialMT-64"/>
      <use x="656.005859" xlink:href="#ArialMT-20"/>
      <use x="683.789062" xlink:href="#ArialMT-45"/>
      <use x="750.488281" xlink:href="#ArialMT-72"/>
      <use x="783.789062" xlink:href="#ArialMT-72"/>
      <use x="817.089844" xlink:href="#ArialMT-6f"/>
      <use x="872.705078" xlink:href="#ArialMT-72"/>
     </g>
    </g>
   </g>
   <g id="line2d_16">
    <path clip-path="url(#p02d1b3f2c0)" d="M 86.664509 -1 
L 87.90493 44.748684 
L 88.797908 71.711051 
L 89.244397 72.444318 
L 89.467641 72.385275 
L 89.802508 71.803306 
L 90.807108 69.721848 
L 91.365219 69.015126 
L 91.811707 68.791874 
L 92.369818 68.838368 
L 93.151174 68.969387 
L 94.155773 69.061997 
L 95.830106 69.680057 
L 96.388217 69.69367 
L 97.504439 70.218187 
L 97.616062 70.358389 
L 97.839306 68.961609 
L 98.285795 69.311735 
L 98.509039 69.853783 
L 100.183372 76.056351 
L 100.964727 77.725646 
L 101.746083 78.838776 
L 102.192572 79.248371 
L 103.197171 79.845695 
L 104.090149 80.145422 
L 105.317993 80.737305 
L 106.099349 81.015345 
L 106.434215 81.070822 
L 106.657459 80.606527 
L 106.769082 80.621026 
L 107.327193 81.902499 
L 107.550437 82.096059 
L 107.885304 82.069928 
L 109.336392 80.6833 
L 109.782881 80.561276 
L 110.899103 80.887999 
L 112.015325 81.829247 
L 113.354791 83.356733 
L 114.471013 84.239386 
L 115.363991 84.878376 
L 115.698857 86.223429 
L 115.922102 86.288565 
L 116.480213 85.824625 
L 117.038324 85.862358 
L 117.261568 86.125206 
L 118.266168 88.272178 
L 119.159146 90.304432 
L 119.828879 91.35422 
L 120.498612 91.995378 
L 121.838078 92.85147 
L 122.842678 93.30469 
L 124.293767 94.440147 
L 124.405389 94.654165 
L 124.628633 94.405523 
L 126.079722 98.403422 
L 126.414588 98.927387 
L 127.754055 98.923528 
L 128.088921 98.647815 
L 129.205143 97.505726 
L 130.098121 96.84246 
L 131.102721 96.250446 
L 132.442187 95.930267 
L 133.223542 95.763651 
L 133.670031 97.281276 
L 133.893275 97.355448 
L 134.228142 97.237029 
L 134.563009 97.066199 
L 135.455986 97.167189 
L 137.353564 99.728723 
L 139.920874 104.508544 
L 141.148718 106.441124 
L 142.376562 107.897372 
L 142.599807 107.674185 
L 142.823051 107.35267 
L 143.604407 106.614536 
L 144.385762 105.81139 
L 145.613606 104.353411 
L 146.171717 104.138971 
L 146.84145 103.910909 
L 147.287939 103.804567 
L 149.408761 104.070698 
L 150.413361 104.516986 
L 151.083094 104.921927 
L 151.41796 105.463587 
L 151.529583 105.362144 
L 151.752827 105.664642 
L 152.310938 106.750759 
L 156.329337 115.720729 
L 157.557181 118.037044 
L 160.236114 123.775163 
L 160.459358 123.9069 
L 160.570981 123.939921 
L 160.794225 123.8005 
L 161.129092 123.760778 
L 162.245313 124.989207 
L 163.249913 125.029906 
L 164.366135 125.467603 
L 165.482357 125.967452 
L 167.045068 126.889826 
L 168.942645 127.573913 
L 169.16589 128.010698 
L 169.389134 128.238476 
L 169.947245 129.371741 
L 170.282112 129.97968 
L 170.840223 130.689808 
L 171.7332 132.107209 
L 175.863221 139.622937 
L 177.649177 142.341596 
L 177.872421 142.645144 
L 177.984043 142.445595 
L 178.207288 141.92072 
L 178.653776 141.730975 
L 180.551354 145.989337 
L 181.667576 147.667489 
L 182.225687 148.094576 
L 183.788397 149.219648 
L 186.802197 151.99755 
L 187.025441 153.362742 
L 187.248686 154.623668 
L 187.583552 155.115448 
L 187.806797 155.139236 
L 188.699774 153.585722 
L 189.034641 153.340833 
L 189.257885 153.314786 
L 189.704374 153.562446 
L 190.597351 154.385969 
L 192.160062 156.039724 
L 193.499529 157.664794 
L 195.843595 160.080799 
L 196.066839 159.899816 
L 196.290083 159.888473 
L 196.62495 160.955778 
L 197.741172 164.45356 
L 198.410905 165.628697 
L 199.415505 166.599263 
L 200.308483 167.457611 
L 201.089838 168.201791 
L 202.094438 168.726091 
L 202.764171 168.981811 
L 204.215259 169.008955 
L 204.996615 168.946858 
L 205.331481 168.426624 
L 206.001215 166.763273 
L 206.559326 166.245065 
L 206.894192 166.276201 
L 207.229059 166.28542 
L 208.010414 166.103776 
L 209.126636 165.94951 
L 210.577725 166.345951 
L 211.582324 166.9602 
L 212.36368 167.744127 
L 213.591524 169.174118 
L 213.703146 169.672647 
L 213.814768 169.642245 
L 214.261257 170.964585 
L 215.489101 175.373692 
L 219.284256 185.84063 
L 222.5213 192.570886 
L 222.967789 195.645516 
L 223.637522 197.904348 
L 224.530499 199.959319 
L 226.09321 202.197097 
L 226.651321 202.625461 
L 227.321054 203.124702 
L 228.214032 203.96486 
L 229.888365 205.727013 
L 230.892964 206.790663 
L 231.451075 207.552242 
L 231.67432 208.483156 
L 232.120809 208.785965 
L 232.455675 209.414239 
L 232.790542 209.991963 
L 234.576497 212.23563 
L 235.469475 213.684515 
L 237.367052 217.104585 
L 239.934362 220.666293 
L 240.380851 221.148792 
L 240.492473 221.093147 
L 240.82734 219.611398 
L 241.720318 218.15193 
L 242.278429 218.175581 
L 242.724917 218.394034 
L 243.171406 218.758364 
L 243.841139 219.512658 
L 245.40385 221.137942 
L 247.859538 223.690421 
L 249.422249 225.164989 
L 249.757116 226.260202 
L 250.761716 227.570925 
L 252.547671 229.58259 
L 253.55227 230.786385 
L 254.891737 232.698031 
L 256.231203 234.810725 
L 257.347425 236.400194 
L 258.352025 238.048817 
L 258.463647 238.284129 
L 258.910136 238.236059 
L 260.807713 238.931908 
L 264.044757 241.328665 
L 265.830712 242.872427 
L 267.281801 244.447165 
L 267.505045 245.228798 
L 267.616667 245.14357 
L 267.728289 245.166841 
L 268.844511 246.75108 
L 269.402622 247.408116 
L 269.849111 247.697881 
L 271.858311 248.221986 
L 272.081555 247.865658 
L 273.309399 243.233854 
L 275.653465 234.630121 
L 276.099954 233.047032 
L 276.434821 231.299139 
L 276.546443 230.796376 
L 276.88131 231.208006 
L 278.332398 231.730671 
L 278.778887 231.616736 
L 280.45322 231.846872 
L 281.011331 230.493209 
L 281.122953 230.413507 
L 281.792686 231.057284 
L 282.462419 232.042509 
L 283.913508 234.612188 
L 285.02973 236.948719 
L 285.587841 240.821954 
L 286.369196 243.248994 
L 286.592441 243.869644 
L 287.262174 201.789957 
L 288.043529 165.801472 
L 288.936507 134.193436 
L 289.829484 109.639204 
L 290.945706 86.688806 
L 292.17355 66.273374 
L 293.513017 47.785962 
L 293.959506 42.222843 
L 294.071128 42.83426 
L 294.405994 42.617167 
L 294.629239 42.727576 
L 295.18735 42.456452 
L 295.633839 42.048316 
L 296.415194 91.512571 
L 297.308172 132.849742 
L 298.312771 168.894412 
L 299.540615 204.5981 
L 300.76846 233.939695 
L 302.107926 260.907321 
L 303.000904 277.097378 
L 303.447392 277.931809 
L 305.233348 282.521914 
L 306.572814 284.730631 
L 307.465791 285.987701 
L 308.693636 287.224266 
L 310.144724 288.789639 
L 311.819057 290.849044 
L 312.042302 291.535322 
L 312.712035 292.94892 
L 313.605012 294.319785 
L 316.172323 298.942916 
L 316.953678 300.439371 
L 318.293145 303.003714 
L 319.632611 305.179696 
L 320.748833 306.715337 
L 320.972077 307.51118 
L 321.306944 308.125126 
L 322.534788 309.723029 
L 324.209121 311.642898 
L 325.325343 312.620745 
L 327.111298 313.933538 
L 328.22752 314.807075 
L 329.678609 315.840794 
L 329.790231 316.414137 
L 330.906453 314.331489 
L 332.692408 312.946999 
L 334.031874 312.203757 
L 335.371341 311.7704 
L 337.157296 311.336982 
L 338.496762 311.206775 
L 338.608384 311.215422 
L 338.720007 311.59281 
L 338.831629 311.466229 
L 339.836229 314.04387 
L 340.505962 314.865702 
L 341.95705 316.583167 
L 343.96625 318.201385 
L 347.203294 320.561549 
L 347.53816 320.882551 
L 347.761404 321.33774 
L 347.873027 321.3298 
L 348.319515 320.93609 
L 348.654382 320.953744 
L 349.100871 321.192191 
L 349.658982 321.441479 
L 350.328715 321.795383 
L 350.998448 322.447483 
L 353.230892 325.326132 
L 356.69118 329.86779 
L 357.026047 329.624653 
L 358.365513 329.427067 
L 359.035246 329.242197 
L 360.151468 329.326109 
L 361.714179 329.808099 
L 365.062845 331.323347 
L 365.397712 331.483933 
L 365.620956 331.966475 
L 366.8488 333.354711 
L 369.750977 336.37748 
L 370.867199 337.264572 
L 373.43451 339.085838 
L 374.43911 339.55018 
L 375.108843 338.446733 
L 375.555331 337.94218 
L 376.783176 337.02543 
L 377.899398 336.467367 
L 379.238864 335.897617 
L 381.024819 335.574142 
L 382.364285 335.527111 
L 383.145641 335.637004 
L 383.257263 335.658758 
L 383.703752 336.641186 
L 384.038618 337.350376 
L 384.596729 338.432263 
L 385.601329 339.587935 
L 386.940796 340.517921 
L 389.73135 342.212655 
L 391.628928 343.293124 
L 392.187039 343.594985 
L 392.298661 343.815011 
L 392.633528 343.606279 
L 393.638127 343.401028 
L 394.531105 343.670785 
L 396.205438 344.80077 
L 396.986793 345.107551 
L 398.214637 345.568526 
L 399.442482 346.132263 
L 401.116815 346.915738 
L 401.340059 347.324922 
L 401.89817 347.68251 
L 402.121414 347.883072 
L 404.353858 351.039693 
L 405.693325 352.564008 
L 406.921169 353.661229 
L 408.372257 354.571249 
L 410.158212 355.497876 
L 410.381457 355.408615 
L 411.386057 355.615639 
L 415.292834 351.386352 
L 416.297433 350.845426 
L 417.525277 350.549718 
L 418.864744 350.489313 
L 418.976366 350.489842 
L 419.19961 350.949926 
L 420.20421 351.852343 
L 420.539077 352.241918 
L 425.338831 360.353809 
L 426.455053 361.649471 
L 427.906142 362.930925 
L 428.129386 364.519552 
L 428.799119 362.488027 
L 428.910742 361.764436 
L 429.022364 361.945622 
L 429.133986 361.634803 
L 429.245608 361.755179 
L 429.35723 362.121921 
L 429.692097 361.627886 
L 429.803719 361.28236 
L 429.915341 361.39801 
L 430.026963 360.995735 
L 430.138586 361.0767 
L 430.473452 360.627312 
L 430.585074 360.495792 
L 430.808319 358.588026 
L 430.919941 358.612254 
L 431.143185 358.17884 
L 431.36643 358.356475 
L 431.701296 358.267755 
L 432.147785 357.962878 
L 432.259407 357.982173 
L 432.37103 357.746159 
L 432.37103 357.746159 
" style="fill:none;stroke:#1f77b4;stroke-linecap:square;stroke-width:1.5;"/>
   </g>
   <g id="line2d_17">
    <path clip-path="url(#p02d1b3f2c0)" d="M 84.109776 50.094922 
L 93.039551 62.874026 
L 101.969327 75.557228 
L 110.899103 83.184609 
L 119.828879 89.86588 
L 128.758654 88.053093 
L 137.68843 92.532208 
L 146.618206 93.240084 
L 155.547982 94.940111 
L 164.477757 93.13796 
L 173.407533 100.318083 
L 182.337309 99.374024 
L 191.267085 99.570227 
L 200.19686 103.714858 
L 209.126636 110.131978 
L 218.056412 111.521859 
L 226.986188 112.138743 
L 235.915963 114.177587 
L 244.845739 110.212971 
L 253.775515 107.06794 
L 262.705291 104.502813 
L 271.635066 106.18818 
L 280.564842 107.36098 
L 289.494618 111.214208 
L 298.424394 114.971218 
L 307.354169 117.349544 
L 316.283945 119.044694 
L 325.213721 119.664904 
L 334.143496 121.076576 
L 343.073272 120.148174 
L 352.003048 122.690587 
L 360.932824 124.510335 
L 369.862599 128.050122 
L 378.792375 127.164526 
L 387.722151 130.101423 
L 396.651927 128.657943 
L 405.581702 131.296611 
L 414.511478 131.160711 
L 423.441254 141.401908 
L 432.37103 136.077709 
" style="fill:none;stroke:#2ca02c;stroke-dasharray:5.55,2.4;stroke-dashoffset:0;stroke-width:1.5;"/>
   </g>
   <g id="line2d_18">
    <path clip-path="url(#p02d1b3f2c0)" d="M 87.315909 -1 
L 88.686286 45.244969 
L 88.90953 47.029046 
L 89.467641 51.124732 
L 89.91413 53.149441 
L 90.248997 54.056755 
L 90.807108 55.4626 
L 91.365219 56.725845 
L 91.811707 57.823533 
L 92.927929 61.074819 
L 95.49524 69.469637 
L 96.834706 72.951746 
L 97.616062 74.535551 
L 97.727684 74.778713 
L 97.839306 74.632625 
L 98.06255 75.065952 
L 98.285795 75.3727 
L 98.509039 75.528044 
L 98.843906 75.953285 
L 99.290394 77.154816 
L 99.848505 78.37507 
L 100.183372 78.529468 
L 101.634461 78.982155 
L 103.420416 78.67655 
L 105.317993 78.60599 
L 106.545837 78.93707 
L 106.769082 79.633304 
L 106.992326 80.145956 
L 107.885304 81.469351 
L 109.001526 81.993767 
L 109.559637 82.633421 
L 111.122347 83.208696 
L 112.015325 83.214713 
L 113.578036 82.510305 
L 115.363991 81.746678 
L 115.587235 81.708634 
L 115.81048 81.267497 
L 116.368591 80.314096 
L 116.815079 79.44851 
L 117.484813 79.083154 
L 118.266168 79.163678 
L 119.047523 79.860665 
L 120.163745 80.77159 
L 120.945101 81.683061 
L 123.400789 85.960575 
L 124.293767 86.789635 
L 124.740255 88.129333 
L 126.191344 91.353304 
L 126.861077 92.158171 
L 128.200543 93.671352 
L 128.870277 94.350396 
L 129.763254 95.084568 
L 130.321365 95.175707 
L 132.442187 95.205366 
L 133.223542 95.467883 
L 133.335165 95.732409 
L 133.558409 95.380179 
L 133.781653 94.988595 
L 134.11652 94.525147 
L 134.451386 94.255797 
L 134.897875 93.893371 
L 136.795453 92.91874 
L 138.804652 91.71798 
L 140.813852 91.818644 
L 141.483585 91.969932 
L 142.153318 92.20624 
L 142.376562 93.351928 
L 143.046296 95.102513 
L 143.26954 95.255624 
L 145.390362 96.026529 
L 147.176317 97.98595 
L 147.957672 98.859095 
L 148.627405 99.494963 
L 149.966872 101.025947 
L 151.083094 102.392659 
L 151.194716 103.272576 
L 151.41796 102.348808 
L 151.976071 102.271237 
L 152.087694 102.326275 
L 153.315538 104.609871 
L 154.43176 106.588372 
L 156.329337 109.02854 
L 157.445559 110.418629 
L 158.338537 111.146273 
L 160.01287 112.236167 
L 160.236114 113.528808 
L 160.459358 114.370419 
L 161.017469 115.532765 
L 161.352336 116.123348 
L 161.798825 116.784195 
L 162.691802 118.296872 
L 163.138291 119.109295 
L 164.142891 120.835779 
L 166.933446 124.97224 
L 168.049668 126.423003 
L 169.054267 127.850086 
L 169.277512 127.01236 
L 169.389134 127.012331 
L 169.612378 127.361894 
L 169.835623 127.553307 
L 170.170489 127.695986 
L 170.282112 127.631511 
L 170.616978 127.775305 
L 171.7332 127.567789 
L 172.291311 127.516918 
L 172.626178 127.457441 
L 173.072667 127.534885 
L 174.077266 128.040785 
L 175.081866 128.224587 
L 175.528355 128.522967 
L 177.537554 130.413392 
L 177.984043 131.047627 
L 178.207288 131.354628 
L 178.653776 131.132139 
L 178.988643 131.754122 
L 179.32351 132.26551 
L 179.658376 132.772768 
L 180.439732 134.123272 
L 181.667576 136.209032 
L 182.337309 137.172284 
L 183.118664 138.281592 
L 185.016242 141.377183 
L 186.802197 143.812475 
L 187.137063 145.781165 
L 187.248686 146.026606 
L 187.806797 148.267145 
L 188.364908 149.558211 
L 189.481129 152.249201 
L 191.267085 155.881322 
L 191.936818 156.916942 
L 195.285484 161.176599 
L 195.731972 161.625048 
L 195.843595 162.071861 
L 196.178461 161.326316 
L 196.290083 161.372597 
L 196.736572 161.090393 
L 196.959817 161.108446 
L 197.294683 161.309342 
L 198.076039 162.210009 
L 201.982816 166.390402 
L 202.987415 167.471051 
L 204.77337 169.000398 
L 205.219859 168.367834 
L 205.666348 167.035667 
L 207.117437 164.132045 
L 207.563925 163.639325 
L 208.122036 163.39129 
L 208.456903 163.318471 
L 208.79177 163.414822 
L 209.796369 164.083698 
L 210.577725 164.776424 
L 212.698546 166.420954 
L 213.591524 167.520384 
L 214.038013 170.107998 
L 215.93559 177.426234 
L 216.716945 179.360204 
L 217.721545 181.253548 
L 219.953989 184.144524 
L 220.846967 184.829148 
L 221.851567 185.35142 
L 222.5213 185.607652 
L 222.632922 186.430352 
L 223.191033 185.514464 
L 223.860766 185.497035 
L 225.200232 186.095875 
L 226.204832 187.285553 
L 227.209432 187.289026 
L 228.437276 187.558327 
L 229.553498 188.703411 
L 230.558098 189.934905 
L 231.451075 191.154363 
L 231.562698 191.92336 
L 231.67432 191.904149 
L 232.120809 193.69876 
L 232.790542 196.20784 
L 233.795142 199.238973 
L 234.24163 199.999273 
L 234.799741 200.392963 
L 235.134608 200.608102 
L 236.362452 202.206581 
L 237.25543 203.019389 
L 238.929763 204.751127 
L 239.711118 205.445135 
L 240.380851 205.928306 
L 240.492473 206.270546 
L 240.938962 205.493794 
L 241.162207 205.326659 
L 241.608695 203.614647 
L 242.055184 202.670214 
L 242.724917 201.524015 
L 243.059784 201.162994 
L 243.394651 201.086861 
L 243.617895 201.070395 
L 243.841139 200.334859 
L 244.957361 196.183265 
L 245.850339 193.585343 
L 246.185205 192.741589 
L 247.41305 129.808627 
L 248.864138 67.109654 
L 249.422249 48.680279 
L 249.868738 45.58979 
L 250.315227 43.660139 
L 250.650093 43.140431 
L 251.208204 41.477702 
L 251.431449 40.704842 
L 252.324426 34.336957 
L 252.770915 31.945949 
L 253.217404 31.375789 
L 253.663893 30.733463 
L 254.222004 30.101633 
L 255.226603 28.957434 
L 255.896337 58.541065 
L 257.124181 99.124444 
L 258.352025 132.488261 
L 258.686891 133.904752 
L 259.13338 130.054562 
L 259.691491 127.062206 
L 260.361224 116.703465 
L 260.696091 113.869267 
L 261.477446 109.672807 
L 262.035557 107.524003 
L 262.593668 106.204192 
L 263.375024 104.899224 
L 264.268001 103.777071 
L 264.602868 103.498529 
L 267.058556 130.323973 
L 267.505045 135.169669 
L 267.728289 136.557704 
L 268.174778 143.683122 
L 268.844511 153.230925 
L 269.625867 169.416816 
L 270.518844 182.893718 
L 271.523444 194.500438 
L 272.639666 205.209339 
L 273.86751 214.994526 
L 275.541843 226.15734 
L 276.211576 230.489355 
L 276.434821 230.066915 
L 277.104554 229.489085 
L 277.439421 229.455536 
L 277.997532 229.028991 
L 278.44402 228.75845 
L 278.667265 228.802216 
L 279.44862 229.168969 
L 280.229975 229.470872 
L 280.788086 229.497399 
L 282.127553 229.318415 
L 284.02513 229.200103 
L 284.806486 229.307166 
L 285.141352 229.304358 
L 285.252974 229.00814 
L 286.704063 231.108973 
L 287.373796 231.760118 
L 290.387595 234.294163 
L 291.727062 236.275582 
L 293.959506 239.522863 
L 294.405994 242.216813 
L 294.964105 243.954861 
L 295.410594 244.633527 
L 296.973305 246.735623 
L 297.866283 246.970217 
L 298.312771 247.061745 
L 299.652238 246.427769 
L 300.433593 245.864841 
L 302.889281 243.914421 
L 303.000904 244.266901 
L 303.33577 243.410804 
L 304.117126 242.090634 
L 305.456592 241.433333 
L 305.903081 241.491369 
L 306.572814 242.097893 
L 307.242547 242.772231 
L 307.689036 243.376257 
L 308.358769 244.613189 
L 310.814457 250.045097 
L 311.930679 252.64083 
L 312.042302 252.535584 
L 312.377168 252.384971 
L 312.600413 252.505828 
L 313.381768 253.552659 
L 314.832856 254.839109 
L 316.172323 256.502551 
L 318.628011 259.246936 
L 320.748833 260.909557 
L 321.083699 261.998806 
L 321.976677 263.49171 
L 323.762632 265.433861 
L 325.771832 266.554068 
L 327.446165 267.202372 
L 329.566986 267.899966 
L 329.678609 267.94278 
L 329.901853 268.818507 
L 330.459964 269.197361 
L 330.906453 269.15887 
L 331.129697 269.147411 
L 332.134297 269.382825 
L 332.692408 269.390602 
L 333.697008 269.598903 
L 335.371341 269.810023 
L 338.050273 270.841927 
L 338.720007 270.972309 
L 339.054873 269.473647 
L 339.38974 268.940547 
L 339.724606 268.951825 
L 340.282717 269.021743 
L 340.617584 268.988825 
L 341.064073 269.251762 
L 341.622184 269.963913 
L 343.296517 272.164434 
L 344.859227 274.654134 
L 347.649782 278.722215 
L 347.873027 279.65614 
L 349.435737 283.257401 
L 349.993848 284.1726 
L 350.663582 284.855059 
L 351.444937 285.312011 
L 352.672781 285.608331 
L 353.454137 285.637929 
L 355.016847 285.909032 
L 356.133069 286.318128 
L 356.467936 286.507091 
L 356.802802 286.982087 
L 357.249291 287.167263 
L 358.477135 287.013181 
L 359.146869 287.02299 
L 359.816602 286.979033 
L 362.830401 287.769561 
L 363.835001 288.430757 
L 365.397712 289.561896 
L 365.732578 288.788165 
L 365.955823 288.543755 
L 366.290689 288.525891 
L 368.188266 287.989581 
L 368.858 288.279252 
L 369.416111 288.671422 
L 371.313688 290.48719 
L 371.983421 290.867197 
L 372.988021 291.04669 
L 374.327487 291.064857 
L 374.99722 293.289646 
L 376.225065 294.711316 
L 376.894798 295.574005 
L 378.122642 296.520932 
L 378.680753 296.676262 
L 379.685353 296.776796 
L 380.913197 297.067966 
L 383.034019 298.108151 
L 383.257263 298.240732 
L 383.368885 298.521839 
L 383.480507 298.350923 
L 383.815374 297.127799 
L 384.485107 296.661353 
L 386.271062 296.351333 
L 387.16404 296.502839 
L 387.722151 296.816704 
L 388.838373 297.54016 
L 390.177839 298.031667 
L 392.187039 298.813072 
L 392.410283 299.018911 
L 392.521905 299.003492 
L 392.968394 300.230767 
L 393.972994 301.431168 
L 395.982193 302.858549 
L 396.763549 303.089389 
L 397.544904 303.062738 
L 400.335459 303.853779 
L 401.116815 304.264659 
L 401.340059 304.604978 
L 401.563303 304.09682 
L 402.009792 303.626495 
L 402.456281 303.606241 
L 402.90277 303.903425 
L 410.04659 308.32742 
L 410.158212 308.668411 
L 410.269835 308.629973 
L 410.381457 308.806755 
L 410.716323 309.866331 
L 411.274434 310.617158 
L 411.609301 310.792098 
L 413.283634 311.007536 
L 414.957967 311.896213 
L 416.185811 312.531753 
L 417.413655 313.168735 
L 418.641499 313.686858 
L 419.311233 313.802004 
L 419.534477 313.556232 
L 419.980966 313.64697 
L 420.092588 313.676611 
L 420.762321 311.27388 
L 421.766921 308.928754 
L 422.994765 306.865856 
L 424.669098 304.698417 
L 425.673698 303.772543 
L 427.906142 301.636509 
L 428.129386 303.682069 
L 428.241008 302.891502 
L 428.464253 303.719741 
L 428.575875 303.776353 
L 428.910742 302.62915 
L 429.022364 302.63266 
L 429.35723 304.047951 
L 429.580475 304.679144 
L 429.803719 304.327062 
L 429.915341 304.240625 
L 430.026963 303.86396 
L 430.138586 304.271449 
L 430.585074 303.075103 
L 430.696697 303.127608 
L 430.808319 303.287221 
L 431.36643 302.568478 
L 431.589674 302.546315 
L 431.701296 302.729686 
L 431.924541 302.149724 
L 432.259407 302.271803 
L 432.37103 302.10315 
L 432.37103 302.10315 
" style="fill:none;stroke:#8c564b;stroke-linecap:square;stroke-width:1.5;"/>
   </g>
   <g id="line2d_19">
    <path clip-path="url(#p02d1b3f2c0)" d="M 84.109776 69.452719 
L 93.039551 89.925495 
L 101.969327 86.30918 
L 110.899103 90.627888 
L 119.828879 91.314963 
L 128.758654 91.440837 
L 137.68843 91.83947 
L 146.618206 92.473144 
L 155.547982 93.718957 
L 164.477757 96.065015 
L 173.407533 95.951746 
L 182.337309 98.526605 
L 191.267085 89.116047 
L 200.19686 91.491389 
L 209.126636 87.029546 
L 218.056412 89.334257 
L 226.986188 89.958207 
L 235.915963 84.310445 
L 244.845739 55.402808 
L 253.775515 55.893382 
L 262.705291 53.456644 
L 271.635066 49.7376 
L 280.564842 62.781786 
L 289.494618 87.418625 
L 298.424394 88.562389 
L 307.354169 89.777298 
L 316.283945 91.142717 
L 325.213721 87.535639 
L 334.143496 88.332574 
L 343.073272 84.559068 
L 352.003048 81.882444 
L 360.932824 80.463205 
L 369.862599 85.970093 
L 378.792375 84.083714 
L 387.722151 87.230617 
L 396.651927 86.858314 
L 405.581702 87.91238 
L 414.511478 85.330454 
L 423.441254 93.494195 
L 432.37103 81.353867 
" style="fill:none;stroke:#7f7f7f;stroke-dasharray:5.55,2.4;stroke-dashoffset:0;stroke-width:1.5;"/>
   </g>
   <g id="patch_3">
    <path d="M 75.18 324.1344 
L 75.18 16.2 
" style="fill:none;stroke:#000000;stroke-linecap:square;stroke-linejoin:miter;stroke-width:0.8;"/>
   </g>
   <g id="patch_4">
    <path d="M 450.225 324.1344 
L 450.225 16.2 
" style="fill:none;stroke:#000000;stroke-linecap:square;stroke-linejoin:miter;stroke-width:0.8;"/>
   </g>
   <g id="patch_5">
    <path d="M 75.18 324.1344 
L 450.225 324.1344 
" style="fill:none;stroke:#000000;stroke-linecap:square;stroke-linejoin:miter;stroke-width:0.8;"/>
   </g>
   <g id="patch_6">
    <path d="M 75.18 16.2 
L 450.225 16.2 
" style="fill:none;stroke:#000000;stroke-linecap:square;stroke-linejoin:miter;stroke-width:0.8;"/>
   </g>
   <g id="legend_1">
    <g id="patch_7">
     <path d="M 35.441563 411.01472 
L 493.963438 411.01472 
Q 496.963438 411.01472 496.963438 408.01472 
L 496.963438 367.078783 
Q 496.963438 364.078783 493.963438 364.078783 
L 35.441563 364.078783 
Q 32.441563 364.078783 32.441563 367.078783 
L 32.441563 408.01472 
Q 32.441563 411.01472 35.441563 411.01472 
z
" style="fill:#4c4c4c;opacity:0.5;stroke:#4c4c4c;stroke-linejoin:miter;"/>
    </g>
    <g id="patch_8">
     <path d="M 33.441563 409.01472 
L 491.963438 409.01472 
Q 494.963438 409.01472 494.963438 406.01472 
L 494.963438 365.078783 
Q 494.963438 362.078783 491.963438 362.078783 
L 33.441563 362.078783 
Q 30.441563 362.078783 30.441563 365.078783 
L 30.441563 406.01472 
Q 30.441563 409.01472 33.441563 409.01472 
z
" style="fill:#ffffff;stroke:#cccccc;stroke-linejoin:miter;"/>
    </g>
    <g id="line2d_20">
     <path d="M 36.441563 373.565501 
L 66.441563 373.565501 
" style="fill:none;stroke:#1f77b4;stroke-linecap:square;stroke-width:1.5;"/>
    </g>
    <g id="line2d_21"/>
    <g id="text_18">
     <!-- run-0-4329-406-0.0001 -->
     <g transform="translate(78.441563 378.815501)scale(0.15 -0.15)">
      <defs>
       <path d="M 203 1375 
L 203 1941 
L 1931 1941 
L 1931 1375 
L 203 1375 
z
" id="ArialMT-2d" transform="scale(0.015625)"/>
       <path d="M 2069 0 
L 2069 1097 
L 81 1097 
L 81 1613 
L 2172 4581 
L 2631 4581 
L 2631 1613 
L 3250 1613 
L 3250 1097 
L 2631 1097 
L 2631 0 
L 2069 0 
z
M 2069 1613 
L 2069 3678 
L 634 1613 
L 2069 1613 
z
" id="ArialMT-34" transform="scale(0.015625)"/>
       <path d="M 350 1059 
L 891 1109 
Q 959 728 1153 556 
Q 1347 384 1650 384 
Q 1909 384 2104 503 
Q 2300 622 2425 820 
Q 2550 1019 2634 1356 
Q 2719 1694 2719 2044 
Q 2719 2081 2716 2156 
Q 2547 1888 2255 1720 
Q 1963 1553 1622 1553 
Q 1053 1553 659 1965 
Q 266 2378 266 3053 
Q 266 3750 677 4175 
Q 1088 4600 1706 4600 
Q 2153 4600 2523 4359 
Q 2894 4119 3086 3673 
Q 3278 3228 3278 2384 
Q 3278 1506 3087 986 
Q 2897 466 2520 194 
Q 2144 -78 1638 -78 
Q 1100 -78 759 220 
Q 419 519 350 1059 
z
M 2653 3081 
Q 2653 3566 2395 3850 
Q 2138 4134 1775 4134 
Q 1400 4134 1122 3828 
Q 844 3522 844 3034 
Q 844 2597 1108 2323 
Q 1372 2050 1759 2050 
Q 2150 2050 2401 2323 
Q 2653 2597 2653 3081 
z
" id="ArialMT-39" transform="scale(0.015625)"/>
       <path d="M 3184 3459 
L 2625 3416 
Q 2550 3747 2413 3897 
Q 2184 4138 1850 4138 
Q 1581 4138 1378 3988 
Q 1113 3794 959 3422 
Q 806 3050 800 2363 
Q 1003 2672 1297 2822 
Q 1591 2972 1913 2972 
Q 2475 2972 2870 2558 
Q 3266 2144 3266 1488 
Q 3266 1056 3080 686 
Q 2894 316 2569 119 
Q 2244 -78 1831 -78 
Q 1128 -78 684 439 
Q 241 956 241 2144 
Q 241 3472 731 4075 
Q 1159 4600 1884 4600 
Q 2425 4600 2770 4297 
Q 3116 3994 3184 3459 
z
M 888 1484 
Q 888 1194 1011 928 
Q 1134 663 1356 523 
Q 1578 384 1822 384 
Q 2178 384 2434 671 
Q 2691 959 2691 1453 
Q 2691 1928 2437 2201 
Q 2184 2475 1800 2475 
Q 1419 2475 1153 2201 
Q 888 1928 888 1484 
z
" id="ArialMT-36" transform="scale(0.015625)"/>
      </defs>
      <use xlink:href="#ArialMT-72"/>
      <use x="33.300781" xlink:href="#ArialMT-75"/>
      <use x="88.916016" xlink:href="#ArialMT-6e"/>
      <use x="144.53125" xlink:href="#ArialMT-2d"/>
      <use x="177.832031" xlink:href="#ArialMT-30"/>
      <use x="233.447266" xlink:href="#ArialMT-2d"/>
      <use x="266.748047" xlink:href="#ArialMT-34"/>
      <use x="322.363281" xlink:href="#ArialMT-33"/>
      <use x="377.978516" xlink:href="#ArialMT-32"/>
      <use x="433.59375" xlink:href="#ArialMT-39"/>
      <use x="489.208984" xlink:href="#ArialMT-2d"/>
      <use x="522.509766" xlink:href="#ArialMT-34"/>
      <use x="578.125" xlink:href="#ArialMT-30"/>
      <use x="633.740234" xlink:href="#ArialMT-36"/>
      <use x="689.355469" xlink:href="#ArialMT-2d"/>
      <use x="722.65625" xlink:href="#ArialMT-30"/>
      <use x="778.271484" xlink:href="#ArialMT-2e"/>
      <use x="806.054688" xlink:href="#ArialMT-30"/>
      <use x="861.669922" xlink:href="#ArialMT-30"/>
      <use x="917.285156" xlink:href="#ArialMT-30"/>
      <use x="972.900391" xlink:href="#ArialMT-31"/>
     </g>
    </g>
    <g id="line2d_22">
     <path d="M 36.441563 394.78347 
L 66.441563 394.78347 
" style="fill:none;stroke:#2ca02c;stroke-dasharray:5.55,2.4;stroke-dashoffset:0;stroke-width:1.5;"/>
    </g>
    <g id="line2d_23"/>
    <g id="text_19">
     <!-- run-0-4329-406-0.0001 val -->
     <g transform="translate(78.441563 400.03347)scale(0.15 -0.15)">
      <defs>
       <path d="M 1344 0 
L 81 3319 
L 675 3319 
L 1388 1331 
Q 1503 1009 1600 663 
Q 1675 925 1809 1294 
L 2547 3319 
L 3125 3319 
L 1869 0 
L 1344 0 
z
" id="ArialMT-76" transform="scale(0.015625)"/>
       <path d="M 409 0 
L 409 4581 
L 972 4581 
L 972 0 
L 409 0 
z
" id="ArialMT-6c" transform="scale(0.015625)"/>
      </defs>
      <use xlink:href="#ArialMT-72"/>
      <use x="33.300781" xlink:href="#ArialMT-75"/>
      <use x="88.916016" xlink:href="#ArialMT-6e"/>
      <use x="144.53125" xlink:href="#ArialMT-2d"/>
      <use x="177.832031" xlink:href="#ArialMT-30"/>
      <use x="233.447266" xlink:href="#ArialMT-2d"/>
      <use x="266.748047" xlink:href="#ArialMT-34"/>
      <use x="322.363281" xlink:href="#ArialMT-33"/>
      <use x="377.978516" xlink:href="#ArialMT-32"/>
      <use x="433.59375" xlink:href="#ArialMT-39"/>
      <use x="489.208984" xlink:href="#ArialMT-2d"/>
      <use x="522.509766" xlink:href="#ArialMT-34"/>
      <use x="578.125" xlink:href="#ArialMT-30"/>
      <use x="633.740234" xlink:href="#ArialMT-36"/>
      <use x="689.355469" xlink:href="#ArialMT-2d"/>
      <use x="722.65625" xlink:href="#ArialMT-30"/>
      <use x="778.271484" xlink:href="#ArialMT-2e"/>
      <use x="806.054688" xlink:href="#ArialMT-30"/>
      <use x="861.669922" xlink:href="#ArialMT-30"/>
      <use x="917.285156" xlink:href="#ArialMT-30"/>
      <use x="972.900391" xlink:href="#ArialMT-31"/>
      <use x="1028.515625" xlink:href="#ArialMT-20"/>
      <use x="1056.298828" xlink:href="#ArialMT-76"/>
      <use x="1106.298828" xlink:href="#ArialMT-61"/>
      <use x="1161.914062" xlink:href="#ArialMT-6c"/>
     </g>
    </g>
    <g id="line2d_24">
     <path d="M 286.043906 373.565501 
L 316.043906 373.565501 
" style="fill:none;stroke:#8c564b;stroke-linecap:square;stroke-width:1.5;"/>
    </g>
    <g id="line2d_25"/>
    <g id="text_20">
     <!-- run-1-4329-406-0.01 -->
     <g transform="translate(328.043906 378.815501)scale(0.15 -0.15)">
      <use xlink:href="#ArialMT-72"/>
      <use x="33.300781" xlink:href="#ArialMT-75"/>
      <use x="88.916016" xlink:href="#ArialMT-6e"/>
      <use x="144.53125" xlink:href="#ArialMT-2d"/>
      <use x="177.832031" xlink:href="#ArialMT-31"/>
      <use x="233.447266" xlink:href="#ArialMT-2d"/>
      <use x="266.748047" xlink:href="#ArialMT-34"/>
      <use x="322.363281" xlink:href="#ArialMT-33"/>
      <use x="377.978516" xlink:href="#ArialMT-32"/>
      <use x="433.59375" xlink:href="#ArialMT-39"/>
      <use x="489.208984" xlink:href="#ArialMT-2d"/>
      <use x="522.509766" xlink:href="#ArialMT-34"/>
      <use x="578.125" xlink:href="#ArialMT-30"/>
      <use x="633.740234" xlink:href="#ArialMT-36"/>
      <use x="689.355469" xlink:href="#ArialMT-2d"/>
      <use x="722.65625" xlink:href="#ArialMT-30"/>
      <use x="778.271484" xlink:href="#ArialMT-2e"/>
      <use x="806.054688" xlink:href="#ArialMT-30"/>
      <use x="861.669922" xlink:href="#ArialMT-31"/>
     </g>
    </g>
    <g id="line2d_26">
     <path d="M 286.043906 394.78347 
L 316.043906 394.78347 
" style="fill:none;stroke:#7f7f7f;stroke-dasharray:5.55,2.4;stroke-dashoffset:0;stroke-width:1.5;"/>
    </g>
    <g id="line2d_27"/>
    <g id="text_21">
     <!-- run-1-4329-406-0.01 val -->
     <g transform="translate(328.043906 400.03347)scale(0.15 -0.15)">
      <use xlink:href="#ArialMT-72"/>
      <use x="33.300781" xlink:href="#ArialMT-75"/>
      <use x="88.916016" xlink:href="#ArialMT-6e"/>
      <use x="144.53125" xlink:href="#ArialMT-2d"/>
      <use x="177.832031" xlink:href="#ArialMT-31"/>
      <use x="233.447266" xlink:href="#ArialMT-2d"/>
      <use x="266.748047" xlink:href="#ArialMT-34"/>
      <use x="322.363281" xlink:href="#ArialMT-33"/>
      <use x="377.978516" xlink:href="#ArialMT-32"/>
      <use x="433.59375" xlink:href="#ArialMT-39"/>
      <use x="489.208984" xlink:href="#ArialMT-2d"/>
      <use x="522.509766" xlink:href="#ArialMT-34"/>
      <use x="578.125" xlink:href="#ArialMT-30"/>
      <use x="633.740234" xlink:href="#ArialMT-36"/>
      <use x="689.355469" xlink:href="#ArialMT-2d"/>
      <use x="722.65625" xlink:href="#ArialMT-30"/>
      <use x="778.271484" xlink:href="#ArialMT-2e"/>
      <use x="806.054688" xlink:href="#ArialMT-30"/>
      <use x="861.669922" xlink:href="#ArialMT-31"/>
      <use x="917.285156" xlink:href="#ArialMT-20"/>
      <use x="945.068359" xlink:href="#ArialMT-76"/>
      <use x="995.068359" xlink:href="#ArialMT-61"/>
      <use x="1050.683594" xlink:href="#ArialMT-6c"/>
     </g>
    </g>
   </g>
  </g>
 </g>
 <defs>
  <clipPath id="p02d1b3f2c0">
   <rect height="307.9344" width="375.045" x="75.18" y="16.2"/>
  </clipPath>
 </defs>
</svg>
