<?xml version="1.0" encoding="utf-8" standalone="no"?>
<!DOCTYPE svg PUBLIC "-//W3C//DTD SVG 1.1//EN"
  "http://www.w3.org/Graphics/SVG/1.1/DTD/svg11.dtd">
<svg height="410.4pt" version="1.1" viewBox="0 0 504 410.4" width="504pt" xmlns="http://www.w3.org/2000/svg" xmlns:xlink="http://www.w3.org/1999/xlink">
 <metadata>
  <rdf:RDF xmlns:cc="http://creativecommons.org/ns#" xmlns:dc="http://purl.org/dc/elements/1.1/" xmlns:rdf="http://www.w3.org/1999/02/22-rdf-syntax-ns#">
   <cc:Work>
    <dc:type rdf:resource="http://purl.org/dc/dcmitype/StillImage"/>
    <dc:date>2022-01-27T13:37:30.730302</dc:date>
    <dc:format>image/svg+xml</dc:format>
    <dc:creator>
     <cc:Agent>
      <dc:title>Matplotlib v3.4.3, https://matplotlib.org/</dc:title>
     </cc:Agent>
    </dc:creator>
   </cc:Work>
  </rdf:RDF>
 </metadata>
 <defs>
  <style type="text/css">*{stroke-linecap:butt;stroke-linejoin:round;}</style>
 </defs>
 <g id="figure_1">
  <g id="patch_1">
   <path d="M 0 410.4 
L 504 410.4 
L 504 0 
L 0 0 
z
" style="fill:#ffffff;"/>
  </g>
  <g id="axes_1">
   <g id="patch_2">
    <path d="M 75.18 324.1344 
L 458.64 324.1344 
L 458.64 16.2 
L 75.18 16.2 
z
" style="fill:#ffffff;"/>
   </g>
   <g id="matplotlib.axis_1">
    <g id="xtick_1">
     <g id="line2d_1">
      <defs>
       <path d="M 0 0 
L 0 -3.5 
" id="m0499982cab" style="stroke:#000000;stroke-width:0.8;"/>
      </defs>
      <g>
       <use style="stroke:#000000;stroke-width:0.8;" x="75.18" xlink:href="#m0499982cab" y="324.1344"/>
      </g>
     </g>
     <g id="text_1">
      <!-- 0 -->
      <g transform="translate(71.009297 338.371119)scale(0.15 -0.15)">
       <defs>
        <path d="M 266 2259 
Q 266 3072 433 3567 
Q 600 4063 929 4331 
Q 1259 4600 1759 4600 
Q 2128 4600 2406 4451 
Q 2684 4303 2865 4023 
Q 3047 3744 3150 3342 
Q 3253 2941 3253 2259 
Q 3253 1453 3087 958 
Q 2922 463 2592 192 
Q 2263 -78 1759 -78 
Q 1097 -78 719 397 
Q 266 969 266 2259 
z
M 844 2259 
Q 844 1131 1108 757 
Q 1372 384 1759 384 
Q 2147 384 2411 759 
Q 2675 1134 2675 2259 
Q 2675 3391 2411 3762 
Q 2147 4134 1753 4134 
Q 1366 4134 1134 3806 
Q 844 3388 844 2259 
z
" id="ArialMT-30" transform="scale(0.015625)"/>
       </defs>
       <use xlink:href="#ArialMT-30"/>
      </g>
     </g>
    </g>
    <g id="xtick_2">
     <g id="line2d_2">
      <g>
       <use style="stroke:#000000;stroke-width:0.8;" x="132.243349" xlink:href="#m0499982cab" y="324.1344"/>
      </g>
     </g>
     <g id="text_2">
      <!-- 500 -->
      <g transform="translate(119.73124 338.371119)scale(0.15 -0.15)">
       <defs>
        <path d="M 266 1200 
L 856 1250 
Q 922 819 1161 601 
Q 1400 384 1738 384 
Q 2144 384 2425 690 
Q 2706 997 2706 1503 
Q 2706 1984 2436 2262 
Q 2166 2541 1728 2541 
Q 1456 2541 1237 2417 
Q 1019 2294 894 2097 
L 366 2166 
L 809 4519 
L 3088 4519 
L 3088 3981 
L 1259 3981 
L 1013 2750 
Q 1425 3038 1878 3038 
Q 2478 3038 2890 2622 
Q 3303 2206 3303 1553 
Q 3303 931 2941 478 
Q 2500 -78 1738 -78 
Q 1113 -78 717 272 
Q 322 622 266 1200 
z
" id="ArialMT-35" transform="scale(0.015625)"/>
       </defs>
       <use xlink:href="#ArialMT-35"/>
       <use x="55.615234" xlink:href="#ArialMT-30"/>
       <use x="111.230469" xlink:href="#ArialMT-30"/>
      </g>
     </g>
    </g>
    <g id="xtick_3">
     <g id="line2d_3">
      <g>
       <use style="stroke:#000000;stroke-width:0.8;" x="189.306698" xlink:href="#m0499982cab" y="324.1344"/>
      </g>
     </g>
     <g id="text_3">
      <!-- 1000 -->
      <g transform="translate(172.623886 338.371119)scale(0.15 -0.15)">
       <defs>
        <path d="M 2384 0 
L 1822 0 
L 1822 3584 
Q 1619 3391 1289 3197 
Q 959 3003 697 2906 
L 697 3450 
Q 1169 3672 1522 3987 
Q 1875 4303 2022 4600 
L 2384 4600 
L 2384 0 
z
" id="ArialMT-31" transform="scale(0.015625)"/>
       </defs>
       <use xlink:href="#ArialMT-31"/>
       <use x="55.615234" xlink:href="#ArialMT-30"/>
       <use x="111.230469" xlink:href="#ArialMT-30"/>
       <use x="166.845703" xlink:href="#ArialMT-30"/>
      </g>
     </g>
    </g>
    <g id="xtick_4">
     <g id="line2d_4">
      <g>
       <use style="stroke:#000000;stroke-width:0.8;" x="246.370047" xlink:href="#m0499982cab" y="324.1344"/>
      </g>
     </g>
     <g id="text_4">
      <!-- 1500 -->
      <g transform="translate(229.687235 338.371119)scale(0.15 -0.15)">
       <use xlink:href="#ArialMT-31"/>
       <use x="55.615234" xlink:href="#ArialMT-35"/>
       <use x="111.230469" xlink:href="#ArialMT-30"/>
       <use x="166.845703" xlink:href="#ArialMT-30"/>
      </g>
     </g>
    </g>
    <g id="xtick_5">
     <g id="line2d_5">
      <g>
       <use style="stroke:#000000;stroke-width:0.8;" x="303.433397" xlink:href="#m0499982cab" y="324.1344"/>
      </g>
     </g>
     <g id="text_5">
      <!-- 2000 -->
      <g transform="translate(286.750584 338.371119)scale(0.15 -0.15)">
       <defs>
        <path d="M 3222 541 
L 3222 0 
L 194 0 
Q 188 203 259 391 
Q 375 700 629 1000 
Q 884 1300 1366 1694 
Q 2113 2306 2375 2664 
Q 2638 3022 2638 3341 
Q 2638 3675 2398 3904 
Q 2159 4134 1775 4134 
Q 1369 4134 1125 3890 
Q 881 3647 878 3216 
L 300 3275 
Q 359 3922 746 4261 
Q 1134 4600 1788 4600 
Q 2447 4600 2831 4234 
Q 3216 3869 3216 3328 
Q 3216 3053 3103 2787 
Q 2991 2522 2730 2228 
Q 2469 1934 1863 1422 
Q 1356 997 1212 845 
Q 1069 694 975 541 
L 3222 541 
z
" id="ArialMT-32" transform="scale(0.015625)"/>
       </defs>
       <use xlink:href="#ArialMT-32"/>
       <use x="55.615234" xlink:href="#ArialMT-30"/>
       <use x="111.230469" xlink:href="#ArialMT-30"/>
       <use x="166.845703" xlink:href="#ArialMT-30"/>
      </g>
     </g>
    </g>
    <g id="xtick_6">
     <g id="line2d_6">
      <g>
       <use style="stroke:#000000;stroke-width:0.8;" x="360.496746" xlink:href="#m0499982cab" y="324.1344"/>
      </g>
     </g>
     <g id="text_6">
      <!-- 2500 -->
      <g transform="translate(343.813933 338.371119)scale(0.15 -0.15)">
       <use xlink:href="#ArialMT-32"/>
       <use x="55.615234" xlink:href="#ArialMT-35"/>
       <use x="111.230469" xlink:href="#ArialMT-30"/>
       <use x="166.845703" xlink:href="#ArialMT-30"/>
      </g>
     </g>
    </g>
    <g id="xtick_7">
     <g id="line2d_7">
      <g>
       <use style="stroke:#000000;stroke-width:0.8;" x="417.560095" xlink:href="#m0499982cab" y="324.1344"/>
      </g>
     </g>
     <g id="text_7">
      <!-- 3000 -->
      <g transform="translate(400.877282 338.371119)scale(0.15 -0.15)">
       <defs>
        <path d="M 269 1209 
L 831 1284 
Q 928 806 1161 595 
Q 1394 384 1728 384 
Q 2125 384 2398 659 
Q 2672 934 2672 1341 
Q 2672 1728 2419 1979 
Q 2166 2231 1775 2231 
Q 1616 2231 1378 2169 
L 1441 2663 
Q 1497 2656 1531 2656 
Q 1891 2656 2178 2843 
Q 2466 3031 2466 3422 
Q 2466 3731 2256 3934 
Q 2047 4138 1716 4138 
Q 1388 4138 1169 3931 
Q 950 3725 888 3313 
L 325 3413 
Q 428 3978 793 4289 
Q 1159 4600 1703 4600 
Q 2078 4600 2393 4439 
Q 2709 4278 2876 4000 
Q 3044 3722 3044 3409 
Q 3044 3113 2884 2869 
Q 2725 2625 2413 2481 
Q 2819 2388 3044 2092 
Q 3269 1797 3269 1353 
Q 3269 753 2831 336 
Q 2394 -81 1725 -81 
Q 1122 -81 723 278 
Q 325 638 269 1209 
z
" id="ArialMT-33" transform="scale(0.015625)"/>
       </defs>
       <use xlink:href="#ArialMT-33"/>
       <use x="55.615234" xlink:href="#ArialMT-30"/>
       <use x="111.230469" xlink:href="#ArialMT-30"/>
       <use x="166.845703" xlink:href="#ArialMT-30"/>
      </g>
     </g>
    </g>
    <g id="text_8">
     <!-- Batch -->
     <g transform="translate(247.732266 356.089088)scale(0.15 -0.15)">
      <defs>
       <path d="M 469 0 
L 469 4581 
L 2188 4581 
Q 2713 4581 3030 4442 
Q 3347 4303 3526 4014 
Q 3706 3725 3706 3409 
Q 3706 3116 3547 2856 
Q 3388 2597 3066 2438 
Q 3481 2316 3704 2022 
Q 3928 1728 3928 1328 
Q 3928 1006 3792 729 
Q 3656 453 3456 303 
Q 3256 153 2954 76 
Q 2653 0 2216 0 
L 469 0 
z
M 1075 2656 
L 2066 2656 
Q 2469 2656 2644 2709 
Q 2875 2778 2992 2937 
Q 3109 3097 3109 3338 
Q 3109 3566 3000 3739 
Q 2891 3913 2687 3977 
Q 2484 4041 1991 4041 
L 1075 4041 
L 1075 2656 
z
M 1075 541 
L 2216 541 
Q 2509 541 2628 563 
Q 2838 600 2978 687 
Q 3119 775 3209 942 
Q 3300 1109 3300 1328 
Q 3300 1584 3169 1773 
Q 3038 1963 2805 2039 
Q 2572 2116 2134 2116 
L 1075 2116 
L 1075 541 
z
" id="ArialMT-42" transform="scale(0.015625)"/>
       <path d="M 2588 409 
Q 2275 144 1986 34 
Q 1697 -75 1366 -75 
Q 819 -75 525 192 
Q 231 459 231 875 
Q 231 1119 342 1320 
Q 453 1522 633 1644 
Q 813 1766 1038 1828 
Q 1203 1872 1538 1913 
Q 2219 1994 2541 2106 
Q 2544 2222 2544 2253 
Q 2544 2597 2384 2738 
Q 2169 2928 1744 2928 
Q 1347 2928 1158 2789 
Q 969 2650 878 2297 
L 328 2372 
Q 403 2725 575 2942 
Q 747 3159 1072 3276 
Q 1397 3394 1825 3394 
Q 2250 3394 2515 3294 
Q 2781 3194 2906 3042 
Q 3031 2891 3081 2659 
Q 3109 2516 3109 2141 
L 3109 1391 
Q 3109 606 3145 398 
Q 3181 191 3288 0 
L 2700 0 
Q 2613 175 2588 409 
z
M 2541 1666 
Q 2234 1541 1622 1453 
Q 1275 1403 1131 1340 
Q 988 1278 909 1158 
Q 831 1038 831 891 
Q 831 666 1001 516 
Q 1172 366 1500 366 
Q 1825 366 2078 508 
Q 2331 650 2450 897 
Q 2541 1088 2541 1459 
L 2541 1666 
z
" id="ArialMT-61" transform="scale(0.015625)"/>
       <path d="M 1650 503 
L 1731 6 
Q 1494 -44 1306 -44 
Q 1000 -44 831 53 
Q 663 150 594 308 
Q 525 466 525 972 
L 525 2881 
L 113 2881 
L 113 3319 
L 525 3319 
L 525 4141 
L 1084 4478 
L 1084 3319 
L 1650 3319 
L 1650 2881 
L 1084 2881 
L 1084 941 
Q 1084 700 1114 631 
Q 1144 563 1211 522 
Q 1278 481 1403 481 
Q 1497 481 1650 503 
z
" id="ArialMT-74" transform="scale(0.015625)"/>
       <path d="M 2588 1216 
L 3141 1144 
Q 3050 572 2676 248 
Q 2303 -75 1759 -75 
Q 1078 -75 664 370 
Q 250 816 250 1647 
Q 250 2184 428 2587 
Q 606 2991 970 3192 
Q 1334 3394 1763 3394 
Q 2303 3394 2647 3120 
Q 2991 2847 3088 2344 
L 2541 2259 
Q 2463 2594 2264 2762 
Q 2066 2931 1784 2931 
Q 1359 2931 1093 2626 
Q 828 2322 828 1663 
Q 828 994 1084 691 
Q 1341 388 1753 388 
Q 2084 388 2306 591 
Q 2528 794 2588 1216 
z
" id="ArialMT-63" transform="scale(0.015625)"/>
       <path d="M 422 0 
L 422 4581 
L 984 4581 
L 984 2938 
Q 1378 3394 1978 3394 
Q 2347 3394 2619 3248 
Q 2891 3103 3008 2847 
Q 3125 2591 3125 2103 
L 3125 0 
L 2563 0 
L 2563 2103 
Q 2563 2525 2380 2717 
Q 2197 2909 1863 2909 
Q 1613 2909 1392 2779 
Q 1172 2650 1078 2428 
Q 984 2206 984 1816 
L 984 0 
L 422 0 
z
" id="ArialMT-68" transform="scale(0.015625)"/>
      </defs>
      <use xlink:href="#ArialMT-42"/>
      <use x="66.699219" xlink:href="#ArialMT-61"/>
      <use x="122.314453" xlink:href="#ArialMT-74"/>
      <use x="150.097656" xlink:href="#ArialMT-63"/>
      <use x="200.097656" xlink:href="#ArialMT-68"/>
     </g>
    </g>
   </g>
   <g id="matplotlib.axis_2">
    <g id="ytick_1">
     <g id="line2d_8">
      <defs>
       <path d="M 0 0 
L 3.5 0 
" id="m0bfc58d33e" style="stroke:#000000;stroke-width:0.8;"/>
      </defs>
      <g>
       <use style="stroke:#000000;stroke-width:0.8;" x="75.18" xlink:href="#m0bfc58d33e" y="293.34096"/>
      </g>
     </g>
     <g id="text_9">
      <!-- 0.100 -->
      <g transform="translate(34.147188 298.709319)scale(0.15 -0.15)">
       <defs>
        <path d="M 581 0 
L 581 641 
L 1222 641 
L 1222 0 
L 581 0 
z
" id="ArialMT-2e" transform="scale(0.015625)"/>
       </defs>
       <use xlink:href="#ArialMT-30"/>
       <use x="55.615234" xlink:href="#ArialMT-2e"/>
       <use x="83.398438" xlink:href="#ArialMT-31"/>
       <use x="139.013672" xlink:href="#ArialMT-30"/>
       <use x="194.628906" xlink:href="#ArialMT-30"/>
      </g>
     </g>
    </g>
    <g id="ytick_2">
     <g id="line2d_9">
      <g>
       <use style="stroke:#000000;stroke-width:0.8;" x="75.18" xlink:href="#m0bfc58d33e" y="254.84916"/>
      </g>
     </g>
     <g id="text_10">
      <!-- 0.125 -->
      <g transform="translate(34.147188 260.217519)scale(0.15 -0.15)">
       <use xlink:href="#ArialMT-30"/>
       <use x="55.615234" xlink:href="#ArialMT-2e"/>
       <use x="83.398438" xlink:href="#ArialMT-31"/>
       <use x="139.013672" xlink:href="#ArialMT-32"/>
       <use x="194.628906" xlink:href="#ArialMT-35"/>
      </g>
     </g>
    </g>
    <g id="ytick_3">
     <g id="line2d_10">
      <g>
       <use style="stroke:#000000;stroke-width:0.8;" x="75.18" xlink:href="#m0bfc58d33e" y="216.35736"/>
      </g>
     </g>
     <g id="text_11">
      <!-- 0.150 -->
      <g transform="translate(34.147188 221.725719)scale(0.15 -0.15)">
       <use xlink:href="#ArialMT-30"/>
       <use x="55.615234" xlink:href="#ArialMT-2e"/>
       <use x="83.398438" xlink:href="#ArialMT-31"/>
       <use x="139.013672" xlink:href="#ArialMT-35"/>
       <use x="194.628906" xlink:href="#ArialMT-30"/>
      </g>
     </g>
    </g>
    <g id="ytick_4">
     <g id="line2d_11">
      <g>
       <use style="stroke:#000000;stroke-width:0.8;" x="75.18" xlink:href="#m0bfc58d33e" y="177.86556"/>
      </g>
     </g>
     <g id="text_12">
      <!-- 0.175 -->
      <g transform="translate(34.147188 183.233919)scale(0.15 -0.15)">
       <defs>
        <path d="M 303 3981 
L 303 4522 
L 3269 4522 
L 3269 4084 
Q 2831 3619 2401 2847 
Q 1972 2075 1738 1259 
Q 1569 684 1522 0 
L 944 0 
Q 953 541 1156 1306 
Q 1359 2072 1739 2783 
Q 2119 3494 2547 3981 
L 303 3981 
z
" id="ArialMT-37" transform="scale(0.015625)"/>
       </defs>
       <use xlink:href="#ArialMT-30"/>
       <use x="55.615234" xlink:href="#ArialMT-2e"/>
       <use x="83.398438" xlink:href="#ArialMT-31"/>
       <use x="139.013672" xlink:href="#ArialMT-37"/>
       <use x="194.628906" xlink:href="#ArialMT-35"/>
      </g>
     </g>
    </g>
    <g id="ytick_5">
     <g id="line2d_12">
      <g>
       <use style="stroke:#000000;stroke-width:0.8;" x="75.18" xlink:href="#m0bfc58d33e" y="139.37376"/>
      </g>
     </g>
     <g id="text_13">
      <!-- 0.200 -->
      <g transform="translate(34.147188 144.742119)scale(0.15 -0.15)">
       <use xlink:href="#ArialMT-30"/>
       <use x="55.615234" xlink:href="#ArialMT-2e"/>
       <use x="83.398438" xlink:href="#ArialMT-32"/>
       <use x="139.013672" xlink:href="#ArialMT-30"/>
       <use x="194.628906" xlink:href="#ArialMT-30"/>
      </g>
     </g>
    </g>
    <g id="ytick_6">
     <g id="line2d_13">
      <g>
       <use style="stroke:#000000;stroke-width:0.8;" x="75.18" xlink:href="#m0bfc58d33e" y="100.88196"/>
      </g>
     </g>
     <g id="text_14">
      <!-- 0.225 -->
      <g transform="translate(34.147188 106.250319)scale(0.15 -0.15)">
       <use xlink:href="#ArialMT-30"/>
       <use x="55.615234" xlink:href="#ArialMT-2e"/>
       <use x="83.398438" xlink:href="#ArialMT-32"/>
       <use x="139.013672" xlink:href="#ArialMT-32"/>
       <use x="194.628906" xlink:href="#ArialMT-35"/>
      </g>
     </g>
    </g>
    <g id="ytick_7">
     <g id="line2d_14">
      <g>
       <use style="stroke:#000000;stroke-width:0.8;" x="75.18" xlink:href="#m0bfc58d33e" y="62.39016"/>
      </g>
     </g>
     <g id="text_15">
      <!-- 0.250 -->
      <g transform="translate(34.147188 67.758519)scale(0.15 -0.15)">
       <use xlink:href="#ArialMT-30"/>
       <use x="55.615234" xlink:href="#ArialMT-2e"/>
       <use x="83.398438" xlink:href="#ArialMT-32"/>
       <use x="139.013672" xlink:href="#ArialMT-35"/>
       <use x="194.628906" xlink:href="#ArialMT-30"/>
      </g>
     </g>
    </g>
    <g id="ytick_8">
     <g id="line2d_15">
      <g>
       <use style="stroke:#000000;stroke-width:0.8;" x="75.18" xlink:href="#m0bfc58d33e" y="23.89836"/>
      </g>
     </g>
     <g id="text_16">
      <!-- 0.275 -->
      <g transform="translate(34.147188 29.266719)scale(0.15 -0.15)">
       <use xlink:href="#ArialMT-30"/>
       <use x="55.615234" xlink:href="#ArialMT-2e"/>
       <use x="83.398438" xlink:href="#ArialMT-32"/>
       <use x="139.013672" xlink:href="#ArialMT-37"/>
       <use x="194.628906" xlink:href="#ArialMT-35"/>
      </g>
     </g>
    </g>
    <g id="text_17">
     <!-- Mean Squared Error -->
     <g transform="translate(27.165938 238.112513)rotate(-90)scale(0.15 -0.15)">
      <defs>
       <path d="M 475 0 
L 475 4581 
L 1388 4581 
L 2472 1338 
Q 2622 884 2691 659 
Q 2769 909 2934 1394 
L 4031 4581 
L 4847 4581 
L 4847 0 
L 4263 0 
L 4263 3834 
L 2931 0 
L 2384 0 
L 1059 3900 
L 1059 0 
L 475 0 
z
" id="ArialMT-4d" transform="scale(0.015625)"/>
       <path d="M 2694 1069 
L 3275 997 
Q 3138 488 2766 206 
Q 2394 -75 1816 -75 
Q 1088 -75 661 373 
Q 234 822 234 1631 
Q 234 2469 665 2931 
Q 1097 3394 1784 3394 
Q 2450 3394 2872 2941 
Q 3294 2488 3294 1666 
Q 3294 1616 3291 1516 
L 816 1516 
Q 847 969 1125 678 
Q 1403 388 1819 388 
Q 2128 388 2347 550 
Q 2566 713 2694 1069 
z
M 847 1978 
L 2700 1978 
Q 2663 2397 2488 2606 
Q 2219 2931 1791 2931 
Q 1403 2931 1139 2672 
Q 875 2413 847 1978 
z
" id="ArialMT-65" transform="scale(0.015625)"/>
       <path d="M 422 0 
L 422 3319 
L 928 3319 
L 928 2847 
Q 1294 3394 1984 3394 
Q 2284 3394 2536 3286 
Q 2788 3178 2913 3003 
Q 3038 2828 3088 2588 
Q 3119 2431 3119 2041 
L 3119 0 
L 2556 0 
L 2556 2019 
Q 2556 2363 2490 2533 
Q 2425 2703 2258 2804 
Q 2091 2906 1866 2906 
Q 1506 2906 1245 2678 
Q 984 2450 984 1813 
L 984 0 
L 422 0 
z
" id="ArialMT-6e" transform="scale(0.015625)"/>
       <path id="ArialMT-20" transform="scale(0.015625)"/>
       <path d="M 288 1472 
L 859 1522 
Q 900 1178 1048 958 
Q 1197 738 1509 602 
Q 1822 466 2213 466 
Q 2559 466 2825 569 
Q 3091 672 3220 851 
Q 3350 1031 3350 1244 
Q 3350 1459 3225 1620 
Q 3100 1781 2813 1891 
Q 2628 1963 1997 2114 
Q 1366 2266 1113 2400 
Q 784 2572 623 2826 
Q 463 3081 463 3397 
Q 463 3744 659 4045 
Q 856 4347 1234 4503 
Q 1613 4659 2075 4659 
Q 2584 4659 2973 4495 
Q 3363 4331 3572 4012 
Q 3781 3694 3797 3291 
L 3216 3247 
Q 3169 3681 2898 3903 
Q 2628 4125 2100 4125 
Q 1550 4125 1298 3923 
Q 1047 3722 1047 3438 
Q 1047 3191 1225 3031 
Q 1400 2872 2139 2705 
Q 2878 2538 3153 2413 
Q 3553 2228 3743 1945 
Q 3934 1663 3934 1294 
Q 3934 928 3725 604 
Q 3516 281 3123 101 
Q 2731 -78 2241 -78 
Q 1619 -78 1198 103 
Q 778 284 539 648 
Q 300 1013 288 1472 
z
" id="ArialMT-53" transform="scale(0.015625)"/>
       <path d="M 2538 -1272 
L 2538 353 
Q 2406 169 2170 47 
Q 1934 -75 1669 -75 
Q 1078 -75 651 397 
Q 225 869 225 1691 
Q 225 2191 398 2587 
Q 572 2984 901 3189 
Q 1231 3394 1625 3394 
Q 2241 3394 2594 2875 
L 2594 3319 
L 3100 3319 
L 3100 -1272 
L 2538 -1272 
z
M 803 1669 
Q 803 1028 1072 708 
Q 1341 388 1716 388 
Q 2075 388 2334 692 
Q 2594 997 2594 1619 
Q 2594 2281 2320 2615 
Q 2047 2950 1678 2950 
Q 1313 2950 1058 2639 
Q 803 2328 803 1669 
z
" id="ArialMT-71" transform="scale(0.015625)"/>
       <path d="M 2597 0 
L 2597 488 
Q 2209 -75 1544 -75 
Q 1250 -75 995 37 
Q 741 150 617 320 
Q 494 491 444 738 
Q 409 903 409 1263 
L 409 3319 
L 972 3319 
L 972 1478 
Q 972 1038 1006 884 
Q 1059 663 1231 536 
Q 1403 409 1656 409 
Q 1909 409 2131 539 
Q 2353 669 2445 892 
Q 2538 1116 2538 1541 
L 2538 3319 
L 3100 3319 
L 3100 0 
L 2597 0 
z
" id="ArialMT-75" transform="scale(0.015625)"/>
       <path d="M 416 0 
L 416 3319 
L 922 3319 
L 922 2816 
Q 1116 3169 1280 3281 
Q 1444 3394 1641 3394 
Q 1925 3394 2219 3213 
L 2025 2691 
Q 1819 2813 1613 2813 
Q 1428 2813 1281 2702 
Q 1134 2591 1072 2394 
Q 978 2094 978 1738 
L 978 0 
L 416 0 
z
" id="ArialMT-72" transform="scale(0.015625)"/>
       <path d="M 2575 0 
L 2575 419 
Q 2259 -75 1647 -75 
Q 1250 -75 917 144 
Q 584 363 401 755 
Q 219 1147 219 1656 
Q 219 2153 384 2558 
Q 550 2963 881 3178 
Q 1213 3394 1622 3394 
Q 1922 3394 2156 3267 
Q 2391 3141 2538 2938 
L 2538 4581 
L 3097 4581 
L 3097 0 
L 2575 0 
z
M 797 1656 
Q 797 1019 1065 703 
Q 1334 388 1700 388 
Q 2069 388 2326 689 
Q 2584 991 2584 1609 
Q 2584 2291 2321 2609 
Q 2059 2928 1675 2928 
Q 1300 2928 1048 2622 
Q 797 2316 797 1656 
z
" id="ArialMT-64" transform="scale(0.015625)"/>
       <path d="M 506 0 
L 506 4581 
L 3819 4581 
L 3819 4041 
L 1113 4041 
L 1113 2638 
L 3647 2638 
L 3647 2100 
L 1113 2100 
L 1113 541 
L 3925 541 
L 3925 0 
L 506 0 
z
" id="ArialMT-45" transform="scale(0.015625)"/>
       <path d="M 213 1659 
Q 213 2581 725 3025 
Q 1153 3394 1769 3394 
Q 2453 3394 2887 2945 
Q 3322 2497 3322 1706 
Q 3322 1066 3130 698 
Q 2938 331 2570 128 
Q 2203 -75 1769 -75 
Q 1072 -75 642 372 
Q 213 819 213 1659 
z
M 791 1659 
Q 791 1022 1069 705 
Q 1347 388 1769 388 
Q 2188 388 2466 706 
Q 2744 1025 2744 1678 
Q 2744 2294 2464 2611 
Q 2184 2928 1769 2928 
Q 1347 2928 1069 2612 
Q 791 2297 791 1659 
z
" id="ArialMT-6f" transform="scale(0.015625)"/>
      </defs>
      <use xlink:href="#ArialMT-4d"/>
      <use x="83.300781" xlink:href="#ArialMT-65"/>
      <use x="138.916016" xlink:href="#ArialMT-61"/>
      <use x="194.53125" xlink:href="#ArialMT-6e"/>
      <use x="250.146484" xlink:href="#ArialMT-20"/>
      <use x="277.929688" xlink:href="#ArialMT-53"/>
      <use x="344.628906" xlink:href="#ArialMT-71"/>
      <use x="400.244141" xlink:href="#ArialMT-75"/>
      <use x="455.859375" xlink:href="#ArialMT-61"/>
      <use x="511.474609" xlink:href="#ArialMT-72"/>
      <use x="544.775391" xlink:href="#ArialMT-65"/>
      <use x="600.390625" xlink:href="#ArialMT-64"/>
      <use x="656.005859" xlink:href="#ArialMT-20"/>
      <use x="683.789062" xlink:href="#ArialMT-45"/>
      <use x="750.488281" xlink:href="#ArialMT-72"/>
      <use x="783.789062" xlink:href="#ArialMT-72"/>
      <use x="817.089844" xlink:href="#ArialMT-6f"/>
      <use x="872.705078" xlink:href="#ArialMT-72"/>
     </g>
    </g>
   </g>
   <g id="line2d_16">
    <path clip-path="url(#p248641f777)" d="M 86.80208 -1 
L 88.190444 36.817734 
L 88.98933 55.700344 
L 89.331711 56.714648 
L 89.445837 56.741311 
L 90.016471 57.640049 
L 90.929484 58.896449 
L 91.271864 59.088611 
L 91.842498 59.373051 
L 93.326145 60.078709 
L 94.010905 60.222198 
L 95.152172 60.387626 
L 95.836932 60.395484 
L 96.521693 60.388298 
L 97.66296 60.104683 
L 98.00534 60.03645 
L 98.233593 60.337729 
L 98.575973 60.084748 
L 98.804227 60.36537 
L 99.03248 60.4901 
L 99.37486 60.882693 
L 100.287874 61.562822 
L 101.200887 62.471516 
L 101.771521 62.809992 
L 102.456281 62.948314 
L 102.798661 62.957735 
L 103.597548 62.723553 
L 105.195322 62.714106 
L 106.678969 62.160649 
L 107.135476 61.955921 
L 107.477856 60.126815 
L 108.162616 58.919653 
L 108.961503 58.046343 
L 109.646263 57.5209 
L 110.331023 57.073595 
L 110.78753 56.665352 
L 112.385304 55.710766 
L 112.84181 55.589844 
L 113.868951 55.224333 
L 114.439584 55.122719 
L 115.580851 55.21776 
L 116.265611 55.505522 
L 116.379738 55.798911 
L 116.607991 57.751244 
L 116.836245 58.604593 
L 117.064498 58.833335 
L 117.749258 60.232118 
L 118.890525 63.22503 
L 120.488299 66.502462 
L 121.401313 67.391389 
L 122.086073 67.715413 
L 124.026227 68.509518 
L 125.395747 69.113033 
L 125.624001 70.117702 
L 125.852254 69.482758 
L 126.080507 69.338535 
L 126.422888 69.443426 
L 126.765268 69.497082 
L 127.221774 69.221992 
L 127.450028 69.084033 
L 128.020661 69.140175 
L 128.705422 69.379253 
L 129.276055 69.773214 
L 129.846688 70.73874 
L 130.987955 73.517682 
L 134.525883 82.399124 
L 134.64001 82.423769 
L 134.868263 81.451219 
L 135.096517 81.842441 
L 135.32477 82.081214 
L 136.35191 83.935529 
L 137.379051 85.465501 
L 138.520318 86.702134 
L 138.976824 86.915289 
L 139.433331 86.953203 
L 140.232218 86.59184 
L 141.487612 86.146602 
L 142.172372 86.090977 
L 142.743005 86.075816 
L 143.656019 86.012115 
L 143.998399 87.07247 
L 144.569033 89.498334 
L 145.025539 90.751018 
L 146.166806 92.377225 
L 146.851567 92.619087 
L 147.308073 92.528291 
L 148.677594 92.502463 
L 149.248227 92.754642 
L 150.389494 93.556167 
L 151.987268 94.10317 
L 152.786155 94.118808 
L 152.900282 94.492856 
L 153.014408 94.249544 
L 153.128535 94.405262 
L 154.041549 91.478642 
L 155.182816 89.964807 
L 155.753449 89.194491 
L 156.552336 88.808056 
L 157.351223 88.725489 
L 158.49249 88.7857 
L 159.17725 88.522695 
L 160.20439 88.579671 
L 161.117404 88.858661 
L 161.916291 89.185157 
L 162.030417 89.681767 
L 162.144544 89.566229 
L 162.486924 90.20366 
L 162.715178 90.71027 
L 163.399938 91.008104 
L 163.856445 91.142972 
L 164.541205 91.051847 
L 165.340092 91.236025 
L 165.682472 91.188221 
L 166.138979 91.418854 
L 166.937865 91.686747 
L 167.508499 91.694208 
L 168.649766 91.761981 
L 169.56278 91.46476 
L 170.818173 91.073579 
L 171.27468 90.965115 
L 172.30182 92.475236 
L 172.758327 92.457859 
L 173.100707 92.688276 
L 173.785467 93.67413 
L 174.356101 94.610685 
L 175.154988 96.398737 
L 176.752761 98.854073 
L 178.807042 101.878305 
L 180.176562 104.201928 
L 180.633069 106.931337 
L 180.975449 107.872259 
L 181.546083 109.319678 
L 182.230843 111.41078 
L 183.828617 115.873714 
L 185.768771 121.435239 
L 187.823051 127.790798 
L 189.078445 130.884286 
L 189.649078 132.021419 
L 189.991459 132.451133 
L 190.447965 133.637466 
L 191.246852 135.759806 
L 192.159866 137.620608 
L 192.730499 138.086323 
L 195.355413 138.519103 
L 196.1543 138.907298 
L 197.067314 139.247145 
L 197.866201 139.517775 
L 198.436834 139.786617 
L 198.665088 140.588983 
L 198.893341 140.494404 
L 199.121594 140.345909 
L 199.692228 140.631967 
L 200.262861 141.526559 
L 201.175875 142.977391 
L 201.746508 144.057909 
L 202.659522 145.880113 
L 203.344282 146.705732 
L 204.485549 147.704298 
L 205.969196 148.588006 
L 207.56697 150.081706 
L 207.681097 150.781216 
L 207.90935 150.65362 
L 208.137604 150.902904 
L 208.365857 150.94392 
L 208.93649 150.760397 
L 209.963631 150.539275 
L 210.876644 150.068307 
L 212.246165 149.915242 
L 212.702671 150.262565 
L 213.501558 151.195521 
L 216.240599 154.749753 
L 216.697106 155.303093 
L 216.925359 155.957491 
L 217.153613 156.299542 
L 218.409006 155.853718 
L 219.207893 155.944873 
L 219.6644 156.128063 
L 220.235034 156.190863 
L 220.69154 156.248616 
L 222.517568 157.112191 
L 223.316454 157.459102 
L 224.001215 157.650877 
L 225.827242 158.340645 
L 226.055495 158.974016 
L 226.397875 159.052864 
L 226.626129 159.250742 
L 227.310889 160.583835 
L 228.452156 162.562009 
L 233.701984 172.162743 
L 234.957378 174.270495 
L 235.185631 175.247092 
L 235.528011 175.856162 
L 236.098645 177.105576 
L 236.897532 178.004613 
L 238.152925 178.065568 
L 238.723559 178.208445 
L 239.750699 178.504454 
L 241.690853 179.270688 
L 242.375613 179.66671 
L 244.087514 181.163566 
L 244.20164 181.491426 
L 244.429894 180.933842 
L 245.000527 179.876366 
L 245.22878 179.658846 
L 245.457034 179.615674 
L 245.685287 179.419621 
L 246.141794 179.144376 
L 246.940681 179.278914 
L 247.625441 179.482508 
L 248.994962 180.14531 
L 250.478609 180.767317 
L 253.217649 182.124315 
L 253.674156 184.188067 
L 256.29907 193.956722 
L 257.782717 198.588783 
L 259.380491 203.049466 
L 262.233659 209.903644 
L 262.347785 210.149327 
L 262.576039 211.271232 
L 262.690165 211.386248 
L 262.804292 211.252649 
L 263.032545 211.434398 
L 263.489052 211.925623 
L 263.717306 212.159133 
L 264.173812 212.539586 
L 264.630319 212.746454 
L 265.200953 212.752706 
L 266.228093 212.493072 
L 267.597613 212.101054 
L 268.05412 212.216908 
L 268.853007 212.667082 
L 271.477921 214.530182 
L 271.706174 213.49048 
L 271.934428 212.720236 
L 272.162681 212.370817 
L 272.733315 211.380023 
L 273.532202 210.935632 
L 274.216962 211.138283 
L 275.129975 212.223746 
L 276.385369 214.17563 
L 277.75489 216.380463 
L 279.010283 217.60713 
L 280.608057 218.764464 
L 281.17869 221.768117 
L 282.205831 224.742833 
L 282.890591 226.040005 
L 284.031858 227.957682 
L 286.428519 232.104095 
L 288.596926 235.029354 
L 289.85232 237.034133 
L 290.080573 236.398151 
L 290.422953 236.562396 
L 290.87946 236.454002 
L 291.335967 236.593318 
L 292.24898 237.425529 
L 292.59136 237.662733 
L 293.618501 238.015447 
L 294.417387 237.960158 
L 296.357541 236.882178 
L 297.841188 236.340388 
L 298.868329 236.104244 
L 299.096582 236.388269 
L 299.324835 236.340576 
L 300.123722 237.001609 
L 301.036736 235.813089 
L 302.748636 234.087166 
L 303.433397 233.644427 
L 306.514817 233.145584 
L 307.998465 232.857733 
L 308.226718 234.329866 
L 308.454971 235.209828 
L 308.911478 236.332947 
L 309.596238 237.839748 
L 310.509252 240.028673 
L 311.079885 241.362303 
L 311.992899 243.629806 
L 312.449406 244.658707 
L 313.590673 229.289874 
L 315.4167 208.822605 
L 317.1286 191.953206 
L 317.242727 192.181341 
L 317.813361 189.343402 
L 318.383994 181.713505 
L 319.182881 174.349675 
L 320.095895 167.821206 
L 321.351288 160.03542 
L 321.693668 158.255937 
L 323.177315 174.713138 
L 326.258736 206.444531 
L 326.48699 207.921957 
L 326.601116 207.963246 
L 326.943496 209.286693 
L 327.057623 209.593996 
L 327.628257 216.929483 
L 328.427144 224.559163 
L 329.568411 233.628921 
L 330.937931 242.931043 
L 332.079198 249.294473 
L 333.562845 256.143667 
L 335.731252 264.690259 
L 337.671406 271.442304 
L 338.698546 274.372968 
L 340.410447 278.776789 
L 341.095207 280.207609 
L 342.921234 283.559553 
L 343.834248 284.738341 
L 345.089642 286.003172 
L 345.432022 285.705598 
L 345.888528 285.198267 
L 346.230908 284.805222 
L 347.258049 283.013306 
L 348.285189 281.034371 
L 350.225343 278.137785 
L 351.594863 276.901292 
L 352.279624 276.467515 
L 353.306764 276.209576 
L 353.649144 276.196572 
L 353.763271 276.578027 
L 353.877397 276.48017 
L 354.219777 276.762039 
L 354.448031 276.800192 
L 355.018664 277.091812 
L 355.475171 277.3277 
L 356.388185 278.368014 
L 357.415325 279.890519 
L 360.496746 282.96168 
L 361.980393 284.214243 
L 362.893406 284.655687 
L 363.007533 284.390055 
L 363.12166 284.449827 
L 363.578167 283.69816 
L 364.377054 283.300659 
L 365.746574 282.56122 
L 366.659587 282.309143 
L 367.116094 282.080268 
L 370.654022 279.538573 
L 372.023542 278.905233 
L 372.708303 279.46537 
L 374.306076 279.360011 
L 374.762583 279.486498 
L 376.132103 280.133817 
L 377.27337 281.269487 
L 381.267805 285.096101 
L 381.724312 284.851739 
L 382.180818 284.922292 
L 383.322085 284.626632 
L 384.577479 284.505111 
L 385.604619 284.250019 
L 386.97414 284.001924 
L 387.6589 283.607233 
L 389.3708 282.176292 
L 390.169687 281.514501 
L 390.283814 281.670395 
L 390.512067 281.357903 
L 390.968574 281.391475 
L 391.653334 280.894303 
L 392.338095 280.924334 
L 393.022855 281.269866 
L 393.935868 281.891767 
L 395.533642 283.301468 
L 396.903163 284.834239 
L 398.272683 286.829767 
L 399.528077 288.941009 
L 399.870457 289.750951 
L 400.326963 290.21177 
L 400.78347 290.453767 
L 401.354104 290.383093 
L 406.147425 287.726501 
L 408.429959 286.835731 
L 408.544086 286.925576 
L 409.114719 285.141638 
L 409.571226 284.362161 
L 409.799479 284.136691 
L 411.169 284.501756 
L 412.424394 284.779502 
L 413.451534 284.881294 
L 414.250421 284.685493 
L 416.418828 283.610445 
L 417.560095 283.095433 
L 417.788348 281.955688 
L 418.016602 282.367863 
L 418.929615 282.989486 
L 420.641516 283.740276 
L 422.23929 284.20266 
L 423.837063 285.022282 
L 426.804358 286.880813 
L 427.032611 288.372997 
L 427.945624 290.533929 
L 429.771652 293.478013 
L 430.684665 294.278957 
L 431.369425 294.615983 
L 433.651959 295.453997 
L 435.820367 295.672503 
L 435.934493 294.339479 
L 436.162747 294.332871 
L 436.276873 294.897393 
L 436.505127 294.42727 
L 436.619254 293.257228 
L 436.73338 293.621997 
L 437.189887 292.375176 
L 437.304014 292.608334 
L 437.41814 291.971404 
L 437.532267 292.165168 
L 437.874647 290.875261 
L 437.988774 291.280008 
L 438.217027 290.699484 
L 438.331154 289.836705 
L 438.559407 289.977551 
L 438.787661 289.075207 
L 439.015914 289.219518 
L 439.244168 288.209824 
L 439.358294 288.634027 
L 439.586548 287.4093 
L 439.700674 287.28402 
L 439.814801 287.693677 
L 439.928928 287.413728 
L 440.043055 287.438036 
L 440.385435 286.651921 
L 440.385435 286.651921 
" style="fill:none;stroke:#1f77b4;stroke-linecap:square;stroke-width:1.5;"/>
   </g>
   <g id="line2d_17">
    <path clip-path="url(#p248641f777)" d="M 84.310136 70.107532 
L 93.440272 86.690546 
L 102.570408 79.540254 
L 111.700543 80.891535 
L 120.830679 83.462173 
L 129.960815 87.796642 
L 139.090951 93.19077 
L 148.221087 94.331537 
L 157.351223 98.933374 
L 166.481359 97.644744 
L 175.611495 94.125914 
L 184.74163 96.690416 
L 193.871766 95.886042 
L 203.001902 96.741638 
L 212.132038 96.674333 
L 221.262174 100.015833 
L 230.39231 93.516559 
L 239.522446 95.126899 
L 248.652581 93.588797 
L 257.782717 94.322686 
L 266.912853 93.295353 
L 276.042989 92.804196 
L 285.173125 90.509057 
L 294.303261 92.24315 
L 303.433397 87.218114 
L 312.563532 86.762633 
L 321.693668 90.085568 
L 330.823804 88.672042 
L 339.95394 87.591335 
L 349.084076 88.337048 
L 358.214212 88.469346 
L 367.344348 89.766992 
L 376.474484 91.811278 
L 385.604619 91.728229 
L 394.734755 96.742666 
L 403.864891 101.263294 
L 412.995027 101.266731 
L 422.125163 97.575704 
L 431.255299 102.485586 
L 440.385435 75.087885 
" style="fill:none;stroke:#2ca02c;stroke-dasharray:5.55,2.4;stroke-dashoffset:0;stroke-width:1.5;"/>
   </g>
   <g id="line2d_18">
    <path clip-path="url(#p248641f777)" d="M 87.659867 -1 
L 88.98933 34.654845 
L 91.385991 45.760767 
L 92.184878 48.115135 
L 92.983765 49.544331 
L 93.554398 50.102798 
L 94.010905 50.263965 
L 94.923919 50.234817 
L 95.608679 50.028205 
L 96.749946 49.482291 
L 98.00534 48.441617 
L 98.918353 42.634155 
L 99.488987 40.523232 
L 101.086761 37.380239 
L 101.657394 36.862817 
L 102.456281 36.602572 
L 106.564842 36.21915 
L 107.135476 36.199496 
L 107.249602 36.34407 
L 107.934362 38.698019 
L 108.390869 39.914392 
L 108.619123 40.244274 
L 108.961503 40.38365 
L 109.303883 40.507834 
L 109.76039 40.561703 
L 111.015783 40.530782 
L 111.700543 40.091584 
L 112.613557 39.560973 
L 113.412444 39.381402 
L 114.553711 38.720543 
L 115.923231 38.397078 
L 116.265611 38.367787 
L 116.379738 38.797881 
L 116.493865 38.625241 
L 116.722118 38.903911 
L 116.950372 38.795449 
L 117.178625 38.580815 
L 117.749258 37.594595 
L 118.434019 36.775032 
L 119.118779 36.437389 
L 119.917666 36.137386 
L 120.374173 36.132279 
L 121.401313 36.729103 
L 122.999087 38.10192 
L 124.25448 39.588897 
L 125.395747 40.832575 
L 125.509874 40.916151 
L 125.624001 40.828639 
L 125.852254 41.525063 
L 126.308761 43.554791 
L 126.993521 45.840334 
L 127.564155 47.046805 
L 128.134788 47.707821 
L 129.047802 48.094735 
L 129.504308 48.116387 
L 131.786842 47.7537 
L 133.95525 46.908677 
L 134.525883 46.844668 
L 134.868263 48.095918 
L 135.096517 48.357659 
L 135.32477 48.168683 
L 135.438897 48.133527 
L 136.00953 47.493444 
L 136.580164 47.545597 
L 137.835557 49.215813 
L 139.090951 51.784319 
L 143.085385 60.83214 
L 143.656019 62.039766 
L 143.998399 63.314846 
L 144.112526 63.295574 
L 144.454906 63.924249 
L 145.139666 65.366267 
L 145.824426 66.799333 
L 147.308073 68.878121 
L 148.10696 69.862499 
L 149.134101 70.895456 
L 150.161241 71.449995 
L 151.302508 71.567196 
L 152.786155 71.73663 
L 153.014408 70.854572 
L 153.128535 70.64509 
L 153.585042 70.711157 
L 153.813295 70.684908 
L 154.726309 71.580521 
L 155.296942 72.662531 
L 158.035983 77.658692 
L 159.86201 80.871834 
L 161.345657 82.91427 
L 161.916291 83.567281 
L 162.030417 83.424895 
L 162.144544 84.514174 
L 162.372798 84.401104 
L 162.715178 83.729414 
L 163.057558 83.520387 
L 163.514064 82.754904 
L 164.769458 79.937424 
L 166.253105 77.515241 
L 167.051992 76.151245 
L 167.850879 74.683711 
L 168.878019 73.3681 
L 169.448653 73.040034 
L 170.361666 72.781204 
L 171.046427 72.650508 
L 171.388807 74.251051 
L 171.502933 74.389393 
L 171.61706 74.298726 
L 171.845313 74.591914 
L 172.758327 76.333552 
L 174.356101 81.304974 
L 177.095142 88.639866 
L 179.149422 94.437444 
L 180.176562 96.562772 
L 180.290689 96.141484 
L 180.747196 93.074963 
L 180.975449 92.684297 
L 181.66021 91.135797 
L 182.230843 89.631716 
L 182.68735 88.702017 
L 184.170997 85.313786 
L 185.08401 83.384357 
L 186.225277 80.604508 
L 187.594798 77.427872 
L 188.621938 75.281064 
L 189.306698 74.192005 
L 189.420825 74.77008 
L 189.991459 80.34275 
L 191.018599 85.952466 
L 191.475106 88.010937 
L 193.301133 93.333221 
L 195.241287 97.162317 
L 196.268427 98.726548 
L 198.550961 101.65085 
L 199.007468 99.840185 
L 199.463974 99.083786 
L 200.376988 98.739396 
L 200.833495 98.88483 
L 201.974762 99.953106 
L 205.85507 106.376568 
L 207.56697 109.440571 
L 210.191884 107.057932 
L 212.132038 105.653617 
L 213.387432 105.459889 
L 214.186319 105.208032 
L 214.871079 105.214468 
L 215.784092 105.20731 
L 216.697106 105.282389 
L 217.838373 111.902983 
L 218.523133 114.359169 
L 219.32202 116.35081 
L 220.463287 119.524057 
L 222.859948 126.157571 
L 223.887088 128.286649 
L 225.028355 130.000865 
L 225.827242 130.902819 
L 225.941368 131.574459 
L 226.055495 131.441501 
L 226.169622 131.48269 
L 226.740255 130.18298 
L 227.310889 128.936412 
L 227.767396 128.735693 
L 228.223902 129.002508 
L 229.136916 129.373775 
L 230.620563 129.357284 
L 231.305323 129.091203 
L 231.875957 128.924203 
L 232.332464 128.955839 
L 233.359604 129.348003 
L 234.158491 129.880497 
L 235.185631 130.655391 
L 235.299758 130.57615 
L 235.642138 131.054632 
L 236.441025 133.031943 
L 236.783405 133.604281 
L 237.239912 134.247284 
L 237.582292 134.603966 
L 238.381179 135.240019 
L 239.065939 135.465082 
L 239.522446 135.33771 
L 242.033233 133.635167 
L 242.83212 133.40924 
L 244.087514 133.188817 
L 244.429894 134.164702 
L 244.658147 134.365177 
L 245.000527 134.666332 
L 245.22878 134.776869 
L 247.283061 137.537286 
L 247.967821 139.159833 
L 248.652581 141.305268 
L 251.962256 153.374305 
L 253.217649 156.902008 
L 253.445903 156.983169 
L 253.560029 156.991458 
L 253.788283 156.75323 
L 254.130663 156.472987 
L 255.27193 153.024028 
L 256.070817 151.109409 
L 256.869704 149.082886 
L 257.782717 146.616064 
L 260.978265 138.358744 
L 262.005405 136.486805 
L 262.347785 135.954311 
L 262.804292 137.457292 
L 263.146672 138.635203 
L 263.831432 141.288732 
L 265.086826 146.672742 
L 268.282374 160.090943 
L 269.994274 167.359327 
L 271.363794 172.011818 
L 271.592048 172.629005 
L 271.934428 171.196944 
L 272.276808 170.103705 
L 272.847441 168.979483 
L 273.075695 168.502456 
L 275.928862 161.395332 
L 277.75489 157.59151 
L 278.43965 156.002703 
L 279.238537 154.733203 
L 280.15155 153.854894 
L 280.608057 153.548747 
L 281.521071 159.334012 
L 282.319957 163.873121 
L 283.118844 168.219581 
L 284.031858 172.42513 
L 285.287252 176.92338 
L 286.999152 182.505791 
L 287.912166 185.5773 
L 289.167559 189.253167 
L 289.85232 191.232834 
L 290.080573 190.673127 
L 290.422953 190.013639 
L 291.22184 188.640278 
L 291.678347 188.112473 
L 292.477234 187.762744 
L 292.93374 187.61428 
L 293.504374 187.762238 
L 294.645641 187.697654 
L 296.699921 187.310306 
L 298.868329 188.188637 
L 298.982455 188.009312 
L 299.324835 186.040808 
L 299.553089 185.515765 
L 299.895469 185.618985 
L 301.036736 186.264574 
L 301.94975 186.997438 
L 303.31927 188.338567 
L 304.460537 190.454228 
L 305.37355 192.421839 
L 306.628944 195.069503 
L 307.998465 197.750303 
L 308.226718 198.946074 
L 308.683225 202.811935 
L 309.253858 205.618991 
L 309.824492 207.474268 
L 310.395125 208.479435 
L 312.335279 210.867731 
L 312.791786 211.119365 
L 313.704799 211.147371 
L 314.503686 210.77093 
L 315.4167 209.883601 
L 317.1286 207.615807 
L 317.585107 205.369443 
L 318.498121 201.214525 
L 319.182881 199.236061 
L 320.210021 197.141721 
L 321.237162 195.634742 
L 322.036048 194.982222 
L 322.834935 194.803176 
L 323.405569 194.958584 
L 324.090329 195.497658 
L 325.345723 196.790733 
L 326.258736 197.858047 
L 327.285877 203.130632 
L 327.970637 205.320365 
L 328.997777 207.204032 
L 330.024917 208.430702 
L 331.052058 209.310238 
L 332.307451 210.190802 
L 332.992211 210.356879 
L 334.475859 210.705267 
L 335.388872 211.053689 
L 335.502999 210.892141 
L 335.845379 209.522692 
L 336.073632 209.266723 
L 336.644266 209.411066 
L 336.872519 209.390674 
L 337.557279 209.756012 
L 338.24204 210.358749 
L 339.040927 211.238179 
L 341.209334 212.581686 
L 342.122347 213.028545 
L 344.519008 214.876969 
L 344.633135 214.602127 
L 344.975515 215.705927 
L 345.432022 215.878597 
L 346.230908 215.779093 
L 346.459162 215.625545 
L 347.372175 214.784613 
L 348.056936 214.549107 
L 348.741696 214.5755 
L 350.68185 215.361606 
L 351.823117 216.01963 
L 353.763271 216.733875 
L 353.877397 217.046489 
L 354.105651 216.716122 
L 354.333904 216.775783 
L 355.703424 218.615676 
L 356.730565 220.432845 
L 357.187072 220.80134 
L 357.757705 221.18512 
L 359.013099 221.928044 
L 360.496746 222.500411 
L 361.523886 223.062845 
L 362.77928 223.827407 
L 363.007533 223.359222 
L 363.692293 224.481813 
L 364.1488 224.507522 
L 364.605307 223.528361 
L 365.974827 221.757198 
L 366.317207 221.632765 
L 367.572601 221.503447 
L 367.914981 221.491074 
L 370.539895 222.528841 
L 371.567036 222.651538 
L 371.909416 222.649631 
L 372.023542 222.944393 
L 372.365922 224.672448 
L 372.594176 225.177917 
L 372.936556 224.229073 
L 373.393063 223.400883 
L 373.735443 223.643078 
L 374.306076 223.721064 
L 377.501624 225.166704 
L 378.072257 225.182417 
L 378.871144 225.143473 
L 380.240665 224.833754 
L 381.039551 224.734909 
L 381.496058 222.157685 
L 381.838438 220.474387 
L 381.952565 220.524261 
L 382.523199 220.207281 
L 384.120972 218.987003 
L 385.947 218.112399 
L 386.97414 217.495607 
L 387.544773 217.202095 
L 388.115407 216.956051 
L 389.02842 216.764877 
L 390.169687 216.772167 
L 391.082701 221.976101 
L 393.365235 230.250208 
L 394.392375 232.918447 
L 395.647769 235.623246 
L 398.158556 240.739334 
L 399.41395 242.940787 
L 399.75633 241.804127 
L 399.984583 241.666629 
L 401.582357 242.193827 
L 401.924737 241.810434 
L 402.495371 240.712255 
L 404.207271 237.223271 
L 405.462665 235.118584 
L 406.832185 233.010057 
L 407.631072 231.463477 
L 408.886466 227.042162 
L 409.685353 225.718565 
L 410.82662 222.525567 
L 411.283127 221.932933 
L 411.85376 221.693473 
L 412.19614 221.721592 
L 412.8809 222.061771 
L 413.908041 222.901998 
L 414.592801 223.341604 
L 414.935181 223.424213 
L 416.304701 158.166698 
L 417.560095 106.910177 
L 417.902475 104.956224 
L 417.902874 -1 
M 435.932587 -1 
L 435.934493 41.792299 
L 436.391 51.16374 
L 436.505127 55.047101 
L 436.595832 -1 
M 437.159198 -1 
L 437.41814 5.267522 
L 437.532267 6.973602 
L 437.646394 4.463007 
L 437.988774 12.644675 
L 438.331154 18.03387 
L 439.015914 29.542258 
L 439.130041 29.830054 
L 439.358294 32.330739 
L 439.928928 42.384914 
L 439.929188 -1 
L 439.929188 -1 
" style="fill:none;stroke:#8c564b;stroke-linecap:square;stroke-width:1.5;"/>
   </g>
   <g id="line2d_19">
    <path clip-path="url(#p248641f777)" d="M 84.310136 63.554306 
L 93.440272 82.47098 
L 102.570408 68.247808 
L 111.700543 71.905072 
L 120.830679 73.174163 
L 129.960815 78.758084 
L 139.090951 86.298553 
L 148.221087 83.949425 
L 157.351223 86.415089 
L 166.481359 82.399292 
L 175.611495 80.016456 
L 184.74163 82.099162 
L 193.871766 85.83551 
L 203.001902 87.548505 
L 212.132038 88.96254 
L 221.262174 93.440485 
L 230.39231 88.274084 
L 239.522446 79.565743 
L 248.652581 77.803797 
L 257.782717 76.797072 
L 266.912853 73.812214 
L 276.042989 78.606055 
L 285.173125 89.055459 
L 294.303261 88.712945 
L 303.433397 84.432377 
L 312.563532 86.767978 
L 321.693668 81.901753 
L 330.823804 81.900697 
L 339.95394 79.700803 
L 349.084076 87.333828 
L 358.214212 84.639221 
L 367.344348 83.188992 
L 376.474484 84.453503 
L 385.604619 82.483038 
L 394.734755 77.294148 
L 403.864891 71.71148 
L 408.365712 -1 
" style="fill:none;stroke:#7f7f7f;stroke-dasharray:5.55,2.4;stroke-dashoffset:0;stroke-width:1.5;"/>
   </g>
   <g id="patch_3">
    <path d="M 75.18 324.1344 
L 75.18 16.2 
" style="fill:none;stroke:#000000;stroke-linecap:square;stroke-linejoin:miter;stroke-width:0.8;"/>
   </g>
   <g id="patch_4">
    <path d="M 458.64 324.1344 
L 458.64 16.2 
" style="fill:none;stroke:#000000;stroke-linecap:square;stroke-linejoin:miter;stroke-width:0.8;"/>
   </g>
   <g id="patch_5">
    <path d="M 75.18 324.1344 
L 458.64 324.1344 
" style="fill:none;stroke:#000000;stroke-linecap:square;stroke-linejoin:miter;stroke-width:0.8;"/>
   </g>
   <g id="patch_6">
    <path d="M 75.18 16.2 
L 458.64 16.2 
" style="fill:none;stroke:#000000;stroke-linecap:square;stroke-linejoin:miter;stroke-width:0.8;"/>
   </g>
   <g id="legend_1">
    <g id="patch_7">
     <path d="M 47.990469 411.01472 
L 489.829531 411.01472 
Q 492.829531 411.01472 492.829531 408.01472 
L 492.829531 367.078783 
Q 492.829531 364.078783 489.829531 364.078783 
L 47.990469 364.078783 
Q 44.990469 364.078783 44.990469 367.078783 
L 44.990469 408.01472 
Q 44.990469 411.01472 47.990469 411.01472 
z
" style="fill:#4c4c4c;opacity:0.5;stroke:#4c4c4c;stroke-linejoin:miter;"/>
    </g>
    <g id="patch_8">
     <path d="M 45.990469 409.01472 
L 487.829531 409.01472 
Q 490.829531 409.01472 490.829531 406.01472 
L 490.829531 365.078783 
Q 490.829531 362.078783 487.829531 362.078783 
L 45.990469 362.078783 
Q 42.990469 362.078783 42.990469 365.078783 
L 42.990469 406.01472 
Q 42.990469 409.01472 45.990469 409.01472 
z
" style="fill:#ffffff;stroke:#cccccc;stroke-linejoin:miter;"/>
    </g>
    <g id="line2d_20">
     <path d="M 48.990469 373.565501 
L 78.990469 373.565501 
" style="fill:none;stroke:#1f77b4;stroke-linecap:square;stroke-width:1.5;"/>
    </g>
    <g id="line2d_21"/>
    <g id="text_18">
     <!-- run-0-4329-406-0.05 -->
     <g transform="translate(90.990469 378.815501)scale(0.15 -0.15)">
      <defs>
       <path d="M 203 1375 
L 203 1941 
L 1931 1941 
L 1931 1375 
L 203 1375 
z
" id="ArialMT-2d" transform="scale(0.015625)"/>
       <path d="M 2069 0 
L 2069 1097 
L 81 1097 
L 81 1613 
L 2172 4581 
L 2631 4581 
L 2631 1613 
L 3250 1613 
L 3250 1097 
L 2631 1097 
L 2631 0 
L 2069 0 
z
M 2069 1613 
L 2069 3678 
L 634 1613 
L 2069 1613 
z
" id="ArialMT-34" transform="scale(0.015625)"/>
       <path d="M 350 1059 
L 891 1109 
Q 959 728 1153 556 
Q 1347 384 1650 384 
Q 1909 384 2104 503 
Q 2300 622 2425 820 
Q 2550 1019 2634 1356 
Q 2719 1694 2719 2044 
Q 2719 2081 2716 2156 
Q 2547 1888 2255 1720 
Q 1963 1553 1622 1553 
Q 1053 1553 659 1965 
Q 266 2378 266 3053 
Q 266 3750 677 4175 
Q 1088 4600 1706 4600 
Q 2153 4600 2523 4359 
Q 2894 4119 3086 3673 
Q 3278 3228 3278 2384 
Q 3278 1506 3087 986 
Q 2897 466 2520 194 
Q 2144 -78 1638 -78 
Q 1100 -78 759 220 
Q 419 519 350 1059 
z
M 2653 3081 
Q 2653 3566 2395 3850 
Q 2138 4134 1775 4134 
Q 1400 4134 1122 3828 
Q 844 3522 844 3034 
Q 844 2597 1108 2323 
Q 1372 2050 1759 2050 
Q 2150 2050 2401 2323 
Q 2653 2597 2653 3081 
z
" id="ArialMT-39" transform="scale(0.015625)"/>
       <path d="M 3184 3459 
L 2625 3416 
Q 2550 3747 2413 3897 
Q 2184 4138 1850 4138 
Q 1581 4138 1378 3988 
Q 1113 3794 959 3422 
Q 806 3050 800 2363 
Q 1003 2672 1297 2822 
Q 1591 2972 1913 2972 
Q 2475 2972 2870 2558 
Q 3266 2144 3266 1488 
Q 3266 1056 3080 686 
Q 2894 316 2569 119 
Q 2244 -78 1831 -78 
Q 1128 -78 684 439 
Q 241 956 241 2144 
Q 241 3472 731 4075 
Q 1159 4600 1884 4600 
Q 2425 4600 2770 4297 
Q 3116 3994 3184 3459 
z
M 888 1484 
Q 888 1194 1011 928 
Q 1134 663 1356 523 
Q 1578 384 1822 384 
Q 2178 384 2434 671 
Q 2691 959 2691 1453 
Q 2691 1928 2437 2201 
Q 2184 2475 1800 2475 
Q 1419 2475 1153 2201 
Q 888 1928 888 1484 
z
" id="ArialMT-36" transform="scale(0.015625)"/>
      </defs>
      <use xlink:href="#ArialMT-72"/>
      <use x="33.300781" xlink:href="#ArialMT-75"/>
      <use x="88.916016" xlink:href="#ArialMT-6e"/>
      <use x="144.53125" xlink:href="#ArialMT-2d"/>
      <use x="177.832031" xlink:href="#ArialMT-30"/>
      <use x="233.447266" xlink:href="#ArialMT-2d"/>
      <use x="266.748047" xlink:href="#ArialMT-34"/>
      <use x="322.363281" xlink:href="#ArialMT-33"/>
      <use x="377.978516" xlink:href="#ArialMT-32"/>
      <use x="433.59375" xlink:href="#ArialMT-39"/>
      <use x="489.208984" xlink:href="#ArialMT-2d"/>
      <use x="522.509766" xlink:href="#ArialMT-34"/>
      <use x="578.125" xlink:href="#ArialMT-30"/>
      <use x="633.740234" xlink:href="#ArialMT-36"/>
      <use x="689.355469" xlink:href="#ArialMT-2d"/>
      <use x="722.65625" xlink:href="#ArialMT-30"/>
      <use x="778.271484" xlink:href="#ArialMT-2e"/>
      <use x="806.054688" xlink:href="#ArialMT-30"/>
      <use x="861.669922" xlink:href="#ArialMT-35"/>
     </g>
    </g>
    <g id="line2d_22">
     <path d="M 48.990469 394.78347 
L 78.990469 394.78347 
" style="fill:none;stroke:#2ca02c;stroke-dasharray:5.55,2.4;stroke-dashoffset:0;stroke-width:1.5;"/>
    </g>
    <g id="line2d_23"/>
    <g id="text_19">
     <!-- run-0-4329-406-0.05 val -->
     <g transform="translate(90.990469 400.03347)scale(0.15 -0.15)">
      <defs>
       <path d="M 1344 0 
L 81 3319 
L 675 3319 
L 1388 1331 
Q 1503 1009 1600 663 
Q 1675 925 1809 1294 
L 2547 3319 
L 3125 3319 
L 1869 0 
L 1344 0 
z
" id="ArialMT-76" transform="scale(0.015625)"/>
       <path d="M 409 0 
L 409 4581 
L 972 4581 
L 972 0 
L 409 0 
z
" id="ArialMT-6c" transform="scale(0.015625)"/>
      </defs>
      <use xlink:href="#ArialMT-72"/>
      <use x="33.300781" xlink:href="#ArialMT-75"/>
      <use x="88.916016" xlink:href="#ArialMT-6e"/>
      <use x="144.53125" xlink:href="#ArialMT-2d"/>
      <use x="177.832031" xlink:href="#ArialMT-30"/>
      <use x="233.447266" xlink:href="#ArialMT-2d"/>
      <use x="266.748047" xlink:href="#ArialMT-34"/>
      <use x="322.363281" xlink:href="#ArialMT-33"/>
      <use x="377.978516" xlink:href="#ArialMT-32"/>
      <use x="433.59375" xlink:href="#ArialMT-39"/>
      <use x="489.208984" xlink:href="#ArialMT-2d"/>
      <use x="522.509766" xlink:href="#ArialMT-34"/>
      <use x="578.125" xlink:href="#ArialMT-30"/>
      <use x="633.740234" xlink:href="#ArialMT-36"/>
      <use x="689.355469" xlink:href="#ArialMT-2d"/>
      <use x="722.65625" xlink:href="#ArialMT-30"/>
      <use x="778.271484" xlink:href="#ArialMT-2e"/>
      <use x="806.054688" xlink:href="#ArialMT-30"/>
      <use x="861.669922" xlink:href="#ArialMT-35"/>
      <use x="917.285156" xlink:href="#ArialMT-20"/>
      <use x="945.068359" xlink:href="#ArialMT-76"/>
      <use x="995.068359" xlink:href="#ArialMT-61"/>
      <use x="1050.683594" xlink:href="#ArialMT-6c"/>
     </g>
    </g>
    <g id="line2d_24">
     <path d="M 281.91 373.565501 
L 311.91 373.565501 
" style="fill:none;stroke:#8c564b;stroke-linecap:square;stroke-width:1.5;"/>
    </g>
    <g id="line2d_25"/>
    <g id="text_20">
     <!-- run-1-4329-406-0.10 -->
     <g transform="translate(323.91 378.815501)scale(0.15 -0.15)">
      <use xlink:href="#ArialMT-72"/>
      <use x="33.300781" xlink:href="#ArialMT-75"/>
      <use x="88.916016" xlink:href="#ArialMT-6e"/>
      <use x="144.53125" xlink:href="#ArialMT-2d"/>
      <use x="177.832031" xlink:href="#ArialMT-31"/>
      <use x="233.447266" xlink:href="#ArialMT-2d"/>
      <use x="266.748047" xlink:href="#ArialMT-34"/>
      <use x="322.363281" xlink:href="#ArialMT-33"/>
      <use x="377.978516" xlink:href="#ArialMT-32"/>
      <use x="433.59375" xlink:href="#ArialMT-39"/>
      <use x="489.208984" xlink:href="#ArialMT-2d"/>
      <use x="522.509766" xlink:href="#ArialMT-34"/>
      <use x="578.125" xlink:href="#ArialMT-30"/>
      <use x="633.740234" xlink:href="#ArialMT-36"/>
      <use x="689.355469" xlink:href="#ArialMT-2d"/>
      <use x="722.65625" xlink:href="#ArialMT-30"/>
      <use x="778.271484" xlink:href="#ArialMT-2e"/>
      <use x="806.054688" xlink:href="#ArialMT-31"/>
      <use x="861.669922" xlink:href="#ArialMT-30"/>
     </g>
    </g>
    <g id="line2d_26">
     <path d="M 281.91 394.78347 
L 311.91 394.78347 
" style="fill:none;stroke:#7f7f7f;stroke-dasharray:5.55,2.4;stroke-dashoffset:0;stroke-width:1.5;"/>
    </g>
    <g id="line2d_27"/>
    <g id="text_21">
     <!-- run-1-4329-406-0.10 val -->
     <g transform="translate(323.91 400.03347)scale(0.15 -0.15)">
      <use xlink:href="#ArialMT-72"/>
      <use x="33.300781" xlink:href="#ArialMT-75"/>
      <use x="88.916016" xlink:href="#ArialMT-6e"/>
      <use x="144.53125" xlink:href="#ArialMT-2d"/>
      <use x="177.832031" xlink:href="#ArialMT-31"/>
      <use x="233.447266" xlink:href="#ArialMT-2d"/>
      <use x="266.748047" xlink:href="#ArialMT-34"/>
      <use x="322.363281" xlink:href="#ArialMT-33"/>
      <use x="377.978516" xlink:href="#ArialMT-32"/>
      <use x="433.59375" xlink:href="#ArialMT-39"/>
      <use x="489.208984" xlink:href="#ArialMT-2d"/>
      <use x="522.509766" xlink:href="#ArialMT-34"/>
      <use x="578.125" xlink:href="#ArialMT-30"/>
      <use x="633.740234" xlink:href="#ArialMT-36"/>
      <use x="689.355469" xlink:href="#ArialMT-2d"/>
      <use x="722.65625" xlink:href="#ArialMT-30"/>
      <use x="778.271484" xlink:href="#ArialMT-2e"/>
      <use x="806.054688" xlink:href="#ArialMT-31"/>
      <use x="861.669922" xlink:href="#ArialMT-30"/>
      <use x="917.285156" xlink:href="#ArialMT-20"/>
      <use x="945.068359" xlink:href="#ArialMT-76"/>
      <use x="995.068359" xlink:href="#ArialMT-61"/>
      <use x="1050.683594" xlink:href="#ArialMT-6c"/>
     </g>
    </g>
   </g>
  </g>
 </g>
 <defs>
  <clipPath id="p248641f777">
   <rect height="307.9344" width="383.46" x="75.18" y="16.2"/>
  </clipPath>
 </defs>
</svg>
