<?xml version="1.0" encoding="utf-8" standalone="no"?>
<!DOCTYPE svg PUBLIC "-//W3C//DTD SVG 1.1//EN"
  "http://www.w3.org/Graphics/SVG/1.1/DTD/svg11.dtd">
<svg height="360pt" version="1.1" viewBox="0 0 504 360" width="504pt" xmlns="http://www.w3.org/2000/svg" xmlns:xlink="http://www.w3.org/1999/xlink">
 <metadata>
  <rdf:RDF xmlns:cc="http://creativecommons.org/ns#" xmlns:dc="http://purl.org/dc/elements/1.1/" xmlns:rdf="http://www.w3.org/1999/02/22-rdf-syntax-ns#">
   <cc:Work>
    <dc:type rdf:resource="http://purl.org/dc/dcmitype/StillImage"/>
    <dc:date>2021-12-08T20:43:56.910525</dc:date>
    <dc:format>image/svg+xml</dc:format>
    <dc:creator>
     <cc:Agent>
      <dc:title>Matplotlib v3.4.3, https://matplotlib.org/</dc:title>
     </cc:Agent>
    </dc:creator>
   </cc:Work>
  </rdf:RDF>
 </metadata>
 <defs>
  <style type="text/css">*{stroke-linecap:butt;stroke-linejoin:round;}</style>
 </defs>
 <g id="figure_1">
  <g id="patch_1">
   <path d="M 0 360 
L 504 360 
L 504 0 
L 0 0 
z
" style="fill:#ffffff;"/>
  </g>
  <g id="axes_1">
   <g id="patch_2">
    <path d="M 363.341605 179.233027 
C 363.341605 150.475373 354.961677 122.331467 339.230964 98.257677 
C 323.500251 74.183887 301.090206 55.207784 274.753017 43.659832 
C 248.415829 32.111879 219.275679 28.484993 190.911285 33.224593 
C 162.54689 37.964193 136.168962 50.867973 115.016987 70.351213 
C 93.865012 89.834453 78.841846 115.065527 71.79249 142.945794 
C 64.743134 170.826061 65.968485 200.165473 75.318058 227.360844 
C 84.66763 254.556215 101.742344 278.446731 124.445246 296.098386 
C 147.148148 313.750041 174.510183 324.409389 203.171005 326.767349 
L 215.308829 179.233027 
L 363.341605 179.233027 
z
" style="fill:#3c3c4c;"/>
   </g>
   <g id="patch_3">
    <path d="M 204.380382 329.469734 
C 229.240515 331.515007 254.218953 327.243932 276.987098 317.054678 
C 299.755244 306.865424 319.58289 291.084774 334.621618 271.18387 
L 216.518207 181.935412 
L 204.380382 329.469734 
z
" style="fill:#965f77;"/>
   </g>
   <g id="patch_4">
    <path d="M 346.729724 274.945356 
C 352.543032 267.252546 357.590836 259.01012 361.801158 250.335614 
C 366.01148 241.661107 369.364211 232.595949 371.811542 223.269403 
L 228.626313 185.696898 
L 346.729724 274.945356 
z
" style="fill:#b4a0aa;"/>
   </g>
   <g id="patch_5">
    <path d="M 380.307386 220.957283 
C 381.165852 217.685751 381.911942 214.385758 382.544344 211.063115 
C 383.176746 207.740472 383.695087 204.397132 384.098454 201.03898 
L 237.122157 183.384778 
L 380.307386 220.957283 
z
" style="fill:#d8c2cb;"/>
   </g>
   <g id="patch_6">
    <path d="M 406.583294 200.034537 
C 406.86939 197.652709 407.097545 195.264278 407.267558 192.87136 
C 407.437571 190.478443 407.54939 188.081746 407.602918 185.683394 
L 259.606997 182.380335 
L 406.583294 200.034537 
z
" style="fill:#fed542;"/>
   </g>
   <g id="patch_7">
    <path d="M 437.316531 183.361909 
C 437.328815 182.811493 437.338029 182.261013 437.344172 181.710494 
C 437.350315 181.159976 437.353386 180.609427 437.353386 180.058874 
L 289.32061 180.058849 
L 437.316531 183.361909 
z
" style="fill:#fed5c4;"/>
   </g>
   <g id="matplotlib.axis_1"/>
   <g id="matplotlib.axis_2"/>
   <g id="text_1">
    <!-- PWR -->
    <g transform="translate(69.990928 63.340766)scale(0.15 -0.15)">
     <defs>
      <path d="M 494 0 
L 494 4581 
L 2222 4581 
Q 2678 4581 2919 4538 
Q 3256 4481 3484 4323 
Q 3713 4166 3852 3881 
Q 3991 3597 3991 3256 
Q 3991 2672 3619 2267 
Q 3247 1863 2275 1863 
L 1100 1863 
L 1100 0 
L 494 0 
z
M 1100 2403 
L 2284 2403 
Q 2872 2403 3119 2622 
Q 3366 2841 3366 3238 
Q 3366 3525 3220 3729 
Q 3075 3934 2838 4000 
Q 2684 4041 2272 4041 
L 1100 4041 
L 1100 2403 
z
" id="ArialMT-50" transform="scale(0.015625)"/>
      <path d="M 1294 0 
L 78 4581 
L 700 4581 
L 1397 1578 
Q 1509 1106 1591 641 
Q 1766 1375 1797 1488 
L 2669 4581 
L 3400 4581 
L 4056 2263 
Q 4303 1400 4413 641 
Q 4500 1075 4641 1638 
L 5359 4581 
L 5969 4581 
L 4713 0 
L 4128 0 
L 3163 3491 
Q 3041 3928 3019 4028 
Q 2947 3713 2884 3491 
L 1913 0 
L 1294 0 
z
" id="ArialMT-57" transform="scale(0.015625)"/>
      <path d="M 503 0 
L 503 4581 
L 2534 4581 
Q 3147 4581 3465 4457 
Q 3784 4334 3975 4021 
Q 4166 3709 4166 3331 
Q 4166 2844 3850 2509 
Q 3534 2175 2875 2084 
Q 3116 1969 3241 1856 
Q 3506 1613 3744 1247 
L 4541 0 
L 3778 0 
L 3172 953 
Q 2906 1366 2734 1584 
Q 2563 1803 2427 1890 
Q 2291 1978 2150 2013 
Q 2047 2034 1813 2034 
L 1109 2034 
L 1109 0 
L 503 0 
z
M 1109 2559 
L 2413 2559 
Q 2828 2559 3062 2645 
Q 3297 2731 3419 2920 
Q 3541 3109 3541 3331 
Q 3541 3656 3305 3865 
Q 3069 4075 2559 4075 
L 1109 4075 
L 1109 2559 
z
" id="ArialMT-52" transform="scale(0.015625)"/>
     </defs>
     <use xlink:href="#ArialMT-50"/>
     <use x="66.699219" xlink:href="#ArialMT-57"/>
     <use x="161.083984" xlink:href="#ArialMT-52"/>
    </g>
   </g>
   <g id="text_2">
    <!-- 290.5 -->
    <g transform="translate(136.367318 117.781673)scale(0.15 -0.15)">
     <defs>
      <path d="M 3222 541 
L 3222 0 
L 194 0 
Q 188 203 259 391 
Q 375 700 629 1000 
Q 884 1300 1366 1694 
Q 2113 2306 2375 2664 
Q 2638 3022 2638 3341 
Q 2638 3675 2398 3904 
Q 2159 4134 1775 4134 
Q 1369 4134 1125 3890 
Q 881 3647 878 3216 
L 300 3275 
Q 359 3922 746 4261 
Q 1134 4600 1788 4600 
Q 2447 4600 2831 4234 
Q 3216 3869 3216 3328 
Q 3216 3053 3103 2787 
Q 2991 2522 2730 2228 
Q 2469 1934 1863 1422 
Q 1356 997 1212 845 
Q 1069 694 975 541 
L 3222 541 
z
" id="ArialMT-32" transform="scale(0.015625)"/>
      <path d="M 350 1059 
L 891 1109 
Q 959 728 1153 556 
Q 1347 384 1650 384 
Q 1909 384 2104 503 
Q 2300 622 2425 820 
Q 2550 1019 2634 1356 
Q 2719 1694 2719 2044 
Q 2719 2081 2716 2156 
Q 2547 1888 2255 1720 
Q 1963 1553 1622 1553 
Q 1053 1553 659 1965 
Q 266 2378 266 3053 
Q 266 3750 677 4175 
Q 1088 4600 1706 4600 
Q 2153 4600 2523 4359 
Q 2894 4119 3086 3673 
Q 3278 3228 3278 2384 
Q 3278 1506 3087 986 
Q 2897 466 2520 194 
Q 2144 -78 1638 -78 
Q 1100 -78 759 220 
Q 419 519 350 1059 
z
M 2653 3081 
Q 2653 3566 2395 3850 
Q 2138 4134 1775 4134 
Q 1400 4134 1122 3828 
Q 844 3522 844 3034 
Q 844 2597 1108 2323 
Q 1372 2050 1759 2050 
Q 2150 2050 2401 2323 
Q 2653 2597 2653 3081 
z
" id="ArialMT-39" transform="scale(0.015625)"/>
      <path d="M 266 2259 
Q 266 3072 433 3567 
Q 600 4063 929 4331 
Q 1259 4600 1759 4600 
Q 2128 4600 2406 4451 
Q 2684 4303 2865 4023 
Q 3047 3744 3150 3342 
Q 3253 2941 3253 2259 
Q 3253 1453 3087 958 
Q 2922 463 2592 192 
Q 2263 -78 1759 -78 
Q 1097 -78 719 397 
Q 266 969 266 2259 
z
M 844 2259 
Q 844 1131 1108 757 
Q 1372 384 1759 384 
Q 2147 384 2411 759 
Q 2675 1134 2675 2259 
Q 2675 3391 2411 3762 
Q 2147 4134 1753 4134 
Q 1366 4134 1134 3806 
Q 844 3388 844 2259 
z
" id="ArialMT-30" transform="scale(0.015625)"/>
      <path d="M 581 0 
L 581 641 
L 1222 641 
L 1222 0 
L 581 0 
z
" id="ArialMT-2e" transform="scale(0.015625)"/>
      <path d="M 266 1200 
L 856 1250 
Q 922 819 1161 601 
Q 1400 384 1738 384 
Q 2144 384 2425 690 
Q 2706 997 2706 1503 
Q 2706 1984 2436 2262 
Q 2166 2541 1728 2541 
Q 1456 2541 1237 2417 
Q 1019 2294 894 2097 
L 366 2166 
L 809 4519 
L 3088 4519 
L 3088 3981 
L 1259 3981 
L 1013 2750 
Q 1425 3038 1878 3038 
Q 2478 3038 2890 2622 
Q 3303 2206 3303 1553 
Q 3303 931 2941 478 
Q 2500 -78 1738 -78 
Q 1113 -78 717 272 
Q 322 622 266 1200 
z
" id="ArialMT-35" transform="scale(0.015625)"/>
     </defs>
     <use xlink:href="#ArialMT-32"/>
     <use x="55.615234" xlink:href="#ArialMT-39"/>
     <use x="111.230469" xlink:href="#ArialMT-30"/>
     <use x="166.845703" xlink:href="#ArialMT-2e"/>
     <use x="194.628906" xlink:href="#ArialMT-35"/>
    </g>
   </g>
   <g id="text_3">
    <!-- BWR -->
    <g transform="translate(283.033988 334.444339)scale(0.15 -0.15)">
     <defs>
      <path d="M 469 0 
L 469 4581 
L 2188 4581 
Q 2713 4581 3030 4442 
Q 3347 4303 3526 4014 
Q 3706 3725 3706 3409 
Q 3706 3116 3547 2856 
Q 3388 2597 3066 2438 
Q 3481 2316 3704 2022 
Q 3928 1728 3928 1328 
Q 3928 1006 3792 729 
Q 3656 453 3456 303 
Q 3256 153 2954 76 
Q 2653 0 2216 0 
L 469 0 
z
M 1075 2656 
L 2066 2656 
Q 2469 2656 2644 2709 
Q 2875 2778 2992 2937 
Q 3109 3097 3109 3338 
Q 3109 3566 3000 3739 
Q 2891 3913 2687 3977 
Q 2484 4041 1991 4041 
L 1075 4041 
L 1075 2656 
z
M 1075 541 
L 2216 541 
Q 2509 541 2628 563 
Q 2838 600 2978 687 
Q 3119 775 3209 942 
Q 3300 1109 3300 1328 
Q 3300 1584 3169 1773 
Q 3038 1963 2805 2039 
Q 2572 2116 2134 2116 
L 1075 2116 
L 1075 541 
z
" id="ArialMT-42" transform="scale(0.015625)"/>
     </defs>
     <use xlink:href="#ArialMT-42"/>
     <use x="66.699219" xlink:href="#ArialMT-57"/>
     <use x="161.083984" xlink:href="#ArialMT-52"/>
    </g>
   </g>
   <g id="text_4">
    <!-- 63.1 -->
    <g transform="translate(238.203839 266.884706)scale(0.15 -0.15)">
     <defs>
      <path d="M 3184 3459 
L 2625 3416 
Q 2550 3747 2413 3897 
Q 2184 4138 1850 4138 
Q 1581 4138 1378 3988 
Q 1113 3794 959 3422 
Q 806 3050 800 2363 
Q 1003 2672 1297 2822 
Q 1591 2972 1913 2972 
Q 2475 2972 2870 2558 
Q 3266 2144 3266 1488 
Q 3266 1056 3080 686 
Q 2894 316 2569 119 
Q 2244 -78 1831 -78 
Q 1128 -78 684 439 
Q 241 956 241 2144 
Q 241 3472 731 4075 
Q 1159 4600 1884 4600 
Q 2425 4600 2770 4297 
Q 3116 3994 3184 3459 
z
M 888 1484 
Q 888 1194 1011 928 
Q 1134 663 1356 523 
Q 1578 384 1822 384 
Q 2178 384 2434 671 
Q 2691 959 2691 1453 
Q 2691 1928 2437 2201 
Q 2184 2475 1800 2475 
Q 1419 2475 1153 2201 
Q 888 1928 888 1484 
z
" id="ArialMT-36" transform="scale(0.015625)"/>
      <path d="M 269 1209 
L 831 1284 
Q 928 806 1161 595 
Q 1394 384 1728 384 
Q 2125 384 2398 659 
Q 2672 934 2672 1341 
Q 2672 1728 2419 1979 
Q 2166 2231 1775 2231 
Q 1616 2231 1378 2169 
L 1441 2663 
Q 1497 2656 1531 2656 
Q 1891 2656 2178 2843 
Q 2466 3031 2466 3422 
Q 2466 3731 2256 3934 
Q 2047 4138 1716 4138 
Q 1388 4138 1169 3931 
Q 950 3725 888 3313 
L 325 3413 
Q 428 3978 793 4289 
Q 1159 4600 1703 4600 
Q 2078 4600 2393 4439 
Q 2709 4278 2876 4000 
Q 3044 3722 3044 3409 
Q 3044 3113 2884 2869 
Q 2725 2625 2413 2481 
Q 2819 2388 3044 2092 
Q 3269 1797 3269 1353 
Q 3269 753 2831 336 
Q 2394 -81 1725 -81 
Q 1122 -81 723 278 
Q 325 638 269 1209 
z
" id="ArialMT-33" transform="scale(0.015625)"/>
      <path d="M 2384 0 
L 1822 0 
L 1822 3584 
Q 1619 3391 1289 3197 
Q 959 3003 697 2906 
L 697 3450 
Q 1169 3672 1522 3987 
Q 1875 4303 2022 4600 
L 2384 4600 
L 2384 0 
z
" id="ArialMT-31" transform="scale(0.015625)"/>
     </defs>
     <use xlink:href="#ArialMT-36"/>
     <use x="55.615234" xlink:href="#ArialMT-33"/>
     <use x="111.230469" xlink:href="#ArialMT-2e"/>
     <use x="139.013672" xlink:href="#ArialMT-31"/>
    </g>
   </g>
   <g id="text_5">
    <!-- PHWR -->
    <g transform="translate(375.118643 260.67722)scale(0.15 -0.15)">
     <defs>
      <path d="M 513 0 
L 513 4581 
L 1119 4581 
L 1119 2700 
L 3500 2700 
L 3500 4581 
L 4106 4581 
L 4106 0 
L 3500 0 
L 3500 2159 
L 1119 2159 
L 1119 0 
L 513 0 
z
" id="ArialMT-48" transform="scale(0.015625)"/>
     </defs>
     <use xlink:href="#ArialMT-50"/>
     <use x="66.699219" xlink:href="#ArialMT-48"/>
     <use x="138.916016" xlink:href="#ArialMT-57"/>
     <use x="233.300781" xlink:href="#ArialMT-52"/>
    </g>
   </g>
   <g id="text_6">
    <!-- 24.5 -->
    <g transform="translate(293.935517 228.357862)scale(0.15 -0.15)">
     <defs>
      <path d="M 2069 0 
L 2069 1097 
L 81 1097 
L 81 1613 
L 2172 4581 
L 2631 4581 
L 2631 1613 
L 3250 1613 
L 3250 1097 
L 2631 1097 
L 2631 0 
L 2069 0 
z
M 2069 1613 
L 2069 3678 
L 634 1613 
L 2069 1613 
z
" id="ArialMT-34" transform="scale(0.015625)"/>
     </defs>
     <use xlink:href="#ArialMT-32"/>
     <use x="55.615234" xlink:href="#ArialMT-34"/>
     <use x="111.230469" xlink:href="#ArialMT-2e"/>
     <use x="139.013672" xlink:href="#ArialMT-35"/>
    </g>
   </g>
   <g id="text_7">
    <!-- LWGR -->
    <g transform="translate(397.086563 217.708683)scale(0.15 -0.15)">
     <defs>
      <path d="M 469 0 
L 469 4581 
L 1075 4581 
L 1075 541 
L 3331 541 
L 3331 0 
L 469 0 
z
" id="ArialMT-4c" transform="scale(0.015625)"/>
      <path d="M 2638 1797 
L 2638 2334 
L 4578 2338 
L 4578 638 
Q 4131 281 3656 101 
Q 3181 -78 2681 -78 
Q 2006 -78 1454 211 
Q 903 500 622 1047 
Q 341 1594 341 2269 
Q 341 2938 620 3517 
Q 900 4097 1425 4378 
Q 1950 4659 2634 4659 
Q 3131 4659 3532 4498 
Q 3934 4338 4162 4050 
Q 4391 3763 4509 3300 
L 3963 3150 
Q 3859 3500 3706 3700 
Q 3553 3900 3268 4020 
Q 2984 4141 2638 4141 
Q 2222 4141 1919 4014 
Q 1616 3888 1430 3681 
Q 1244 3475 1141 3228 
Q 966 2803 966 2306 
Q 966 1694 1177 1281 
Q 1388 869 1791 669 
Q 2194 469 2647 469 
Q 3041 469 3416 620 
Q 3791 772 3984 944 
L 3984 1797 
L 2638 1797 
z
" id="ArialMT-47" transform="scale(0.015625)"/>
     </defs>
     <use xlink:href="#ArialMT-4c"/>
     <use x="48.240234" xlink:href="#ArialMT-57"/>
     <use x="142.625" xlink:href="#ArialMT-47"/>
     <use x="220.408203" xlink:href="#ArialMT-52"/>
    </g>
   </g>
   <g id="text_8">
    <!-- 8.6 -->
    <g transform="translate(313.950469 203.869514)scale(0.15 -0.15)">
     <defs>
      <path d="M 1131 2484 
Q 781 2613 612 2850 
Q 444 3088 444 3419 
Q 444 3919 803 4259 
Q 1163 4600 1759 4600 
Q 2359 4600 2725 4251 
Q 3091 3903 3091 3403 
Q 3091 3084 2923 2848 
Q 2756 2613 2416 2484 
Q 2838 2347 3058 2040 
Q 3278 1734 3278 1309 
Q 3278 722 2862 322 
Q 2447 -78 1769 -78 
Q 1091 -78 675 323 
Q 259 725 259 1325 
Q 259 1772 486 2073 
Q 713 2375 1131 2484 
z
M 1019 3438 
Q 1019 3113 1228 2906 
Q 1438 2700 1772 2700 
Q 2097 2700 2305 2904 
Q 2513 3109 2513 3406 
Q 2513 3716 2298 3927 
Q 2084 4138 1766 4138 
Q 1444 4138 1231 3931 
Q 1019 3725 1019 3438 
z
M 838 1322 
Q 838 1081 952 856 
Q 1066 631 1291 507 
Q 1516 384 1775 384 
Q 2178 384 2440 643 
Q 2703 903 2703 1303 
Q 2703 1709 2433 1975 
Q 2163 2241 1756 2241 
Q 1359 2241 1098 1978 
Q 838 1716 838 1322 
z
" id="ArialMT-38" transform="scale(0.015625)"/>
     </defs>
     <use xlink:href="#ArialMT-38"/>
     <use x="55.615234" xlink:href="#ArialMT-2e"/>
     <use x="83.398438" xlink:href="#ArialMT-36"/>
    </g>
   </g>
   <g id="text_9">
    <!-- GCR -->
    <g transform="translate(422.033614 197.798197)scale(0.15 -0.15)">
     <defs>
      <path d="M 3763 1606 
L 4369 1453 
Q 4178 706 3683 314 
Q 3188 -78 2472 -78 
Q 1731 -78 1267 223 
Q 803 525 561 1097 
Q 319 1669 319 2325 
Q 319 3041 592 3573 
Q 866 4106 1370 4382 
Q 1875 4659 2481 4659 
Q 3169 4659 3637 4309 
Q 4106 3959 4291 3325 
L 3694 3184 
Q 3534 3684 3231 3912 
Q 2928 4141 2469 4141 
Q 1941 4141 1586 3887 
Q 1231 3634 1087 3207 
Q 944 2781 944 2328 
Q 944 1744 1114 1308 
Q 1284 872 1643 656 
Q 2003 441 2422 441 
Q 2931 441 3284 734 
Q 3638 1028 3763 1606 
z
" id="ArialMT-43" transform="scale(0.015625)"/>
     </defs>
     <use xlink:href="#ArialMT-47"/>
     <use x="77.783203" xlink:href="#ArialMT-43"/>
     <use x="150" xlink:href="#ArialMT-52"/>
    </g>
   </g>
   <g id="text_10">
    <!-- 6.1 -->
    <g transform="translate(337.778334 192.552684)scale(0.15 -0.15)">
     <use xlink:href="#ArialMT-36"/>
     <use x="55.615234" xlink:href="#ArialMT-2e"/>
     <use x="83.398438" xlink:href="#ArialMT-31"/>
    </g>
   </g>
   <g id="text_11">
    <!-- FBR -->
    <g transform="translate(452.146528 185.753393)scale(0.15 -0.15)">
     <defs>
      <path d="M 525 0 
L 525 4581 
L 3616 4581 
L 3616 4041 
L 1131 4041 
L 1131 2622 
L 3281 2622 
L 3281 2081 
L 1131 2081 
L 1131 0 
L 525 0 
z
" id="ArialMT-46" transform="scale(0.015625)"/>
     </defs>
     <use xlink:href="#ArialMT-46"/>
     <use x="61.083984" xlink:href="#ArialMT-42"/>
     <use x="127.783203" xlink:href="#ArialMT-52"/>
    </g>
   </g>
   <g id="text_12">
    <!-- 1.4 -->
    <g transform="translate(367.709747 184.927571)scale(0.15 -0.15)">
     <use xlink:href="#ArialMT-31"/>
     <use x="55.615234" xlink:href="#ArialMT-2e"/>
     <use x="83.398438" xlink:href="#ArialMT-34"/>
    </g>
   </g>
   <g id="legend_1">
    <g id="patch_8">
     <path d="M 381.566833 155.507812 
L 475.39652 155.507812 
Q 478.39652 155.507812 478.39652 152.507812 
L 478.39652 26.7 
Q 478.39652 23.7 475.39652 23.7 
L 381.566833 23.7 
Q 378.566833 23.7 378.566833 26.7 
L 378.566833 152.507812 
Q 378.566833 155.507812 381.566833 155.507812 
z
" style="fill:#ffffff;opacity:0.8;stroke:#cccccc;stroke-linejoin:miter;"/>
    </g>
    <g id="patch_9">
     <path d="M 384.566833 40.436719 
L 414.566833 40.436719 
L 414.566833 29.936719 
L 384.566833 29.936719 
z
" style="fill:#3c3c4c;"/>
    </g>
    <g id="text_13">
     <!-- PWR -->
     <g transform="translate(426.566833 40.436719)scale(0.15 -0.15)">
      <use xlink:href="#ArialMT-50"/>
      <use x="66.699219" xlink:href="#ArialMT-57"/>
      <use x="161.083984" xlink:href="#ArialMT-52"/>
     </g>
    </g>
    <g id="patch_10">
     <path d="M 384.566833 61.654687 
L 414.566833 61.654687 
L 414.566833 51.154687 
L 384.566833 51.154687 
z
" style="fill:#965f77;"/>
    </g>
    <g id="text_14">
     <!-- BWR -->
     <g transform="translate(426.566833 61.654687)scale(0.15 -0.15)">
      <use xlink:href="#ArialMT-42"/>
      <use x="66.699219" xlink:href="#ArialMT-57"/>
      <use x="161.083984" xlink:href="#ArialMT-52"/>
     </g>
    </g>
    <g id="patch_11">
     <path d="M 384.566833 82.872656 
L 414.566833 82.872656 
L 414.566833 72.372656 
L 384.566833 72.372656 
z
" style="fill:#b4a0aa;"/>
    </g>
    <g id="text_15">
     <!-- PHWR -->
     <g transform="translate(426.566833 82.872656)scale(0.15 -0.15)">
      <use xlink:href="#ArialMT-50"/>
      <use x="66.699219" xlink:href="#ArialMT-48"/>
      <use x="138.916016" xlink:href="#ArialMT-57"/>
      <use x="233.300781" xlink:href="#ArialMT-52"/>
     </g>
    </g>
    <g id="patch_12">
     <path d="M 384.566833 104.090625 
L 414.566833 104.090625 
L 414.566833 93.590625 
L 384.566833 93.590625 
z
" style="fill:#d8c2cb;"/>
    </g>
    <g id="text_16">
     <!-- LWGR -->
     <g transform="translate(426.566833 104.090625)scale(0.15 -0.15)">
      <use xlink:href="#ArialMT-4c"/>
      <use x="48.240234" xlink:href="#ArialMT-57"/>
      <use x="142.625" xlink:href="#ArialMT-47"/>
      <use x="220.408203" xlink:href="#ArialMT-52"/>
     </g>
    </g>
    <g id="patch_13">
     <path d="M 384.566833 125.308594 
L 414.566833 125.308594 
L 414.566833 114.808594 
L 384.566833 114.808594 
z
" style="fill:#fed542;"/>
    </g>
    <g id="text_17">
     <!-- GCR -->
     <g transform="translate(426.566833 125.308594)scale(0.15 -0.15)">
      <use xlink:href="#ArialMT-47"/>
      <use x="77.783203" xlink:href="#ArialMT-43"/>
      <use x="150" xlink:href="#ArialMT-52"/>
     </g>
    </g>
    <g id="patch_14">
     <path d="M 384.566833 146.526562 
L 414.566833 146.526562 
L 414.566833 136.026562 
L 384.566833 136.026562 
z
" style="fill:#fed5c4;"/>
    </g>
    <g id="text_18">
     <!-- FBR -->
     <g transform="translate(426.566833 146.526562)scale(0.15 -0.15)">
      <use xlink:href="#ArialMT-46"/>
      <use x="61.083984" xlink:href="#ArialMT-42"/>
      <use x="127.783203" xlink:href="#ArialMT-52"/>
     </g>
    </g>
   </g>
  </g>
 </g>
</svg>
