<?xml version="1.0" encoding="utf-8" standalone="no"?>
<!DOCTYPE svg PUBLIC "-//W3C//DTD SVG 1.1//EN"
  "http://www.w3.org/Graphics/SVG/1.1/DTD/svg11.dtd">
<svg height="216pt" version="1.1" viewBox="0 0 288 216" width="288pt" xmlns="http://www.w3.org/2000/svg" xmlns:xlink="http://www.w3.org/1999/xlink">
 <metadata>
  <rdf:RDF xmlns:cc="http://creativecommons.org/ns#" xmlns:dc="http://purl.org/dc/elements/1.1/" xmlns:rdf="http://www.w3.org/1999/02/22-rdf-syntax-ns#">
   <cc:Work>
    <dc:type rdf:resource="http://purl.org/dc/dcmitype/StillImage"/>
    <dc:date>2022-01-26T16:00:14.724072</dc:date>
    <dc:format>image/svg+xml</dc:format>
    <dc:creator>
     <cc:Agent>
      <dc:title>Matplotlib v3.4.3, https://matplotlib.org/</dc:title>
     </cc:Agent>
    </dc:creator>
   </cc:Work>
  </rdf:RDF>
 </metadata>
 <defs>
  <style type="text/css">*{stroke-linecap:butt;stroke-linejoin:round;}</style>
 </defs>
 <g id="figure_1">
  <g id="patch_1">
   <path d="M 0 216 
L 288 216 
L 288 0 
L 0 0 
z
" style="fill:#ffffff;"/>
  </g>
  <g id="axes_1">
   <g id="patch_2">
    <path d="M 31.66 179.12 
L 271.8 179.12 
L 271.8 16.2 
L 31.66 16.2 
z
" style="fill:#ffffff;"/>
   </g>
   <g id="matplotlib.axis_1">
    <g id="xtick_1">
     <g id="line2d_1">
      <path clip-path="url(#pa0ff95a1bb)" d="M 42.575455 179.12 
L 42.575455 16.2 
" style="fill:none;stroke:#b0b0b0;stroke-dasharray:0.8,1.32;stroke-dashoffset:0;stroke-width:0.8;"/>
     </g>
     <g id="line2d_2">
      <defs>
       <path d="M 0 0 
L 0 -3.5 
" id="mbacf4472d6" style="stroke:#000000;stroke-width:0.8;"/>
      </defs>
      <g>
       <use style="stroke:#000000;stroke-width:0.8;" x="42.575455" xlink:href="#mbacf4472d6" y="179.12"/>
      </g>
     </g>
     <g id="text_1">
      <!-- −3 -->
      <g transform="translate(34.024283 193.356719)scale(0.15 -0.15)">
       <defs>
        <path d="M 3381 1997 
L 356 1997 
L 356 2522 
L 3381 2522 
L 3381 1997 
z
" id="ArialMT-2212" transform="scale(0.015625)"/>
        <path d="M 269 1209 
L 831 1284 
Q 928 806 1161 595 
Q 1394 384 1728 384 
Q 2125 384 2398 659 
Q 2672 934 2672 1341 
Q 2672 1728 2419 1979 
Q 2166 2231 1775 2231 
Q 1616 2231 1378 2169 
L 1441 2663 
Q 1497 2656 1531 2656 
Q 1891 2656 2178 2843 
Q 2466 3031 2466 3422 
Q 2466 3731 2256 3934 
Q 2047 4138 1716 4138 
Q 1388 4138 1169 3931 
Q 950 3725 888 3313 
L 325 3413 
Q 428 3978 793 4289 
Q 1159 4600 1703 4600 
Q 2078 4600 2393 4439 
Q 2709 4278 2876 4000 
Q 3044 3722 3044 3409 
Q 3044 3113 2884 2869 
Q 2725 2625 2413 2481 
Q 2819 2388 3044 2092 
Q 3269 1797 3269 1353 
Q 3269 753 2831 336 
Q 2394 -81 1725 -81 
Q 1122 -81 723 278 
Q 325 638 269 1209 
z
" id="ArialMT-33" transform="scale(0.015625)"/>
       </defs>
       <use xlink:href="#ArialMT-2212"/>
       <use x="58.398438" xlink:href="#ArialMT-33"/>
      </g>
     </g>
    </g>
    <g id="xtick_2">
     <g id="line2d_3">
      <path clip-path="url(#pa0ff95a1bb)" d="M 78.960303 179.12 
L 78.960303 16.2 
" style="fill:none;stroke:#b0b0b0;stroke-dasharray:0.8,1.32;stroke-dashoffset:0;stroke-width:0.8;"/>
     </g>
     <g id="line2d_4">
      <g>
       <use style="stroke:#000000;stroke-width:0.8;" x="78.960303" xlink:href="#mbacf4472d6" y="179.12"/>
      </g>
     </g>
     <g id="text_2">
      <!-- −2 -->
      <g transform="translate(70.409131 193.356719)scale(0.15 -0.15)">
       <defs>
        <path d="M 3222 541 
L 3222 0 
L 194 0 
Q 188 203 259 391 
Q 375 700 629 1000 
Q 884 1300 1366 1694 
Q 2113 2306 2375 2664 
Q 2638 3022 2638 3341 
Q 2638 3675 2398 3904 
Q 2159 4134 1775 4134 
Q 1369 4134 1125 3890 
Q 881 3647 878 3216 
L 300 3275 
Q 359 3922 746 4261 
Q 1134 4600 1788 4600 
Q 2447 4600 2831 4234 
Q 3216 3869 3216 3328 
Q 3216 3053 3103 2787 
Q 2991 2522 2730 2228 
Q 2469 1934 1863 1422 
Q 1356 997 1212 845 
Q 1069 694 975 541 
L 3222 541 
z
" id="ArialMT-32" transform="scale(0.015625)"/>
       </defs>
       <use xlink:href="#ArialMT-2212"/>
       <use x="58.398438" xlink:href="#ArialMT-32"/>
      </g>
     </g>
    </g>
    <g id="xtick_3">
     <g id="line2d_5">
      <path clip-path="url(#pa0ff95a1bb)" d="M 115.345152 179.12 
L 115.345152 16.2 
" style="fill:none;stroke:#b0b0b0;stroke-dasharray:0.8,1.32;stroke-dashoffset:0;stroke-width:0.8;"/>
     </g>
     <g id="line2d_6">
      <g>
       <use style="stroke:#000000;stroke-width:0.8;" x="115.345152" xlink:href="#mbacf4472d6" y="179.12"/>
      </g>
     </g>
     <g id="text_3">
      <!-- −1 -->
      <g transform="translate(106.79398 193.356719)scale(0.15 -0.15)">
       <defs>
        <path d="M 2384 0 
L 1822 0 
L 1822 3584 
Q 1619 3391 1289 3197 
Q 959 3003 697 2906 
L 697 3450 
Q 1169 3672 1522 3987 
Q 1875 4303 2022 4600 
L 2384 4600 
L 2384 0 
z
" id="ArialMT-31" transform="scale(0.015625)"/>
       </defs>
       <use xlink:href="#ArialMT-2212"/>
       <use x="58.398438" xlink:href="#ArialMT-31"/>
      </g>
     </g>
    </g>
    <g id="xtick_4">
     <g id="line2d_7">
      <path clip-path="url(#pa0ff95a1bb)" d="M 151.73 179.12 
L 151.73 16.2 
" style="fill:none;stroke:#b0b0b0;stroke-dasharray:0.8,1.32;stroke-dashoffset:0;stroke-width:0.8;"/>
     </g>
     <g id="line2d_8">
      <g>
       <use style="stroke:#000000;stroke-width:0.8;" x="151.73" xlink:href="#mbacf4472d6" y="179.12"/>
      </g>
     </g>
     <g id="text_4">
      <!-- 0 -->
      <g transform="translate(147.559297 193.356719)scale(0.15 -0.15)">
       <defs>
        <path d="M 266 2259 
Q 266 3072 433 3567 
Q 600 4063 929 4331 
Q 1259 4600 1759 4600 
Q 2128 4600 2406 4451 
Q 2684 4303 2865 4023 
Q 3047 3744 3150 3342 
Q 3253 2941 3253 2259 
Q 3253 1453 3087 958 
Q 2922 463 2592 192 
Q 2263 -78 1759 -78 
Q 1097 -78 719 397 
Q 266 969 266 2259 
z
M 844 2259 
Q 844 1131 1108 757 
Q 1372 384 1759 384 
Q 2147 384 2411 759 
Q 2675 1134 2675 2259 
Q 2675 3391 2411 3762 
Q 2147 4134 1753 4134 
Q 1366 4134 1134 3806 
Q 844 3388 844 2259 
z
" id="ArialMT-30" transform="scale(0.015625)"/>
       </defs>
       <use xlink:href="#ArialMT-30"/>
      </g>
     </g>
    </g>
    <g id="xtick_5">
     <g id="line2d_9">
      <path clip-path="url(#pa0ff95a1bb)" d="M 188.114848 179.12 
L 188.114848 16.2 
" style="fill:none;stroke:#b0b0b0;stroke-dasharray:0.8,1.32;stroke-dashoffset:0;stroke-width:0.8;"/>
     </g>
     <g id="line2d_10">
      <g>
       <use style="stroke:#000000;stroke-width:0.8;" x="188.114848" xlink:href="#mbacf4472d6" y="179.12"/>
      </g>
     </g>
     <g id="text_5">
      <!-- 1 -->
      <g transform="translate(183.944145 193.356719)scale(0.15 -0.15)">
       <use xlink:href="#ArialMT-31"/>
      </g>
     </g>
    </g>
    <g id="xtick_6">
     <g id="line2d_11">
      <path clip-path="url(#pa0ff95a1bb)" d="M 224.499697 179.12 
L 224.499697 16.2 
" style="fill:none;stroke:#b0b0b0;stroke-dasharray:0.8,1.32;stroke-dashoffset:0;stroke-width:0.8;"/>
     </g>
     <g id="line2d_12">
      <g>
       <use style="stroke:#000000;stroke-width:0.8;" x="224.499697" xlink:href="#mbacf4472d6" y="179.12"/>
      </g>
     </g>
     <g id="text_6">
      <!-- 2 -->
      <g transform="translate(220.328994 193.356719)scale(0.15 -0.15)">
       <use xlink:href="#ArialMT-32"/>
      </g>
     </g>
    </g>
    <g id="xtick_7">
     <g id="line2d_13">
      <path clip-path="url(#pa0ff95a1bb)" d="M 260.884545 179.12 
L 260.884545 16.2 
" style="fill:none;stroke:#b0b0b0;stroke-dasharray:0.8,1.32;stroke-dashoffset:0;stroke-width:0.8;"/>
     </g>
     <g id="line2d_14">
      <g>
       <use style="stroke:#000000;stroke-width:0.8;" x="260.884545" xlink:href="#mbacf4472d6" y="179.12"/>
      </g>
     </g>
     <g id="text_7">
      <!-- 3 -->
      <g transform="translate(256.713842 193.356719)scale(0.15 -0.15)">
       <use xlink:href="#ArialMT-33"/>
      </g>
     </g>
    </g>
    <g id="text_8">
     <!-- x -->
     <g transform="translate(147.98 211.074687)scale(0.15 -0.15)">
      <defs>
       <path d="M 47 0 
L 1259 1725 
L 138 3319 
L 841 3319 
L 1350 2541 
Q 1494 2319 1581 2169 
Q 1719 2375 1834 2534 
L 2394 3319 
L 3066 3319 
L 1919 1756 
L 3153 0 
L 2463 0 
L 1781 1031 
L 1600 1309 
L 728 0 
L 47 0 
z
" id="ArialMT-78" transform="scale(0.015625)"/>
      </defs>
      <use xlink:href="#ArialMT-78"/>
     </g>
    </g>
   </g>
   <g id="matplotlib.axis_2">
    <g id="ytick_1">
     <g id="line2d_15">
      <path clip-path="url(#pa0ff95a1bb)" d="M 31.66 163.773378 
L 271.8 163.773378 
" style="fill:none;stroke:#b0b0b0;stroke-dasharray:0.8,1.32;stroke-dashoffset:0;stroke-width:0.8;"/>
     </g>
     <g id="line2d_16">
      <defs>
       <path d="M 0 0 
L 3.5 0 
" id="mb192765275" style="stroke:#000000;stroke-width:0.8;"/>
      </defs>
      <g>
       <use style="stroke:#000000;stroke-width:0.8;" x="31.66" xlink:href="#mb192765275" y="163.773378"/>
      </g>
     </g>
     <g id="text_9">
      <!-- 0 -->
      <g transform="translate(19.818594 169.141737)scale(0.15 -0.15)">
       <use xlink:href="#ArialMT-30"/>
      </g>
     </g>
    </g>
    <g id="ytick_2">
     <g id="line2d_17">
      <path clip-path="url(#pa0ff95a1bb)" d="M 31.66 117.050737 
L 271.8 117.050737 
" style="fill:none;stroke:#b0b0b0;stroke-dasharray:0.8,1.32;stroke-dashoffset:0;stroke-width:0.8;"/>
     </g>
     <g id="line2d_18">
      <g>
       <use style="stroke:#000000;stroke-width:0.8;" x="31.66" xlink:href="#mb192765275" y="117.050737"/>
      </g>
     </g>
     <g id="text_10">
      <!-- 1 -->
      <g transform="translate(19.818594 122.419096)scale(0.15 -0.15)">
       <use xlink:href="#ArialMT-31"/>
      </g>
     </g>
    </g>
    <g id="ytick_3">
     <g id="line2d_19">
      <path clip-path="url(#pa0ff95a1bb)" d="M 31.66 70.328096 
L 271.8 70.328096 
" style="fill:none;stroke:#b0b0b0;stroke-dasharray:0.8,1.32;stroke-dashoffset:0;stroke-width:0.8;"/>
     </g>
     <g id="line2d_20">
      <g>
       <use style="stroke:#000000;stroke-width:0.8;" x="31.66" xlink:href="#mb192765275" y="70.328096"/>
      </g>
     </g>
     <g id="text_11">
      <!-- 2 -->
      <g transform="translate(19.818594 75.696455)scale(0.15 -0.15)">
       <use xlink:href="#ArialMT-32"/>
      </g>
     </g>
    </g>
    <g id="ytick_4">
     <g id="line2d_21">
      <path clip-path="url(#pa0ff95a1bb)" d="M 31.66 23.605455 
L 271.8 23.605455 
" style="fill:none;stroke:#b0b0b0;stroke-dasharray:0.8,1.32;stroke-dashoffset:0;stroke-width:0.8;"/>
     </g>
     <g id="line2d_22">
      <g>
       <use style="stroke:#000000;stroke-width:0.8;" x="31.66" xlink:href="#mb192765275" y="23.605455"/>
      </g>
     </g>
     <g id="text_12">
      <!-- 3 -->
      <g transform="translate(19.818594 28.973814)scale(0.15 -0.15)">
       <use xlink:href="#ArialMT-33"/>
      </g>
     </g>
    </g>
    <g id="text_13">
     <!-- f(x) -->
     <g transform="translate(12.661562 108.488125)rotate(-90)scale(0.15 -0.15)">
      <defs>
       <path d="M 556 0 
L 556 2881 
L 59 2881 
L 59 3319 
L 556 3319 
L 556 3672 
Q 556 4006 616 4169 
Q 697 4388 901 4523 
Q 1106 4659 1475 4659 
Q 1713 4659 2000 4603 
L 1916 4113 
Q 1741 4144 1584 4144 
Q 1328 4144 1222 4034 
Q 1116 3925 1116 3625 
L 1116 3319 
L 1763 3319 
L 1763 2881 
L 1116 2881 
L 1116 0 
L 556 0 
z
" id="ArialMT-66" transform="scale(0.015625)"/>
       <path d="M 1497 -1347 
Q 1031 -759 709 28 
Q 388 816 388 1659 
Q 388 2403 628 3084 
Q 909 3875 1497 4659 
L 1900 4659 
Q 1522 4009 1400 3731 
Q 1209 3300 1100 2831 
Q 966 2247 966 1656 
Q 966 153 1900 -1347 
L 1497 -1347 
z
" id="ArialMT-28" transform="scale(0.015625)"/>
       <path d="M 791 -1347 
L 388 -1347 
Q 1322 153 1322 1656 
Q 1322 2244 1188 2822 
Q 1081 3291 891 3722 
Q 769 4003 388 4659 
L 791 4659 
Q 1378 3875 1659 3084 
Q 1900 2403 1900 1659 
Q 1900 816 1576 28 
Q 1253 -759 791 -1347 
z
" id="ArialMT-29" transform="scale(0.015625)"/>
      </defs>
      <use xlink:href="#ArialMT-66"/>
      <use x="27.783203" xlink:href="#ArialMT-28"/>
      <use x="61.083984" xlink:href="#ArialMT-78"/>
      <use x="111.083984" xlink:href="#ArialMT-29"/>
     </g>
    </g>
   </g>
   <g id="line2d_23">
    <path clip-path="url(#pa0ff95a1bb)" d="M 42.575455 163.773378 
L 44.780597 163.773378 
L 46.985739 163.773378 
L 49.190882 163.773378 
L 51.396024 163.773378 
L 53.601166 163.773378 
L 55.806309 163.773378 
L 58.011451 163.773378 
L 60.216593 163.773378 
L 62.421736 163.773378 
L 64.626878 163.773378 
L 66.83202 163.773378 
L 69.037163 163.773378 
L 71.242305 163.773378 
L 73.447447 163.773378 
L 75.65259 163.773378 
L 77.857732 163.773378 
L 80.062874 163.773378 
L 82.268017 163.773378 
L 84.473159 163.773378 
L 86.678301 163.773378 
L 88.883444 163.773378 
L 91.088586 163.773378 
L 93.293728 163.773378 
L 95.498871 163.773378 
L 97.704013 163.773378 
L 99.909155 163.773378 
L 102.114298 163.773378 
L 104.31944 163.773378 
L 106.524582 163.773378 
L 108.729725 163.773378 
L 110.934867 163.773378 
L 113.140009 163.773378 
L 115.345152 163.773378 
L 117.550294 163.773378 
L 119.755436 163.773378 
L 121.960579 163.773378 
L 124.165721 163.773378 
L 126.370863 163.773378 
L 128.576006 163.773378 
L 130.781148 163.773378 
L 132.98629 163.773378 
L 135.191433 163.773378 
L 137.396575 163.773378 
L 139.601717 163.773378 
L 141.80686 163.773378 
L 144.012002 163.773378 
L 146.217144 163.773378 
L 148.422287 163.773378 
L 150.627429 163.773378 
L 152.832571 162.35754 
L 155.037713 159.525865 
L 157.242856 156.69419 
L 159.447998 153.862515 
L 161.65314 151.030839 
L 163.858283 148.199164 
L 166.063425 145.367489 
L 168.268567 142.535814 
L 170.47371 139.704138 
L 172.678852 136.872463 
L 174.883994 134.040788 
L 177.089137 131.209113 
L 179.294279 128.377438 
L 181.499421 125.545762 
L 183.704564 122.714087 
L 185.909706 119.882412 
L 188.114848 117.050737 
L 190.319991 114.219062 
L 192.525133 111.387386 
L 194.730275 108.555711 
L 196.935418 105.724036 
L 199.14056 102.892361 
L 201.345702 100.060685 
L 203.550845 97.22901 
L 205.755987 94.397335 
L 207.961129 91.56566 
L 210.166272 88.733985 
L 212.371414 85.902309 
L 214.576556 83.070634 
L 216.781699 80.238959 
L 218.986841 77.407284 
L 221.191983 74.575608 
L 223.397126 71.743933 
L 225.602268 68.912258 
L 227.80741 66.080583 
L 230.012553 63.248908 
L 232.217695 60.417232 
L 234.422837 57.585557 
L 236.62798 54.753882 
L 238.833122 51.922207 
L 241.038264 49.090532 
L 243.243407 46.258856 
L 245.448549 43.427181 
L 247.653691 40.595506 
L 249.858834 37.763831 
L 252.063976 34.932155 
L 254.269118 32.10048 
L 256.474261 29.268805 
L 258.679403 26.43713 
L 260.884545 23.605455 
" style="fill:none;stroke:#1f77b4;stroke-linecap:square;stroke-width:1.5;"/>
   </g>
   <g id="line2d_24">
    <path clip-path="url(#pa0ff95a1bb)" d="M 42.575455 163.96259 
L 44.780597 163.999196 
L 46.985739 164.041853 
L 49.190882 164.091345 
L 51.396024 164.14851 
L 53.601166 164.214245 
L 55.806309 164.289492 
L 58.011451 164.375234 
L 60.216593 164.472479 
L 62.421736 164.582252 
L 64.626878 164.705574 
L 66.83202 164.84344 
L 69.037163 164.996801 
L 71.242305 165.16653 
L 73.447447 165.353399 
L 75.65259 165.55804 
L 77.857732 165.780912 
L 80.062874 166.02226 
L 82.268017 166.282081 
L 84.473159 166.560076 
L 86.678301 166.855613 
L 88.883444 167.167683 
L 91.088586 167.494864 
L 93.293728 167.835282 
L 95.498871 168.186582 
L 97.704013 168.545893 
L 99.909155 168.909815 
L 102.114298 169.274397 
L 104.31944 169.635137 
L 106.524582 169.986982 
L 108.729725 170.324342 
L 110.934867 170.641118 
L 113.140009 170.93073 
L 115.345152 171.18617 
L 117.550294 171.400059 
L 119.755436 171.564713 
L 121.960579 171.672223 
L 124.165721 171.714545 
L 126.370863 171.683592 
L 128.576006 171.571336 
L 130.781148 171.369914 
L 132.98629 171.071739 
L 135.191433 170.6696 
L 137.396575 170.156777 
L 139.601717 169.527136 
L 141.80686 168.775225 
L 144.012002 167.896359 
L 146.217144 166.886696 
L 148.422287 165.7433 
L 150.627429 164.464183 
L 152.832571 163.048345 
L 155.037713 161.495787 
L 157.242856 159.807508 
L 159.447998 157.985495 
L 161.65314 156.032686 
L 163.858283 153.952923 
L 166.063425 151.750888 
L 168.268567 149.432036 
L 170.47371 147.002499 
L 172.678852 144.469 
L 174.883994 141.838746 
L 177.089137 139.119327 
L 179.294279 136.318605 
L 181.499421 133.444608 
L 183.704564 130.505422 
L 185.909706 127.509093 
L 188.114848 124.463529 
L 190.319991 121.376414 
L 192.525133 118.255126 
L 194.730275 115.106676 
L 196.935418 111.93764 
L 199.14056 108.754119 
L 201.345702 105.561704 
L 203.550845 102.365447 
L 205.755987 99.169851 
L 207.961129 95.978864 
L 210.166272 92.795889 
L 212.371414 89.623795 
L 214.576556 86.464939 
L 216.781699 83.321194 
L 218.986841 80.193982 
L 221.191983 77.084312 
L 223.397126 73.992816 
L 225.602268 70.919792 
L 227.80741 67.865245 
L 230.012553 64.828929 
L 232.217695 61.810385 
L 234.422837 58.80898 
L 236.62798 55.823944 
L 238.833122 52.854403 
L 241.038264 49.899406 
L 243.243407 46.957957 
L 245.448549 44.029037 
L 247.653691 41.11162 
L 249.858834 38.204698 
L 252.063976 35.307288 
L 254.269118 32.418447 
L 256.474261 29.537281 
L 258.679403 26.662948 
L 260.884545 23.794667 
" style="fill:none;stroke:#ff7f0e;stroke-linecap:square;stroke-width:1.5;"/>
   </g>
   <g id="patch_3">
    <path d="M 31.66 179.12 
L 31.66 16.2 
" style="fill:none;stroke:#000000;stroke-linecap:square;stroke-linejoin:miter;stroke-width:0.8;"/>
   </g>
   <g id="patch_4">
    <path d="M 271.8 179.12 
L 271.8 16.2 
" style="fill:none;stroke:#000000;stroke-linecap:square;stroke-linejoin:miter;stroke-width:0.8;"/>
   </g>
   <g id="patch_5">
    <path d="M 31.66 179.12 
L 271.8 179.12 
" style="fill:none;stroke:#000000;stroke-linecap:square;stroke-linejoin:miter;stroke-width:0.8;"/>
   </g>
   <g id="patch_6">
    <path d="M 31.66 16.2 
L 271.8 16.2 
" style="fill:none;stroke:#000000;stroke-linecap:square;stroke-linejoin:miter;stroke-width:0.8;"/>
   </g>
   <g id="legend_1">
    <g id="patch_7">
     <path d="M 42.16 70.635937 
L 131.006875 70.635937 
Q 134.006875 70.635937 134.006875 67.635937 
L 134.006875 26.7 
Q 134.006875 23.7 131.006875 23.7 
L 42.16 23.7 
Q 39.16 23.7 39.16 26.7 
L 39.16 67.635937 
Q 39.16 70.635937 42.16 70.635937 
z
" style="fill:#ffffff;opacity:0.8;stroke:#cccccc;stroke-linejoin:miter;"/>
    </g>
    <g id="line2d_25">
     <path d="M 45.16 35.186719 
L 75.16 35.186719 
" style="fill:none;stroke:#1f77b4;stroke-linecap:square;stroke-width:1.5;"/>
    </g>
    <g id="line2d_26"/>
    <g id="text_14">
     <!-- ReLU -->
     <g transform="translate(87.16 40.436719)scale(0.15 -0.15)">
      <defs>
       <path d="M 503 0 
L 503 4581 
L 2534 4581 
Q 3147 4581 3465 4457 
Q 3784 4334 3975 4021 
Q 4166 3709 4166 3331 
Q 4166 2844 3850 2509 
Q 3534 2175 2875 2084 
Q 3116 1969 3241 1856 
Q 3506 1613 3744 1247 
L 4541 0 
L 3778 0 
L 3172 953 
Q 2906 1366 2734 1584 
Q 2563 1803 2427 1890 
Q 2291 1978 2150 2013 
Q 2047 2034 1813 2034 
L 1109 2034 
L 1109 0 
L 503 0 
z
M 1109 2559 
L 2413 2559 
Q 2828 2559 3062 2645 
Q 3297 2731 3419 2920 
Q 3541 3109 3541 3331 
Q 3541 3656 3305 3865 
Q 3069 4075 2559 4075 
L 1109 4075 
L 1109 2559 
z
" id="ArialMT-52" transform="scale(0.015625)"/>
       <path d="M 2694 1069 
L 3275 997 
Q 3138 488 2766 206 
Q 2394 -75 1816 -75 
Q 1088 -75 661 373 
Q 234 822 234 1631 
Q 234 2469 665 2931 
Q 1097 3394 1784 3394 
Q 2450 3394 2872 2941 
Q 3294 2488 3294 1666 
Q 3294 1616 3291 1516 
L 816 1516 
Q 847 969 1125 678 
Q 1403 388 1819 388 
Q 2128 388 2347 550 
Q 2566 713 2694 1069 
z
M 847 1978 
L 2700 1978 
Q 2663 2397 2488 2606 
Q 2219 2931 1791 2931 
Q 1403 2931 1139 2672 
Q 875 2413 847 1978 
z
" id="ArialMT-65" transform="scale(0.015625)"/>
       <path d="M 469 0 
L 469 4581 
L 1075 4581 
L 1075 541 
L 3331 541 
L 3331 0 
L 469 0 
z
" id="ArialMT-4c" transform="scale(0.015625)"/>
       <path d="M 3500 4581 
L 4106 4581 
L 4106 1934 
Q 4106 1244 3950 837 
Q 3794 431 3386 176 
Q 2978 -78 2316 -78 
Q 1672 -78 1262 144 
Q 853 366 678 786 
Q 503 1206 503 1934 
L 503 4581 
L 1109 4581 
L 1109 1938 
Q 1109 1341 1220 1058 
Q 1331 775 1601 622 
Q 1872 469 2263 469 
Q 2931 469 3215 772 
Q 3500 1075 3500 1938 
L 3500 4581 
z
" id="ArialMT-55" transform="scale(0.015625)"/>
      </defs>
      <use xlink:href="#ArialMT-52"/>
      <use x="72.216797" xlink:href="#ArialMT-65"/>
      <use x="127.832031" xlink:href="#ArialMT-4c"/>
      <use x="183.447266" xlink:href="#ArialMT-55"/>
     </g>
    </g>
    <g id="line2d_27">
     <path d="M 45.16 56.404687 
L 75.16 56.404687 
" style="fill:none;stroke:#ff7f0e;stroke-linecap:square;stroke-width:1.5;"/>
    </g>
    <g id="line2d_28"/>
    <g id="text_15">
     <!-- GELU -->
     <g transform="translate(87.16 61.654687)scale(0.15 -0.15)">
      <defs>
       <path d="M 2638 1797 
L 2638 2334 
L 4578 2338 
L 4578 638 
Q 4131 281 3656 101 
Q 3181 -78 2681 -78 
Q 2006 -78 1454 211 
Q 903 500 622 1047 
Q 341 1594 341 2269 
Q 341 2938 620 3517 
Q 900 4097 1425 4378 
Q 1950 4659 2634 4659 
Q 3131 4659 3532 4498 
Q 3934 4338 4162 4050 
Q 4391 3763 4509 3300 
L 3963 3150 
Q 3859 3500 3706 3700 
Q 3553 3900 3268 4020 
Q 2984 4141 2638 4141 
Q 2222 4141 1919 4014 
Q 1616 3888 1430 3681 
Q 1244 3475 1141 3228 
Q 966 2803 966 2306 
Q 966 1694 1177 1281 
Q 1388 869 1791 669 
Q 2194 469 2647 469 
Q 3041 469 3416 620 
Q 3791 772 3984 944 
L 3984 1797 
L 2638 1797 
z
" id="ArialMT-47" transform="scale(0.015625)"/>
       <path d="M 506 0 
L 506 4581 
L 3819 4581 
L 3819 4041 
L 1113 4041 
L 1113 2638 
L 3647 2638 
L 3647 2100 
L 1113 2100 
L 1113 541 
L 3925 541 
L 3925 0 
L 506 0 
z
" id="ArialMT-45" transform="scale(0.015625)"/>
      </defs>
      <use xlink:href="#ArialMT-47"/>
      <use x="77.783203" xlink:href="#ArialMT-45"/>
      <use x="144.482422" xlink:href="#ArialMT-4c"/>
      <use x="200.097656" xlink:href="#ArialMT-55"/>
     </g>
    </g>
   </g>
  </g>
 </g>
 <defs>
  <clipPath id="pa0ff95a1bb">
   <rect height="162.92" width="240.14" x="31.66" y="16.2"/>
  </clipPath>
 </defs>
</svg>
