<?xml version="1.0" encoding="utf-8" standalone="no"?>
<!DOCTYPE svg PUBLIC "-//W3C//DTD SVG 1.1//EN"
  "http://www.w3.org/Graphics/SVG/1.1/DTD/svg11.dtd">
<svg height="504pt" version="1.1" viewBox="0 0 720 504" width="720pt" xmlns="http://www.w3.org/2000/svg" xmlns:xlink="http://www.w3.org/1999/xlink">
 <metadata>
  <rdf:RDF xmlns:cc="http://creativecommons.org/ns#" xmlns:dc="http://purl.org/dc/elements/1.1/" xmlns:rdf="http://www.w3.org/1999/02/22-rdf-syntax-ns#">
   <cc:Work>
    <dc:type rdf:resource="http://purl.org/dc/dcmitype/StillImage"/>
    <dc:date>2021-11-24T23:32:33.936173</dc:date>
    <dc:format>image/svg+xml</dc:format>
    <dc:creator>
     <cc:Agent>
      <dc:title>Matplotlib v3.4.3, https://matplotlib.org/</dc:title>
     </cc:Agent>
    </dc:creator>
   </cc:Work>
  </rdf:RDF>
 </metadata>
 <defs>
  <style type="text/css">*{stroke-linecap:butt;stroke-linejoin:round;}</style>
 </defs>
 <g id="figure_1">
  <g id="patch_1">
   <path d="M 0 504 
L 720 504 
L 720 0 
L 0 0 
z
" style="fill:#ffffff;"/>
  </g>
  <g id="axes_1">
   <g id="patch_2">
    <path d="M 63.3 456.54 
L 693.798462 456.54 
L 693.798462 19.08 
L 63.3 19.08 
z
" style="fill:#ffffff;"/>
   </g>
   <g id="matplotlib.axis_1">
    <g id="xtick_1">
     <g id="line2d_1">
      <defs>
       <path d="M 0 0 
L 0 -3.5 
" id="m7de86fcbb9" style="stroke:#000000;stroke-width:0.8;"/>
      </defs>
      <g>
       <use style="stroke:#000000;stroke-width:0.8;" x="91.720096" xlink:href="#m7de86fcbb9" y="456.54"/>
      </g>
     </g>
     <g id="text_1">
      <!-- 0 -->
      <g transform="translate(87.584471 469.917969)scale(0.13 -0.13)">
       <defs>
        <path d="M 2034 4250 
Q 1547 4250 1301 3770 
Q 1056 3291 1056 2328 
Q 1056 1369 1301 889 
Q 1547 409 2034 409 
Q 2525 409 2770 889 
Q 3016 1369 3016 2328 
Q 3016 3291 2770 3770 
Q 2525 4250 2034 4250 
z
M 2034 4750 
Q 2819 4750 3233 4129 
Q 3647 3509 3647 2328 
Q 3647 1150 3233 529 
Q 2819 -91 2034 -91 
Q 1250 -91 836 529 
Q 422 1150 422 2328 
Q 422 3509 836 4129 
Q 1250 4750 2034 4750 
z
" id="DejaVuSans-30" transform="scale(0.015625)"/>
       </defs>
       <use xlink:href="#DejaVuSans-30"/>
      </g>
     </g>
    </g>
    <g id="xtick_2">
     <g id="line2d_2">
      <g>
       <use style="stroke:#000000;stroke-width:0.8;" x="211.18246" xlink:href="#m7de86fcbb9" y="456.54"/>
      </g>
     </g>
     <g id="text_2">
      <!-- 500 -->
      <g transform="translate(198.775585 469.917969)scale(0.13 -0.13)">
       <defs>
        <path d="M 691 4666 
L 3169 4666 
L 3169 4134 
L 1269 4134 
L 1269 2991 
Q 1406 3038 1543 3061 
Q 1681 3084 1819 3084 
Q 2600 3084 3056 2656 
Q 3513 2228 3513 1497 
Q 3513 744 3044 326 
Q 2575 -91 1722 -91 
Q 1428 -91 1123 -41 
Q 819 9 494 109 
L 494 744 
Q 775 591 1075 516 
Q 1375 441 1709 441 
Q 2250 441 2565 725 
Q 2881 1009 2881 1497 
Q 2881 1984 2565 2268 
Q 2250 2553 1709 2553 
Q 1456 2553 1204 2497 
Q 953 2441 691 2322 
L 691 4666 
z
" id="DejaVuSans-35" transform="scale(0.015625)"/>
       </defs>
       <use xlink:href="#DejaVuSans-35"/>
       <use x="63.623047" xlink:href="#DejaVuSans-30"/>
       <use x="127.246094" xlink:href="#DejaVuSans-30"/>
      </g>
     </g>
    </g>
    <g id="xtick_3">
     <g id="line2d_3">
      <g>
       <use style="stroke:#000000;stroke-width:0.8;" x="330.644823" xlink:href="#m7de86fcbb9" y="456.54"/>
      </g>
     </g>
     <g id="text_3">
      <!-- 1000 -->
      <g transform="translate(314.102323 469.917969)scale(0.13 -0.13)">
       <defs>
        <path d="M 794 531 
L 1825 531 
L 1825 4091 
L 703 3866 
L 703 4441 
L 1819 4666 
L 2450 4666 
L 2450 531 
L 3481 531 
L 3481 0 
L 794 0 
L 794 531 
z
" id="DejaVuSans-31" transform="scale(0.015625)"/>
       </defs>
       <use xlink:href="#DejaVuSans-31"/>
       <use x="63.623047" xlink:href="#DejaVuSans-30"/>
       <use x="127.246094" xlink:href="#DejaVuSans-30"/>
       <use x="190.869141" xlink:href="#DejaVuSans-30"/>
      </g>
     </g>
    </g>
    <g id="xtick_4">
     <g id="line2d_4">
      <g>
       <use style="stroke:#000000;stroke-width:0.8;" x="450.107187" xlink:href="#m7de86fcbb9" y="456.54"/>
      </g>
     </g>
     <g id="text_4">
      <!-- 1500 -->
      <g transform="translate(433.564687 469.917969)scale(0.13 -0.13)">
       <use xlink:href="#DejaVuSans-31"/>
       <use x="63.623047" xlink:href="#DejaVuSans-35"/>
       <use x="127.246094" xlink:href="#DejaVuSans-30"/>
       <use x="190.869141" xlink:href="#DejaVuSans-30"/>
      </g>
     </g>
    </g>
    <g id="xtick_5">
     <g id="line2d_5">
      <g>
       <use style="stroke:#000000;stroke-width:0.8;" x="569.56955" xlink:href="#m7de86fcbb9" y="456.54"/>
      </g>
     </g>
     <g id="text_5">
      <!-- 2000 -->
      <g transform="translate(553.02705 469.917969)scale(0.13 -0.13)">
       <defs>
        <path d="M 1228 531 
L 3431 531 
L 3431 0 
L 469 0 
L 469 531 
Q 828 903 1448 1529 
Q 2069 2156 2228 2338 
Q 2531 2678 2651 2914 
Q 2772 3150 2772 3378 
Q 2772 3750 2511 3984 
Q 2250 4219 1831 4219 
Q 1534 4219 1204 4116 
Q 875 4013 500 3803 
L 500 4441 
Q 881 4594 1212 4672 
Q 1544 4750 1819 4750 
Q 2544 4750 2975 4387 
Q 3406 4025 3406 3419 
Q 3406 3131 3298 2873 
Q 3191 2616 2906 2266 
Q 2828 2175 2409 1742 
Q 1991 1309 1228 531 
z
" id="DejaVuSans-32" transform="scale(0.015625)"/>
       </defs>
       <use xlink:href="#DejaVuSans-32"/>
       <use x="63.623047" xlink:href="#DejaVuSans-30"/>
       <use x="127.246094" xlink:href="#DejaVuSans-30"/>
       <use x="190.869141" xlink:href="#DejaVuSans-30"/>
      </g>
     </g>
    </g>
    <g id="xtick_6">
     <g id="line2d_6">
      <g>
       <use style="stroke:#000000;stroke-width:0.8;" x="689.031914" xlink:href="#m7de86fcbb9" y="456.54"/>
      </g>
     </g>
     <g id="text_6">
      <!-- 2500 -->
      <g transform="translate(672.489414 469.917969)scale(0.13 -0.13)">
       <use xlink:href="#DejaVuSans-32"/>
       <use x="63.623047" xlink:href="#DejaVuSans-35"/>
       <use x="127.246094" xlink:href="#DejaVuSans-30"/>
       <use x="190.869141" xlink:href="#DejaVuSans-30"/>
      </g>
     </g>
    </g>
    <g id="text_7">
     <!-- Batch -->
     <g transform="translate(359.864778 486.499531)scale(0.13 -0.13)">
      <defs>
       <path d="M 1259 2228 
L 1259 519 
L 2272 519 
Q 2781 519 3026 730 
Q 3272 941 3272 1375 
Q 3272 1813 3026 2020 
Q 2781 2228 2272 2228 
L 1259 2228 
z
M 1259 4147 
L 1259 2741 
L 2194 2741 
Q 2656 2741 2882 2914 
Q 3109 3088 3109 3444 
Q 3109 3797 2882 3972 
Q 2656 4147 2194 4147 
L 1259 4147 
z
M 628 4666 
L 2241 4666 
Q 2963 4666 3353 4366 
Q 3744 4066 3744 3513 
Q 3744 3084 3544 2831 
Q 3344 2578 2956 2516 
Q 3422 2416 3680 2098 
Q 3938 1781 3938 1306 
Q 3938 681 3513 340 
Q 3088 0 2303 0 
L 628 0 
L 628 4666 
z
" id="DejaVuSans-42" transform="scale(0.015625)"/>
       <path d="M 2194 1759 
Q 1497 1759 1228 1600 
Q 959 1441 959 1056 
Q 959 750 1161 570 
Q 1363 391 1709 391 
Q 2188 391 2477 730 
Q 2766 1069 2766 1631 
L 2766 1759 
L 2194 1759 
z
M 3341 1997 
L 3341 0 
L 2766 0 
L 2766 531 
Q 2569 213 2275 61 
Q 1981 -91 1556 -91 
Q 1019 -91 701 211 
Q 384 513 384 1019 
Q 384 1609 779 1909 
Q 1175 2209 1959 2209 
L 2766 2209 
L 2766 2266 
Q 2766 2663 2505 2880 
Q 2244 3097 1772 3097 
Q 1472 3097 1187 3025 
Q 903 2953 641 2809 
L 641 3341 
Q 956 3463 1253 3523 
Q 1550 3584 1831 3584 
Q 2591 3584 2966 3190 
Q 3341 2797 3341 1997 
z
" id="DejaVuSans-61" transform="scale(0.015625)"/>
       <path d="M 1172 4494 
L 1172 3500 
L 2356 3500 
L 2356 3053 
L 1172 3053 
L 1172 1153 
Q 1172 725 1289 603 
Q 1406 481 1766 481 
L 2356 481 
L 2356 0 
L 1766 0 
Q 1100 0 847 248 
Q 594 497 594 1153 
L 594 3053 
L 172 3053 
L 172 3500 
L 594 3500 
L 594 4494 
L 1172 4494 
z
" id="DejaVuSans-74" transform="scale(0.015625)"/>
       <path d="M 3122 3366 
L 3122 2828 
Q 2878 2963 2633 3030 
Q 2388 3097 2138 3097 
Q 1578 3097 1268 2742 
Q 959 2388 959 1747 
Q 959 1106 1268 751 
Q 1578 397 2138 397 
Q 2388 397 2633 464 
Q 2878 531 3122 666 
L 3122 134 
Q 2881 22 2623 -34 
Q 2366 -91 2075 -91 
Q 1284 -91 818 406 
Q 353 903 353 1747 
Q 353 2603 823 3093 
Q 1294 3584 2113 3584 
Q 2378 3584 2631 3529 
Q 2884 3475 3122 3366 
z
" id="DejaVuSans-63" transform="scale(0.015625)"/>
       <path d="M 3513 2113 
L 3513 0 
L 2938 0 
L 2938 2094 
Q 2938 2591 2744 2837 
Q 2550 3084 2163 3084 
Q 1697 3084 1428 2787 
Q 1159 2491 1159 1978 
L 1159 0 
L 581 0 
L 581 4863 
L 1159 4863 
L 1159 2956 
Q 1366 3272 1645 3428 
Q 1925 3584 2291 3584 
Q 2894 3584 3203 3211 
Q 3513 2838 3513 2113 
z
" id="DejaVuSans-68" transform="scale(0.015625)"/>
      </defs>
      <use xlink:href="#DejaVuSans-42"/>
      <use x="68.603516" xlink:href="#DejaVuSans-61"/>
      <use x="129.882812" xlink:href="#DejaVuSans-74"/>
      <use x="169.091797" xlink:href="#DejaVuSans-63"/>
      <use x="224.072266" xlink:href="#DejaVuSans-68"/>
     </g>
    </g>
   </g>
   <g id="matplotlib.axis_2">
    <g id="ytick_1">
     <g id="line2d_7">
      <defs>
       <path d="M 0 0 
L 3.5 0 
" id="m1cf237aedb" style="stroke:#000000;stroke-width:0.8;"/>
      </defs>
      <g>
       <use style="stroke:#000000;stroke-width:0.8;" x="63.3" xlink:href="#m1cf237aedb" y="416.770909"/>
      </g>
     </g>
     <g id="text_8">
      <!-- 0.16 -->
      <g transform="translate(30.854688 421.709893)scale(0.13 -0.13)">
       <defs>
        <path d="M 684 794 
L 1344 794 
L 1344 0 
L 684 0 
L 684 794 
z
" id="DejaVuSans-2e" transform="scale(0.015625)"/>
        <path d="M 2113 2584 
Q 1688 2584 1439 2293 
Q 1191 2003 1191 1497 
Q 1191 994 1439 701 
Q 1688 409 2113 409 
Q 2538 409 2786 701 
Q 3034 994 3034 1497 
Q 3034 2003 2786 2293 
Q 2538 2584 2113 2584 
z
M 3366 4563 
L 3366 3988 
Q 3128 4100 2886 4159 
Q 2644 4219 2406 4219 
Q 1781 4219 1451 3797 
Q 1122 3375 1075 2522 
Q 1259 2794 1537 2939 
Q 1816 3084 2150 3084 
Q 2853 3084 3261 2657 
Q 3669 2231 3669 1497 
Q 3669 778 3244 343 
Q 2819 -91 2113 -91 
Q 1303 -91 875 529 
Q 447 1150 447 2328 
Q 447 3434 972 4092 
Q 1497 4750 2381 4750 
Q 2619 4750 2861 4703 
Q 3103 4656 3366 4563 
z
" id="DejaVuSans-36" transform="scale(0.015625)"/>
       </defs>
       <use xlink:href="#DejaVuSans-30"/>
       <use x="63.623047" xlink:href="#DejaVuSans-2e"/>
       <use x="95.410156" xlink:href="#DejaVuSans-31"/>
       <use x="159.033203" xlink:href="#DejaVuSans-36"/>
      </g>
     </g>
    </g>
    <g id="ytick_2">
     <g id="line2d_8">
      <g>
       <use style="stroke:#000000;stroke-width:0.8;" x="63.3" xlink:href="#m1cf237aedb" y="337.232727"/>
      </g>
     </g>
     <g id="text_9">
      <!-- 0.18 -->
      <g transform="translate(30.854688 342.171712)scale(0.13 -0.13)">
       <defs>
        <path d="M 2034 2216 
Q 1584 2216 1326 1975 
Q 1069 1734 1069 1313 
Q 1069 891 1326 650 
Q 1584 409 2034 409 
Q 2484 409 2743 651 
Q 3003 894 3003 1313 
Q 3003 1734 2745 1975 
Q 2488 2216 2034 2216 
z
M 1403 2484 
Q 997 2584 770 2862 
Q 544 3141 544 3541 
Q 544 4100 942 4425 
Q 1341 4750 2034 4750 
Q 2731 4750 3128 4425 
Q 3525 4100 3525 3541 
Q 3525 3141 3298 2862 
Q 3072 2584 2669 2484 
Q 3125 2378 3379 2068 
Q 3634 1759 3634 1313 
Q 3634 634 3220 271 
Q 2806 -91 2034 -91 
Q 1263 -91 848 271 
Q 434 634 434 1313 
Q 434 1759 690 2068 
Q 947 2378 1403 2484 
z
M 1172 3481 
Q 1172 3119 1398 2916 
Q 1625 2713 2034 2713 
Q 2441 2713 2670 2916 
Q 2900 3119 2900 3481 
Q 2900 3844 2670 4047 
Q 2441 4250 2034 4250 
Q 1625 4250 1398 4047 
Q 1172 3844 1172 3481 
z
" id="DejaVuSans-38" transform="scale(0.015625)"/>
       </defs>
       <use xlink:href="#DejaVuSans-30"/>
       <use x="63.623047" xlink:href="#DejaVuSans-2e"/>
       <use x="95.410156" xlink:href="#DejaVuSans-31"/>
       <use x="159.033203" xlink:href="#DejaVuSans-38"/>
      </g>
     </g>
    </g>
    <g id="ytick_3">
     <g id="line2d_9">
      <g>
       <use style="stroke:#000000;stroke-width:0.8;" x="63.3" xlink:href="#m1cf237aedb" y="257.694545"/>
      </g>
     </g>
     <g id="text_10">
      <!-- 0.20 -->
      <g transform="translate(30.854688 262.63353)scale(0.13 -0.13)">
       <use xlink:href="#DejaVuSans-30"/>
       <use x="63.623047" xlink:href="#DejaVuSans-2e"/>
       <use x="95.410156" xlink:href="#DejaVuSans-32"/>
       <use x="159.033203" xlink:href="#DejaVuSans-30"/>
      </g>
     </g>
    </g>
    <g id="ytick_4">
     <g id="line2d_10">
      <g>
       <use style="stroke:#000000;stroke-width:0.8;" x="63.3" xlink:href="#m1cf237aedb" y="178.156364"/>
      </g>
     </g>
     <g id="text_11">
      <!-- 0.22 -->
      <g transform="translate(30.854688 183.095348)scale(0.13 -0.13)">
       <use xlink:href="#DejaVuSans-30"/>
       <use x="63.623047" xlink:href="#DejaVuSans-2e"/>
       <use x="95.410156" xlink:href="#DejaVuSans-32"/>
       <use x="159.033203" xlink:href="#DejaVuSans-32"/>
      </g>
     </g>
    </g>
    <g id="ytick_5">
     <g id="line2d_11">
      <g>
       <use style="stroke:#000000;stroke-width:0.8;" x="63.3" xlink:href="#m1cf237aedb" y="98.618182"/>
      </g>
     </g>
     <g id="text_12">
      <!-- 0.24 -->
      <g transform="translate(30.854688 103.557166)scale(0.13 -0.13)">
       <defs>
        <path d="M 2419 4116 
L 825 1625 
L 2419 1625 
L 2419 4116 
z
M 2253 4666 
L 3047 4666 
L 3047 1625 
L 3713 1625 
L 3713 1100 
L 3047 1100 
L 3047 0 
L 2419 0 
L 2419 1100 
L 313 1100 
L 313 1709 
L 2253 4666 
z
" id="DejaVuSans-34" transform="scale(0.015625)"/>
       </defs>
       <use xlink:href="#DejaVuSans-30"/>
       <use x="63.623047" xlink:href="#DejaVuSans-2e"/>
       <use x="95.410156" xlink:href="#DejaVuSans-32"/>
       <use x="159.033203" xlink:href="#DejaVuSans-34"/>
      </g>
     </g>
    </g>
    <g id="ytick_6">
     <g id="line2d_12">
      <g>
       <use style="stroke:#000000;stroke-width:0.8;" x="63.3" xlink:href="#m1cf237aedb" y="19.08"/>
      </g>
     </g>
     <g id="text_13">
      <!-- 0.26 -->
      <g transform="translate(30.854688 24.018984)scale(0.13 -0.13)">
       <use xlink:href="#DejaVuSans-30"/>
       <use x="63.623047" xlink:href="#DejaVuSans-2e"/>
       <use x="95.410156" xlink:href="#DejaVuSans-32"/>
       <use x="159.033203" xlink:href="#DejaVuSans-36"/>
      </g>
     </g>
    </g>
    <g id="text_14">
     <!-- Mean Squared Error -->
     <g transform="translate(24.151094 302.500234)rotate(-90)scale(0.13 -0.13)">
      <defs>
       <path d="M 628 4666 
L 1569 4666 
L 2759 1491 
L 3956 4666 
L 4897 4666 
L 4897 0 
L 4281 0 
L 4281 4097 
L 3078 897 
L 2444 897 
L 1241 4097 
L 1241 0 
L 628 0 
L 628 4666 
z
" id="DejaVuSans-4d" transform="scale(0.015625)"/>
       <path d="M 3597 1894 
L 3597 1613 
L 953 1613 
Q 991 1019 1311 708 
Q 1631 397 2203 397 
Q 2534 397 2845 478 
Q 3156 559 3463 722 
L 3463 178 
Q 3153 47 2828 -22 
Q 2503 -91 2169 -91 
Q 1331 -91 842 396 
Q 353 884 353 1716 
Q 353 2575 817 3079 
Q 1281 3584 2069 3584 
Q 2775 3584 3186 3129 
Q 3597 2675 3597 1894 
z
M 3022 2063 
Q 3016 2534 2758 2815 
Q 2500 3097 2075 3097 
Q 1594 3097 1305 2825 
Q 1016 2553 972 2059 
L 3022 2063 
z
" id="DejaVuSans-65" transform="scale(0.015625)"/>
       <path d="M 3513 2113 
L 3513 0 
L 2938 0 
L 2938 2094 
Q 2938 2591 2744 2837 
Q 2550 3084 2163 3084 
Q 1697 3084 1428 2787 
Q 1159 2491 1159 1978 
L 1159 0 
L 581 0 
L 581 3500 
L 1159 3500 
L 1159 2956 
Q 1366 3272 1645 3428 
Q 1925 3584 2291 3584 
Q 2894 3584 3203 3211 
Q 3513 2838 3513 2113 
z
" id="DejaVuSans-6e" transform="scale(0.015625)"/>
       <path id="DejaVuSans-20" transform="scale(0.015625)"/>
       <path d="M 3425 4513 
L 3425 3897 
Q 3066 4069 2747 4153 
Q 2428 4238 2131 4238 
Q 1616 4238 1336 4038 
Q 1056 3838 1056 3469 
Q 1056 3159 1242 3001 
Q 1428 2844 1947 2747 
L 2328 2669 
Q 3034 2534 3370 2195 
Q 3706 1856 3706 1288 
Q 3706 609 3251 259 
Q 2797 -91 1919 -91 
Q 1588 -91 1214 -16 
Q 841 59 441 206 
L 441 856 
Q 825 641 1194 531 
Q 1563 422 1919 422 
Q 2459 422 2753 634 
Q 3047 847 3047 1241 
Q 3047 1584 2836 1778 
Q 2625 1972 2144 2069 
L 1759 2144 
Q 1053 2284 737 2584 
Q 422 2884 422 3419 
Q 422 4038 858 4394 
Q 1294 4750 2059 4750 
Q 2388 4750 2728 4690 
Q 3069 4631 3425 4513 
z
" id="DejaVuSans-53" transform="scale(0.015625)"/>
       <path d="M 947 1747 
Q 947 1113 1208 752 
Q 1469 391 1925 391 
Q 2381 391 2643 752 
Q 2906 1113 2906 1747 
Q 2906 2381 2643 2742 
Q 2381 3103 1925 3103 
Q 1469 3103 1208 2742 
Q 947 2381 947 1747 
z
M 2906 525 
Q 2725 213 2448 61 
Q 2172 -91 1784 -91 
Q 1150 -91 751 415 
Q 353 922 353 1747 
Q 353 2572 751 3078 
Q 1150 3584 1784 3584 
Q 2172 3584 2448 3432 
Q 2725 3281 2906 2969 
L 2906 3500 
L 3481 3500 
L 3481 -1331 
L 2906 -1331 
L 2906 525 
z
" id="DejaVuSans-71" transform="scale(0.015625)"/>
       <path d="M 544 1381 
L 544 3500 
L 1119 3500 
L 1119 1403 
Q 1119 906 1312 657 
Q 1506 409 1894 409 
Q 2359 409 2629 706 
Q 2900 1003 2900 1516 
L 2900 3500 
L 3475 3500 
L 3475 0 
L 2900 0 
L 2900 538 
Q 2691 219 2414 64 
Q 2138 -91 1772 -91 
Q 1169 -91 856 284 
Q 544 659 544 1381 
z
M 1991 3584 
L 1991 3584 
z
" id="DejaVuSans-75" transform="scale(0.015625)"/>
       <path d="M 2631 2963 
Q 2534 3019 2420 3045 
Q 2306 3072 2169 3072 
Q 1681 3072 1420 2755 
Q 1159 2438 1159 1844 
L 1159 0 
L 581 0 
L 581 3500 
L 1159 3500 
L 1159 2956 
Q 1341 3275 1631 3429 
Q 1922 3584 2338 3584 
Q 2397 3584 2469 3576 
Q 2541 3569 2628 3553 
L 2631 2963 
z
" id="DejaVuSans-72" transform="scale(0.015625)"/>
       <path d="M 2906 2969 
L 2906 4863 
L 3481 4863 
L 3481 0 
L 2906 0 
L 2906 525 
Q 2725 213 2448 61 
Q 2172 -91 1784 -91 
Q 1150 -91 751 415 
Q 353 922 353 1747 
Q 353 2572 751 3078 
Q 1150 3584 1784 3584 
Q 2172 3584 2448 3432 
Q 2725 3281 2906 2969 
z
M 947 1747 
Q 947 1113 1208 752 
Q 1469 391 1925 391 
Q 2381 391 2643 752 
Q 2906 1113 2906 1747 
Q 2906 2381 2643 2742 
Q 2381 3103 1925 3103 
Q 1469 3103 1208 2742 
Q 947 2381 947 1747 
z
" id="DejaVuSans-64" transform="scale(0.015625)"/>
       <path d="M 628 4666 
L 3578 4666 
L 3578 4134 
L 1259 4134 
L 1259 2753 
L 3481 2753 
L 3481 2222 
L 1259 2222 
L 1259 531 
L 3634 531 
L 3634 0 
L 628 0 
L 628 4666 
z
" id="DejaVuSans-45" transform="scale(0.015625)"/>
       <path d="M 1959 3097 
Q 1497 3097 1228 2736 
Q 959 2375 959 1747 
Q 959 1119 1226 758 
Q 1494 397 1959 397 
Q 2419 397 2687 759 
Q 2956 1122 2956 1747 
Q 2956 2369 2687 2733 
Q 2419 3097 1959 3097 
z
M 1959 3584 
Q 2709 3584 3137 3096 
Q 3566 2609 3566 1747 
Q 3566 888 3137 398 
Q 2709 -91 1959 -91 
Q 1206 -91 779 398 
Q 353 888 353 1747 
Q 353 2609 779 3096 
Q 1206 3584 1959 3584 
z
" id="DejaVuSans-6f" transform="scale(0.015625)"/>
      </defs>
      <use xlink:href="#DejaVuSans-4d"/>
      <use x="86.279297" xlink:href="#DejaVuSans-65"/>
      <use x="147.802734" xlink:href="#DejaVuSans-61"/>
      <use x="209.082031" xlink:href="#DejaVuSans-6e"/>
      <use x="272.460938" xlink:href="#DejaVuSans-20"/>
      <use x="304.248047" xlink:href="#DejaVuSans-53"/>
      <use x="367.724609" xlink:href="#DejaVuSans-71"/>
      <use x="431.201172" xlink:href="#DejaVuSans-75"/>
      <use x="494.580078" xlink:href="#DejaVuSans-61"/>
      <use x="555.859375" xlink:href="#DejaVuSans-72"/>
      <use x="594.722656" xlink:href="#DejaVuSans-65"/>
      <use x="656.246094" xlink:href="#DejaVuSans-64"/>
      <use x="719.722656" xlink:href="#DejaVuSans-20"/>
      <use x="751.509766" xlink:href="#DejaVuSans-45"/>
      <use x="814.693359" xlink:href="#DejaVuSans-72"/>
      <use x="854.056641" xlink:href="#DejaVuSans-72"/>
      <use x="892.919922" xlink:href="#DejaVuSans-6f"/>
      <use x="954.101562" xlink:href="#DejaVuSans-72"/>
     </g>
    </g>
   </g>
   <g id="line2d_13">
    <path clip-path="url(#p041d3120b9)" d="M 114.063653 -1 
L 115.851494 64.396487 
L 117.046117 105.144987 
L 117.285042 102.975065 
L 118.71859 97.006623 
L 119.913214 94.24215 
L 121.346762 92.359293 
L 122.541386 91.399411 
L 123.73601 89.640995 
L 123.974934 89.199526 
L 124.213859 87.74404 
L 124.452784 85.361349 
L 124.691709 84.393036 
L 124.930633 84.407729 
L 125.647408 83.312021 
L 125.886332 82.79841 
L 126.125257 81.983936 
L 126.603106 81.382289 
L 127.080956 80.408209 
L 127.79773 79.10491 
L 129.470203 77.027288 
L 129.948053 76.796258 
L 130.664827 77.121892 
L 131.142676 77.320611 
L 134.965472 79.446111 
L 136.160096 80.336309 
L 136.39902 81.533985 
L 136.637945 83.757032 
L 136.87687 84.656926 
L 137.115794 84.770267 
L 138.071493 86.562525 
L 138.549343 88.170021 
L 138.788268 88.560061 
L 139.266117 90.007 
L 139.982891 92.069701 
L 141.655364 95.91985 
L 142.133214 96.758205 
L 142.611063 97.272601 
L 143.088913 97.886378 
L 143.327837 99.096305 
L 143.805687 99.260855 
L 144.522461 101.194319 
L 145.00031 103.250051 
L 145.956009 108.366755 
L 146.433859 109.886954 
L 147.389558 112.095345 
L 148.106332 114.047673 
L 149.062031 116.578748 
L 150.495579 120.221186 
L 154.5573 127.959404 
L 155.274074 129.036715 
L 155.512998 128.450165 
L 155.990848 129.483892 
L 156.468697 129.401515 
L 156.946547 128.792055 
L 157.424396 127.351265 
L 157.902246 125.826491 
L 158.380095 124.815918 
L 158.857945 124.704412 
L 159.335794 124.623001 
L 161.008267 123.101476 
L 161.486117 122.644837 
L 162.202891 121.835804 
L 162.68074 124.812898 
L 163.875364 127.788882 
L 164.114289 128.193431 
L 164.592138 128.334305 
L 165.308912 128.438724 
L 166.981385 131.070511 
L 167.459235 132.08919 
L 168.176009 134.068364 
L 172.954503 149.011612 
L 174.388052 153.090041 
L 174.626977 151.763359 
L 174.865901 151.122701 
L 176.060525 150.724697 
L 176.29945 150.825199 
L 177.494073 152.189905 
L 177.971923 152.183033 
L 178.688697 152.011774 
L 179.166546 151.966918 
L 179.644396 151.67556 
L 180.122245 151.105679 
L 181.077944 149.914839 
L 181.316869 149.640337 
L 181.555794 150.322278 
L 181.794718 149.64667 
L 182.033643 149.564176 
L 182.272568 149.781641 
L 182.511493 149.16693 
L 182.750417 148.927993 
L 183.228267 148.927757 
L 183.706116 148.260771 
L 184.42289 148.029447 
L 185.856439 149.059794 
L 186.573213 149.16865 
L 188.245686 148.623354 
L 188.96246 148.59977 
L 189.679234 149.015994 
L 190.157084 149.148203 
L 192.546331 150.979658 
L 193.50203 151.630049 
L 193.740955 150.820888 
L 193.979879 151.36984 
L 194.218804 151.262112 
L 194.457729 150.824828 
L 194.696654 151.253484 
L 194.935578 151.255453 
L 195.413428 150.773411 
L 195.891277 151.03543 
L 196.608051 150.866845 
L 198.0416 149.133701 
L 198.758374 148.588719 
L 199.952998 148.328357 
L 200.430847 148.239648 
L 200.669772 148.500566 
L 201.147621 151.345115 
L 201.864395 153.894034 
L 206.165041 164.727001 
L 207.359664 167.210588 
L 208.315363 169.35231 
L 209.509987 172.378829 
L 212.377083 178.376639 
L 212.616008 178.792016 
L 212.854933 178.931411 
L 213.093858 177.656811 
L 213.571707 176.370571 
L 213.810632 176.162871 
L 214.049557 175.624584 
L 215.24418 174.889586 
L 217.155578 172.195062 
L 218.589126 171.00751 
L 219.066976 170.650874 
L 219.78375 169.918801 
L 220.022675 170.127737 
L 220.261599 169.382251 
L 220.500524 169.086791 
L 220.739449 169.072421 
L 220.978374 168.878066 
L 221.456223 168.071323 
L 221.934073 167.820771 
L 222.411922 168.13083 
L 222.650847 168.278132 
L 223.128696 169.155341 
L 224.084395 171.281064 
L 224.801169 172.301957 
L 226.234718 172.913228 
L 226.951492 173.328015 
L 227.907191 173.858895 
L 230.057513 175.912251 
L 231.252137 176.814752 
L 231.968911 177.815497 
L 232.207836 177.674769 
L 232.446761 178.469861 
L 232.685685 178.683319 
L 232.92461 178.615651 
L 233.163535 178.731102 
L 233.641384 179.334535 
L 234.119234 179.391095 
L 235.074933 178.288416 
L 235.791707 176.628691 
L 236.508481 175.049661 
L 236.98633 174.156544 
L 238.419879 172.716945 
L 238.658803 172.401941 
L 238.897728 171.740848 
L 239.136653 169.858128 
L 239.375578 168.960207 
L 239.614502 168.604394 
L 239.853427 168.706011 
L 240.331277 169.353114 
L 240.570201 170.006268 
L 240.809126 170.232139 
L 241.764825 169.781267 
L 242.481599 168.826608 
L 242.959449 168.590969 
L 243.437298 168.510133 
L 244.154072 168.551588 
L 245.109771 168.39792 
L 245.826545 168.679964 
L 246.304395 169.182929 
L 247.976868 171.98994 
L 251.082889 179.563995 
L 251.321814 181.6655 
L 251.560739 182.705533 
L 251.799663 183.168733 
L 252.038588 183.192883 
L 252.516438 182.585699 
L 252.755362 181.95286 
L 252.994287 181.718835 
L 253.949986 181.820724 
L 254.427835 182.316915 
L 254.905685 182.743596 
L 255.383534 182.683125 
L 255.861384 182.337351 
L 256.339233 182.011696 
L 257.533857 181.847977 
L 257.772782 181.783791 
L 258.011706 183.025659 
L 258.489556 187.724225 
L 259.445255 194.408981 
L 260.639878 200.634923 
L 266.135147 218.111308 
L 266.851921 220.225688 
L 268.28547 224.473373 
L 269.957943 227.948239 
L 270.196867 227.096464 
L 270.674717 222.850716 
L 271.630416 216.67711 
L 273.063964 209.350586 
L 276.647835 197.443588 
L 276.88676 196.798303 
L 277.125684 196.507107 
L 277.842459 199.307944 
L 278.559233 202.134051 
L 279.992781 206.138011 
L 280.709555 207.637065 
L 283.098803 213.1926 
L 283.815577 215.0489 
L 284.532351 216.751758 
L 285.965899 220.677477 
L 286.921598 224.138515 
L 289.071921 232.355386 
L 289.310846 232.876764 
L 290.02762 230.70245 
L 290.744394 228.530942 
L 292.177942 225.468589 
L 292.416867 225.208036 
L 292.655792 224.773344 
L 293.133641 224.233291 
L 294.328265 222.60667 
L 294.806114 222.302432 
L 295.283964 221.731712 
L 295.761813 221.084386 
L 296.000738 220.909553 
L 296.239663 221.233269 
L 296.717512 222.246389 
L 297.912136 224.78198 
L 298.15106 225.141885 
L 299.345684 225.276463 
L 299.584609 225.426282 
L 300.062458 225.974004 
L 301.734931 227.975385 
L 303.885254 232.057647 
L 305.079878 233.964967 
L 306.513426 236.598717 
L 308.185899 238.580465 
L 308.424824 238.373183 
L 308.902673 237.385349 
L 310.336222 234.52258 
L 311.29192 233.714728 
L 312.008695 232.527051 
L 312.964394 230.757189 
L 313.442243 230.0316 
L 313.920092 229.285518 
L 314.875791 227.63678 
L 315.114716 227.395443 
L 315.353641 229.585682 
L 315.83149 230.8812 
L 316.070415 231.145164 
L 316.548264 232.361855 
L 317.026114 234.352841 
L 317.742888 237.949473 
L 320.37106 245.670756 
L 321.565684 248.297402 
L 322.521383 250.501801 
L 323.238157 252.144044 
L 325.149555 255.243425 
L 327.060952 257.0008 
L 327.299877 257.149463 
L 327.538802 254.833335 
L 328.016651 253.27804 
L 328.255576 252.874163 
L 328.97235 250.613144 
L 330.166974 244.813057 
L 330.883748 242.36227 
L 332.078372 239.474858 
L 333.750845 236.159329 
L 334.228694 235.233624 
L 335.423318 238.355689 
L 335.662243 238.648291 
L 336.856866 241.144885 
L 338.290415 244.632752 
L 339.723963 247.966431 
L 341.396436 250.612655 
L 346.413855 255.520634 
L 347.369554 251.902182 
L 350.953425 245.624946 
L 351.670199 244.702286 
L 352.148049 244.383721 
L 353.342672 243.842204 
L 353.581597 244.244826 
L 354.537296 250.125358 
L 356.448694 254.992054 
L 356.926543 255.957323 
L 357.882242 258.30649 
L 360.271489 265.261608 
L 361.943963 270.035347 
L 363.85536 274.938682 
L 365.527833 278.482133 
L 365.766758 278.501868 
L 366.722457 274.777665 
L 366.961382 274.754028 
L 367.200307 274.599137 
L 367.439231 274.623426 
L 367.678156 274.386834 
L 367.917081 274.366357 
L 368.633855 273.730418 
L 368.87278 273.701451 
L 370.545253 272.464187 
L 371.500952 271.132652 
L 372.456651 269.457251 
L 372.695575 270.641892 
L 373.173425 274.35519 
L 373.651274 275.319014 
L 374.129124 276.014802 
L 375.323747 279.428546 
L 376.040521 281.432206 
L 379.146543 288.934695 
L 380.819016 292.86489 
L 384.641812 303.339866 
L 384.880736 302.33459 
L 385.358586 298.919507 
L 385.836435 298.116737 
L 386.314285 297.583186 
L 388.942457 291.835898 
L 389.420306 291.081583 
L 391.092779 287.782314 
L 391.570629 286.984749 
L 391.809553 287.162337 
L 392.048478 287.024826 
L 393.243102 283.544231 
L 393.720951 282.969875 
L 394.198801 283.092751 
L 394.915575 282.931335 
L 395.393424 283.144725 
L 396.349123 282.368118 
L 396.826973 282.082959 
L 397.304822 281.969187 
L 398.021596 281.18634 
L 398.977295 280.359202 
L 400.171919 279.894319 
L 401.605467 279.940305 
L 403.75579 278.768005 
L 404.233639 277.87374 
L 404.472564 278.132378 
L 404.950413 278.937559 
L 405.189338 279.049996 
L 405.667188 278.80016 
L 405.906112 278.442574 
L 406.622887 276.837987 
L 407.81751 274.5661 
L 408.29536 274.044435 
L 408.773209 273.697257 
L 409.967833 272.768408 
L 410.445682 272.579303 
L 410.684607 272.443992 
L 411.401381 276.54152 
L 411.879231 277.50006 
L 412.35708 278.175199 
L 412.596005 278.413004 
L 412.834929 278.834618 
L 414.029553 282.61707 
L 416.4188 292.079661 
L 417.374499 295.596671 
L 418.808048 300.33309 
L 420.480521 304.860365 
L 421.43622 306.744735 
L 422.869768 309.390343 
L 423.586542 305.969014 
L 424.064392 305.219101 
L 425.020091 303.828234 
L 429.320736 290.08004 
L 429.798585 288.837051 
L 430.515359 291.277653 
L 430.754284 291.459542 
L 430.993209 292.103233 
L 431.232133 292.258792 
L 431.471058 292.552954 
L 431.709983 292.582144 
L 432.187832 293.116744 
L 434.338155 296.008154 
L 434.816004 296.822264 
L 435.293854 297.374647 
L 436.249553 299.40751 
L 438.160951 305.126101 
L 438.877725 307.04953 
L 439.833424 308.960367 
L 441.744821 312.366866 
L 441.983746 312.850585 
L 442.70052 310.251224 
L 442.939445 310.01018 
L 443.17837 309.27167 
L 444.134069 308.275509 
L 445.089768 306.843237 
L 446.762241 304.278982 
L 448.912563 300.862185 
L 449.629337 304.434811 
L 450.346112 309.012261 
L 451.062886 311.978121 
L 453.691058 320.830317 
L 457.752778 331.079372 
L 460.619875 337.796011 
L 461.097724 338.629855 
L 461.814498 335.0302 
L 462.531273 330.353456 
L 463.009122 328.421568 
L 463.725896 326.4734 
L 464.681595 323.730242 
L 465.398369 321.730309 
L 468.026541 315.855873 
L 468.265466 315.695822 
L 468.504391 316.514726 
L 468.98224 319.824609 
L 469.937939 327.143201 
L 470.654713 331.293165 
L 471.132563 332.748369 
L 472.566111 336.567093 
L 473.760735 339.695089 
L 474.716434 342.109159 
L 476.388907 345.240812 
L 479.494928 349.988604 
L 480.211702 350.691512 
L 480.450627 350.541235 
L 480.689552 349.461552 
L 481.167401 345.57345 
L 482.362025 335.172128 
L 483.078799 330.94626 
L 484.273423 326.823754 
L 485.706971 322.169712 
L 487.14052 317.570659 
L 487.618369 321.16275 
L 487.857294 321.626865 
L 488.335143 323.559629 
L 489.051917 326.625215 
L 489.529767 327.740355 
L 490.007616 328.559332 
L 490.72439 329.261811 
L 493.113638 332.641085 
L 494.786111 334.442773 
L 495.26396 334.881508 
L 495.74181 335.267601 
L 496.936433 336.537571 
L 499.325681 339.28188 
L 499.80353 334.909019 
L 500.042455 334.113656 
L 500.759229 330.040346 
L 501.237078 327.552564 
L 501.714928 325.915231 
L 502.431702 324.321761 
L 504.820949 319.569156 
L 505.776648 318.491341 
L 506.254498 318.04583 
L 506.493422 319.531624 
L 506.732347 320.079449 
L 506.971272 321.146823 
L 507.210197 321.647538 
L 507.688046 322.140716 
L 507.926971 322.152663 
L 509.121594 323.887374 
L 509.360519 324.024319 
L 509.599444 324.018072 
L 510.077293 324.467765 
L 511.271917 326.885401 
L 512.227616 329.576547 
L 514.377938 336.312132 
L 518.439659 349.021899 
L 518.678584 348.210566 
L 518.917508 348.271936 
L 519.156433 347.845627 
L 519.395358 347.941952 
L 519.873207 348.753641 
L 520.112132 349.371873 
L 520.351057 349.61488 
L 520.589981 349.640042 
L 521.067831 350.128851 
L 521.54568 350.85769 
L 522.02353 351.798372 
L 522.501379 352.283828 
L 523.218153 352.48195 
L 523.696003 352.263991 
L 524.651702 351.404302 
L 525.368476 350.569495 
L 526.802024 359.494721 
L 528.235573 364.291167 
L 529.191272 366.879221 
L 530.62482 369.999384 
L 531.819444 371.445465 
L 533.730841 372.384664 
L 535.403314 372.458304 
L 537.553637 373.425601 
L 538.987185 363.972935 
L 540.659658 357.81854 
L 542.332132 352.591424 
L 543.526755 349.556595 
L 544.243529 348.010139 
L 544.482454 347.609929 
L 544.960304 350.514554 
L 546.632777 357.362945 
L 547.8274 362.396815 
L 549.022024 366.005357 
L 552.605895 375.184573 
L 554.278368 379.125732 
L 556.189766 383.301076 
L 556.667615 384.595863 
L 557.145465 382.167793 
L 557.862239 380.355953 
L 558.340088 378.868863 
L 560.012561 373.443789 
L 560.96826 371.529305 
L 563.596432 366.531827 
L 563.835357 365.697724 
L 564.313206 362.869588 
L 564.791056 361.075358 
L 565.268905 360.040368 
L 565.746755 359.363206 
L 566.463529 359.00127 
L 567.180303 358.521824 
L 568.374927 357.76424 
L 570.764174 354.968634 
L 572.197722 353.910766 
L 572.914497 353.170838 
L 573.392346 352.853927 
L 574.58697 352.531897 
L 575.781593 352.605004 
L 576.020518 352.928956 
L 576.259443 354.178615 
L 576.737292 355.265054 
L 577.215142 355.787701 
L 577.931916 355.821233 
L 578.64869 355.352748 
L 579.365464 355.146252 
L 580.799013 354.826696 
L 581.515787 355.014174 
L 582.471486 355.188806 
L 582.71041 355.275228 
L 582.949335 358.031783 
L 583.427185 358.718957 
L 583.666109 359.536416 
L 584.382883 363.940352 
L 585.816432 372.623246 
L 589.161378 387.012847 
L 590.833851 393.588953 
L 593.462023 402.702024 
L 594.895571 407.470674 
L 595.134496 405.545041 
L 595.612346 406.372233 
L 595.85127 406.287428 
L 596.32912 405.193851 
L 597.762668 400.673767 
L 598.479442 399.282452 
L 599.435141 397.653029 
L 600.151915 396.043935 
L 601.585464 392.866414 
L 602.063313 391.868104 
L 602.302238 392.252873 
L 603.257937 394.753199 
L 603.735786 395.571307 
L 603.974711 396.177594 
L 604.452561 396.658937 
L 604.691485 396.806234 
L 604.93041 396.774534 
L 605.647184 397.155487 
L 607.080733 398.632438 
L 607.558582 399.481851 
L 610.903528 407.858045 
L 612.098152 411.280123 
L 614.248474 417.89254 
L 614.487399 417.611462 
L 615.204173 416.038902 
L 615.682023 415.541053 
L 615.920947 415.308255 
L 616.159872 414.905134 
L 616.637722 414.799143 
L 616.876646 414.849709 
L 617.354496 415.133446 
L 617.832345 415.158235 
L 618.788044 414.703169 
L 619.265894 414.232563 
L 619.743743 413.465118 
L 620.938367 410.93972 
L 621.177291 410.082669 
L 621.416216 410.031862 
L 621.894066 411.296536 
L 622.371915 411.713958 
L 622.849765 412.477792 
L 623.327614 413.018683 
L 624.044388 414.004278 
L 624.283313 414.169702 
L 624.761162 414.221982 
L 625.716861 414.415645 
L 626.194711 414.492795 
L 627.15041 415.453408 
L 630.734281 419.42204 
L 633.362453 421.754182 
L 633.601377 421.432466 
L 634.079227 419.572211 
L 634.796001 418.061255 
L 637.185248 413.173706 
L 637.902022 412.264023 
L 638.379872 411.582529 
L 640.052345 408.182704 
L 640.530194 405.196561 
L 640.769119 404.331083 
L 641.008044 404.255943 
L 641.246969 404.410635 
L 641.485893 404.134262 
L 641.724818 404.170299 
L 642.919442 404.906505 
L 644.35299 406.950666 
L 645.069764 408.006162 
L 645.786538 409.195324 
L 646.742237 410.469269 
L 648.41471 411.954257 
L 650.565033 414.248428 
L 652.237506 416.752701 
L 652.715355 419.541847 
L 652.95428 420.335098 
L 653.193205 420.324768 
L 653.43213 420.038419 
L 653.671054 420.183217 
L 653.909979 420.083009 
L 658.927398 414.68595 
L 659.166323 414.528361 
L 659.405248 416.653469 
L 659.644173 416.571512 
L 659.883097 415.96012 
L 660.122022 416.020744 
L 660.360947 413.829347 
L 660.599871 413.22086 
L 661.077721 409.774325 
L 661.316646 410.622995 
L 661.55557 412.477199 
L 661.794495 412.275476 
L 662.03342 413.585194 
L 662.272345 412.728523 
L 662.511269 412.786302 
L 662.750194 411.126295 
L 662.989119 411.090324 
L 663.228043 411.544853 
L 663.466968 410.575054 
L 663.705893 410.609365 
L 663.944818 411.019626 
L 664.422667 410.098421 
L 664.900517 410.524149 
L 665.139441 409.574676 
L 665.139441 409.574676 
" style="fill:none;stroke:#1f77b4;stroke-linecap:square;stroke-width:1.5;"/>
   </g>
   <g id="line2d_14">
    <path clip-path="url(#p041d3120b9)" d="M 110.834074 126.309776 
L 129.948053 152.841974 
L 149.062031 177.054537 
L 168.176009 140.144806 
L 187.289987 172.511444 
L 206.403965 180.925081 
L 225.517943 145.713699 
L 244.631922 141.615001 
L 263.7459 197.527876 
L 282.859878 210.746952 
L 301.973856 219.493456 
L 321.087834 206.998662 
L 340.201812 226.081038 
L 359.315791 221.927169 
L 378.429769 239.009974 
L 397.543747 242.009388 
L 416.657725 216.06458 
L 435.771703 259.037674 
L 454.885681 271.786518 
L 473.99966 264.85475 
L 493.113638 252.373883 
L 512.227616 259.719349 
L 531.341594 291.366919 
L 550.455572 324.388564 
L 569.56955 274.100169 
L 588.683529 322.530805 
L 607.797507 342.223623 
L 626.911485 344.908423 
L 646.025463 330.43729 
L 665.139441 359.337719 
" style="fill:none;stroke:#ff7f0e;stroke-dasharray:5.55,2.4;stroke-dashoffset:0;stroke-width:1.5;"/>
   </g>
   <g id="line2d_15">
    <path clip-path="url(#p041d3120b9)" d="M 115.674705 -1 
L 117.046117 45.962482 
L 117.285042 46.181237 
L 117.523967 47.098404 
L 117.762892 48.6586 
L 118.240741 49.865523 
L 118.479666 50.198359 
L 119.435365 50.024801 
L 119.674289 50.107157 
L 121.824612 52.505672 
L 122.302461 53.226492 
L 123.497085 54.32609 
L 123.974934 54.58729 
L 124.452784 57.586216 
L 124.930633 56.868296 
L 126.842031 60.178568 
L 127.319881 60.947069 
L 128.514504 64.220836 
L 129.470203 65.89026 
L 129.709128 66.168577 
L 130.186977 66.272681 
L 130.903752 66.215848 
L 131.381601 66.66311 
L 131.85945 67.418921 
L 136.160096 75.811054 
L 136.39902 74.479506 
L 136.637945 74.063345 
L 137.115794 76.269818 
L 137.354719 76.543468 
L 137.593644 77.053002 
L 137.832569 77.244893 
L 139.743966 81.316749 
L 140.221816 81.68022 
L 140.93859 82.373699 
L 141.41644 82.761617 
L 142.133214 83.973145 
L 143.088913 86.126281 
L 143.327837 86.237185 
L 144.522461 93.472671 
L 145.47816 98.891601 
L 145.956009 100.897216 
L 148.106332 106.536686 
L 149.062031 108.24504 
L 149.53988 108.845338 
L 150.256654 109.262561 
L 150.973429 109.496473 
L 153.123751 110.612438 
L 155.512998 113.43561 
L 156.468697 110.02872 
L 156.946547 107.335485 
L 157.424396 105.325977 
L 158.14117 103.44499 
L 160.052568 101.220874 
L 161.725041 100.740899 
L 162.202891 100.89727 
L 162.441815 102.26145 
L 162.68074 101.75349 
L 162.919665 101.749559 
L 163.397514 102.098342 
L 163.636439 102.235015 
L 163.875364 102.109128 
L 164.114289 102.196816 
L 165.069987 103.015638 
L 165.547837 102.813727 
L 165.786762 102.840173 
L 166.742461 103.829043 
L 167.22031 104.360393 
L 167.698159 104.711694 
L 168.653858 104.964906 
L 169.131708 105.426975 
L 169.848482 106.390153 
L 171.520955 108.323314 
L 172.476654 109.547925 
L 174.388052 112.21588 
L 174.626977 111.155696 
L 174.865901 111.932869 
L 175.104826 112.098917 
L 175.343751 112.036144 
L 175.8216 112.152231 
L 176.060525 112.484263 
L 176.777299 112.605332 
L 177.255149 112.49381 
L 177.732998 112.883142 
L 177.971923 112.956662 
L 178.210847 112.882029 
L 179.166546 112.094469 
L 179.644396 112.021001 
L 179.883321 112.062727 
L 180.600095 112.589087 
L 181.077944 112.609207 
L 181.316869 112.491179 
L 181.555794 111.838972 
L 182.033643 113.500354 
L 183.706116 119.861646 
L 184.42289 121.982147 
L 185.856439 124.535867 
L 186.334288 125.209305 
L 187.051062 127.183792 
L 187.767837 129.460599 
L 188.96246 132.249274 
L 191.351707 136.304723 
L 193.263105 138.720244 
L 193.50203 139.122656 
L 193.740955 139.920544 
L 194.218804 138.584191 
L 195.891277 133.509537 
L 196.608051 132.019544 
L 198.758374 128.721848 
L 199.952998 126.065373 
L 200.430847 125.305102 
L 200.669772 130.602425 
L 201.147621 134.633468 
L 201.864395 138.140055 
L 202.58117 139.778056 
L 203.059019 140.707263 
L 203.297944 140.892909 
L 203.775793 141.41848 
L 204.970417 141.875885 
L 206.403965 142.232148 
L 207.120739 142.530749 
L 208.554288 142.821574 
L 208.793213 142.770263 
L 209.271062 143.003341 
L 209.987836 143.1957 
L 210.70461 143.566301 
L 211.18246 143.586067 
L 211.660309 143.317247 
L 212.377083 142.697038 
L 212.616008 142.559606 
L 212.854933 136.76882 
L 213.332782 131.775591 
L 214.049557 126.99509 
L 215.72203 121.33002 
L 216.916653 119.20723 
L 217.394503 118.506756 
L 219.544825 114.833563 
L 219.78375 114.222673 
L 220.022675 114.047939 
L 220.261599 113.511387 
L 220.739449 113.977605 
L 220.978374 114.263399 
L 222.889771 118.38327 
L 224.562245 121.578244 
L 225.279019 122.95399 
L 225.756868 123.850069 
L 228.623965 130.727163 
L 229.340739 132.347072 
L 231.013212 136.807912 
L 232.446761 141.2946 
L 233.163535 141.701778 
L 233.641384 140.985175 
L 233.880309 140.60481 
L 234.119234 140.44442 
L 234.597083 139.920035 
L 236.030631 139.692042 
L 236.98633 139.893534 
L 237.942029 139.917377 
L 238.658803 139.535457 
L 238.897728 139.872031 
L 239.136653 139.022166 
L 239.375578 139.412079 
L 239.614502 140.432796 
L 240.092352 141.6148 
L 240.809126 145.109071 
L 242.959449 160.058207 
L 244.870846 169.815963 
L 247.737943 181.449215 
L 250.843965 191.891367 
L 251.082889 192.235147 
L 251.321814 193.840794 
L 251.560739 194.208999 
L 251.799663 193.959769 
L 252.038588 194.24939 
L 252.277513 194.307673 
L 252.755362 193.81612 
L 253.233212 192.305167 
L 256.339233 179.131122 
L 257.772782 174.219322 
L 258.250631 171.297495 
L 258.72848 171.079561 
L 259.20633 171.337439 
L 259.684179 171.93718 
L 259.923104 172.05893 
L 260.878803 173.244374 
L 261.356652 173.038257 
L 261.595577 173.175907 
L 262.312351 173.016654 
L 262.790201 172.681959 
L 263.26805 172.097602 
L 263.984824 171.11905 
L 264.701599 170.218265 
L 265.657298 168.756525 
L 266.851921 167.124149 
L 267.329771 166.701906 
L 268.046545 166.021406 
L 268.763319 165.570097 
L 269.719018 165.198464 
L 269.957943 165.170996 
L 270.196867 166.233409 
L 270.435792 166.432353 
L 271.152566 164.437628 
L 272.586115 158.920273 
L 273.063964 157.597634 
L 273.541814 156.914023 
L 274.019663 155.924726 
L 274.497512 155.240104 
L 274.736437 155.109457 
L 275.214287 154.599738 
L 276.169986 154.258044 
L 276.88676 153.76039 
L 277.364609 152.095067 
L 277.603534 152.00809 
L 278.081383 152.067978 
L 278.559233 152.140137 
L 278.798158 152.369705 
L 279.276007 152.316278 
L 280.470631 153.735984 
L 281.42633 155.355563 
L 281.904179 156.463323 
L 282.620953 158.398067 
L 283.576652 160.308385 
L 284.293426 161.729812 
L 287.160523 167.797026 
L 288.116222 170.056289 
L 289.071921 171.84274 
L 289.54977 174.192263 
L 290.02762 174.882314 
L 290.744394 175.635287 
L 290.983319 175.675988 
L 291.461168 176.271209 
L 292.177942 176.521652 
L 293.133641 176.256697 
L 294.08934 175.476965 
L 294.806114 174.333425 
L 295.761813 173.47428 
L 296.000738 173.2683 
L 296.956437 169.933202 
L 297.673211 169.143466 
L 299.584609 165.069787 
L 300.062458 164.60295 
L 300.540308 164.51414 
L 301.018157 164.438296 
L 301.496007 164.274293 
L 302.212781 163.68386 
L 302.929555 163.35914 
L 303.407404 163.413707 
L 304.124179 163.518785 
L 304.602028 163.513305 
L 305.318802 163.639768 
L 306.035576 164.158425 
L 306.752351 164.966536 
L 308.185899 166.500413 
L 309.380523 169.626597 
L 309.619447 169.602441 
L 309.858372 169.717116 
L 310.336222 170.285144 
L 310.575146 170.735081 
L 310.814071 170.92286 
L 311.29192 171.670746 
L 311.76977 172.048648 
L 312.008695 172.154003 
L 312.725469 172.045942 
L 313.681168 172.039863 
L 314.636867 172.532171 
L 315.114716 172.759264 
L 315.592566 175.83213 
L 316.070415 179.464856 
L 316.30934 180.350777 
L 317.265039 185.371572 
L 317.981813 188.045832 
L 318.459662 189.518285 
L 319.893211 192.186153 
L 320.37106 192.86444 
L 323.716006 198.648956 
L 324.43278 199.208001 
L 325.388479 199.629195 
L 326.822028 200.689997 
L 327.299877 200.89368 
L 327.777727 198.131957 
L 328.255576 194.804743 
L 328.494501 194.087044 
L 329.4502 189.638967 
L 330.405899 185.945987 
L 330.883748 184.515335 
L 331.839447 182.414917 
L 332.556221 181.078666 
L 334.228694 177.727314 
L 334.945468 186.499145 
L 335.423318 190.438538 
L 337.095791 200.483743 
L 337.57364 202.558897 
L 338.05149 203.651776 
L 339.485038 205.971056 
L 340.440737 207.183335 
L 340.918587 208.060692 
L 343.307834 212.985668 
L 345.219232 216.784252 
L 346.413855 219.566282 
L 347.13063 211.003182 
L 347.608479 207.218037 
L 349.042027 198.567284 
L 349.758802 195.518581 
L 350.236651 194.405625 
L 351.670199 192.063125 
L 352.386974 191.084812 
L 353.342672 189.354072 
L 353.581597 190.491171 
L 354.059447 189.606022 
L 354.298371 189.84499 
L 354.537296 189.875773 
L 354.776221 190.110307 
L 355.25407 191.071194 
L 355.970844 191.964644 
L 356.448694 192.284619 
L 357.165468 192.202017 
L 358.121167 191.933012 
L 358.837941 191.49231 
L 359.79364 191.415457 
L 360.510414 192.042849 
L 361.227188 193.304238 
L 362.660737 196.026481 
L 363.85536 198.839616 
L 365.527833 202.795264 
L 365.766758 201.70343 
L 366.244608 202.746149 
L 366.483532 202.799932 
L 366.722457 203.048788 
L 366.961382 203.100143 
L 367.678156 202.438231 
L 368.156005 202.24942 
L 368.633855 202.128843 
L 369.350629 202.231036 
L 370.306328 202.549594 
L 371.023102 202.875318 
L 372.456651 202.837936 
L 372.695575 206.067451 
L 372.9345 207.677668 
L 373.651274 209.848966 
L 374.606973 211.403161 
L 375.323747 211.410557 
L 375.562672 211.524149 
L 376.279446 211.501531 
L 376.518371 211.55278 
L 378.429769 210.683829 
L 379.146543 209.796907 
L 379.863317 208.828925 
L 380.341167 208.416978 
L 380.819016 208.260546 
L 381.296865 208.344408 
L 382.252564 208.615421 
L 382.730414 208.811658 
L 383.686113 209.037293 
L 384.641812 209.527616 
L 384.880736 206.341327 
L 385.358586 203.843643 
L 385.836435 202.26569 
L 387.031059 199.842733 
L 387.269984 199.708858 
L 388.703532 197.790496 
L 390.61493 196.815659 
L 391.092779 196.855487 
L 391.570629 197.128115 
L 391.809553 198.94824 
L 392.048478 199.453279 
L 393.004177 204.83386 
L 394.915575 218.905632 
L 397.065897 230.834697 
L 398.260521 237.344435 
L 401.127618 251.282471 
L 402.083317 254.885123 
L 403.75579 260.25881 
L 403.994715 259.203464 
L 404.233639 259.438471 
L 404.950413 257.593441 
L 405.428263 255.378397 
L 406.145037 250.951843 
L 406.861811 247.715249 
L 409.728908 238.487717 
L 410.206757 236.79964 
L 410.684607 235.558835 
L 410.923532 236.67718 
L 411.162456 236.077772 
L 411.401381 235.895495 
L 411.640306 236.211724 
L 412.596005 238.291641 
L 414.746327 242.745091 
L 415.702026 244.540658 
L 416.89665 246.618842 
L 418.569123 249.42165 
L 419.763747 250.546198 
L 420.241596 250.893546 
L 420.719445 251.268427 
L 421.43622 251.719844 
L 422.869768 252.914251 
L 423.108693 251.336834 
L 423.347617 251.46418 
L 423.586542 251.162801 
L 424.064392 249.552999 
L 425.020091 245.907366 
L 425.736865 243.572536 
L 426.453639 241.991013 
L 427.170413 239.977951 
L 428.126112 238.1841 
L 428.603961 237.473226 
L 429.798585 235.511469 
L 430.03751 234.605321 
L 430.276435 234.741076 
L 432.904607 240.652456 
L 433.621381 242.455358 
L 434.338155 244.025415 
L 435.293854 245.632883 
L 435.771703 246.009002 
L 436.727402 246.251194 
L 439.116649 246.929124 
L 441.744821 247.807985 
L 441.983746 247.790194 
L 442.222671 248.322941 
L 442.461596 247.843104 
L 444.372993 241.34585 
L 444.850843 239.691359 
L 445.806542 235.980738 
L 446.762241 232.918804 
L 447.479015 230.988187 
L 448.195789 229.905885 
L 448.912563 229.136005 
L 449.151488 229.978469 
L 449.390413 230.19641 
L 449.868262 231.33907 
L 450.346112 231.980842 
L 450.585036 232.310544 
L 451.062886 233.58492 
L 451.77966 236.167919 
L 452.496434 238.825444 
L 453.452133 242.308607 
L 454.885681 247.560146 
L 455.602456 250.169901 
L 457.036004 256.476518 
L 461.097724 274.438992 
L 461.336649 274.262366 
L 461.575574 274.691231 
L 461.814498 274.638611 
L 462.770197 275.766958 
L 463.009122 275.841661 
L 463.486972 275.435084 
L 463.725896 275.171789 
L 464.44267 273.825957 
L 464.92052 273.488779 
L 465.876219 272.389379 
L 466.354068 271.887439 
L 466.831918 271.688236 
L 467.787617 271.374965 
L 468.026541 271.124716 
L 468.265466 272.464039 
L 468.504391 272.777259 
L 468.743316 273.955463 
L 469.46009 274.469632 
L 469.937939 275.642223 
L 471.610412 281.593877 
L 476.866756 296.239701 
L 477.58353 297.496049 
L 480.211702 301.071833 
L 480.450627 299.824576 
L 480.689552 299.575323 
L 480.928477 298.438411 
L 481.406326 298.107896 
L 481.645251 297.996614 
L 482.1231 296.867905 
L 484.512348 288.895741 
L 487.14052 282.098988 
L 487.618369 283.569255 
L 488.096218 284.849843 
L 489.290842 283.939686 
L 490.007616 283.657109 
L 490.246541 283.714528 
L 490.485466 283.6367 
L 491.680089 284.215414 
L 492.874713 284.073307 
L 493.113638 284.137014 
L 493.591487 284.630247 
L 495.980734 287.839713 
L 497.175358 290.299016 
L 499.325681 294.689433 
L 500.28138 291.655684 
L 500.998154 291.964902 
L 501.714928 292.55556 
L 502.431702 293.3184 
L 502.909552 293.672809 
L 503.387401 293.954451 
L 503.626326 293.964451 
L 505.298799 295.063269 
L 505.537724 295.011961 
L 506.254498 294.435694 
L 506.493422 295.126324 
L 506.732347 296.204312 
L 506.971272 296.701202 
L 508.643745 302.528443 
L 509.121594 303.094248 
L 509.838369 303.819404 
L 510.316218 304.661025 
L 510.555143 304.957466 
L 511.032992 305.185992 
L 512.466541 306.132477 
L 512.94439 306.554909 
L 513.900089 306.966254 
L 514.616863 306.90105 
L 515.094713 306.850315 
L 515.572562 306.925793 
L 516.289336 307.40235 
L 517.722885 308.699816 
L 518.439659 309.341806 
L 518.678584 308.684433 
L 518.917508 307.588669 
L 519.156433 307.059908 
L 520.828906 301.196491 
L 521.54568 300.005529 
L 521.784605 299.747048 
L 522.740304 297.922177 
L 523.934928 296.999356 
L 524.890626 296.133489 
L 525.368476 295.93973 
L 525.607401 296.273242 
L 525.846325 296.158267 
L 526.324175 297.676433 
L 526.5631 298.164394 
L 527.757723 302.259016 
L 530.62482 309.972414 
L 531.580519 312.884532 
L 533.730841 318.810644 
L 535.403314 322.913535 
L 537.553637 326.77001 
L 537.792562 326.751833 
L 538.031486 327.146288 
L 538.270411 326.513801 
L 538.987185 325.677441 
L 539.942884 324.136679 
L 540.420734 323.452966 
L 543.526755 317.58651 
L 544.482454 315.997537 
L 544.960304 319.248196 
L 545.199228 319.21003 
L 545.438153 319.014003 
L 545.916002 319.881645 
L 546.154927 320.316214 
L 546.393852 320.368609 
L 546.871701 320.793709 
L 547.349551 320.867232 
L 547.588476 320.792393 
L 548.544174 321.004128 
L 549.022024 320.788473 
L 549.260949 320.751577 
L 549.977723 320.902355 
L 551.411271 320.58872 
L 552.36697 320.195939 
L 553.322669 320.213154 
L 554.278368 320.617242 
L 555.234067 321.359693 
L 556.667615 323.018367 
L 556.90654 320.821496 
L 557.145465 319.689128 
L 557.623314 319.651189 
L 558.579013 318.277406 
L 559.056862 317.92529 
L 559.534712 318.009188 
L 560.251486 318.4799 
L 560.729336 318.598428 
L 561.207185 319.20716 
L 561.685034 319.488727 
L 562.879658 320.030889 
L 563.596432 320.526526 
L 563.835357 320.055362 
L 564.074282 320.788606 
L 564.313206 322.045855 
L 564.552131 322.40086 
L 565.268905 322.555781 
L 565.50783 322.986626 
L 565.746755 322.879554 
L 565.985679 323.009278 
L 566.463529 323.599404 
L 566.702454 323.581295 
L 567.180303 323.732068 
L 568.136002 323.166862 
L 569.330626 322.577926 
L 570.0474 322.574617 
L 571.242023 322.685442 
L 572.197722 322.727709 
L 573.870195 323.11385 
L 574.58697 323.804238 
L 575.542669 324.953034 
L 575.781593 325.334761 
L 576.020518 326.304418 
L 576.259443 326.116426 
L 576.498367 325.442489 
L 576.737292 325.672907 
L 577.454066 327.385931 
L 577.692991 327.534545 
L 578.170841 328.539617 
L 578.64869 328.915495 
L 579.126539 329.578184 
L 579.365464 329.812512 
L 580.082238 330.974005 
L 581.993636 333.221364 
L 582.71041 333.437097 
L 582.949335 335.870257 
L 583.666109 345.06415 
L 584.143959 349.009431 
L 585.099658 354.658401 
L 586.294281 360.097668 
L 587.488905 363.747451 
L 588.205679 365.476144 
L 589.161378 367.193749 
L 592.028475 372.290559 
L 594.656647 377.767698 
L 594.895571 378.26696 
L 595.134496 376.334053 
L 595.85127 368.59064 
L 596.32912 365.432651 
L 597.284819 361.164019 
L 598.479442 357.43835 
L 599.674066 355.11211 
L 600.39084 353.60899 
L 601.824389 350.759946 
L 602.063313 349.592806 
L 602.302238 350.038027 
L 602.541163 350.191859 
L 603.019012 350.902097 
L 603.496862 352.069702 
L 604.213636 353.424072 
L 606.363958 355.960227 
L 607.319657 357.549608 
L 608.275356 359.788947 
L 610.425679 365.426421 
L 611.381378 367.65523 
L 613.053851 372.466837 
L 614.00955 375.41171 
L 614.248474 376.792767 
L 614.487399 376.533884 
L 614.965249 376.581245 
L 615.204173 376.444548 
L 615.682023 375.740772 
L 616.398797 374.917729 
L 618.07127 373.951023 
L 618.788044 373.385123 
L 620.460517 371.341919 
L 620.938367 370.687591 
L 621.177291 370.139877 
L 621.655141 370.394001 
L 621.894066 369.948745 
L 622.13299 369.796421 
L 622.61084 368.994 
L 622.849765 368.816719 
L 623.327614 369.020121 
L 623.566539 368.930297 
L 624.522238 369.370217 
L 625.716861 370.989908 
L 627.628259 374.431173 
L 631.689979 380.549324 
L 632.884603 382.656948 
L 633.362453 383.629354 
L 633.840302 383.495616 
L 634.079227 383.956207 
L 634.318151 384.134406 
L 634.796001 384.924054 
L 635.034926 385.18176 
L 635.512775 385.09184 
L 635.7517 385.179344 
L 636.707399 384.805048 
L 637.902022 383.24129 
L 639.81342 379.987534 
L 640.052345 379.677742 
L 640.530194 382.114396 
L 641.008044 385.144117 
L 642.202667 387.944295 
L 642.680517 388.61848 
L 643.158366 389.442627 
L 643.875141 390.270365 
L 645.308689 391.749193 
L 646.264388 393.388507 
L 648.89256 398.455455 
L 650.326108 401.033543 
L 652.237506 403.921572 
L 652.715355 401.534547 
L 653.193205 398.647783 
L 654.626753 396.169193 
L 657.732775 392.442965 
L 658.688474 390.444392 
L 659.166323 389.344207 
L 659.405248 389.720609 
L 659.644173 386.381514 
L 659.883097 386.881199 
L 660.122022 386.868458 
L 660.360947 387.628712 
L 660.599871 387.617689 
L 660.838796 385.402174 
L 661.316646 385.282645 
L 661.55557 384.165406 
L 661.794495 384.629831 
L 662.03342 384.234681 
L 662.272345 382.30012 
L 662.511269 382.189422 
L 662.989119 381.596223 
L 663.228043 381.672847 
L 663.466968 381.992973 
L 663.944818 378.925883 
L 664.183742 377.899135 
L 664.422667 377.411894 
L 664.661592 376.473029 
L 664.900517 376.158355 
L 665.139441 376.383901 
L 665.139441 376.383901 
" style="fill:none;stroke:#2ca02c;stroke-linecap:square;stroke-width:1.5;"/>
   </g>
   <g id="line2d_16">
    <path clip-path="url(#p041d3120b9)" d="M 110.834074 156.430083 
L 129.948053 139.155273 
L 149.062031 131.20772 
L 168.176009 126.274871 
L 187.289987 166.619344 
L 206.403965 141.848073 
L 225.517943 137.54226 
L 244.631922 152.381401 
L 263.7459 160.343887 
L 282.859878 181.709395 
L 301.973856 183.591273 
L 321.087834 178.395129 
L 340.201812 177.870436 
L 359.315791 173.432827 
L 378.429769 198.886484 
L 397.543747 212.006299 
L 416.657725 204.884186 
L 435.771703 231.31979 
L 454.885681 266.98742 
L 473.99966 262.690199 
L 493.113638 277.572008 
L 512.227616 289.66543 
L 531.341594 323.236124 
L 550.455572 323.1515 
L 569.56955 345.298062 
L 588.683529 351.606823 
L 607.797507 384.253763 
L 626.911485 385.898244 
L 646.025463 404.243892 
L 665.139441 400.276101 
" style="fill:none;stroke:#d62728;stroke-dasharray:5.55,2.4;stroke-dashoffset:0;stroke-width:1.5;"/>
   </g>
   <g id="patch_3">
    <path d="M 63.3 456.54 
L 63.3 19.08 
" style="fill:none;stroke:#000000;stroke-linecap:square;stroke-linejoin:miter;stroke-width:0.8;"/>
   </g>
   <g id="patch_4">
    <path d="M 693.798462 456.54 
L 693.798462 19.08 
" style="fill:none;stroke:#000000;stroke-linecap:square;stroke-linejoin:miter;stroke-width:0.8;"/>
   </g>
   <g id="patch_5">
    <path d="M 63.3 456.54 
L 693.798462 456.54 
" style="fill:none;stroke:#000000;stroke-linecap:square;stroke-linejoin:miter;stroke-width:0.8;"/>
   </g>
   <g id="patch_6">
    <path d="M 63.3 19.08 
L 693.798462 19.08 
" style="fill:none;stroke:#000000;stroke-linecap:square;stroke-linejoin:miter;stroke-width:0.8;"/>
   </g>
   <g id="legend_1">
    <g id="patch_7">
     <path d="M 422.539243 105.80625 
L 684.698462 105.80625 
Q 687.298462 105.80625 687.298462 103.20625 
L 687.298462 28.18 
Q 687.298462 25.58 684.698462 25.58 
L 422.539243 25.58 
Q 419.939243 25.58 419.939243 28.18 
L 419.939243 103.20625 
Q 419.939243 105.80625 422.539243 105.80625 
z
" style="fill:#ffffff;opacity:0.8;stroke:#cccccc;stroke-linejoin:miter;"/>
    </g>
    <g id="line2d_17">
     <path d="M 425.139243 36.107969 
L 451.139243 36.107969 
" style="fill:none;stroke:#1f77b4;stroke-linecap:square;stroke-width:1.5;"/>
    </g>
    <g id="line2d_18"/>
    <g id="text_15">
     <!-- run-0-adam-64-64-0.10 -->
     <g transform="translate(461.539243 40.657969)scale(0.13 -0.13)">
      <defs>
       <path d="M 313 2009 
L 1997 2009 
L 1997 1497 
L 313 1497 
L 313 2009 
z
" id="DejaVuSans-2d" transform="scale(0.015625)"/>
       <path d="M 3328 2828 
Q 3544 3216 3844 3400 
Q 4144 3584 4550 3584 
Q 5097 3584 5394 3201 
Q 5691 2819 5691 2113 
L 5691 0 
L 5113 0 
L 5113 2094 
Q 5113 2597 4934 2840 
Q 4756 3084 4391 3084 
Q 3944 3084 3684 2787 
Q 3425 2491 3425 1978 
L 3425 0 
L 2847 0 
L 2847 2094 
Q 2847 2600 2669 2842 
Q 2491 3084 2119 3084 
Q 1678 3084 1418 2786 
Q 1159 2488 1159 1978 
L 1159 0 
L 581 0 
L 581 3500 
L 1159 3500 
L 1159 2956 
Q 1356 3278 1631 3431 
Q 1906 3584 2284 3584 
Q 2666 3584 2933 3390 
Q 3200 3197 3328 2828 
z
" id="DejaVuSans-6d" transform="scale(0.015625)"/>
      </defs>
      <use xlink:href="#DejaVuSans-72"/>
      <use x="41.113281" xlink:href="#DejaVuSans-75"/>
      <use x="104.492188" xlink:href="#DejaVuSans-6e"/>
      <use x="167.871094" xlink:href="#DejaVuSans-2d"/>
      <use x="203.955078" xlink:href="#DejaVuSans-30"/>
      <use x="267.578125" xlink:href="#DejaVuSans-2d"/>
      <use x="303.662109" xlink:href="#DejaVuSans-61"/>
      <use x="364.941406" xlink:href="#DejaVuSans-64"/>
      <use x="428.417969" xlink:href="#DejaVuSans-61"/>
      <use x="489.697266" xlink:href="#DejaVuSans-6d"/>
      <use x="587.109375" xlink:href="#DejaVuSans-2d"/>
      <use x="623.193359" xlink:href="#DejaVuSans-36"/>
      <use x="686.816406" xlink:href="#DejaVuSans-34"/>
      <use x="750.439453" xlink:href="#DejaVuSans-2d"/>
      <use x="786.523438" xlink:href="#DejaVuSans-36"/>
      <use x="850.146484" xlink:href="#DejaVuSans-34"/>
      <use x="913.769531" xlink:href="#DejaVuSans-2d"/>
      <use x="949.853516" xlink:href="#DejaVuSans-30"/>
      <use x="1013.476562" xlink:href="#DejaVuSans-2e"/>
      <use x="1045.263672" xlink:href="#DejaVuSans-31"/>
      <use x="1108.886719" xlink:href="#DejaVuSans-30"/>
     </g>
    </g>
    <g id="line2d_19">
     <path d="M 425.139243 55.189531 
L 451.139243 55.189531 
" style="fill:none;stroke:#ff7f0e;stroke-dasharray:5.55,2.4;stroke-dashoffset:0;stroke-width:1.5;"/>
    </g>
    <g id="line2d_20"/>
    <g id="text_16">
     <!-- run-0-adam-64-64-0.10 validation -->
     <g transform="translate(461.539243 59.739531)scale(0.13 -0.13)">
      <defs>
       <path d="M 191 3500 
L 800 3500 
L 1894 563 
L 2988 3500 
L 3597 3500 
L 2284 0 
L 1503 0 
L 191 3500 
z
" id="DejaVuSans-76" transform="scale(0.015625)"/>
       <path d="M 603 4863 
L 1178 4863 
L 1178 0 
L 603 0 
L 603 4863 
z
" id="DejaVuSans-6c" transform="scale(0.015625)"/>
       <path d="M 603 3500 
L 1178 3500 
L 1178 0 
L 603 0 
L 603 3500 
z
M 603 4863 
L 1178 4863 
L 1178 4134 
L 603 4134 
L 603 4863 
z
" id="DejaVuSans-69" transform="scale(0.015625)"/>
      </defs>
      <use xlink:href="#DejaVuSans-72"/>
      <use x="41.113281" xlink:href="#DejaVuSans-75"/>
      <use x="104.492188" xlink:href="#DejaVuSans-6e"/>
      <use x="167.871094" xlink:href="#DejaVuSans-2d"/>
      <use x="203.955078" xlink:href="#DejaVuSans-30"/>
      <use x="267.578125" xlink:href="#DejaVuSans-2d"/>
      <use x="303.662109" xlink:href="#DejaVuSans-61"/>
      <use x="364.941406" xlink:href="#DejaVuSans-64"/>
      <use x="428.417969" xlink:href="#DejaVuSans-61"/>
      <use x="489.697266" xlink:href="#DejaVuSans-6d"/>
      <use x="587.109375" xlink:href="#DejaVuSans-2d"/>
      <use x="623.193359" xlink:href="#DejaVuSans-36"/>
      <use x="686.816406" xlink:href="#DejaVuSans-34"/>
      <use x="750.439453" xlink:href="#DejaVuSans-2d"/>
      <use x="786.523438" xlink:href="#DejaVuSans-36"/>
      <use x="850.146484" xlink:href="#DejaVuSans-34"/>
      <use x="913.769531" xlink:href="#DejaVuSans-2d"/>
      <use x="949.853516" xlink:href="#DejaVuSans-30"/>
      <use x="1013.476562" xlink:href="#DejaVuSans-2e"/>
      <use x="1045.263672" xlink:href="#DejaVuSans-31"/>
      <use x="1108.886719" xlink:href="#DejaVuSans-30"/>
      <use x="1172.509766" xlink:href="#DejaVuSans-20"/>
      <use x="1204.296875" xlink:href="#DejaVuSans-76"/>
      <use x="1263.476562" xlink:href="#DejaVuSans-61"/>
      <use x="1324.755859" xlink:href="#DejaVuSans-6c"/>
      <use x="1352.539062" xlink:href="#DejaVuSans-69"/>
      <use x="1380.322266" xlink:href="#DejaVuSans-64"/>
      <use x="1443.798828" xlink:href="#DejaVuSans-61"/>
      <use x="1505.078125" xlink:href="#DejaVuSans-74"/>
      <use x="1544.287109" xlink:href="#DejaVuSans-69"/>
      <use x="1572.070312" xlink:href="#DejaVuSans-6f"/>
      <use x="1633.251953" xlink:href="#DejaVuSans-6e"/>
     </g>
    </g>
    <g id="line2d_21">
     <path d="M 425.139243 74.271094 
L 451.139243 74.271094 
" style="fill:none;stroke:#2ca02c;stroke-linecap:square;stroke-width:1.5;"/>
    </g>
    <g id="line2d_22"/>
    <g id="text_17">
     <!-- run-1-adam-64-64-0.15 -->
     <g transform="translate(461.539243 78.821094)scale(0.13 -0.13)">
      <use xlink:href="#DejaVuSans-72"/>
      <use x="41.113281" xlink:href="#DejaVuSans-75"/>
      <use x="104.492188" xlink:href="#DejaVuSans-6e"/>
      <use x="167.871094" xlink:href="#DejaVuSans-2d"/>
      <use x="203.955078" xlink:href="#DejaVuSans-31"/>
      <use x="267.578125" xlink:href="#DejaVuSans-2d"/>
      <use x="303.662109" xlink:href="#DejaVuSans-61"/>
      <use x="364.941406" xlink:href="#DejaVuSans-64"/>
      <use x="428.417969" xlink:href="#DejaVuSans-61"/>
      <use x="489.697266" xlink:href="#DejaVuSans-6d"/>
      <use x="587.109375" xlink:href="#DejaVuSans-2d"/>
      <use x="623.193359" xlink:href="#DejaVuSans-36"/>
      <use x="686.816406" xlink:href="#DejaVuSans-34"/>
      <use x="750.439453" xlink:href="#DejaVuSans-2d"/>
      <use x="786.523438" xlink:href="#DejaVuSans-36"/>
      <use x="850.146484" xlink:href="#DejaVuSans-34"/>
      <use x="913.769531" xlink:href="#DejaVuSans-2d"/>
      <use x="949.853516" xlink:href="#DejaVuSans-30"/>
      <use x="1013.476562" xlink:href="#DejaVuSans-2e"/>
      <use x="1045.263672" xlink:href="#DejaVuSans-31"/>
      <use x="1108.886719" xlink:href="#DejaVuSans-35"/>
     </g>
    </g>
    <g id="line2d_23">
     <path d="M 425.139243 93.352656 
L 451.139243 93.352656 
" style="fill:none;stroke:#d62728;stroke-dasharray:5.55,2.4;stroke-dashoffset:0;stroke-width:1.5;"/>
    </g>
    <g id="line2d_24"/>
    <g id="text_18">
     <!-- run-1-adam-64-64-0.15 validation -->
     <g transform="translate(461.539243 97.902656)scale(0.13 -0.13)">
      <use xlink:href="#DejaVuSans-72"/>
      <use x="41.113281" xlink:href="#DejaVuSans-75"/>
      <use x="104.492188" xlink:href="#DejaVuSans-6e"/>
      <use x="167.871094" xlink:href="#DejaVuSans-2d"/>
      <use x="203.955078" xlink:href="#DejaVuSans-31"/>
      <use x="267.578125" xlink:href="#DejaVuSans-2d"/>
      <use x="303.662109" xlink:href="#DejaVuSans-61"/>
      <use x="364.941406" xlink:href="#DejaVuSans-64"/>
      <use x="428.417969" xlink:href="#DejaVuSans-61"/>
      <use x="489.697266" xlink:href="#DejaVuSans-6d"/>
      <use x="587.109375" xlink:href="#DejaVuSans-2d"/>
      <use x="623.193359" xlink:href="#DejaVuSans-36"/>
      <use x="686.816406" xlink:href="#DejaVuSans-34"/>
      <use x="750.439453" xlink:href="#DejaVuSans-2d"/>
      <use x="786.523438" xlink:href="#DejaVuSans-36"/>
      <use x="850.146484" xlink:href="#DejaVuSans-34"/>
      <use x="913.769531" xlink:href="#DejaVuSans-2d"/>
      <use x="949.853516" xlink:href="#DejaVuSans-30"/>
      <use x="1013.476562" xlink:href="#DejaVuSans-2e"/>
      <use x="1045.263672" xlink:href="#DejaVuSans-31"/>
      <use x="1108.886719" xlink:href="#DejaVuSans-35"/>
      <use x="1172.509766" xlink:href="#DejaVuSans-20"/>
      <use x="1204.296875" xlink:href="#DejaVuSans-76"/>
      <use x="1263.476562" xlink:href="#DejaVuSans-61"/>
      <use x="1324.755859" xlink:href="#DejaVuSans-6c"/>
      <use x="1352.539062" xlink:href="#DejaVuSans-69"/>
      <use x="1380.322266" xlink:href="#DejaVuSans-64"/>
      <use x="1443.798828" xlink:href="#DejaVuSans-61"/>
      <use x="1505.078125" xlink:href="#DejaVuSans-74"/>
      <use x="1544.287109" xlink:href="#DejaVuSans-69"/>
      <use x="1572.070312" xlink:href="#DejaVuSans-6f"/>
      <use x="1633.251953" xlink:href="#DejaVuSans-6e"/>
     </g>
    </g>
   </g>
  </g>
 </g>
 <defs>
  <clipPath id="p041d3120b9">
   <rect height="437.46" width="630.498462" x="63.3" y="19.08"/>
  </clipPath>
 </defs>
</svg>
